<svg xmlns="http://www.w3.org/2000/svg" fill="none" viewBox="0 0 60 60"><rect width="59.2" height="59.2" x=".4" y=".4" fill="#fff" rx="29.6"/><rect width="59.2" height="59.2" x=".4" y=".4" stroke="#f5f5f5" stroke-width=".8" rx="29.6"/><path fill="#0092d0" d="M33.037 17.482c0-.122 1.035-2.117 2.302-4.437 1.267-2.319 2.374-4.216 2.46-4.216s.193.177.239.395.168.87.27 1.45.223 1.073.269 1.098c.044.024.457-.514.915-1.193.459-.68.905-1.214.993-1.186.086.028.128.683.095 1.456s-.065 1.88-.07 2.46c-.006.924.037 1.06.344 1.102.193.024 1.063.662 1.933 1.417 1.147.995 1.618 1.524 1.713 1.93.12.51.356.67 2.767 1.876 1.45.724 2.676 1.397 2.723 1.493.048.097-.08.512-.288.923-.207.41-.94 1.321-1.625 2.026-1.109 1.135-1.31 1.268-1.776 1.192-.29-.047-1.654-.128-5.535-.275l-.002.746c0 .412-.276 3.435-.61 6.72-.597 5.87-.604 6.046-.439 10.103.094 2.272.21 4.426.259 4.788.08.596.14.659.616.659.29 0 .657.139.817.307.16.169.596.763.967 1.318.372.555.676 1.09.676 1.186 0 .109-1.054.176-5.622.176l-2.495-7.643-4.366 4.392.84.055c.522.035.97.18 1.19.388.192.184.628.847.966 1.472.337.626.574 1.18.527 1.227-.048.049-3.982.133-17.394.284l-6.677-3.338-.014-7.16c-.007-3.937-.007-7.712 0-8.389.01-.676.056-1.268.106-1.318.049-.049.163-.008.254.088.092.097 1.583 3.101 3.316 6.677s3.219 6.485 3.301 6.465c.085-.02.357-1.205 1.056-5.235l1.061-1.494c.585-.822 2.404-3.39 4.045-5.71 1.64-2.32 4.164-5.917 5.61-7.994a504 504 0 0 1 3.457-4.92c.457-.627.828-1.24.826-1.361"/><path fill="#fff" fill-rule="evenodd" d="M35.395 25.548c.575.516 1.76 1.55 2.636 2.296.877.747 1.644 1.3 1.708 1.23.063-.07.17-.998.237-2.06l.123-1.933c-2.41-.211-3.702-.319-4.428-.371l-1.318-.1z" clip-rule="evenodd"/><path fill="#f5f5f5" d="m33.79 17.35 1.843-3.463c1.563-2.938 1.865-3.405 1.988-3.075.081.213.46 2.088.846 4.166.384 2.077.92 4.98 1.193 6.448.27 1.469.453 2.71.404 2.755-.048.047-1.524-.009-3.279-.123s-3.236-.248-3.292-.295c-.055-.05-.01-1.511.296-6.413M38.87 13.204c-.034-.415.097-.826.43-1.345.263-.41.523-.746.577-.746.055 0 .04.653-.03 1.45s-.172 1.487-.228 1.537c-.054.049-.235 0-.399-.106-.165-.107-.321-.462-.35-.79M40.027 19.699c-.454-2.451-.83-4.556-.835-4.677-.003-.121.192-.22.432-.22.243 0 .696.11 1.01.241.315.132 1.113.745 1.773 1.362.661.616 1.332 1.396 1.494 1.735.225.473.597.777 1.618 1.318.73.387 1.451.782 1.602.879.153.096.53.69 1.402 2.46l-1.87 1.86-2.548-.121c-1.4-.067-2.706-.178-2.9-.25-.305-.112-.458-.704-1.178-4.587"/><path fill="#f5f5f5" d="M31.532 20.952c.372-.533.836-1.188 1.033-1.46.195-.271.388-.468.43-.436.04.031-.024 1.202-.36 5.146l.689.615c.38.339 1.75 1.525 3.047 2.635l3.382 2.9-.882 8.081.26 5.008c.175 3.348.328 5.05.465 5.135.113.072.482.132.819.134.532.005.692.116 1.767 1.67l-2.07.046c-1.138.025-2.118-.015-2.178-.087-.061-.074-.759-2.151-1.553-4.614a915 915 0 0 0-3.553-10.718c-1.16-3.431-2.46-7.245-3.658-10.717l.842-1.186c.464-.652 1.147-1.622 1.52-2.152M48.717 21.56c-.122-.238-.215-.475-.21-.527s.17-.01.363.094.346.304.34.447c-.005.14-.07.293-.142.337s-.23-.114-.351-.352M24.165 31.493c1.27-1.786 2.81-3.984 3.424-4.88.613-.898 1.13-1.61 1.146-1.582.016.027 1.367 4.022 5.97 17.707l-3.447 3.426.465-1.054c.257-.58.5-1.153.54-1.274.038-.121-.76-1.564-3.62-6.193l-1.01.1c-.555.054-2.63.242-4.612.418-1.98.176-3.621.288-3.646.251-.022-.037.526-.876 1.22-1.867.696-.991 2.301-3.263 3.57-5.052M10.59 47.134c-.022-.002-.045-3.224-.047-7.163s.032-7.12.078-7.072c.045.05 1.317 2.658 5.567 11.508l-.398.264c-.22.145-1.471.76-2.778 1.365-1.307.606-2.397 1.101-2.421 1.098"/><path fill="#f5f5f5" d="M21.617 38.978c1.594-.16 3.57-.357 4.393-.437.82-.081 1.67-.159 1.888-.17.33-.02.661.417 3.625 5.333l-.277.703c-.153.387-.71 1.771-1.24 3.075a289 289 0 0 0-1.075 2.68c-.103.284-.555.306-6.084.306-4.663 0-5.974-.047-5.974-.22 0-.118.4-2.63.888-5.577.486-2.947.901-5.368.92-5.38.021-.012 1.341-.153 2.936-.313M12.92 46.865a288 288 0 0 0 2.797-1.297c.573-.27 1.074-.47 1.113-.444.04.026-.072 1.091-.25 2.365-.177 1.275-.362 2.38-.41 2.456-.048.074-1.194-.408-5.007-2.279zM29.942 49.46c.297-.734.462-.931.811-.968.241-.026.67-.007.951.042.378.067.64.308 1.01.924.274.46.448.879.389.93-.062.052-.88.072-3.532-.007z"/></svg>