<svg xmlns="http://www.w3.org/2000/svg" fill="none" viewBox="0 0 60 60"><rect width="59.2" height="59.2" x=".4" y=".4" fill="#fff" rx="29.6"/><rect width="59.2" height="59.2" x=".4" y=".4" stroke="#f5f5f5" stroke-width=".8" rx="29.6"/><path fill="#0092d0" d="M42.045 13.968c0-.31.155-.886.346-1.282.194-.405.458-.72.6-.723.15-.001.895.943 1.805 2.284l3.347 4.928c.987 1.453 1.823 2.734 1.855 2.844s-.363.904-.878 1.763c-.514.858-1.357 2.283-2.812 4.766l.444 3.605c.244 1.982.763 6.002 1.152 8.933.391 2.93.71 5.471.71 5.648 0 .298-.093.317-2.644.24l-.32-3.038-1.482-.844c-.816-.465-1.537-.817-1.603-.785-.065.032-.679 1.041-2.603 4.427l-1.202.04c-.662.022-1.286.04-1.389.04s-.21-.09-.24-.2.343-.67.828-1.242.883-1.06.884-1.082c.004-.022-.645-1.392-2.887-6.048l-1.963 1.179c-1.08.649-4.72 2.849-14.22 8.594l-1.722.02c-1.152.012-1.735-.042-1.762-.16-.023-.1.277-.558.663-1.021.676-.808.743-.846 1.722-.965.561-.069 1.07-.176 1.13-.24s.256-.659.436-1.319c.18-.661.293-1.22.25-1.241-.042-.023-.67.258-1.397.623-.728.365-2.421 1.266-6.209 3.342h-1.202c-.854 0-1.201-.058-1.203-.2 0-.11.306-.547.681-.97.604-.679.775-.777 1.484-.854.745-.081.835-.139 1.272-.834.258-.41 1.285-1.846 2.283-3.19.997-1.345 1.812-2.479 1.812-2.524s-.126-.078-.28-.077c-.154 0-.748.292-2.364 1.288l-1.442-.16c-1.123-.123-1.504-.23-1.722-.485a1.7 1.7 0 0 0-.702-.446c-.235-.067-.657-.453-.961-.881-.296-.418-.54-.833-.54-.921s.253-.755.562-1.482c.311-.728.563-1.538.561-1.803-.003-.264.12-.662.273-.881.15-.221.44-.582.642-.801.202-.221.364-.473.36-.561-.003-.088-.25-.953-.549-1.923-.298-.969-.494-1.821-.434-1.893.059-.073.503.064.988.3.484.24 1.44.749 2.123 1.134s1.314.7 1.402.7.521-.721.962-1.602.855-1.603.92-1.604c.067 0 .571.902 1.123 2.002.604 1.21 1.081 1.98 1.201 1.945.11-.032 1.642-.506 3.405-1.054l6.81-2.118 5.687-1.77 3.846.966c2.115.532 3.9.937 3.965.899.066-.037.088-.194.048-.348-.038-.154-.222-1.327-.408-2.604s-.587-3.999-.89-6.048-.552-3.979-.552-4.286"/><path fill="#fff" d="M42.794 14.896c-.095-.797-.074-1.209.08-1.539.115-.246.255-.39.309-.32.054.072.47.689 1.745 2.613l-.601.085c-.33.048-.78.123-1.001.167-.387.078-.406.043-.532-1.006M16.496 30.296c.005-.08.255-.658.555-1.285s.56-1.13.581-1.121c.02.01.274.754.567 1.656.499 1.537.511 1.633.212 1.539-.176-.055-.681-.223-1.122-.372-.44-.15-.798-.338-.793-.417M20.375 31.134c-.024-.146.542-.404 1.723-.785.967-.31 1.813-.573 1.88-.583a.103.103 0 0 1 .12.104c-.002.066-.534 2.067-1.185 4.446-.65 2.38-1.3 4.741-1.442 5.248-.23.828-.285.902-.537.722-.155-.11-.75-.649-1.322-1.197-.911-.871-1-1.01-.72-1.097.176-.055.517-.184.757-.285.305-.129.462-.334.513-.667.042-.264.194-1.525.341-2.804.199-1.732.221-2.394.088-2.603a1.7 1.7 0 0 1-.216-.499"/><path fill="#f5f5f5" d="M43.003 16.892c-.002-.112.367-.28.841-.383.465-.1 1.026-.173 1.245-.16.327.017.711.474 2.11 2.506.94 1.366 1.82 2.663 1.953 2.884.242.399.23.413-2.19 2.589-1.34 1.203-2.469 2.15-2.514 2.105-.043-.046-.135-.453-.2-.907l-.681-4.628c-.31-2.093-.562-3.895-.564-4.006M45.542 26.467c.588-.529 1.43-1.303 1.87-1.72s.819-.76.84-.762c.02-.002-.092.23-.25.518-.16.286-.67 1.17-1.977 3.404l-1.55-.48zM27.437 28.966c-.038-.16 1.07-.583 4.022-1.533 2.24-.72 4.14-1.283 4.222-1.25.088.036.142 2.394.117 11.498l-1.912 1.122c-1.053.616-1.947 1.049-1.987.96-.041-.087-1.05-2.502-2.241-5.367-1.192-2.863-2.192-5.306-2.22-5.43M36.334 32.13c-.012-3.116-.004-5.748.018-5.85.029-.127 1.525.184 4.613.96 2.512.632 4.613 1.185 4.665 1.228.052.045.207 1.018.343 2.163.138 1.146.572 4.552.965 7.57.392 3.02.715 5.633.715 5.809 0 .287-.145.242-1.402-.434-.771-.415-3.312-1.888-9.894-5.785zM12.825 30.711c-.035-.043-.21-.602-.386-1.241-.178-.64-.276-1.162-.22-1.162s.824.396 1.707.878c.88.482 1.566.888 1.522.902-.044.013-.537.032-1.095.043-.818.016-1.057.082-1.24.34-.123.176-.253.285-.288.24M24.954 29.478c.014-.018.315-.138.668-.27.352-.13.75-.243.881-.251.16-.011.453.51.87 1.55.346.861 1.392 3.412 4.017 9.768l-1.923 1.173c-1.057.644-3.562 2.17-5.568 3.389-2.004 1.219-3.68 2.2-3.725 2.177-.043-.022.385-1.662.952-3.645a712 712 0 0 0 2.416-8.732c.76-2.82 1.396-5.142 1.412-5.16M12.564 31.963c.483-.556.926-1.047.983-1.091.058-.044.351-.1.652-.125.3-.024.561-.007.577.04.018.046-.772 1.185-1.754 2.528-.98 1.344-1.884 2.552-2.006 2.684s-.005-.265.26-.882c.262-.616.552-1.102.643-1.081s.166-.122.167-.32-.088-.446-.2-.552c-.162-.154-.024-.397.678-1.201M11.412 36.56l2.058-2.845c1.132-1.563 2.167-2.844 2.298-2.844s1.14.345 2.243.765 2.001.833 2 .921c-.003.087-.1 1.022-.215 2.08-.115 1.057-.256 2.057-.316 2.219-.062.173-.54.468-1.148.708-.917.362-1.359.423-3.686.508-1.453.053-2.678.075-2.723.051-.043-.025.083-.261.28-.524.199-.262.36-.586.36-.72 0-.16-.187-.252-1.151-.32"/><path fill="#f5f5f5" d="M11.57 37.56c-.166.161-.27.137-.527-.124l-.32-.325.52.004c.286.004.524.06.527.125.005.068-.086.212-.2.32M14.087 39.006c-.528-.087-1.012-.205-1.073-.261-.063-.056.533-.12 1.322-.143.788-.02 1.435.015 1.438.08.002.068-.16.202-.36.302-.261.13-.643.136-1.327.022M14.616 44.25c.394-.617 1.43-2.076 2.3-3.244l1.582-2.123 1.28 1.281c1.101 1.106 1.26 1.334 1.146 1.643-.09.243-.73.674-1.963 1.323a574 574 0 0 0-3.552 1.883c-1.22.65-1.692.838-1.617.64.058-.155.43-.786.824-1.403M38 41.206c-.441-.881-.855-1.766-.919-1.964-.119-.36-.115-.362.38-.095.275.147 1.256.734 2.182 1.301l2.043 1.256c.245.152.314.289.216.423-.08.11-.545.958-1.033 1.883-.71 1.343-.912 1.618-1 1.362-.061-.176-.327-.825-.59-1.442A64 64 0 0 0 38 41.206M46.435 46.413c-.04-.043-.063-.533-.051-1.09.01-.555.084-.97.165-.92.078.047.432.52 1.426 2.01l-.734.04c-.404.023-.768.005-.806-.04M38.323 46.224c-.244-.045-.228-.114.131-.572.224-.285.476-.52.558-.52s.21.235.282.52c.122.48.099.526-.28.572a3 3 0 0 1-.691 0M11.364 46.423l.387-.406c.213-.222.537-.407.721-.408.183-.003.385.051.449.12.064.067.045.25-.04.404-.11.198-.357.282-1.517.29M17.316 47.334c.056-.109.248-.362.426-.56.252-.28.498-.36 1.1-.36.424 0 .773.071.773.16 0 .087-.091.342-.2.565-.183.37-.289.405-1.202.4-.75-.003-.976-.054-.897-.205"/><path fill="#0092d0" d="M13.974 34.089c-.02-.287.057-.498.2-.548a2 2 0 0 1 .433-.093c.11-.007.362.07.56.171s.407.263.463.36c.058.097.058.305 0 .46-.056.158-.283.352-.503.43a.78.78 0 0 1-.76-.083.9.9 0 0 1-.393-.697"/></svg>