<svg xmlns="http://www.w3.org/2000/svg" fill="none" viewBox="0 0 60 60"><rect width="59.2" height="59.2" x=".4" y=".4" fill="#fff" rx="29.6"/><rect width="59.2" height="59.2" x=".4" y=".4" stroke="#f5f5f5" stroke-width=".8" rx="29.6"/><path fill="#0092d0" d="M35.922 21.222c.76 0 1.472-.054 1.583-.118.109-.064.875-.086 3.204.017l1.986 1.867.142 3.244 2.926 2.142a402 402 0 0 0 3.582 2.603c.53.373.655.542.655.886s-.103.485-.532.732c-.292.169-.851.542-1.95 1.356l-8.653.353-1.135 1.083.728.969c.401.533.835 1.063.965 1.181.129.118.232.292.228.39-.004.12-.26.178-.786.178-.428 0-.956-.09-1.17-.2a2.9 2.9 0 0 1-.674-.5c-.156-.166-.315-.3-.355-.298-.038.003-.055.42-.035.927s-.013.919-.07.916c-.06-.004-.65-.5-1.313-1.104a78 78 0 0 0-2.092-1.838c-.778-.65-.887-.801-.887-1.733h-1.844l-2.553 2.553.638.922c.352.508.639.953.639.993 0 .038-.75.072-3.334.074L23.83 36.83l-6.525.005-3.378-3.625-.024-.922c-.013-.508-.033-1.975-.063-5.603l-1.814-2.39c-.997-1.315-1.877-2.477-1.955-2.582s-.093-.242-.034-.305c.06-.062.251-.04.426.049.174.087 1.323.997 2.552 2.02 1.228 1.023 2.295 2.004 2.368 2.18.074.175.4 1.85.725 3.723s.616 3.484.646 3.582.454.435 1.828 1.325l2.837-.084.142-5.745 4.248-4.255h6.32l-.005-.39c-.003-.312.24-.612 2.416-2.59z"/><path fill="#fff" d="m32.687 23.707 1.031-.952 1.033-.953 2.553-.007 1.702 1.69-.07 5.258h-4.114l-2.137-2.057z"/><path fill="#f5f5f5" d="M39.642 23.849c.002-.506-.092-.661-.884-1.455l-.885-.887 2.696.01 1.764 1.765.004 1.24c.003.954-.037 1.22-.173 1.144-.098-.055-.465-.31-.815-.564-.352-.257-.88-.515-1.173-.575-.513-.105-.535-.135-.534-.678M32.595 24.699c-.04-.863-.005-1.034.264-1.312.17-.175.34-.32.379-.32s-.068.145-.234.32c-.241.255-.31.52-.365 2.305zM14.239 26.153c-.087-.019-.597-.626-1.135-1.348-.537-.72-.944-1.312-.906-1.312.04 0 .325.208.635.46.31.255.518.526.461.602-.056.078-.038.1.04.049.078-.05.421.141.762.427.557.466.604.553.46.838-.087.176-.23.303-.317.284M38.937 28.741v-2.553c0-1.404.031-2.553.071-2.553.038 0 .071 1.181.071 5.248h-2.128c-1.17 0-2.154-.047-2.185-.106s.893-.09 4.171-.036"/><path fill="#f5f5f5" d="m24.487 26.259.734-.745.733-.744h6.175l.001 2.198 2.34 2.343 4.61-.002-.036 2.116c-.02 1.163-.069 2.152-.107 2.197-.04.044-1.603.1-3.475.125s-3.596.008-3.83-.034c-.27-.048-.425-.163-.425-.31 0-.13-1.512-1.79-6.72-7.144M39.505 31.188c0-1.384.04-3.33.092-4.326.082-1.633.116-1.809.353-1.809.145 0 .758.332 1.363.736.604.405 2.36 1.681 6.702 4.938l.005 1.1c.002.877-.047 1.145-.249 1.331-.204.188-.834.261-3.302.39-1.678.087-3.48.16-4.964.158zM14.377 29.533c-.029-2.572-.008-2.849.228-3.085.143-.142.312-.26.377-.26.064 0 .247.783.406 1.738.159.956.322 1.993.362 2.305.066.524.02.627-1.344 2.127zM21.85 28.82l1.094-1.086 1.094-1.085 3.23 3.26c1.776 1.793 3.23 3.306 3.23 3.363s-1.038 1.184-4.61 4.902l-3.974-3.972zM48.69 32.43c-.06 0-.107-.287-.107-.638s.031-.638.07-.638.272.143.964.638l-.411.318c-.226.176-.459.32-.517.32M14.717 33.236c-.152-.204-.082-.35.47-.998.577-.674.665-.73.781-.497.072.145.153.599.18 1.009.044.658.098.769.467.957.228.117.746.404 1.15.639.575.332.707.47.602.638-.073.116-.32.435-.96 1.206l-.76-.851a52 52 0 0 0-1.256-1.358 10 10 0 0 1-.674-.745M32.802 34.902a.56.56 0 0 1-.024-.415c.07-.178.497-.212 2.624-.212 1.398 0 2.542.03 2.542.07 0 .039-.417.534-.925 1.1-.863.962-.923 1.07-.919 2.376l-.474-.39c-.259-.216-.977-.827-1.595-1.36-.617-.532-1.17-1.059-1.229-1.17M18.086 36.26l.597-.78.597-.78 2.423-.004 1.56 1.567z"/><path fill="#f5f5f5" d="m36.739 36.551.347-.36c.19-.199.387-.312.436-.253.05.06.322.429.604.819.284.39.519.756.522.816.003.058-.234.044-.526-.033-.294-.075-.724-.33-1.383-.989M26.384 38.393l.567-.576.568-.576.385.468c.213.256.39.513.39.573.002.058-.426.106-1.91.11"/><path fill="#fff" d="M42.269 29.665c-.039-.196 0-.45.086-.568.087-.117.295-.215.461-.218a.67.67 0 0 1 .481.213c.098.119.146.377.107.573-.039.194-.184.388-.32.43-.136.04-.36.04-.496 0-.136-.042-.28-.236-.32-.43"/><path fill="#0092d0" d="M41.795 28.991c.091-.176.267-.397.39-.492.125-.095.402-.175.616-.177s.55.139.745.314c.195.176.387.527.425.78.058.376-.008.54-.354.887-.35.35-.508.411-.887.349-.254-.043-.574-.186-.712-.32-.138-.133-.28-.418-.32-.632a1.3 1.3 0 0 1 .097-.709"/></svg>