<svg xmlns="http://www.w3.org/2000/svg" fill="none" viewBox="0 0 60 60"><rect width="59.2" height="59.2" x=".4" y=".4" fill="#fff" rx="29.6"/><rect width="59.2" height="59.2" x=".4" y=".4" stroke="#f5f5f5" stroke-width=".8" rx="29.6"/><path fill="#0092d0" d="M21.343 20.855c-.322-1.97-.585-3.683-.585-3.804 0-.123.066-.221.147-.221.082 0 .572.316 1.09.701.519.386 2.729 2.006 4.912 3.6s4.041 2.99 4.13 3.102.315.635.502 1.164c.19.527.399 1.026.468 1.108.079.093.331-.058.678-.402.488-.485 1.516-.928 8.604-3.71 4.427-1.74 8.2-3.203 8.383-3.255q.33-.09.328.092c-.003.102-.647 1.081-1.431 2.178-.785 1.096-2.956 4.088-4.825 6.647a1160 1160 0 0 1-4.332 5.909c-.515.69-.935 1.338-.934 1.44.003.102 1.584 1.072 3.513 2.158a953 953 0 0 0 4.287 2.4c.48.263.762.511.735.649-.034.183-.314.216-1.627.184-.872-.02-1.584.014-1.584.074.002.06.716.517 1.588 1.015s1.586.996 1.586 1.108c0 .14-.16.195-.517.174-.285-.017-2.112-.267-4.062-.557-1.95-.288-4.51-.664-5.687-.834-2.016-.293-2.25-.36-3.988-1.185-1.016-.48-1.947-.871-2.068-.87-.122.003-1.817.43-3.766.949-1.95.52-3.585.902-3.633.849-.048-.052-1.293-3.185-2.768-6.963s-2.942-7.501-3.84-9.675l-1.158.035c-.637.02-2.121.173-3.299.341-1.178.17-2.158.27-2.178.225-.02-.047-.014-.135.016-.195.031-.06 1.044-.67 2.253-1.35 1.21-.683 2.497-1.436 3.528-2.112l3.197.988 1.725 2.756c.948 1.517 1.742 2.746 1.762 2.733.021-.014-.099-.888-.264-1.944a845 845 0 0 0-.886-5.502"/><path fill="#f5f5f5" d="M22.005 21.556a192 192 0 0 0-.588-3.36c-.041-.182-.04-.333.003-.333s1.456 1.01 3.143 2.24c1.686 1.232 3.75 2.744 4.588 3.36 1.32.972 1.554 1.211 1.76 1.786.13.366.326.898.437 1.182.11.285.2.617.2.738 0 .123-.218.436-.966 1.172l-1.07-.585c-.59-.322-1.172-.587-1.293-.587-.123 0-.803.774-1.514 1.72-.712.945-1.46 1.914-2.031 2.59l-.697-1.01c-.69-1.003-.697-1.026-1.077-3.447-.211-1.34-.613-3.8-.895-5.466M40.848 23.162c4.102-1.623 7.486-2.98 7.52-3.016s.146-.067.25-.067c.12 0 .066.171-.15.48-.185.265-.759 1.078-1.276 1.81-.517.73-2.308 3.19-3.982 5.465l-4.659 6.338c-.89 1.212-1.684 2.226-1.765 2.257s-2.242-.174-4.8-.455c-2.56-.282-5.136-.55-6.795-.68l1.493-1.662 3.213-3.562a217 217 0 0 0 3.492-3.958zM16.34 23.364c-.17-.425-.307-.808-.307-.85 0-.039.049-.073.11-.073s.527.15 1.035.332c.508.184.921.367.918.407-.003.041-.304.307-.669.59-.364.286-.69.485-.722.444-.031-.04-.195-.423-.365-.85M12.163 24.632c.056-.055.8-.503 1.654-.995.853-.491 1.6-.895 1.662-.896.06-.003.2.312.313.697.112.387.173.736.135.776-.039.041-.925.174-1.97.295-1.042.123-1.85.177-1.794.123M17.216 24.73l.678-.627c.374-.344.722-.626.776-.626.051.001.56.737 1.13 1.635.568.898 1.813 2.825 2.77 4.282 1.346 2.056 1.705 2.707 1.602 2.907-.073.143-.272 1.688-.445 3.434-.171 1.747-.351 3.442-.399 3.767-.08.556-.181.348-1.675-3.471-.873-2.234-2.229-5.69-4.437-11.3"/><path fill="#f5f5f5" d="M26.884 29.592c.084-.089.42-.534.744-.99.325-.455.607-.832.628-.836.02-.003.468.226 1.957 1.028l-1.883 2.1a150 150 0 0 1-3.894 4.178l.209-2.511 1.042-1.404c.573-.772 1.111-1.477 1.197-1.565M24.034 38.398c.178-1.338.33-2.47.34-2.515s1.612.068 3.557.25c1.945.181 4.611.448 5.923.593 1.313.146 2.42.309 2.46.362s-.282.784-.718 1.625c-.435.84-.888 1.662-1.006 1.824-.21.288-.251.276-1.926-.554-.943-.468-1.829-.85-1.97-.85-.144 0-1.157.24-2.253.531-1.098.291-2.593.694-3.324.895s-1.347.346-1.368.32c-.02-.026.108-1.142.285-2.48M36.368 38.58c.46-.874 1.036-1.84 1.278-2.148.439-.56.44-.56.824-.3.211.145 1.813 1.074 3.56 2.067 1.746.992 3.275 1.871 3.397 1.953.148.097-1.438.149-4.837.155-2.783.004-5.06-.025-5.06-.065 0-.042.377-.79.838-1.662M40.432 41.762c-2.656-.383-4.96-.723-5.123-.757-.162-.032 1.399-.07 7.238-.105l1.256.675c.69.371 1.3.721 1.355.777.055.058-2.072-.208-4.726-.59"/></svg>