<svg xmlns="http://www.w3.org/2000/svg" fill="none" viewBox="0 0 60 60"><rect width="59.2" height="59.2" x=".4" y=".4" fill="#fff" rx="29.6"/><rect width="59.2" height="59.2" x=".4" y=".4" stroke="#f5f5f5" stroke-width=".8" rx="29.6"/><path fill="#0092d0" d="M30.453 20.978c1.654-1.324 3.045-2.474 3.09-2.557s.147-.15.225-.15 1.277 1.25 5.18 5.56h1.016c.99.004 1.081.038 3.76 1.449 1.51.795 3.353 1.801 4.097 2.234.744.435 1.54 1.002 1.767 1.262s.413.523.412.585c0 .062-.1.3-.226.526-.123.227-.186.566-.14.752.053.21-.023.481-.2.714-.156.206-.685.608-1.174.89-.49.282-2.328 1.28-7.281 3.922h-2.105l-.015.715c-.008.392-.059.861-.113 1.042-.056.186-.93.93-2.053 1.741-1.075.778-2.209 1.561-3.082 2.066l-.095-.413c-.053-.227-.292-1.191-.967-3.872l.794-.706c.436-.39.76-.741.719-.783s-.853-.187-1.805-.32c-.95-.134-2.473-.433-5.037-1.085l-1.955 1.116c-1.812 1.035-1.969 1.096-2.14.845-.102-.149-.39-1.015-.638-1.925s-.452-1.738-.454-1.842c0-.103-.474-.374-1.051-.601-.578-.227-1.078-.38-1.111-.338-.033.04-.57 1.09-2.32 4.586l-3.512 1.317c-1.93.725-3.63 1.318-3.774 1.316-.145 0-.265-.053-.265-.114-.002-.062.338-.96.755-1.993.416-1.034 1.17-2.962 2.588-6.691l-1.67-4.436c-.92-2.441-1.62-4.494-1.559-4.563.062-.07 1.467.393 3.12 1.024a400 400 0 0 1 4.512 1.747l1.053 2.32c.578 1.274 1.12 2.321 1.203 2.324s1.097-.404 2.255-.904c1.158-.499 2.263-.99 2.456-1.09.215-.111.537-.597.827-1.251.394-.884.601-1.152 1.19-1.541.393-.26 2.069-1.555 3.723-2.879"/><path fill="#fff" d="M32.844 19.937c-.01-.077.17-.28.398-.451.227-.172.47-.312.54-.312s1.075 1.032 4.335 4.587l-.562.104c-.31.057-.866.106-1.916.119l-1.391-1.954c-.765-1.075-1.397-2.017-1.404-2.093M11.147 22.784a4 4 0 0 0-.176-.49c-.063-.145-.072-.262-.016-.262.054 0 .926.327 1.94.73s2.418.948 4.398 1.695l.432.931c.236.51.66 1.42 1.448 3.11l-.94-.678a273 273 0 0 0-3.982-2.745c-1.674-1.137-3.07-2.168-3.104-2.291M38.644 28.197c.557-.952 1.284-2.19 1.616-2.752l.602-1.022.923.514c.507.282 1.734.938 2.726 1.457.993.519 2.024 1.07 2.782 1.502v4.21L45 33.33c-1.262.672-2.7 1.451-4.098 2.238l-1.639-2.67c-.902-1.468-1.638-2.738-1.636-2.82.003-.083.46-.93 1.017-1.88M12.635 36.31c.661-.412 2.318-1.522 3.684-2.468 1.364-.946 2.53-1.723 2.594-1.728.061-.003-.115.483-.393 1.083s-.674 1.429-.88 1.842c-.363.73-.42.77-1.788 1.31-.777.307-2.192.859-3.142 1.225-.952.367-1.75.658-1.772.645-.024-.011.078-.278.226-.59.201-.432.56-.754 1.47-1.32M23.01 34.287c-.124-.537-.215-1.05-.203-1.143.014-.094.128-.121.264-.06.132.059.443.176.691.262s.505.197.57.248c.066.051-.102.45-.376.887-.272.438-.546.793-.607.79-.063-.003-.215-.445-.339-.984M33.236 37.654l.902-.812c.845-.76.952-.812 1.692-.818.614-.006.764.038.677.193-.063.11-.654 1.025-1.316 2.034-.662 1.01-1.238 1.833-1.278 1.83-.042-.001-.21-.549-.677-2.427"/><path fill="#f5f5f5" d="M29.882 22.35c-.024-.052.48-.518 1.12-1.037.64-.517 1.215-.923 1.277-.902s.68.852 2.643 3.65l-.467.102c-.258.057-.94.151-2.572.321l-.977-1.02c-.539-.56-.999-1.06-1.024-1.114M27.152 24.587c-.104-.175.128-.423 1.014-1.09l1.149-.865.863.94c.475.517.866.99.87 1.052s-.381.185-.857.272a23 23 0 0 0-1.616.372c-.723.204-.762.2-1.02-.122a7 7 0 0 1-.403-.56M38.197 23.823l-.526-.558-.526-.558.567.526c.311.289.565.578.564.64-.002.06-.258.101-1.131.064zM12.199 25.63c-.24-.631-.463-1.221-.504-1.334-.054-.149-.015-.174.13-.087.115.07 1.78 1.214 3.7 2.543 1.922 1.33 3.478 2.436 3.459 2.457-.018.021-1.354-.41-2.966-.96-1.613-.551-3.02-1.076-3.13-1.168s-.405-.706-.658-1.368zM34.86 24.77c.017-.023.775-.098 1.685-.167a66 66 0 0 1 3.534-.168l-.32.564c-.175.31-.826 1.443-1.446 2.518-.62 1.076-1.188 2.023-1.262 2.106a.64.64 0 0 0-.135.375c0 .124.651 1.309 1.447 2.632l1.618 2.696c.168.286.12.29-2.308.176-2.01-.093-2.53-.162-2.734-.365-.139-.139-.832-1.284-1.542-2.544-.708-1.262-1.288-2.38-1.29-2.482 0-.103.614-1.338 1.363-2.744a379 379 0 0 1 1.39-2.597M25.973 26.045c-.024-.018.059-.286.182-.595.125-.312.264-.564.309-.564.043 0 .213.152.376.338.163.185.3.372.305.414.004.04-.248.156-.56.257-.312.099-.586.167-.612.15"/><path fill="#f5f5f5" d="M31.37 25.283a49 49 0 0 0 1.716-.327c.083-.025.337-.052.978-.07l-1.226 2.368c-.675 1.302-1.295 2.47-1.379 2.594-.116.172.191.832 1.293 2.782.847 1.5 1.37 2.573 1.265 2.597-.1.024-1.093-.095-2.21-.261-1.116-.169-2.038-.322-2.05-.343l-2.432-4.399 1.059-2.03a106 106 0 0 1 1.24-2.33c.142-.235.53-.365 1.746-.581"/><path fill="#f5f5f5" d="m25.146 27.066 1.79-.63c.983-.346 1.84-.633 1.902-.639.062-.005.113.024.113.066 0 .04-.515 1.04-1.142 2.218-1.018 1.91-1.123 2.184-.973 2.519.094.206.6 1.12 1.127 2.03.526.91.947 1.675.934 1.702s-.856-.21-3.728-1.1l-1.556-3.073z"/><path fill="#f5f5f5" d="m20.034 29.343 2.08-.946c1.144-.52 2.098-.93 2.121-.913s-.26.624-1.3 2.665l.679 1.316c.373.723.66 1.329.64 1.346-.022.016-1.009-.355-4.342-1.685zM47.265 30.104c.042-2.07.033-2.145-.3-2.418l-.345-.281.376.224c.368.22.376.264.413 2.312.022 1.148-.012 2.134-.075 2.193-.061.059-.093-.856-.069-2.03M13.838 29.854l-.394-.98c-.217-.54-.353-.982-.304-.982s1.342.44 5.66 1.953zM47.873 29.421c-.014-.565.028-1.07.091-1.123.065-.053.39.122.724.388.332.266.628.535.658.597.03.063.005.224-.057.36s-.367.374-.677.527-.598.278-.639.278-.087-.462-.1-1.027M13.176 32.22a20 20 0 0 0 .361-.982l.274-.79 5.29.03-.827.27c-.454.147-1.807.581-3.007.966-1.316.421-2.145.621-2.09.506M47.888 31.513c-.006-.077.1-.247.236-.376a.93.93 0 0 1 .553-.238c.296 0 .293.014-.048.38-.195.21-.44.378-.543.377s-.192-.066-.198-.143M13.161 33.053c.208-.101 1.561-.555 3.008-1.01s2.7-.832 2.782-.838c.082-.005-1.507 1.106-3.534 2.472-2.026 1.364-3.7 2.464-3.719 2.446-.02-.02.218-.676.527-1.461.418-1.063.657-1.472.936-1.61M24.064 35.636c-.041-.04.17-.447.469-.902.299-.454.65-.827.782-.827.13 0 .434.086.676.188.354.152.399.22.233.352-.112.09-.628.412-1.145.714-.518.304-.973.517-1.015.475M35.737 38.606a282 282 0 0 0 1.426-2.25c.146-.239.328-.323.656-.3.45.031.455.042.455 1.76L36.47 39.17c-.993.744-1.838 1.353-1.88 1.353-.04 0 .475-.861 1.147-1.917"/><path fill="#0092d0" d="M42.278 28.74c.154-.322.45-.675.657-.784.206-.11.595-.203.864-.206.363-.004.624.13 1.015.52.402.402.527.652.527 1.053 0 .29-.08.678-.178.865a2.4 2.4 0 0 1-.488.597c-.172.141-.566.26-.876.263a2.05 2.05 0 0 1-1.015-.296 1.67 1.67 0 0 1-.62-.865c-.142-.475-.124-.655.114-1.147"/><path fill="#f5f5f5" d="M42.618 29.432c-.008-.23.097-.569.233-.752.183-.247.403-.334.842-.334.328 0 .695.1.82.226.124.123.266.377.315.563.05.187.006.507-.098.715-.103.206-.261.425-.353.485-.09.062-.385.113-.654.113-.29.002-.61-.119-.79-.298a1.25 1.25 0 0 1-.315-.718"/></svg>