<svg xmlns="http://www.w3.org/2000/svg" fill="none" viewBox="0 0 60 60"><rect width="59.2" height="59.2" x=".4" y=".4" fill="#fff" rx="29.6"/><rect width="59.2" height="59.2" x=".4" y=".4" stroke="#f5f5f5" stroke-width=".8" rx="29.6"/><path fill="#0092d0" d="M10.762 16.86c.234-.25.71-.588 1.059-.748.348-.162.883-.295 1.187-.293.306 0 .805.055 1.109.122.305.068 3.493 1.882 7.085 4.034 3.593 2.15 6.568 3.911 6.611 3.911s.08-.088.078-.198c0-.109.321-.571.712-1.029.393-.457.714-.885.716-.95.001-.065-.409-.535-.91-1.043-.818-.828-.95-.908-1.269-.752a2.3 2.3 0 0 1-.831.172c-.268 0-.65-.155-.876-.356-.221-.196-.446-.607-.502-.91-.087-.476-.031-.628.388-1.07.361-.378.63-.514 1.017-.515.29 0 .687.106.883.237.197.131.428.49.515.793s.123.626.079.713c-.043.087.42.692 2.138 2.533l1.102-1.148c.893-.93 1.102-1.246 1.108-1.662.005-.349.155-.668.469-.99.316-.324.617-.475.95-.475.33 0 .64.154.962.475q.475.476.475.95c0 .31-.16.64-.462.95-.296.304-.624.477-.91.478-.247.002-.591-.101-.765-.23-.295-.215-.385-.162-1.308.751-.545.539-.988 1.052-.985 1.139.005.087.312.478.684.87s.754.856.846 1.03c.158.296.595.057 6.64-3.626 5.989-3.647 6.552-3.954 7.525-4.117 1.018-.17 1.078-.16 1.97.3.563.29 1.063.691 1.286 1.03.2.304.404.805.453 1.108.065.396-.232 1.823-1.038 4.988-.623 2.438-1.245 4.825-1.384 5.304-.178.612-.469 1.1-.979 1.64-.4.424-1.046.956-1.439 1.182-.486.282-1.039.439-2.77.583l1.226 1.306c1.172 1.248 1.223 1.333 1.137 1.9-.05.326-.233 1.341-.404 2.256s-.383 1.84-.467 2.059c-.084.217-.597.874-1.14 1.458-.913.985-1.156 1.142-5.578 3.175l-.792-.254c-.435-.137-.909-.343-1.05-.456-.142-.11-.891-1.548-1.662-3.193-1.313-2.795-1.414-2.961-1.552-2.534-.08.252-.55 1.1-1.046 1.883-.496.784-.995 1.425-1.109 1.425s-.598-.641-1.076-1.425c-.48-.784-.919-1.675-.977-1.98-.106-.553-.106-.553-.77.871l-2.316 4.991-.832.315c-.457.173-.937.316-1.069.316-.13 0-1.274-.482-2.542-1.07-2.176-1.008-2.363-1.131-4.31-3.285l-.493-2.494c-.27-1.37-.492-2.53-.492-2.573s.543-.666 2.41-2.691l-.928-.083c-.51-.046-1.105-.18-1.324-.297-.217-.117-.752-.477-1.187-.797s-.947-.83-1.136-1.129c-.202-.32-.874-2.592-1.623-5.492C10.575 21.52 10 19.044 10 18.74s.076-.75.168-.99c.093-.238.36-.639.594-.89"/><path fill="#fff" d="M12.375 19.89c.001-.24.424-.754 1.306-1.582.717-.673 1.376-1.222 1.463-1.22.087 0 .28.088.429.194a.71.71 0 0 1 .272.51c0 .174-.087.469-.191.655-.106.186-.496.667-.866 1.07-.643.696-.711.73-1.544.73-.798 0-.871-.031-.87-.357M44.194 18.069c-.133-.45-.108-.546.198-.754.193-.131.404-.22.467-.198.063.023.689.558 1.39 1.19.949.853 1.275 1.249 1.275 1.543 0 .372-.05.396-.831.393-.798-.003-.86-.037-1.588-.831-.417-.456-.825-1.061-.91-1.343M12.835 23.215a36 36 0 0 0-.263-1.742c-.088-.435-.086-.435.807-.435.812 0 .946.05 1.448.554.306.304.555.697.555.87 0 .175-.32.709-.713 1.188-.575.703-.803.871-1.663.871zM44.752 22.225c.055-.26.277-.636.493-.83.313-.281.59-.359 2.2-.365l-.103.438c-.057.243-.2 1.003-.317 1.69q-.213 1.248-.451 1.327c-.13.041-.38.008-.554-.076-.174-.086-.553-.504-.841-.931-.415-.615-.505-.877-.428-1.253M12.288 25.59c-.058-.222.047-.287.522-.326.326-.027.701-.043.831-.037.132.008.383.12.56.247.18.129.57.539.872.913.497.614.533.723.383 1.187-.141.44-.303.559-1.188.87-.562.197-1.07.303-1.13.237-.059-.067-.258-.729-.444-1.468-.183-.741-.367-1.471-.407-1.623M44.513 27.49c-.137-.388-.072-.538.596-1.385l.75-.95h.992c.866 0 .982.034.919.277-.04.152-.271.974-.515 1.825-.242.852-.496 1.546-.56 1.544-.066-.003-.548-.201-1.074-.44-.7-.32-.995-.551-1.108-.87M17.633 34.725c.017-.225.258-.931.532-1.571l.5-1.164 2.7-.019c1.485-.011 2.708.019 2.714.065.008.047-1.376.763-3.073 1.59-1.7.828-3.16 1.504-3.246 1.504-.087 0-.144-.182-.127-.406M23.338 33.319c1.243-.605 2.473-1.152 2.734-1.212a6.3 6.3 0 0 1 1.07-.127c.495-.014.579.029.506.26-.048.154-.706 1.221-2.842 4.467l-.99.003q-.99.005-1.463-.274c-.26-.152-.606-.526-.773-.831a6.5 6.5 0 0 1-.402-.871c-.087-.277.18-.453 2.16-1.416M32.509 32.636c-.1-.195-.157-.415-.125-.486.031-.073.441-.108.91-.08.675.042 1.343.294 3.199 1.201 2.229 1.09 2.34 1.167 2.243 1.542-.055.219-.237.629-.405.91-.168.284-.5.615-.74.737-.24.12-.756.237-1.147.258a12 12 0 0 1-.99.017c-.166-.012-.776-.766-1.52-1.882-.682-1.023-1.324-2.02-1.425-2.217M37.275 32.855c-.632-.317-1.148-.646-1.148-.733 0-.099.855-.157 2.256-.156 1.24 0 2.399.038 2.573.084.184.046.499.444.752.947.24.477.488 1.192.673 2.313l-1.979-.94c-1.09-.52-2.497-1.2-3.127-1.515M33.248 37.94c-1.032-2.079-1.08-2.227-1.084-3.325-.004-.63.023-1.111.06-1.069.035.045 1.06 1.576 2.275 3.405 1.216 1.829 2.294 3.486 2.394 3.681.163.318.103.442-.568 1.154-.415.439-.789.795-.832.792-.044-.003-.324-.559-.622-1.233-.299-.675-1.029-2.206-1.623-3.405M22.933 40.79c.057-.107 1.144-1.757 2.414-3.665l2.309-3.468.092 2.185-1.612 3.325c-.887 1.83-1.642 3.362-1.68 3.405-.038.044-.421-.295-.85-.752-.461-.493-.737-.912-.673-1.03"/><path fill="#fff" d="M18.073 35.961c-.003-.065.478-.343 1.069-.617a24 24 0 0 1 1.151-.518c.043-.01.274.377.515.856.296.596.646 1.012 1.099 1.308.441.29.934.456 2.265.556l-1.82 2.809-.753-.236c-.415-.13-.788-.234-.83-.233-.045.003-.29-.372-.544-.833-.253-.459-.84-1.315-1.306-1.904-.464-.588-.844-1.121-.846-1.188M38.667 36.458c.221-.251.5-.723.619-1.051.118-.326.24-.594.27-.594.029 0 .553.25 1.163.554.61.306 1.108.591 1.108.634s-.394.56-.874 1.148c-.481.589-1.042 1.425-1.246 1.86-.339.724-.445.816-1.224 1.064-.469.149-.86.255-.87.238-.009-.02-.427-.64-1.846-2.727l.773-.095c.426-.052.988-.204 1.25-.336.26-.131.655-.444.877-.695"/><path fill="#f5f5f5" d="M10.943 17.496c.174-.25.551-.588.836-.752.3-.173.82-.298 1.232-.296.39 0 .89.044 1.108.098.374.093.319.17-.99 1.384-1.322 1.227-1.385 1.316-1.385 1.958 0 .37.108 1.368.24 2.217.134.849.276 1.74.318 1.98.049.283.006.435-.122.436-.122.002-.456-.956-.871-2.494-.37-1.372-.675-2.851-.678-3.287-.005-.544.092-.932.312-1.244M46.776 17.873c-1.37-1.246-1.38-1.262-.91-1.322.261-.032.76-.07 1.108-.084.463-.02.836.101 1.386.45.563.359.796.626.928 1.071.104.35.13.887.061 1.307-.061.39-.313 1.425-.557 2.295-.244.871-.52 1.886-.616 2.257-.108.416-.264.673-.41.673-.173 0-.217-.12-.161-.436.04-.239.183-1.13.316-1.979.132-.849.24-1.865.24-2.256 0-.694-.036-.746-1.385-1.976M32.651 18.733c.005-.135.179-.42.39-.634.209-.214.456-.388.546-.388.092 0 .343.178.562.396.217.217.396.467.396.554s-.176.336-.39.554c-.214.217-.445.4-.514.401-.07.003-.322-.14-.56-.317-.242-.175-.433-.432-.43-.566M15.514 19.69c.333-.348.698-.896.812-1.217.167-.461.263-.556.466-.45.14.073 2.643 1.57 10.865 6.522l.117 1.135c.065.624.1 2.15.041 5.648l-12.033.005-.713-.456c-.392-.252-.926-.678-1.662-1.442l.396-.143c.216-.08.709-.24 1.094-.36.383-.12.791-.359.905-.533.116-.174.279-.567.364-.87.1-.354.1-.655.004-.832-.083-.152-.472-.633-.863-1.069-.393-.435-.714-.845-.716-.91s.217-.333.488-.594c.272-.261.601-.689.733-.95.15-.298.204-.668.144-.99-.052-.283-.306-.745-.564-1.029s-.472-.586-.475-.673c-.005-.087.265-.443.597-.792M25.502 18.769a1.3 1.3 0 0 1 .166-.594c.12-.209.349-.306.727-.306.428 0 .592.088.747.396.159.317.159.475 0 .792-.15.3-.324.396-.712.4-.284 0-.605-.09-.716-.199a.85.85 0 0 1-.212-.49M35.653 22.585c1.872-1.136 4.366-2.654 5.542-3.376 1.175-.722 2.196-1.319 2.269-1.327.071-.006.158.219.192.502.04.33.316.8 1.48 2.098l-.473.475c-.331.331-.504.692-.572 1.188-.089.64-.035.81 1.142 2.65l-.754.931c-.413.512-.752 1.091-.752 1.288 0 .196.108.604.239.91.154.36.446.659.831.849.326.163.879.386 1.86.7l-.712.628c-.393.345-.98.763-1.306.928-.551.277-1.022.3-12.47.3l.08-6.683z"/><path fill="#f5f5f5" d="M46.697 20.24c.727.005.831-.035.831-.312 0-.174.035-.317.08-.317.042 0 .079.178.079.396 0 .375-.048.396-.91.4-.754.005-.967-.056-1.544-.717l.316.273q.317.273 1.148.277M28.317 23.86l.62-.726.619-.723.042 4.419c.023 2.43.023 6.33-.042 12.912l-1.18-2.003zM30.349 39.719c-.044 0-.078-3.902-.073-8.67l.006-8.668 1.253 1.425.001 14.013-.554.95c-.305.522-.59.95-.633.95M15.623 34.81l.867-.87c.475-.48.874-.873.886-.873s-.074.25-.191.554c-.12.306-.216.84-.216 1.188s.083.794.184.99.644.962 1.208 1.701c.562.741 1.192 1.685 1.398 2.098.339.678.461.778 1.208.991.458.132.92.24 1.03.238.109 0 .245.16.302.355.057.196.467.73 1.716 2.017l-.435.16c-.24.087-.524.161-.633.163-.11.003-1.23-.488-2.494-1.09-2.08-.992-2.37-1.184-3.09-2.023-.791-.925-.796-.939-1.74-5.599M42.938 35.046c.002-.261-.107-.831-.242-1.267-.228-.736-.226-.774.019-.554.146.131.538.576 1.488 1.742l-.396 2.137c-.216 1.177-.484 2.268-.593 2.425-.11.158-.483.63-.831 1.05-.533.64-.99.937-2.85 1.849-1.22.597-2.342 1.086-2.494 1.088-.152.001-.455-.07-1.07-.316l.872-.95c.48-.522.87-1.02.87-1.108 0-.087.374-.274.832-.415.457-.142.964-.373 1.126-.514.161-.143.437-.544.612-.892.176-.348.692-1.096 1.148-1.662s.98-1.278 1.167-1.584c.187-.304.34-.768.342-1.029M27.538 33.811c-.139.076-.133.029.018-.158.118-.148.244-.27.277-.27.035 0 .047.59-.002 2.613l-.047-1.148c-.035-.86-.097-1.12-.246-1.037"/></svg>