<svg xmlns="http://www.w3.org/2000/svg" fill="none" viewBox="0 0 20 20"><path fill="#0092d0" d="M12.533.016a9 9 0 0 0-.136.508c-.661 2.641-1.293 3.912-2.37 4.773-.89.716-2.05 1.195-4.123 1.716-.31.077-.538.153-.509.17.026.017.263.08.517.144.259.06.687.174.954.254 3.463 1 4.518 2.179 5.51 6.146.076.301.148.577.165.602.017.03.064-.085.106-.254 1.11-4.46 2.094-5.54 5.98-6.595.42-.115.835-.22.925-.238.224-.042.228-.093.02-.14-1.233-.275-2.58-.712-3.297-1.068-.788-.394-1.021-.555-1.509-1.038-.852-.843-1.377-1.929-1.92-3.963-.262-.992-.292-1.08-.313-1.017"/><path fill="#0092d0" d="M16.772 1.66c-.055.267-.22.623-.364.784-.157.174-.42.314-.785.412l-.203.055.31.11c.173.063.38.152.461.2.22.126.411.406.522.766.106.33.127.344.178.102.08-.369.36-.784.623-.92.067-.034.25-.102.407-.152l.284-.085-.327-.119c-.597-.207-.775-.394-.966-.987a2 2 0 0 0-.106-.284.4.4 0 0 0-.034.118M2.246 3.576C1.191 3.758.296 4.656.068 5.76.008 6.047 0 6.725 0 11.777c0 5.053.008 5.73.068 6.02.207 1.008.903 1.775 1.924 2.122.225.077.479.081 6.273.081s6.048-.004 6.273-.08c1.021-.348 1.716-1.115 1.924-2.124.06-.284.068-.788.068-3.882v-3.556h-1.055l-.013 3.61c-.013 3.574-.013 3.62-.102 3.854-.178.462-.5.805-.97 1.021l-.212.098H2.352l-.275-.136c-.526-.263-.848-.67-.975-1.242-.055-.259-.06-11.223 0-11.533.119-.653.534-1.131 1.161-1.352.225-.08.37-.085 3.565-.085h3.327v-1.06l-3.357.005c-1.848.004-3.446.021-3.552.038"/><path fill="#0092d0" d="M6.552 10.137c-.115.492-.348 1.174-.513 1.513-.479.996-1.157 1.45-2.814 1.886-.242.064-.424.123-.403.136s.208.068.411.119c.962.237 1.708.568 2.124.94.512.454.873 1.187 1.186 2.408.055.22.115.373.123.34.013-.035.093-.323.182-.637.293-1.06.539-1.547 1.01-2.013.453-.45 1.038-.729 2.14-1.021.224-.06.436-.119.47-.127.034-.013-.119-.072-.339-.128-1.233-.318-1.945-.67-2.403-1.182-.377-.42-.708-1.166-.945-2.128-.051-.203-.106-.386-.123-.402-.013-.017-.06.118-.106.296"/></svg>