<svg xmlns="http://www.w3.org/2000/svg" fill="none" viewBox="-4 -4 24 24"><path fill="#0092d0" d="M9.28 11.182a.167.167 0 0 0-.234 0L6.628 13.6c-1.12 1.12-3.009 1.238-4.245 0-1.238-1.238-1.119-3.125 0-4.244l2.418-2.418a.167.167 0 0 0 0-.235l-.828-.828a.167.167 0 0 0-.235 0L1.32 8.292a4.5 4.5 0 0 0 0 6.367 4.5 4.5 0 0 0 6.367 0l2.418-2.418a.167.167 0 0 0 0-.235zm5.381-9.862a4.5 4.5 0 0 0-6.367 0l-2.42 2.418a.167.167 0 0 0 0 .235l.827.826c.064.064.17.064.235 0l2.417-2.418c1.12-1.12 3.009-1.238 4.245 0 1.238 1.238 1.12 3.125 0 4.245L11.18 9.043a.167.167 0 0 0 0 .236l.828.828c.065.064.17.064.235 0l2.418-2.418a4.505 4.505 0 0 0 0-6.369m-4.63 3.764a.167.167 0 0 0-.234 0l-4.713 4.71a.167.167 0 0 0 0 .236l.824.824c.064.064.17.064.235 0l4.71-4.71a.167.167 0 0 0 0-.236z"/></svg>