<svg xmlns="http://www.w3.org/2000/svg" fill="none" viewBox="-3 0 24 15"><mask id="a" fill="#fff"><path d="M9 0c2.876 0 5.291 2.332 5.291 5.208S11.375 15 9 15 3.709 8.084 3.709 5.208 6.123 0 8.999 0m.123 2.916a2.5 2.5 0 1 0 0 5 2.5 2.5 0 0 0 0-5"/></mask><path fill="#fff" d="M9 0c2.876 0 5.291 2.332 5.291 5.208S11.375 15 9 15 3.709 8.084 3.709 5.208 6.123 0 8.999 0m.123 2.916a2.5 2.5 0 1 0 0 5 2.5 2.5 0 0 0 0-5"/><path fill="#0092d0" d="M9 0v-1zm5.291 5.208h1zM9 15v1zM3.709 5.208h-1zM8.999 0v1c2.345 0 4.292 1.905 4.292 4.208h2C15.292 1.758 12.407-1 9-1zm5.292 5.208h-1c0 1.215-.654 3.502-1.652 5.534-.492 1-1.034 1.87-1.563 2.473C9.504 13.87 9.133 14 9 14v2c1.053 0 1.938-.733 2.58-1.466.687-.784 1.319-1.822 1.854-2.91 1.053-2.145 1.858-4.755 1.858-6.416zM9 15v-1c-.134 0-.504-.131-1.077-.785-.528-.603-1.07-1.473-1.562-2.473C5.363 8.709 4.71 6.423 4.71 5.208h-2c0 1.661.803 4.27 1.857 6.415.534 1.088 1.167 2.127 1.853 2.91C7.06 15.267 7.945 16 8.999 16zM3.709 5.208h1C4.709 2.905 6.655 1 8.999 1v-2C5.592-1 2.71 1.76 2.71 5.208zm5.414-2.292v-1a3.5 3.5 0 0 0-3.5 3.5h2a1.5 1.5 0 0 1 1.5-1.5zm-2.5 2.5h-1a3.5 3.5 0 0 0 3.5 3.5v-2a1.5 1.5 0 0 1-1.5-1.5zm2.5 2.5v1a3.5 3.5 0 0 0 3.5-3.5h-2a1.5 1.5 0 0 1-1.5 1.5zm2.5-2.5h1a3.5 3.5 0 0 0-3.5-3.5v2a1.5 1.5 0 0 1 1.5 1.5z" mask="url(#a)"/></svg>