<svg xmlns="http://www.w3.org/2000/svg" fill="none" viewBox="-3 -3 24 24"><path fill="#0092d0" d="M12.75 15.938h-7.5c-2.737 0-4.312-1.575-4.312-4.313v-5.25c0-2.737 1.575-4.312 4.312-4.312h7.5c2.738 0 4.313 1.575 4.313 4.312v5.25c0 2.738-1.575 4.313-4.313 4.313m-7.5-12.75c-2.145 0-3.187 1.042-3.187 3.187v5.25c0 2.145 1.042 3.188 3.187 3.188h7.5c2.145 0 3.188-1.043 3.188-3.188v-5.25c0-2.145-1.043-3.187-3.188-3.187z"/><path fill="#0092d0" d="M9 9.652c-.63 0-1.268-.195-1.756-.592L4.897 7.185a.56.56 0 0 1 .697-.878l2.348 1.875c.57.458 1.537.458 2.107 0l2.348-1.875c.24-.195.6-.157.787.09.195.24.158.6-.09.788L10.747 9.06c-.48.397-1.118.592-1.748.592"/></svg>