<svg xmlns="http://www.w3.org/2000/svg" fill="none" viewBox="-3 -3 24 24"><path fill="#0092d0" d="M13.774 16a.6.6 0 0 1-.347-.107l-3.936-2.67-2.11 1.52a.62.62 0 0 1-.962-.345L5.36 10.38 1.573 8.933a.62.62 0 0 1-.008-1.154l14.4-5.73a.62.62 0 0 1 .848.695l-2.43 12.752a.62.62 0 0 1-.609.504m-3.937-4.04 3.505 2.379 1.891-9.923-6.83 6.572 1.417.962zm-2.919-.528.47 1.779 1.011-.728-1.324-.898a.6.6 0 0 1-.157-.153m-3.42-3.09 2.6.995a.62.62 0 0 1 .379.42l.33 1.25a.62.62 0 0 1 .186-.381L13.5 4.363z"/></svg>