<svg xmlns="http://www.w3.org/2000/svg" fill="none" viewBox="-5 0 24 18"><path fill="#0092d0" d="M1.969 0A1.97 1.97 0 0 0 0 1.969V15.53C0 16.617.883 17.5 1.969 17.5H12.03A1.97 1.97 0 0 0 14 15.531V7H8.969A1.97 1.97 0 0 1 7 5.031V0zm7.75 1.238a.5.5 0 0 0-.853.354v3.44c0 .361.294.656.656.656h3.44a.5.5 0 0 0 .353-.854zM3.281 8.75h7.438a.656.656 0 1 1 0 1.313H3.28a.656.656 0 1 1 0-1.313m0 2.625H7.22a.656.656 0 1 1 0 1.313H3.28a.656.656 0 1 1 0-1.313m6.563 0h.875a.656.656 0 0 1 0 1.313h-.875a.656.656 0 1 1 0-1.313M3.28 14H7.22a.656.656 0 1 1 0 1.313H3.28a.656.656 0 1 1 0-1.313m6.563 0h.875a.656.656 0 0 1 0 1.313h-.875a.656.656 0 1 1 0-1.313"/></svg>