<svg xmlns="http://www.w3.org/2000/svg" fill="none" viewBox="-1 -1 24 24"><path fill="#0092d0" d="M11 20.854c-3.667 0-6.646-2.63-6.646-5.867v-3.391c0-.376.311-.688.687-.688s.688.312.688.688c0 2.401 2.264 4.216 5.27 4.216 3.007 0 5.271-1.815 5.271-4.216 0-.376.312-.688.688-.688s.687.312.687.688v3.391c0 3.236-2.979 5.867-6.646 5.867m-5.271-5.766c.064 2.43 2.401 4.391 5.27 4.391 2.87 0 5.207-1.962 5.271-4.39-1.191 1.292-3.08 2.098-5.27 2.098-2.191 0-4.07-.806-5.271-2.099"/><path fill="#0092d0" d="M11 12.604c-2.53 0-4.804-1.136-5.913-2.97a5 5 0 0 1-.733-2.621c0-1.577.705-3.062 1.98-4.18 1.246-1.091 2.905-1.687 4.665-1.687s3.41.596 4.666 1.678c1.274 1.127 1.98 2.612 1.98 4.189 0 .935-.256 1.833-.733 2.621-1.11 1.834-3.383 2.97-5.913 2.97m0-10.083c-1.43 0-2.769.477-3.768 1.357-.972.843-1.503 1.961-1.503 3.135 0 .687.183 1.329.531 1.906.871 1.43 2.686 2.31 4.74 2.31 2.053 0 3.868-.889 4.739-2.31.357-.577.531-1.219.531-1.906 0-1.174-.531-2.292-1.512-3.154-1-.861-2.329-1.338-3.759-1.338"/><path fill="#0092d0" d="M11 17.188c-3.786 0-6.646-2.402-6.646-5.592V7.013c0-3.236 2.979-5.867 6.645-5.867 1.76 0 3.41.596 4.666 1.678 1.274 1.127 1.98 2.612 1.98 4.189v4.583c0 3.19-2.86 5.592-6.646 5.592M11 2.52c-2.906 0-5.271 2.017-5.271 4.492v4.583c0 2.402 2.264 4.217 5.27 4.217 3.007 0 5.271-1.815 5.271-4.217V7.013c0-1.174-.531-2.292-1.512-3.154-1-.861-2.329-1.338-3.759-1.338"/></svg>