<svg xmlns="http://www.w3.org/2000/svg" fill="none" viewBox="-4 -4 24 24"><path fill="#0092d0" fill-rule="evenodd" d="M5.484 13.075a1.867 1.867 0 0 0 1.826 2.258c.43 0 .829-.22 1.056-.585L11.334 10h2c.736 0 1.333-.597 1.333-1.333V3.333c0-.736-.597-1.333-1.333-1.333h-9.43a2 2 0 0 0-1.79 1.106L.95 5.437c-.186.37-.282.779-.282 1.193v2.037a2 2 0 0 0 2 2H6zm5.85-9.742v5.334h2V3.333zM7.263 13.998 10 9.618V3.333H3.903a.67.67 0 0 0-.596.369L2.14 6.033c-.092.185-.14.39-.14.597v2.037c0 .368.298.666.666.666H6a1.333 1.333 0 0 1 1.304 1.613l-.516 2.408a.534.534 0 0 0 .475.644" clip-rule="evenodd"/></svg>