<svg xmlns="http://www.w3.org/2000/svg" fill="none" viewBox="-1 -1 24 24"><path fill="#0092d0" d="M3.209 17.188a.693.693 0 0 1-.688-.688V6.417c0-4.043 1.229-5.271 5.271-5.271h6.417c4.043 0 5.27 1.228 5.27 5.27v9.168c0 .146 0 .284-.008.43a.7.7 0 0 1-.734.642.694.694 0 0 1-.641-.733c.009-.11.009-.23.009-.34V6.418c0-3.273-.614-3.896-3.896-3.896H7.792c-3.281 0-3.896.623-3.896 3.896V16.5a.693.693 0 0 1-.687.688"/><path fill="#0092d0" d="M15.584 20.854H6.417a3.904 3.904 0 0 1-3.896-3.896v-.595c0-1.825 1.485-3.3 3.3-3.3h12.971c.376 0 .688.311.688.687v3.208a3.904 3.904 0 0 1-3.896 3.896m-9.763-6.416a1.925 1.925 0 0 0-1.925 1.925v.595a2.52 2.52 0 0 0 2.521 2.521h9.167a2.52 2.52 0 0 0 2.52-2.52v-2.521zM14.667 7.104H7.334a.693.693 0 0 1-.688-.687c0-.376.312-.688.688-.688h7.333c.376 0 .688.312.688.688a.69.69 0 0 1-.688.687M11.917 10.313H7.334a.693.693 0 0 1-.688-.688c0-.376.312-.687.688-.687h4.583c.376 0 .688.311.688.687a.69.69 0 0 1-.688.688"/></svg>