<svg xmlns="http://www.w3.org/2000/svg" fill="none" viewBox="-5 0 24 16"><path fill="#0092d0" fill-rule="evenodd" d="M6.834 0a3.692 3.692 0 1 0 0 7.385 3.692 3.692 0 0 0 0-7.385M4.373 3.692a2.462 2.462 0 1 1 4.923 0 2.462 2.462 0 0 1-4.923 0M6.834 8c-2.833 0-4.584.881-5.61 2.143C.22 11.381.004 12.875 0 13.937-.004 15.212 1.105 16 2.214 16h9.24c1.11 0 2.218-.788 2.215-2.063-.003-1.062-.22-2.556-1.225-3.794C11.42 8.881 9.667 8 6.834 8m-5.603 5.94c.002-.927.196-2.094.949-3.02.733-.903 2.088-1.69 4.654-1.69 2.567 0 3.922.787 4.655 1.69.753.926.946 2.093.949 3.02.001.434-.383.83-.983.83h-9.24c-.6 0-.985-.396-.984-.83" clip-rule="evenodd"/></svg>