<svg xmlns="http://www.w3.org/2000/svg" fill="none" viewBox="-1 -1 24 24"><path fill="#0092d0" d="M11 17.37a4.36 4.36 0 0 1-4.354-4.353 4.36 4.36 0 0 1 4.355-4.354 4.36 4.36 0 0 1 4.354 4.354A4.36 4.36 0 0 1 11 17.37m0-7.332a2.985 2.985 0 0 0-2.979 2.979c0 1.64 1.339 2.979 2.98 2.979 1.64 0 2.979-1.338 2.979-2.98 0-1.64-1.338-2.978-2.98-2.978"/><path fill="#0092d0" d="M10.084 14.62a.69.69 0 0 1-.586-.33.686.686 0 0 1 .238-.943l.696-.422a.22.22 0 0 0 .11-.193v-.852c0-.376.312-.688.688-.688s.688.303.688.679v.852c0 .56-.303 1.091-.78 1.375l-.696.422a.64.64 0 0 1-.358.1"/><path fill="#0092d0" d="M14.667 20.854H7.333c-4.235 0-5.023-1.97-5.225-3.886l-.687-7.343c-.101-.962-.128-2.383.825-3.447.825-.916 2.19-1.356 4.17-1.356h9.167c1.99 0 3.355.449 4.171 1.356.953 1.064.926 2.485.825 3.456l-.687 7.324c-.202 1.925-.99 3.896-5.225 3.896M6.417 6.188c-1.55 0-2.613.302-3.154.907-.449.495-.595 1.256-.476 2.393l.687 7.342c.156 1.448.55 2.65 3.86 2.65h7.333c3.3 0 3.703-1.202 3.859-2.66l.687-7.323c.12-1.146-.027-1.907-.476-2.402-.541-.605-1.604-.907-3.154-.907z"/><path fill="#0092d0" d="M14.667 6.188a.693.693 0 0 1-.687-.688v-.733c0-1.632 0-2.246-2.246-2.246h-1.467c-2.246 0-2.246.614-2.246 2.246V5.5a.69.69 0 0 1-.687.688.693.693 0 0 1-.688-.688v-.733c0-1.614 0-3.621 3.621-3.621h1.467c3.62 0 3.62 2.008 3.62 3.62V5.5a.69.69 0 0 1-.687.688M14.676 13.19a.694.694 0 0 1-.669-.522.687.687 0 0 1 .495-.834 14.2 14.2 0 0 0 4.932-2.31.69.69 0 0 1 .962.156.69.69 0 0 1-.156.962 15.7 15.7 0 0 1-5.408 2.53 1 1 0 0 1-.156.019M7.333 13.219c-.055 0-.11-.01-.165-.019a15.8 15.8 0 0 1-5.16-2.31.69.69 0 0 1-.184-.953.69.69 0 0 1 .953-.183 14.3 14.3 0 0 0 4.712 2.108.69.69 0 0 1 .504.834.67.67 0 0 1-.66.523"/></svg>