<svg xmlns="http://www.w3.org/2000/svg" fill="none" viewBox="-4.5 -4.5 24 24"><path fill="#0092d0" d="M6.611 0H.622A.62.62 0 0 0 0 .622v5.99c0 .085.07.155.156.155H6.61c.086 0 .156-.07.156-.156V.156A.156.156 0 0 0 6.61 0M5.522 5.522H1.244V1.244h4.278zM2.84 4.083h1.089c.085 0 .155-.07.155-.155v-1.09a.156.156 0 0 0-.155-.155h-1.09a.156.156 0 0 0-.155.156v1.089c0 .085.07.155.156.155M6.61 8.167H.156A.156.156 0 0 0 0 8.322v5.99c0 .343.278.621.622.621h5.99c.085 0 .155-.07.155-.155V8.322a.156.156 0 0 0-.156-.155m-1.089 5.522H1.244V9.41h4.278zM2.84 12.25h1.089c.085 0 .155-.07.155-.156v-1.088a.156.156 0 0 0-.155-.156h-1.09a.156.156 0 0 0-.155.156v1.088c0 .086.07.156.156.156M14.31 0H8.322a.156.156 0 0 0-.155.156V6.61c0 .086.07.156.155.156h6.456c.085 0 .155-.07.155-.156V.622A.62.62 0 0 0 14.311 0m-.622 5.522H9.41V1.244h4.278zm-2.683-1.439h1.088c.086 0 .156-.07.156-.155v-1.09a.156.156 0 0 0-.156-.155h-1.088a.156.156 0 0 0-.156.156v1.089c0 .085.07.155.156.155m3.772 4.084h-.934a.156.156 0 0 0-.155.155v2.606h-1.517V8.322a.156.156 0 0 0-.155-.155H8.322a.156.156 0 0 0-.155.155v6.456c0 .085.07.155.155.155h.934c.085 0 .155-.07.155-.155v-4.745h1.517v1.984c0 .085.07.155.155.155h3.695c.085 0 .155-.07.155-.155V8.322a.156.156 0 0 0-.155-.155m-2.761 5.522h-.934a.156.156 0 0 0-.155.155v.934c0 .085.07.155.155.155h.934c.085 0 .155-.07.155-.155v-.934a.156.156 0 0 0-.155-.155m2.76 0h-.933a.156.156 0 0 0-.155.155v.934c0 .085.07.155.155.155h.934c.085 0 .155-.07.155-.155v-.934a.156.156 0 0 0-.155-.155"/></svg>