<svg xmlns="http://www.w3.org/2000/svg" fill="none" viewBox="-4.5 -4.5 24 24"><path fill="#0092d0" d="M11.746 14.933a2.64 2.64 0 0 1-2.101-.995 2.54 2.54 0 0 1-.463-2.244L4.437 9.03a2.685 2.685 0 0 1-3.008.391 2.59 2.59 0 0 1-1.407-2.64 2.62 2.62 0 0 1 2.042-2.205 2.67 2.67 0 0 1 2.81 1.127L9.18 3.285a2.6 2.6 0 0 1-.088-.634c-.011-1.245.87-2.327 2.11-2.591s2.496.363 3.011 1.501a2.6 2.6 0 0 1-.884 3.202 2.714 2.714 0 0 1-3.372-.199L5.297 7.181a2.5 2.5 0 0 1-.082.571l4.743 2.663a2.69 2.69 0 0 1 3.182-.298 2.58 2.58 0 0 1 1.157 2.926 2.64 2.64 0 0 1-2.552 1.89m0-3.722c-.628 0-1.137.5-1.137 1.117s.509 1.116 1.136 1.116c.628 0 1.137-.5 1.137-1.116s-.509-1.117-1.136-1.117M2.65 6.001c-.628 0-1.137.5-1.137 1.116s.509 1.117 1.137 1.117 1.137-.5 1.137-1.117c0-.616-.51-1.116-1.137-1.116m9.095-4.466c-.628 0-1.137.5-1.137 1.116s.509 1.117 1.136 1.117c.628 0 1.137-.5 1.137-1.117s-.509-1.116-1.136-1.116"/></svg>