<svg xmlns="http://www.w3.org/2000/svg" fill="none" viewBox="-3 -3 24 24"><path fill="#0092d0" d="M6.752 13.312a.567.567 0 0 1-.562-.562V9.607l-.54.54a.566.566 0 0 1-.795 0 .566.566 0 0 1 0-.795l1.5-1.5a.565.565 0 0 1 .96.398v4.5a.567.567 0 0 1-.563.562"/><path fill="#0092d0" d="M8.252 10.313a.56.56 0 0 1-.397-.165l-1.5-1.5a.566.566 0 0 1 0-.795.566.566 0 0 1 .795 0l1.5 1.5a.566.566 0 0 1 0 .795.56.56 0 0 1-.398.165"/><path fill="#0092d0" d="M11.25 17.063h-4.5c-4.072 0-5.812-1.74-5.812-5.813v-4.5C.938 2.678 2.678.938 6.75.938h3.75c.307 0 .563.254.563.562a.567.567 0 0 1-.563.563H6.75c-3.457 0-4.687 1.23-4.687 4.687v4.5c0 3.457 1.23 4.688 4.687 4.688h4.5c3.457 0 4.688-1.23 4.688-4.688V7.5c0-.308.254-.562.562-.562s.563.255.563.562v3.75c0 4.073-1.74 5.813-5.813 5.813"/><path fill="#0092d0" d="M16.5 8.062h-3c-2.565 0-3.562-.997-3.562-3.562v-3c0-.225.134-.435.345-.518.21-.09.45-.037.615.12l6 6a.565.565 0 0 1-.398.96m-5.437-5.205V4.5c0 1.935.502 2.437 2.437 2.437h1.643z"/></svg>