<svg xmlns="http://www.w3.org/2000/svg" fill="none" viewBox="-3 -3 24 24"><path fill="#0092d0" d="M12.93 17.063H5.07c-2.1 0-3.435-1.253-3.555-3.345l-.39-6.188a3.33 3.33 0 0 1 .908-2.52A3.4 3.4 0 0 1 4.5 3.938c.24 0 .473-.143.585-.368l.54-1.072c.443-.878 1.553-1.56 2.52-1.56h1.718c.967 0 2.07.682 2.512 1.552l.54 1.095a.67.67 0 0 0 .585.353c.93 0 1.83.39 2.468 1.072a3.34 3.34 0 0 1 .907 2.52l-.39 6.195c-.135 2.123-1.432 3.338-3.555 3.338m-4.785-15c-.555 0-1.26.434-1.515.937l-.54 1.08a1.79 1.79 0 0 1-1.59.982c-.63 0-1.215.255-1.65.713a2.21 2.21 0 0 0-.6 1.68l.39 6.195c.09 1.515.908 2.287 2.43 2.287h7.86c1.515 0 2.333-.772 2.43-2.287l.39-6.195a2.24 2.24 0 0 0-2.25-2.392 1.8 1.8 0 0 1-1.59-.968L11.363 3c-.248-.495-.953-.93-1.508-.93h-1.71z"/><path fill="#0092d0" d="M10.125 6.563h-2.25A.567.567 0 0 1 7.313 6c0-.308.255-.562.562-.562h2.25c.307 0 .563.255.563.562a.567.567 0 0 1-.563.563M9 14.063a3 3 0 1 1 0-6 3 3 0 1 1 0 6m0-4.876a1.876 1.876 0 1 0 .001 3.752A1.876 1.876 0 0 0 9 9.188"/></svg>