<svg xmlns="http://www.w3.org/2000/svg" fill="none" viewBox="-4 -4 24 24"><path fill="#0092d0" d="M8 15.167c-.447 0-.9-.114-1.3-.347l-3.96-2.287a2.62 2.62 0 0 1-1.3-2.253V5.72c0-.927.5-1.787 1.3-2.253L6.7 1.18a2.59 2.59 0 0 1 2.6 0l3.96 2.287c.8.466 1.3 1.326 1.3 2.253v4.56c0 .927-.5 1.787-1.3 2.253L9.3 14.82c-.4.233-.854.347-1.3.347M8 1.833c-.274 0-.554.074-.8.214L3.24 4.333c-.494.287-.8.814-.8 1.387v4.56c0 .567.306 1.1.8 1.387l3.96 2.286a1.6 1.6 0 0 0 1.6 0l3.96-2.286c.493-.287.8-.814.8-1.387V5.72c0-.567-.307-1.1-.8-1.387L8.8 2.047a1.63 1.63 0 0 0-.8-.214"/><path fill="#0092d0" d="M8 7.833a2.054 2.054 0 0 1 0-4.106 2.054 2.054 0 0 1 0 4.106m0-3.106c-.58 0-1.053.473-1.053 1.053s.474 1.053 1.054 1.053S9.054 6.36 9.054 5.78 8.58 4.727 8 4.727M10.667 11.607a.504.504 0 0 1-.5-.5c0-.92-.973-1.673-2.166-1.673s-2.167.753-2.167 1.673c0 .273-.227.5-.5.5a.504.504 0 0 1-.5-.5c0-1.473 1.42-2.673 3.167-2.673s3.166 1.2 3.166 2.673c0 .273-.226.5-.5.5"/></svg>