<svg xmlns="http://www.w3.org/2000/svg" fill="none" viewBox="-1.5 -1.5 24 24"><path fill="#0092d0" d="M4.568 19.991c-.788.577-1.85-.202-1.538-1.127l1.847-5.461a1 1 0 0 0-.394-1.154L.449 9.57c-.825-.547-.437-1.832.553-1.832h5.022a1 1 0 0 0 .948-.682L9.113.681c.306-.908 1.59-.908 1.896 0l2.142 6.374a1 1 0 0 0 .948.682h5.021c.99 0 1.378 1.285.553 1.833l-4.037 2.682a1 1 0 0 0-.396 1.148l1.818 5.47c.308.925-.757 1.699-1.542 1.12l-4.863-3.587a1 1 0 0 0-1.185-.002zm1.52-5.316c-.339.936.75 1.739 1.544 1.138l1.826-1.381a1 1 0 0 1 1.206 0l1.826 1.381c.795.601 1.883-.202 1.544-1.138l-.675-1.863a1 1 0 0 1 .396-1.18l1.166-.755c.836-.542.452-1.84-.544-1.84h-1.494a1 1 0 0 1-.95-.688l-.928-2.83c-.3-.915-1.595-.918-1.899-.003l-.941 2.837a1 1 0 0 1-.95.684h-1.49c-1 0-1.381 1.304-.54 1.843l1.176.753a1 1 0 0 1 .401 1.183z"/></svg>