<svg xmlns="http://www.w3.org/2000/svg" fill="none" viewBox="0 0 27 24"><path fill="#0092d0" fill-rule="evenodd" d="M18.42 0c-1.715 0-2.82.206-4.087.83q-.704.347-1.317.834A7.5 7.5 0 0 0 11.75.868C10.459.225 9.297 0 7.644 0 3.217 0 0 3.693 0 8.49c0 3.623 2.006 7.122 5.743 10.506 1.96 1.776 4.465 3.534 6.258 4.469l1.027.535 1.026-.535c1.793-.935 4.297-2.693 6.259-4.469 3.736-3.384 5.742-6.883 5.742-10.506 0-4.746-3.247-8.472-7.635-8.49m5.266 8.49c0 2.838-1.674 5.759-4.957 8.732-1.79 1.621-4.092 3.241-5.701 4.091-1.61-.85-3.911-2.47-5.702-4.09C4.043 14.248 2.37 11.327 2.37 8.49c0-3.545 2.23-6.106 5.275-6.106 1.314 0 2.124.157 3.056.621q.827.411 1.459 1.09l.871.935.864-.943q.645-.704 1.48-1.115c.905-.446 1.665-.588 3.041-.588 3.007.013 5.271 2.61 5.271 6.106" clip-rule="evenodd"/></svg>