<svg xmlns="http://www.w3.org/2000/svg" fill="none" viewBox="-4 -4 24 24"><path fill="#0092d0" fill-rule="evenodd" d="M7.566 13.723 4 11.333H2.666A1.333 1.333 0 0 1 1.333 10V6c0-.736.597-1.333 1.333-1.333H4l3.566-2.39a.667.667 0 0 1 1.1.506v10.434c0 .57-.668.877-1.1.506M4 10c.318 0 .626.114.867.321l2.466 1.447V4.232L4.867 5.68C4.626 5.886 4.317 6 4 6H2.666v4z" clip-rule="evenodd"/><path fill="#0092d0" d="M11.069 5.204c-.22-.295-.647-.293-.908-.032-.26.26-.253.68-.05.986a3.33 3.33 0 0 1 0 3.684c-.203.307-.21.726.05.986s.687.263.908-.031a4.67 4.67 0 0 0 0-5.593"/><path fill="#0092d0" d="M12.035 3.298c.267-.267.703-.269.944.022q.087.105.17.214a7.334 7.334 0 0 1-.17 9.146c-.241.291-.677.29-.944.022s-.263-.697-.028-.993a5.97 5.97 0 0 0 0-7.418 1 1 0 0 1-.077-.117c-.155-.284-.128-.643.105-.876"/></svg>