<svg xmlns="http://www.w3.org/2000/svg" fill="none" viewBox="-3 -3 24 24"><path fill="#0092d0" d="M13.088 17.063c-.848 0-1.74-.203-2.663-.593-.9-.383-1.808-.907-2.693-1.545a23.4 23.4 0 0 1-2.527-2.152 22.4 22.4 0 0 1-2.152-2.52c-.645-.9-1.163-1.8-1.53-2.67-.39-.93-.585-1.83-.585-2.678 0-.585.105-1.14.307-1.658A4 4 0 0 1 2.25 1.794c.578-.57 1.237-.855 1.943-.855.292 0 .592.067.847.187.292.135.54.337.72.607L7.5 4.185c.157.218.277.428.36.638.097.224.15.45.15.667 0 .285-.082.563-.24.825a3 3 0 0 1-.502.637l-.51.533a.4.4 0 0 0 .022.052c.09.158.27.428.615.833.368.42.713.803 1.058 1.155.442.435.81.78 1.155 1.065.427.36.704.54.87.623l-.015.037.547-.54q.348-.349.675-.518c.412-.255.938-.3 1.463-.082.194.083.405.195.63.353l2.49 1.77c.277.187.48.427.6.712.112.285.165.547.165.81 0 .36-.083.72-.24 1.057-.158.338-.353.63-.6.9-.428.473-.893.81-1.433 1.028-.518.21-1.08.323-1.672.323m-8.895-15c-.413 0-.795.18-1.163.54a2.9 2.9 0 0 0-.735 1.057q-.234.583-.232 1.245c0 .697.164 1.455.494 2.235.338.795.81 1.62 1.41 2.445A21 21 0 0 0 6 11.97c.75.742 1.56 1.432 2.393 2.04.81.592 1.642 1.072 2.467 1.418 1.283.547 2.483.674 3.473.262.382-.157.72-.397 1.027-.742.173-.188.308-.39.42-.63q.135-.284.135-.578c0-.12-.022-.24-.082-.375a.57.57 0 0 0-.21-.225l-2.49-1.77a2 2 0 0 0-.413-.232c-.165-.068-.232-.136-.488.022a1.7 1.7 0 0 0-.434.338l-.57.562a1.07 1.07 0 0 1-1.088.225l-.203-.09a6.4 6.4 0 0 1-1.064-.758c-.36-.307-.75-.667-1.223-1.132A26 26 0 0 1 6.532 9.09q-.528-.619-.764-1.057l-.09-.225a1.4 1.4 0 0 1-.06-.375c0-.27.097-.51.284-.698l.563-.585c.15-.15.263-.293.338-.42a.5.5 0 0 0 .082-.255c0-.06-.022-.15-.06-.24a2 2 0 0 0-.24-.397l-1.74-2.46a.7.7 0 0 0-.277-.233.9.9 0 0 0-.375-.083m6.27 9.195-.12.51.202-.526c-.037-.007-.068 0-.082.015"/></svg>