<svg xmlns="http://www.w3.org/2000/svg" fill="none" viewBox="-3 -3 24 24"><path fill="#0092d0" d="m9 0 7.412 3.42h.999a.56.56 0 0 1 .56.561v2.243a.56.56 0 0 1-.56.561h-.561v7.85a.56.56 0 0 1 .544.426l.56 2.243a.56.56 0 0 1-.544.696H.588a.56.56 0 0 1-.544-.696l.56-2.243a.56.56 0 0 1 .545-.425v-7.85h-.56a.56.56 0 0 1-.562-.562V3.981a.56.56 0 0 1 .561-.56h.998zM4.261 3.42h9.473L9 1.235zM2.27 6.786v7.85h1.122v-7.85zm2.243 0v7.85h2.804v-7.85zm3.926 0v7.85H9.56v-7.85zm2.243 0v7.85h2.803v-7.85zm3.925 0v7.85h1.121v-7.85zm2.243-1.121V4.542H1.149v1.122zm-.438 10.093H1.586l-.28 1.121h15.387z"/></svg>