<svg xmlns="http://www.w3.org/2000/svg" fill="none" viewBox="-3 -3 24 24"><path fill="#0092d0" d="M9.1 0a.5.5 0 0 1 .5.5v1.214A7.31 7.31 0 0 1 16.286 8.4H17.5a.5.5 0 0 1 0 1h-1.2a7.31 7.31 0 0 1-6.7 6.885V17.5a.5.5 0 0 1-1 0v-1.2c-3.72-.2-6.7-3.18-6.9-6.9H.5a.5.5 0 0 1 0-1h1.214A7.31 7.31 0 0 1 8.6 1.698V.5a.5.5 0 0 1 .5-.5m-.5 2.7a6.31 6.31 0 0 0-5.884 5.7H4a.5.5 0 0 1 0 1H2.701A6.31 6.31 0 0 0 8.6 15.3V14a.5.5 0 0 1 1 0v1.283A6.31 6.31 0 0 0 15.299 9.4H14a.5.5 0 0 1 0-1h1.284A6.314 6.314 0 0 0 9.6 2.716V4a.5.5 0 0 1-1 0zM9 7.125a1.875 1.875 0 1 1 0 3.75 1.875 1.875 0 0 1 0-3.75"/></svg>