<svg xmlns="http://www.w3.org/2000/svg" fill="none" viewBox="0 0 18 18"><path fill="#0092d0" d="M14.643 3.335C13.173 1.822 11.14 1 9.064 1c-4.41 0-7.956 3.59-7.913 7.957 0 1.383.39 2.724 1.038 3.935L1.064 17l4.195-1.081a7.7 7.7 0 0 0 3.762.951c4.368 0 7.914-3.589 7.914-7.956a7.85 7.85 0 0 0-2.292-5.579M9.064 15.53c-1.167 0-2.335-.303-3.33-.908l-.259-.13-2.508.648.649-2.464-.173-.26c-1.903-3.07-.995-7.135 2.119-9.038 3.113-1.902 7.135-.994 9.038 2.12 1.902 3.113.994 7.134-2.12 9.037a6.3 6.3 0 0 1-3.416.995m3.806-4.8-.476-.216s-.692-.303-1.124-.52c-.043 0-.087-.043-.13-.043-.13 0-.216.044-.303.087 0 0-.043.043-.648.735a.24.24 0 0 1-.216.13h-.044a.33.33 0 0 1-.173-.087l-.216-.086c-.476-.216-.908-.476-1.254-.822-.086-.086-.216-.173-.303-.26-.302-.302-.605-.648-.821-1.037l-.043-.087c-.044-.043-.044-.086-.087-.173 0-.086 0-.173.043-.216 0 0 .173-.216.303-.346.086-.086.13-.216.216-.303.087-.13.13-.302.087-.432-.044-.216-.562-1.384-.692-1.643a.5.5 0 0 0-.303-.216H6.21c-.086 0-.173.043-.26.043l-.042.043c-.087.043-.173.13-.26.173-.086.087-.13.173-.216.26-.303.389-.476.864-.476 1.34 0 .346.087.692.217.995l.043.13c.389.821.908 1.556 1.6 2.205l.173.173c.13.13.26.216.346.346a7.7 7.7 0 0 0 3.113 1.643c.13.043.303.043.433.086h.432c.216 0 .476-.086.649-.172.13-.087.216-.087.303-.174l.086-.086c.086-.086.173-.13.26-.216.086-.087.172-.173.216-.26.086-.173.13-.389.173-.605v-.303s-.044-.043-.13-.086"/></svg>