<svg xmlns="http://www.w3.org/2000/svg" fill="none" viewBox="-4 -4 24 24"><g fill="#0092d0" clip-path="url(#a)"><path d="M11.097 5.175a.143.143 0 0 0-.143-.143l-1.178.006L8 7.154 6.228 5.039l-1.18-.005a.14.14 0 0 0-.144.143q.001.052.034.093l2.323 2.768-2.323 2.766a.143.143 0 0 0 .109.236l1.18-.006 1.774-2.116 1.773 2.114 1.179.005a.14.14 0 0 0 .142-.142.15.15 0 0 0-.034-.093l-2.32-2.766 2.324-2.768a.14.14 0 0 0 .032-.093"/><path d="M8 0a8 8 0 1 0 .001 16.001A8 8 0 0 0 8 0m0 14.643A6.644 6.644 0 0 1 8 1.357a6.644 6.644 0 0 1 0 13.286"/></g><defs><clipPath id="a"><path fill="#fff" d="M0 0h16v16H0z"/></clipPath></defs></svg>