<svg xmlns="http://www.w3.org/2000/svg" fill="none" viewBox="-3 -3 24 24"><path fill="#0092d0" d="M13.687 10.058c-.59 1.194-1.388 2.385-2.205 3.453A35 35 0 0 1 9 16.403a35 35 0 0 1-2.482-2.892c-.816-1.068-1.615-2.259-2.205-3.453-.596-1.208-.938-2.338-.938-3.308a5.625 5.625 0 0 1 11.25 0c0 .97-.343 2.1-.938 3.307M9 18s6.75-6.397 6.75-11.25a6.75 6.75 0 0 0-13.5 0C2.25 11.603 9 18 9 18"/><path fill="#0092d0" d="M9 9a2.25 2.25 0 1 1 0-4.5A2.25 2.25 0 0 1 9 9m0 1.125a3.375 3.375 0 1 0 0-6.75 3.375 3.375 0 0 0 0 6.75"/></svg>