<svg xmlns="http://www.w3.org/2000/svg" fill="none" viewBox="-4 -4 24 24"><path fill="#0092d0" d="M3.762 3.757A5.98 5.98 0 0 1 8.005 2a6 6 0 0 1 5.2 3.005V3.333a.667.667 0 0 1 1.333 0v3.334a.667.667 0 0 1-.666.666h-3.334a.667.667 0 1 1 0-1.333h1.685a4.667 4.667 0 0 0-8.518.183c-.119.28-.383.484-.688.484-.442 0-.771-.413-.612-.826a6 6 0 0 1 1.357-2.084M12.26 9.921a4.68 4.68 0 0 1-4.255 2.746A4.67 4.67 0 0 1 3.787 10h1.685a.667.667 0 1 0 0-1.333H2.138a.667.667 0 0 0-.666.666v3.334a.667.667 0 1 0 1.333 0v-1.672A6 6 0 0 0 8.005 14a6.005 6.005 0 0 0 5.6-3.841c.16-.413-.17-.826-.612-.826-.306 0-.57.203-.688.484z"/></svg>