<svg xmlns="http://www.w3.org/2000/svg" fill="none" viewBox="-2.5 0 24 17"><path fill="#0092d0" fill-rule="evenodd" d="M12.961 0c-1.206 0-1.984.145-2.876.584q-.496.245-.927.587a5.2 5.2 0 0 0-.89-.56C7.36.158 6.542 0 5.378 0 2.265 0 0 2.599 0 5.974c0 2.55 1.412 5.011 4.04 7.392 1.38 1.25 3.143 2.487 4.405 3.145l.722.376.722-.376c1.262-.658 3.024-1.895 4.404-3.145 2.629-2.38 4.04-4.843 4.04-7.392 0-3.34-2.285-5.961-5.372-5.974m3.706 5.974c0 1.997-1.179 4.052-3.489 6.144-1.26 1.141-2.879 2.281-4.011 2.88-1.133-.599-2.752-1.739-4.012-2.88-2.31-2.092-3.488-4.147-3.488-6.144 0-2.494 1.57-4.296 3.712-4.296.925 0 1.494.11 2.15.437q.582.29 1.026.766l.614.659.607-.664q.454-.496 1.042-.785c.637-.314 1.171-.413 2.14-.413 2.115.009 3.709 1.837 3.709 4.296" clip-rule="evenodd"/></svg>