<svg xmlns="http://www.w3.org/2000/svg" fill="none" viewBox="-3 -3 24 24"><path fill="#0092d0" d="M5.16 14.175a.567.567 0 0 1-.562-.562V12.06c0-.307.255-.562.562-.562s.563.255.563.562v1.553a.56.56 0 0 1-.563.562M9 14.175a.567.567 0 0 1-.562-.562V10.5c0-.307.255-.562.562-.562s.563.255.563.562v3.113a.56.56 0 0 1-.563.562M12.84 14.175a.567.567 0 0 1-.563-.562V8.948c0-.308.255-.563.563-.563s.562.255.562.563v4.665a.557.557 0 0 1-.562.562M5.162 9.885a.57.57 0 0 1-.547-.427.56.56 0 0 1 .412-.683c2.76-.69 5.19-2.197 7.043-4.35l.345-.405a.567.567 0 0 1 .795-.06.567.567 0 0 1 .06.795l-.345.405a14.64 14.64 0 0 1-7.628 4.71c-.045.015-.09.015-.135.015"/><path fill="#0092d0" d="M12.842 7.14a.567.567 0 0 1-.562-.562V4.95h-1.635a.567.567 0 0 1-.563-.562c0-.308.255-.563.563-.563h2.197c.307 0 .563.255.563.563v2.197a.555.555 0 0 1-.563.555"/><path fill="#0092d0" d="M11.248 17.063h-4.5c-4.072 0-5.812-1.74-5.812-5.813v-4.5c0-4.072 1.74-5.812 5.812-5.812h4.5c4.073 0 5.813 1.74 5.813 5.812v4.5c0 4.073-1.74 5.813-5.813 5.813m-4.5-15c-3.457 0-4.687 1.23-4.687 4.687v4.5c0 3.457 1.23 4.688 4.687 4.688h4.5c3.458 0 4.688-1.23 4.688-4.688v-4.5c0-3.457-1.23-4.687-4.688-4.687z"/></svg>