<svg xmlns="http://www.w3.org/2000/svg" fill="none" viewBox="-4 0 24 15"><path fill="#0092d0" d="M2.096 2.136C3.29.868 5.214.868 6.41 2.136l.862.916a.593.593 0 0 0 .863 0l.863-.916c1.195-1.268 3.118-1.268 4.314 0 1.214 1.289 1.214 3.391 0 4.68a.593.593 0 1 0 .862.813c1.645-1.745 1.645-4.56 0-6.305-1.663-1.765-4.375-1.765-6.039 0l-.431.457-.432-.457c-1.663-1.765-4.375-1.765-6.039 0-1.644 1.744-1.644 4.56 0 6.305l6.04 6.407a.593.593 0 0 0 .862 0L9.32 12.78a.593.593 0 0 0-.862-.813l-.754.8-5.608-5.95c-1.214-1.289-1.214-3.391 0-4.68"/><path fill="#0092d0" d="M9.436 5.698a.593.593 0 0 0-1.11.04l-1.05 3.15H6.52a.593.593 0 1 0 0 1.186h1.185a.59.59 0 0 0 .562-.405l.685-2.054 2.354 5.65a.593.593 0 0 0 1.077.037l1.614-3.228h.819a.593.593 0 0 0 0-1.185H13.63a.59.59 0 0 0-.53.327l-1.2 2.398z"/></svg>