<svg xmlns="http://www.w3.org/2000/svg" fill="none" viewBox="-3 -3 24 24"><path fill="#0092d0" d="M12 17.062H6c-3.465 0-4.11-1.612-4.275-3.18l-.563-6.007c-.082-.788-.105-1.95.675-2.82.675-.75 1.793-1.11 3.413-1.11h7.5c1.627 0 2.745.367 3.412 1.11.78.87.758 2.032.675 2.827l-.562 5.993c-.165 1.575-.81 3.187-4.275 3.187m-6.75-12c-1.268 0-2.138.248-2.58.743-.368.405-.488 1.027-.39 1.957l.562 6.008c.128 1.185.45 2.167 3.158 2.167h6c2.7 0 3.03-.982 3.157-2.175l.563-5.992c.097-.938-.023-1.56-.39-1.965-.443-.495-1.313-.743-2.58-.743z"/><path fill="#0092d0" d="M12 5.063a.567.567 0 0 1-.562-.563v-.6c0-1.335 0-1.837-1.838-1.837H8.4c-1.838 0-1.838.502-1.838 1.837v.6A.567.567 0 0 1 6 5.063a.567.567 0 0 1-.562-.563v-.6c0-1.32 0-2.962 2.962-2.962h1.2c2.963 0 2.963 1.642 2.963 2.962v.6a.567.567 0 0 1-.563.563M9 12.563c-2.062 0-2.062-1.276-2.062-2.04V9.75c0-1.057.255-1.312 1.312-1.312h1.5c1.057 0 1.313.255 1.313 1.312v.75c0 .78 0 2.063-2.063 2.063m-.937-3v.96c0 .772 0 .915.937.915s.938-.12.938-.923v-.952H8.063"/><path fill="#0092d0" d="M10.5 11.078a.565.565 0 0 1-.068-1.125 11.83 11.83 0 0 0 5.476-2.16.56.56 0 0 1 .788.127c.18.248.127.6-.128.788a13 13 0 0 1-6 2.37zM7.502 11.085h-.068a12.86 12.86 0 0 1-5.79-2.168.565.565 0 0 1-.15-.78.565.565 0 0 1 .78-.15 11.8 11.8 0 0 0 5.28 1.98.563.563 0 0 1 .495.623.54.54 0 0 1-.547.495"/></svg>