<svg xmlns="http://www.w3.org/2000/svg" fill="none" viewBox="0 0 32 32"><path fill="#0092d0" d="M21.146 2.999a1 1 0 0 1 .784 1.176l-.353 1.768a1 1 0 0 1-1.961-.392l.353-1.768A1 1 0 0 1 21.146 3M16.707 2.98a1 1 0 0 1 1 1v4.242a1 1 0 1 1-2 0V3.979a1 1 0 0 1 1-1"/><path fill="#0092d0" fill-rule="evenodd" d="M14.586 8.929a1 1 0 0 0-1.524.13L9.694 13.82l-.058.058.01.01-3.392 4.795a5.066 5.066 0 0 0 7.062 7.062l4.795-3.392.01.01.059-.058 4.762-3.368a1 1 0 0 0 .13-1.524zm3.747 10.818 2.485-1.757-6.808-6.808-1.757 2.485zm-10.182-.282-.264.374a3.066 3.066 0 0 0 4.274 4.274l.374-.264zm1.172-1.657 4.869 4.869 2.485-1.758-5.596-5.596z" clip-rule="evenodd"/><path fill="#0092d0" d="M21.1 9.443a1 1 0 1 0-1.715-1.029l-1.06 1.768a1 1 0 1 0 1.715 1.03zM24.933 12.652a1 1 0 1 0-.895-1.79l-2.828 1.415a1 1 0 1 0 .894 1.789zM29.002 15.097a1 1 0 0 1-.785 1.176l-3.535.708a1 1 0 0 1-.393-1.962l3.536-.707a1 1 0 0 1 1.177.785M25.509 9.17a1 1 0 1 0-.633-1.897l-2.121.707a1 1 0 1 0 .632 1.898zM27.63 10.809a1 1 0 0 1 .633 1.265l-.354 1.06a1 1 0 1 1-1.897-.632l.353-1.06a1 1 0 0 1 1.265-.633"/></svg>