<svg xmlns="http://www.w3.org/2000/svg" fill="none" viewBox="0 0 32 32"><path fill="#0092d0" fill-rule="evenodd" d="M21.65 6.286a3.001 3.001 0 0 1 4.064 4.063c.56.37.992.938 1.179 1.637l.04.15a3 3 0 0 1-2.121 3.674l-1.771.474c-.16.904-.611 1.772-1.384 2.545-1.071 1.07-4.033 3.203-6.94 4.814-1.46.81-2.97 1.523-4.272 1.906-.649.191-1.299.316-1.893.304-.59-.012-1.248-.163-1.745-.66-.496-.497-.648-1.155-.66-1.745-.012-.594.113-1.244.304-1.893.383-1.302 1.097-2.811 1.906-4.271 1.611-2.908 3.743-5.87 4.814-6.94.773-.773 1.64-1.224 2.543-1.384l.475-1.773a3 3 0 0 1 3.674-2.121l.15.04c.7.187 1.268.62 1.637 1.18m1.42 4.058.345-.344-.007-.026.044-.011.326-.326a1 1 0 0 0-1.414-1.415l-.329.329-.01.04-.023-.007-.345.346a1 1 0 0 1-1.552-1.244.85.85 0 0 0-.61-.648l-.15-.04a1 1 0 0 0-1.224.707l-.366 1.364c1.175.321 2.266 1.054 3.194 1.982s1.66 2.018 1.982 3.192l1.363-.365a1 1 0 0 0 .707-1.225l-.04-.15a.85.85 0 0 0-.646-.609 1 1 0 0 1-1.244-1.55m-6.168.583c-.776-.124-1.56.074-2.317.831-.882.882-2.908 3.661-4.478 6.495-.782 1.41-1.415 2.771-1.737 3.867-.162.55-.23.98-.223 1.288.003.15.023.248.043.306a.3.3 0 0 0 .031.065l.012.008a.3.3 0 0 0 .054.024c.058.02.155.04.305.042.308.006.738-.06 1.289-.223a14 14 0 0 0 1.762-.672l-.593-.593a1 1 0 1 1 1.414-1.415l1.064 1.064a38 38 0 0 0 1.79-1.038l-1.086-1.086a1 1 0 0 1 1.414-1.415l1.393 1.394c.609-.41 1.17-.81 1.655-1.174l-1.28-1.28A1 1 0 0 1 18.828 16l1.414 1.414c.758-.757.955-1.541.83-2.317-.132-.827-.653-1.749-1.537-2.633s-1.805-1.405-2.633-1.538" clip-rule="evenodd"/></svg>