<svg xmlns="http://www.w3.org/2000/svg" fill="none" viewBox="0 0 32 32"><path fill="#0092d0" fill-rule="evenodd" d="M9.132 18.579c.398.276.88.421 1.424.421.541 0 1.036-.146 1.419-.495.358-.327.5-.729.572-.965l.012-.04h6.901l.017.055c.073.23.217.622.564.944.377.35.864.501 1.403.501.54 0 1.015-.15 1.406-.424a2.5 2.5 0 0 0 .792-.948c.31-.633.358-1.308.358-1.628a1.8 1.8 0 0 0-.298-1A1.786 1.786 0 0 0 24 14c0-.32-.047-.995-.358-1.628a2.5 2.5 0 0 0-.792-.948A2.4 2.4 0 0 0 21.444 11c-.54 0-1.026.152-1.403.5-.347.322-.49.716-.564.945l-.017.055H12.6l-.002-.007c-.067-.252-.207-.672-.588-1.009-.397-.35-.906-.484-1.454-.484-.556 0-1.051.136-1.461.415-.407.275-.66.643-.814.991-.282.635-.281 1.314-.281 1.57V14a1.8 1.8 0 0 0 .298 1A1.786 1.786 0 0 0 8 16c0 .294.027.975.333 1.617.16.335.41.691.8.962m.869-2.528.012-.018.018-.024c.087-.118.358-.487.358-1.009s-.271-.89-.358-1.009l-.018-.024-.013-.019c.002-.253.017-.525.108-.73a.33.33 0 0 1 .11-.148c.027-.019.115-.07.338-.07q.069 0 .109.005v.002c.012.044.02.08.031.13l.024.11c.021.093.058.251.126.41.071.166.2.397.446.58.258.193.55.263.82.263h7.777c.27 0 .55-.07.798-.243a1.45 1.45 0 0 0 .458-.532c.08-.155.13-.31.16-.41l.041-.141A3 3 0 0 1 21.4 13l.044-.001c.157 0 .224.038.255.06.041.029.094.085.148.193.108.22.146.51.152.696l-.012.018-.018.024c-.087.118-.358.487-.358 1.009s.271.89.358 1.009l.018.024.012.018c-.006.186-.044.475-.152.696a.5.5 0 0 1-.148.193c-.03.022-.098.06-.255.06l-.044-.001-.018-.054-.036-.119-.041-.142a2.4 2.4 0 0 0-.16-.409 1.45 1.45 0 0 0-.458-.532 1.4 1.4 0 0 0-.798-.243H12.11c-.27 0-.553.07-.804.25a1.4 1.4 0 0 0-.455.546 2.4 2.4 0 0 0-.15.41l-.035.132-.034.122-.012.038-.065.002c-.179 0-.253-.043-.282-.063a.44.44 0 0 1-.135-.18c-.102-.214-.134-.5-.138-.706m11.336-3.042h.003zm-10.597.01-.005-.002.002.002z" clip-rule="evenodd"/><path fill="#0092d0" fill-rule="evenodd" d="M5.845 8.849 4.14 20H4a1 1 0 0 0-1 1v3a1 1 0 0 0 1 1h24a1 1 0 0 0 1-1v-3a1 1 0 0 0-1-1h-.141L26.155 8.849A1 1 0 0 0 25.167 8H6.833a1 1 0 0 0-.988.849M25.835 20l-1.527-10H7.692L6.164 20zM5 23v-1h22v1z" clip-rule="evenodd"/></svg>