<svg xmlns="http://www.w3.org/2000/svg" fill="none" viewBox="0 0 32 32"><path fill="#0092d0" d="M8 13a1 1 0 0 1 1 1v10a1 1 0 1 1-2 0V14a1 1 0 0 1 1-1M25 14a1 1 0 1 0-2 0v10a1 1 0 1 0 2 0zM16 15a1 1 0 0 1 1 1v2h2a1 1 0 1 1 0 2h-2v2a1 1 0 1 1-2 0v-2h-2a1 1 0 1 1 0-2h2v-2a1 1 0 0 1 1-1"/><path fill="#0092d0" fill-rule="evenodd" d="M6 9a3 3 0 0 0-3 3v14a3 3 0 0 0 3 3h20a3 3 0 0 0 3-3V12a3 3 0 0 0-3-3V8a1 1 0 0 0-1-1h-2a1 1 0 0 0-1 1v1h-2V6a3 3 0 0 0-3-3h-2a3 3 0 0 0-3 3v3h-2V8a1 1 0 0 0-1-1H7a1 1 0 0 0-1 1zm8-3a1 1 0 0 1 1-1h2a1 1 0 0 1 1 1v3h-4zm-8 5a1 1 0 0 0-1 1v14a1 1 0 0 0 1 1h20a1 1 0 0 0 1-1V12a1 1 0 0 0-1-1z" clip-rule="evenodd"/></svg>