<svg xmlns="http://www.w3.org/2000/svg" fill="none" viewBox="0 0 32 32"><path stroke="#0092d0" stroke-linecap="round" stroke-linejoin="round" stroke-width="2" d="M28 14.667v-3.334a2 2 0 0 0-2-2h-3.333M28 14.667H4m24 0h-1.333v10a2 2 0 0 1-2 2H16m-12-12v-3.334a2 2 0 0 1 2-2h3.333M4 14.667c.736 0 1.333.597 1.333 1.333v8.667a2 2 0 0 0 2 2H16m0-17.334v17.334m0-17.334h6.667m-6.667 0H9.333m6.667 0V8m6.667 1.333.42-1.684a2.937 2.937 0 0 0-5.292-2.341L16 8M9.333 9.333l-.42-1.684a2.937 2.937 0 0 1 5.292-2.341L16 8"/></svg>