<svg xmlns="http://www.w3.org/2000/svg" fill="none" viewBox="-4 0 24 17"><path fill="#0092d0" fill-rule="evenodd" d="M5.334 4.027H4.001v-.671H2.667V5.37h10.667V3.356h-1.333v.671h-1.334v-.671H5.334zm8 2.685H2.667v6.713h10.667zm-2.667-4.698H5.334v-.672H4.001v.672H2.667c-.736 0-1.333.6-1.333 1.342v10.069c0 .741.597 1.342 1.333 1.342h10.667c.736 0 1.333-.6 1.333-1.342V3.356c0-.741-.597-1.342-1.333-1.342h-1.333v-.672h-1.334zm-6 7.383V8.055h1.334v1.342zm2.667 0h1.333V8.055H7.334zm4 0h-1.333V8.055h1.333zM4.667 10.74v1.342h1.334V10.74zm4 1.342H7.334V10.74h1.333z" clip-rule="evenodd"/></svg>