<svg xmlns="http://www.w3.org/2000/svg" fill="none" viewBox="0 0 24 25"><path fill="#0092d0" fill-rule="evenodd" d="M18 17.117v2.014c2.761 0 5-2.254 5-5.035 0-2.532-1.857-4.628-4.275-4.982-.85-2.967-3.566-5.087-6.725-5.087A6.98 6.98 0 0 0 6.22 7.1C3.267 7.484 1 10.027 1 13.089c0 2.994 2.162 5.479 5 5.958V16.99a4.024 4.024 0 0 1-3-3.9c0-2.165 1.7-3.94 3.84-4.025l.55-.022.276-.48A4.99 4.99 0 0 1 12 6.04c2.451 0 4.53 1.789 4.93 4.195l.144.858.863-.018H18c1.657 0 3 1.352 3 3.02a3.01 3.01 0 0 1-3 3.02m-7-5.035v6.297l-2.293-2.26-1.414 1.394L12 22.15l4.707-4.638-1.414-1.394L13 18.38v-6.297z" clip-rule="evenodd"/></svg>