<svg xmlns="http://www.w3.org/2000/svg" fill="none" viewBox="0 0 90 90"><path fill="#0092d0" d="M71.912 32.476c.582 0 1.048.466 1.048 1.048s-.466 1.049-1.048 1.049a1.044 1.044 0 0 1-1.049-1.049c0-.582.466-1.048 1.049-1.048M71.213 68.126c.582 0 1.048.466 1.048 1.048s-.466 1.05-1.048 1.05a1.044 1.044 0 0 1-1.049-1.05c0-.582.466-1.048 1.049-1.048M69 47.738c.582 0 1.048.466 1.048 1.049 0 .582-.466 1.048-1.048 1.048a1.044 1.044 0 0 1-1.049-1.048c0-.583.466-1.049 1.049-1.049M21 39.699a1.049 1.049 0 1 0 0-2.097 1.049 1.049 0 0 0 0 2.097M19.486 68.126c.583 0 1.049.466 1.049 1.048s-.466 1.05-1.049 1.05a1.044 1.044 0 0 1-1.049-1.05c0-.582.466-1.048 1.049-1.048M17.388 16.398c.583 0 1.049.466 1.049 1.049 0 .582-.466 1.049-1.049 1.049a1.044 1.044 0 0 1-1.048-1.049c0-.583.466-1.049 1.048-1.049M60.378 18.612h-5.475v-.466A3.133 3.133 0 0 0 51.757 15H37.544a3.133 3.133 0 0 0-3.146 3.146v.466h-5.476a3.93 3.93 0 0 0-3.961 3.96V71.04A3.93 3.93 0 0 0 28.922 75h31.456a3.93 3.93 0 0 0 3.962-3.961V22.573c0-2.214-1.865-3.961-3.962-3.961m-24.466-.583c0-.932.7-1.63 1.632-1.63H51.64c.932 0 1.63.698 1.63 1.63v2.447c0 .932-.698 1.63-1.63 1.63H37.544c-.933 0-1.632-.698-1.632-1.63zm26.913 53.01c0 1.398-1.165 2.447-2.447 2.447H28.922c-1.398 0-2.447-1.166-2.447-2.447V22.573c0-1.398 1.166-2.447 2.447-2.447h5.476v.466a3.133 3.133 0 0 0 3.145 3.146h14.098a3.133 3.133 0 0 0 3.145-3.146v-.466h5.476c1.398 0 2.447 1.165 2.447 2.447v48.466zM72.261 17.097a4.425 4.425 0 0 0-4.427 4.427 4.425 4.425 0 0 0 4.427 4.427 4.425 4.425 0 0 0 4.427-4.427 4.425 4.425 0 0 0-4.427-4.427m0 7.34a2.884 2.884 0 0 1-2.912-2.913 2.884 2.884 0 0 1 2.912-2.913 2.884 2.884 0 0 1 2.913 2.913 2.884 2.884 0 0 1-2.913 2.912M16.922 52.748a3.63 3.63 0 0 0-3.612 3.612 3.63 3.63 0 0 0 3.612 3.611 3.63 3.63 0 0 0 3.612-3.611c0-1.98-1.515-3.612-3.612-3.612m0 5.825a2.21 2.21 0 0 1-2.213-2.213c0-1.165.932-2.214 2.213-2.214 1.165 0 2.214.932 2.214 2.214 0 1.281-.932 2.213-2.214 2.213"/><path fill="#0092d0" d="M36.03 53.563h-2.331c-.35 0-.699.35-.699.699 0 .35.35.699.699.699h2.33a2.76 2.76 0 0 0 2.097 2.097v2.33c0 .35.35.699.7.699.349 0 .698-.35.698-.7v-2.33a2.76 2.76 0 0 0 2.097-2.096h2.33v4.427c0 .35.35.699.7.699.349 0 .698-.35.698-.7v-4.426h2.33a2.76 2.76 0 0 0 2.098 2.097v2.33c0 .35.35.699.699.699.35 0 .699-.35.699-.7v-2.33a2.76 2.76 0 0 0 2.097-2.096h2.33c.35 0 .699-.35.699-.7 0-.349-.35-.698-.7-.698h-2.33a2.76 2.76 0 0 0-2.096-2.097v-2.33h4.427c.35 0 .699-.35.699-.7s-.35-.699-.7-.699h-4.426v-3.029a2.76 2.76 0 0 0 2.097-2.097h2.33c.35 0 .699-.35.699-.699 0-.35-.35-.699-.7-.699h-2.33a2.76 2.76 0 0 0-2.096-2.097v-2.33c0-.35-.35-.7-.7-.7-.349 0-.698.35-.698.7v2.33a2.76 2.76 0 0 0-2.097 2.097h-2.33v-4.427c0-.35-.35-.7-.7-.7-.349 0-.698.35-.698.7v4.427h-2.33a2.76 2.76 0 0 0-2.098-2.097v-2.33c0-.35-.35-.7-.699-.7-.35 0-.699.35-.699.7v2.33a2.76 2.76 0 0 0-2.097 2.097H33.7c-.35 0-.699.35-.699.7 0 .349.35.698.699.698h2.33a2.76 2.76 0 0 0 2.097 2.097v3.03H33.7c-.35 0-.699.349-.699.698 0 .35.35.7.699.7h4.427v2.33a2.76 2.76 0 0 0-2.097 2.097m2.795 2.097c-.815 0-1.514-.7-1.514-1.515s.699-1.514 1.514-1.514 1.515.699 1.515 1.514-.7 1.515-1.515 1.515m13.049-1.398c0 .815-.7 1.514-1.515 1.514s-1.514-.699-1.514-1.514.699-1.515 1.514-1.515 1.515.7 1.515 1.515m-2.097-2.796a2.76 2.76 0 0 0-2.097 2.097h-2.33v-2.33a2.76 2.76 0 0 0 2.097-2.097h2.33zm-5.126-4.544c.815 0 1.514.699 1.514 1.514s-.699 1.515-1.514 1.515-1.515-.699-1.515-1.515c0-.815.699-1.514 1.514-1.514m5.825-6.524c.815 0 1.514.699 1.514 1.514s-.699 1.515-1.514 1.515-1.515-.7-1.515-1.515.7-1.514 1.515-1.514M47.68 42.61a2.76 2.76 0 0 0 2.097 2.097v3.03h-2.33a2.76 2.76 0 0 0-2.098-2.098v-3.029zm-10.37-.699c0-.815.7-1.514 1.515-1.514.816 0 1.515.699 1.515 1.514s-.7 1.515-1.515 1.515c-.815-.117-1.514-.7-1.514-1.515m2.214 2.796a2.76 2.76 0 0 0 2.097-2.097h2.33v3.03a2.76 2.76 0 0 0-2.097 2.096h-2.33zm2.33 4.428a2.76 2.76 0 0 0 2.098 2.096v2.33h-2.33a2.76 2.76 0 0 0-2.098-2.096v-2.33z"/><path fill="#0092d0" d="M59.214 27.35c-.35 0-.7.35-.7.699v37.165H30.788V28.049c0-.35-.35-.7-.7-.7-.349 0-.698.35-.698.7v41.475c0 .35.35.7.699.7h29.126c.35 0 .699-.35.699-.7V28.05c0-.466-.35-.7-.7-.7M30.787 68.825v-2.213h27.728v2.213z"/></svg>