<svg xmlns="http://www.w3.org/2000/svg" fill="none" viewBox="0 0 90 90"><path fill="#0092d0" d="M20.615 54.4c.5 0 .91.4.91.9s-.41.9-.91.9-.91-.4-.91-.9.41-.9.91-.9M47.225 43.8c.5 0 .91.4.91.9s-.41.9-.91.9-.91-.4-.91-.9.41-.9.91-.9M69.275 23.9c.5 0 .91.4.91.9s-.41.9-.91.9-.91-.4-.91-.9.41-.9.91-.9M48.435 19.4c.5 0 .91.4.91.9s-.41.9-.91.9-.91-.4-.91-.9.41-.9.91-.9M41.555 30c.5 0 .91.4.91.9s-.41.9-.91.9-.91-.4-.91-.9.41-.9.91-.9M26.72 26c.5 0 .91.4.91.9s-.41.9-.91.9-.91-.4-.91-.9.41-.9.91-.9"/><path fill="#0092d0" d="M72.205 35.4v-.8c0-1.5-1.21-2.7-2.73-2.7h-13.56c-1.52 0-2.73 1.2-2.73 2.7v.8c0 .8.4 1.6 1.01 2.1-.61.5-1.01 1.2-1.01 2.1v.8c0 .8.4 1.6 1.01 2.1-.61.5-1.01 1.2-1.01 2.1v.8c0 .8.4 1.6 1.01 2.1-.61.5-1.01 1.2-1.01 2.1v.8c0 .8.4 1.6 1.01 2.1l-.4.4c-.51-.6-1.21-1-2.12-1h-13.66c-2.23 0-2.53 2.288-2.53 3.5 0 .8.41 1.6 1.01 2.1-.61.5-1.01 1.2-1.01 2.1v.8c0 .8.41 1.6 1.01 2.1l-.4.4c-.51-.6-1.21-1-2.12-1h-13.45c-1.52 0-2.73 1.2-2.73 2.7v.8c0 .8.4 1.6 1.01 2.1-.61.5-1.01 1.2-1.01 2.1v.8c0 1.5 1.21 2.7 2.73 2.7h13.45c.81 0 1.62-.4 2.12-1 .51.6 1.21 1 2.12 1h13.45c.81 0 1.62-.4 2.12-1 .51.6 1.21 1 2.12 1h13.45c1.52 0 2.73-1.2 2.73-2.7v-.8c0-.8-.4-1.6-1.01-2.1.61-.5 1.01-1.2 1.01-2.1v-.8c0-.8-.4-1.6-.91-2 .61-.5.91-1.2.91-2v-1.1c0-.8-.4-1.5-.91-2 .61-.5.91-1.2.91-2v-.8c0-.8-.4-1.6-1.01-2.1.61-.5 1.01-1.2 1.01-2.1v-.8c0-.8-.4-1.6-1.01-2.1.61-.5 1.01-1.2 1.01-2.1v-.8c0-.8-.4-1.6-1.01-2.1.61-.5 1.01-1.2 1.01-2.1v-.8c0-.8-.4-1.6-1.01-2.1.71-.6 1.11-1.3 1.11-2.2zm-35.4 20v-.8c0-.8.71-1.5 1.52-1.5h13.45c.81 0 1.52.7 1.52 1.5v.8c0 .8-.71 1.5-1.52 1.5h-13.56c-.81 0-1.42-.7-1.42-1.5zm17.4 2.1-.3.3-.3-.3c.1-.1.2-.2.41-.4-.1.2.1.3.2.4zm0 5-.3.3-.4-.4.3-.3c.1.2.2.3.4.4m-17.4-2.1v-.8c0-.7.51-1.3 1.32-1.4v1.2c0 .3.3.6.61.6s.61-.3.61-.6v-1.3h1.31v1.3c0 .3.3.6.61.6s.61-.3.61-.6v-1.3h1.32v1.3c0 .3.3.6.61.6s.61-.3.61-.6v-1.3h1.32v1.3c0 .3.3.6.61.6s.61-.3.61-.6v-1.3h1.31v1.3c0 .3.3.6.61.6s.61-.3.61-.6v-1.3h1.32v1.3c0 .3.3.6.61.6s.61-.3.61-.6v-1.2c.71.1 1.32.7 1.32 1.4v.8c0 .8-.71 1.5-1.52 1.5h-13.56c-.81 0-1.42-.7-1.42-1.5zm1.41 2.7h13.45c.81 0 1.52.7 1.52 1.5v.8c0 .8-.71 1.5-1.52 1.5h-13.45c-.81 0-1.52-.7-1.52-1.5v-.8c.1-.8.71-1.5 1.52-1.5m15.99 4.4-.4.4c-.1-.1-.2-.2-.41-.4.1-.1.2-.2.41-.4zm-18.01.4c-.1-.1-.2-.2-.41-.4.1-.1.2-.2.41-.4l.4.4c-.2.1-.3.2-.4.4m-17.1-2.5v-.8c0-.8.71-1.5 1.52-1.5h13.45c.81 0 1.52.7 1.52 1.5v.8c0 .8-.71 1.5-1.52 1.5h-13.55c-.81 0-1.42-.7-1.42-1.5m14.98 6.5h-13.55c-.81 0-1.52-.7-1.52-1.5v-.8c0-.7.51-1.3 1.31-1.4v1.2c0 .3.3.6.61.6s.61-.3.61-.6v-1.3h1.31v1.3c0 .3.3.6.61.6s.61-.3.61-.6v-1.3h1.32v1.3c0 .3.3.6.61.6s.61-.3.61-.6v-1.3h1.31v1.3c0 .3.3.6.61.6s.61-.3.61-.6v-1.3h1.31v1.3c0 .3.3.6.61.6s.61-.3.61-.6v-1.3h1.32v1.3c0 .3.3.6.61.6s.61-.3.61-.6v-1.2c.71.1 1.31.7 1.31 1.4v.8c0 .8-.61 1.5-1.42 1.5zm17.7 0h-13.56c-.81 0-1.52-.7-1.52-1.5v-.8c0-.7.51-1.3 1.32-1.4v1.2c0 .3.3.6.61.6s.61-.3.61-.6v-1.3h1.32v1.3c0 .3.3.6.61.6s.61-.3.61-.6v-1.3h1.31v1.3c0 .3.3.6.61.6s.61-.3.61-.6v-1.3h1.32v1.3c0 .3.3.6.61.6s.61-.3.61-.6v-1.3h1.32v1.3c0 .3.3.6.61.6s.61-.3.61-.6v-1.3h1.31v1.3c0 .3.3.6.61.6s.61-.3.61-.6v-1.2c.71.1 1.32.7 1.32 1.4v.8c0 .8-.61 1.5-1.42 1.5zm19.12-1.5c0 .8-.71 1.5-1.52 1.5h-13.45c-.81 0-1.52-.7-1.52-1.5v-.8c0-.7.51-1.3 1.32-1.4v1.2c0 .3.3.6.61.6s.61-.3.61-.6v-1.3h1.31v1.3c0 .3.3.6.61.6s.61-.3.61-.6v-1.3h1.31v1.3c0 .3.3.6.61.6s.61-.3.61-.6v-1.3h1.32v1.3c0 .3.3.6.61.6s.61-.3.61-.6v-1.3h1.32v1.3c0 .3.3.6.61.6s.61-.3.61-.6v-1.3h1.31v1.3c0 .3.3.6.61.6s.61-.3.61-.6v-1.2c.71.1 1.32.7 1.32 1.4v.8zm-14.97-3.5c-.81 0-1.52-.7-1.52-1.5v-.8c0-.8.71-1.5 1.52-1.5h13.45c.81 0 1.52.7 1.52 1.5v.8c0 .8-.71 1.5-1.52 1.5zm-.11-5c-.71 0-1.31-.6-1.31-1.3v-1.1c0-.7.61-1.3 1.31-1.3v1.2c0 .3.3.6.61.6s.61-.3.61-.6v-1.3h1.32v1.3c0 .3.3.6.61.6s.61-.3.61-.6v-1.3h1.32v1.3c0 .3.3.6.61.6s.61-.3.61-.6v-1.3h1.31v1.3c0 .3.3.6.61.6s.61-.3.61-.6v-1.3h1.32v1.3c0 .3.3.6.61.6s.61-.3.61-.6v-1.3h1.32v1.3c0 .3.3.6.61.6s.61-.3.61-.6v-1.2c.71 0 1.31.6 1.31 1.3v1.1c0 .7-.61 1.3-1.31 1.3h-13.91m15.08-7.3v.8c0 .8-.71 1.5-1.52 1.5h-13.45c-.81 0-1.52-.7-1.52-1.5v-.8c0-.8.71-1.5 1.52-1.5h13.45c.91 0 1.52.7 1.52 1.5m-14.97-2.7c-.81 0-1.52-.7-1.52-1.5v-.8c0-.7.51-1.3 1.32-1.4v1.2c0 .3.3.6.61.6s.61-.3.61-.6v-1.3h1.31v1.3c0 .3.3.6.61.6s.61-.3.61-.6v-1.3h1.31v1.3c0 .3.3.6.61.6s.61-.3.61-.6v-1.3h1.32v1.3c0 .3.3.6.61.6s.61-.3.61-.6v-1.3h1.32v1.3c0 .3.3.6.61.6s.61-.3.61-.6v-1.3h1.31v1.3c0 .3.3.6.61.6s.61-.3.61-.6v-1.2c.71.1 1.32.7 1.32 1.4v.8c0 .8-.71 1.5-1.52 1.5h-13.49m14.97-7.3v.8c0 .8-.71 1.5-1.52 1.5h-13.45c-.81 0-1.52-.7-1.52-1.5v-.8c0-.8.71-1.5 1.52-1.5h13.45c.91 0 1.52.7 1.52 1.5m-14.97-2.7c-.81 0-1.52-.7-1.52-1.5v-.8c0-.7.51-1.3 1.32-1.4v1.2c0 .3.3.6.61.6s.61-.3.61-.6v-1.3h1.31v1.3c0 .3.3.6.61.6s.61-.3.61-.6v-1.3h1.31v1.3c0 .3.3.6.61.6s.61-.3.61-.6v-1.3h1.32v1.3c0 .3.3.6.61.6s.61-.3.61-.6v-1.3h1.32v1.3c0 .3.3.6.61.6s.61-.3.61-.6v-1.3h1.31v1.3c0 .3.3.6.61.6s.61-.3.61-.6v-1.2c.71.1 1.32.7 1.32 1.4v.8c0 .8-.71 1.5-1.52 1.5h-13.49m0-5c-.81 0-1.52-.7-1.52-1.5v-.8c0-.8.71-1.5 1.52-1.5h13.45c.81 0 1.52.7 1.52 1.5v.8c0 .8-.71 1.5-1.52 1.5zM58.955 26.9c2.83 0 5.06-2.2 5.06-5s-2.23-5-5.06-5-5.06 2.2-5.06 5 2.23 5 5.06 5m0-8.8c2.12 0 3.84 1.7 3.84 3.8s-1.72 3.8-3.84 3.8-3.84-1.8-3.84-3.8 1.72-3.8 3.84-3.8M32.473 46.288c1.92 0 3.44-1.5 3.44-3.4s-1.52-3.4-3.44-3.4-3.44 1.5-3.44 3.4 1.52 3.4 3.44 3.4m0-5.6c1.21 0 2.23 1 2.23 2.2s-1.01 2.2-2.23 2.2-2.23-1-2.23-2.2 1.01-2.2 2.23-2.2"/></svg>