<svg xmlns="http://www.w3.org/2000/svg" fill="none" viewBox="0 0 90 90"><path fill="#0092d0" stroke="#fff" stroke-width=".8" d="M44.994 53.15c-3.84 0-6.98-3.1-6.98-6.9s3.14-6.9 6.98-6.9c.71 0 1.32-.6 1.32-1.3s-.61-1.3-1.32-1.3c-5.26 0-9.51 4.2-9.51 9.4s4.25 9.4 9.51 9.4c.71 0 1.32-.6 1.32-1.3s-.61-1.1-1.32-1.1Z"/><path fill="#0092d0" stroke="#fff" stroke-width=".8" d="M62.095 46.35c0 9.3-7.69 16.9-17.1 16.9s-17.1-7.6-17.1-16.9c0-.7-.61-1.3-1.31-1.3s-1.31.6-1.31 1.3c0 10.7 8.8 19.4 19.62 19.4s19.62-8.7 19.62-19.4c0-4.9-1.82-9.4-4.86-12.8l1.31-1.3c.51-.5.51-1.3 0-1.8s-1.31-.5-1.82 0l-1.32 1.3c-3.44-3-7.99-4.8-12.95-4.8-.71 0-1.31.6-1.31 1.3s.61 1.3 1.31 1.3c4.25 0 8.19 1.5 11.13 4.1l-1.82 1.8c-2.53-2.1-5.77-3.4-9.31-3.4-7.99 0-14.57 6.4-14.57 14.4s6.47 14.4 14.57 14.4 14.57-6.4 14.57-14.4c0-3.5-1.31-6.7-3.44-9.2l1.82-1.8c2.63 2.8 4.25 6.6 4.25 10.9zm-5.06 0c0 6.5-5.36 11.9-12.04 11.9s-12.04-5.3-12.04-11.9 5.46-11.9 12.04-11.9c2.83 0 5.46 1 7.59 2.6l-5.46 5.4c-1.62-.9-3.74-.7-5.26.8a4.37 4.37 0 0 0 0 6.2c1.72 1.7 4.55 1.7 6.27 0 1.42-1.4 1.62-3.5.81-5.2l5.46-5.4c1.62 2 2.63 4.6 2.63 7.5Zm-10.72 1.3c-.71.7-1.92.7-2.73 0-.71-.7-.71-1.9 0-2.7.71-.7 1.92-.7 2.73 0 .81.8.81 1.9 0 2.7Z"/><path fill="#0092d0" stroke="#fff" stroke-width=".8" d="M64.726 65.75c.4-.5.4-1.1.2-1.5q0-.1-.1-.1s0-.1-.1-.1l-.1-.1c-.1 0 0 0-.1-.1-.1 0 0 0-.1-.1h-.2c-.2-.1-.1 0-3.84 0-.71 0-1.31.6-1.31 1.3s.61 1.3 1.31 1.3h.2c-9.91 7.2-24.18 6.8-33.48-2.4-6.58-6.5-9-16-6.37-24.8.2-.7-.2-1.4-.81-1.6s-1.42.2-1.62.8c-2.93 9.7-.2 20.2 6.98 27.3 10.92 10.8 28.53 10.9 39.45.1zM64.625 26.85c-10.93-10.8-28.53-10.7-39.35 0l-.1.1-.1.1-.1.1s0 .1-.1.1v.8c.1.2.2.4.4.5.1 0 0 0 .1.1.1 0 0 0 .1.1h4.35c.71 0 1.32-.6 1.32-1.3s-.61-1.2-1.32-1.2h-.4c10.01-7.7 24.38-6.7 33.28 2.1 7.28 7.2 9.41 17.8 5.46 27.2-.3.6 0 1.4.71 1.6.61.3 1.42 0 1.62-.7 4.45-9.8 2.23-21.6-5.87-29.6ZM19.705 65.05c-2.12 0-3.84 1.7-3.84 3.8s1.72 3.8 3.84 3.8 3.84-1.7 3.84-3.8c-.1-2.1-1.72-3.8-3.84-3.8Zm0 5c-.71 0-1.31-.6-1.31-1.3s.61-1.3 1.31-1.3 1.31.6 1.31 1.3-.61 1.3-1.31 1.3ZM19.705 23.75c2.12 0 3.84-1.7 3.84-3.8s-1.72-3.8-3.84-3.8-3.84 1.7-3.84 3.8 1.72 3.8 3.84 3.8Zm0-5c.71 0 1.31.6 1.31 1.3s-.61 1.3-1.31 1.3-1.31-.6-1.31-1.3.61-1.3 1.31-1.3ZM69.684 26.25c2.43 0 4.45-2 4.45-4.4s-2.02-4.4-4.45-4.4-4.45 2-4.45 4.4 2.02 4.4 4.45 4.4Zm0-6.2c1.01 0 1.92.8 1.92 1.9 0 1-.81 1.9-1.92 1.9s-1.92-.9-1.92-1.9c0-1.1.81-1.9 1.92-1.9ZM70.285 63.75a1.3 1.3 0 1 1 0 2.6c-.72 0-1.31-.58-1.31-1.3s.59-1.3 1.31-1.3ZM65.236 71.25a1.3 1.3 0 1 1 0 2.6c-.72 0-1.31-.58-1.31-1.3s.59-1.3 1.31-1.3ZM28.505 71.35c.67 0 1.21.54 1.21 1.2s-.54 1.2-1.21 1.2-1.21-.54-1.21-1.2.54-1.2 1.21-1.2ZM61.486 17.45a1.3 1.3 0 1 1 0 2.6c-.72 0-1.32-.58-1.32-1.3s.59-1.3 1.32-1.3ZM28.505 18.85c.67 0 1.21.54 1.21 1.2s-.54 1.2-1.21 1.2-1.21-.54-1.21-1.2.54-1.2 1.21-1.2Z"/></svg>