<svg xmlns="http://www.w3.org/2000/svg" fill="none" viewBox="0 0 90 90"><path fill="#0092d0" d="M46.002 56.737c-4.141 0-7.397 3.322-7.397 7.308s3.367 7.308 7.397 7.308 7.396-3.322 7.396-7.308c.111-3.986-3.244-7.308-7.396-7.308m0 13.398c-3.366 0-6.046-2.657-6.046-5.979s2.691-5.98 6.046-5.98 6.046 2.658 6.046 5.98-2.691 5.98-6.046 5.98"/><path fill="#0092d0" d="M53.731 56.404c-2.015-1.993-4.817-3.21-7.729-3.21-6.045 0-10.973 4.871-10.973 10.85 0 2.88 1.119 5.648 3.245 7.64.221.222.675.222 1.007 0 .222-.22.222-.664 0-.996-1.794-1.772-2.801-4.097-2.801-6.643 0-5.205 4.252-9.412 9.522-9.412 2.58 0 4.928.996 6.721 2.768 3.699 3.654 3.699 9.633 0 13.398-.221.221-.221.664 0 .996.222.222.676.222 1.008 0 4.374-4.207 4.374-11.072 0-15.39"/><path fill="#0092d0" d="m65.944 61.277-4.928-.665c-.11-.664-.332-1.218-.564-1.882l3.92-2.879c.332-.221.332-.664.22-.886l-1.45-2.325c-.221-.332-.564-.443-.786-.332l-4.706 1.66c-.443-.553-1.007-.996-1.572-1.439l1.794-4.318c.11-.332 0-.664-.332-.886l-2.47-1.107c-.332-.11-.675-.11-.896.11l-3.134 3.655c-.675-.222-1.45-.443-2.126-.554L48.239 45l.675-4.43c.675-.11 1.462-.331 2.126-.553l3.134 3.654c.221.222.564.333.896.111l2.47-1.329c.332-.221.454-.553.332-.886l-1.794-4.318c.565-.443 1.008-.886 1.572-1.44l4.706 1.662c.332.11.676 0 .786-.333l1.45-2.325c.222-.332.112-.664-.22-.886l-3.92-2.879c.221-.664.443-1.218.565-1.882l4.927-.664c.332 0 .564-.332.564-.665V25.18c0-.332-.22-.664-.564-.664l-5.038-.554a8.7 8.7 0 0 0-.565-1.882l3.92-2.88c.332-.22.332-.664.221-.885l-1.461-2.325c-.222-.333-.565-.443-.787-.333l-4.251 1.661v-3.654c0-.332-.333-.664-.676-.664s-.675.332-.675.664v4.54c0 .443.443.775.897.665l4.595-1.661.786 1.218-3.81 2.768c-.22.221-.331.553-.22.775.332.886.564 1.771.786 2.657 0 .332.332.554.564.554l4.817.664v1.44l-4.817.664c-.332 0-.564.222-.564.554-.111.886-.443 1.771-.787 2.657-.11.332 0 .665.222.775l3.809 2.768-.786 1.44-4.596-1.661c-.22-.11-.564 0-.786.221-.564.665-1.34 1.33-2.015 1.883-.221.221-.332.553-.221.775l1.794 4.208-1.34.775-3.023-3.544c-.222-.221-.443-.332-.786-.221-.897.332-1.905.553-2.802.664-.332 0-.564.332-.564.554l-.676 4.429h-1.683l-.675-4.43c0-.331-.332-.553-.565-.553a11.5 11.5 0 0 1-2.801-.664c-.222-.11-.565 0-.786.221l-3.023 3.544-1.34-.776 1.794-4.207c.11-.332 0-.664-.222-.775a10.6 10.6 0 0 1-2.015-1.883c-.222-.221-.443-.332-.786-.221l-5.038 1.66-.787-1.217 3.81-2.768c.221-.222.332-.554.221-.775-.332-.886-.565-1.772-.786-2.658 0-.332-.332-.553-.565-.553l-4.816-.665v-1.44l4.816-.664c.332 0 .565-.221.565-.553.11-.886.443-1.772.786-2.658.11-.332 0-.664-.221-.775l-3.81-2.768.787-1.218 4.595 1.661c.443.221.897-.221.897-.664v-4.54c0-.332-.332-.665-.676-.665-.343 0-.675.333-.675.665v3.432l-4.252-1.55c-.332-.11-.675 0-.786.332l-1.45 2.326c-.222.332-.111.664.22.885l3.92 2.88c-.221.664-.442 1.217-.553 1.882l-4.927.664c-.333 0-.565.332-.565.664v2.658c0 .332.221.664.565.664l4.927.665c.11.664.332 1.328.553 1.882l-3.92 2.879c-.331.221-.331.664-.22.886l1.45 2.325c.221.332.565.443.786.332l4.706-1.66c.443.553 1.007.996 1.572 1.439l-1.904 4.207c-.111.332 0 .665.332.886l2.469 1.329c.332.11.675.11.897-.111l3.133-3.654c.676.221 1.462.443 2.126.554l.676 4.429-.676 4.429c-.675.11-1.45.332-2.126.553L37.93 46.44c-.221-.221-.565-.332-.897-.11l-2.47 1.328c-.331.222-.442.554-.331.886l1.793 4.319c-.564.442-1.007.885-1.572 1.439l-4.706-1.66c-.332-.112-.675 0-.786.331l-1.34 1.993c-.221.333-.11.665.222.886l3.92 2.88c-.222.663-.444 1.217-.554 1.881l-4.927.665c-.333 0-.565.332-.565.664V64.6c0 .332.221.664.565.664l4.927.664c.11.665.332 1.33.553 1.883l-3.92 2.879c-.331.221-.331.664-.22.885l1.45 2.326c.221.332.565.443.786.332l4.252-1.55v3.654c0 .332.332.664.675.664s.676-.332.676-.664v-4.54c0-.443-.454-.775-.897-.665l-4.595 1.661-.787-1.218 3.81-2.768c.221-.221.332-.553.221-.775a19 19 0 0 1-.786-2.657c0-.332-.332-.554-.565-.554l-4.816-.664v-1.44l4.816-.664c.332 0 .565-.222.565-.554.11-.886.443-1.771.786-2.657.11-.332 0-.665-.221-.775l-3.81-2.768.787-1.218 4.595 1.66c.221.111.565 0 .786-.221.675-.664 1.34-1.329 2.015-1.882.222-.222.332-.554.222-.775l-1.794-4.208 1.34-.775 3.023 3.543c.221.222.453.332.786.222a13 13 0 0 1 2.801-.665c.332 0 .565-.332.565-.553l.675-4.43h1.683l.676 4.43c0 .332.332.553.564.553a11.5 11.5 0 0 1 2.802.665c.221.11.553 0 .786-.222l3.023-3.543 1.34.775-1.794 4.208c-.11.332 0 .664.221.775a10.6 10.6 0 0 1 2.016 1.882c.221.221.442.332.786.221l4.595-1.66.786 1.218-3.809 2.768c-.221.221-.332.553-.221.775.332.886.564 1.771.786 2.657 0 .332.332.554.564.554l4.817.664v1.44l-4.817.664c-.332 0-.564.222-.564.554-.111.886-.443 1.771-.786 2.657-.111.332 0 .664.221.775l3.809 2.768-.786 1.218-4.595-1.66c-.443-.222-.897.22-.897.664v4.54c0 .332.332.664.675.664s.676-.332.676-.664v-3.654l4.252 1.55c.332.11.675 0 .786-.332l1.45-2.326c.222-.332.11-.664-.221-.885l-3.92-2.88c.221-.664.443-1.217.565-1.882l4.927-.664c.332 0 .565-.332.565-.664V61.94c.564-.332.332-.553 0-.664"/><path fill="#0092d0" d="M46.002 33.263c4.141 0 7.396-3.321 7.396-7.308s-3.366-7.307-7.396-7.307-7.397 3.321-7.397 7.307 3.367 7.308 7.397 7.308m0-13.397c3.355 0 6.046 2.657 6.046 5.979s-2.691 5.979-6.046 5.979-6.046-2.658-6.046-5.98c0-3.321 2.802-5.978 6.046-5.978"/><path fill="#0092d0" d="M38.273 33.595c4.252 4.207 11.205 4.207 15.457 0 4.252-4.208 4.252-11.073 0-15.28-.221-.222-.675-.222-1.007 0-.222.221-.222.664 0 .996 3.698 3.654 3.698 9.633 0 13.398-3.698 3.654-9.744 3.654-13.553 0-3.698-3.654-3.698-9.633 0-13.398.221-.221.221-.664 0-.997-.222-.22-.676-.22-1.008 0-2.015 1.994-3.244 4.762-3.244 7.64 0 2.88 1.34 5.537 3.355 7.64M17.666 28.39c.553 0 1.007.444 1.007.997 0 .554-.454.997-1.007.997a1 1 0 0 1-1.008-.997c0-.553.454-.996 1.008-.996M72.322 16.654c.554 0 1.008.443 1.008.997 0 .553-.454.996-1.008.996a1 1 0 0 1-1.008-.996c0-.554.454-.997 1.008-.997M66.719 39.464c.553 0 1.007.443 1.007.996 0 .554-.454.997-1.007.997a1 1 0 0 1-1.008-.997c0-.553.454-.996 1.008-.996M73.672 67.146c.553 0 1.007.442 1.007.996s-.454.997-1.007.997a1 1 0 0 1-1.008-.997c0-.554.454-.996 1.008-.996M28.197 44.336c.554 0 1.008.443 1.008.997 0 .553-.454.996-1.008.996a1 1 0 0 1-1.008-.996c0-.554.454-.997 1.008-.997M19.793 65.816c.553 0 1.007.443 1.007.997s-.454.996-1.007.996a1 1 0 0 1-1.008-.996c0-.554.454-.997 1.008-.997M24.72 14.55c.554 0 1.008.443 1.008.996 0 .554-.454.997-1.008.997a1 1 0 0 1-1.007-.997c0-.553.454-.996 1.008-.996M18.785 36.031c-2.69 0-4.928 2.215-4.928 4.872s2.237 4.872 4.928 4.872 4.927-2.214 4.927-4.872c-.11-2.768-2.237-4.872-4.927-4.872m0 8.305c-1.905 0-3.477-1.55-3.477-3.433s1.572-3.432 3.477-3.432 3.477 1.55 3.477 3.432c0 1.883-1.573 3.433-3.477 3.433M72.664 47.769c-1.904 0-3.477 1.55-3.477 3.432s1.573 3.433 3.477 3.433c1.905 0 3.477-1.55 3.477-3.433s-1.572-3.432-3.477-3.432m0 5.536c-1.118 0-2.126-.886-2.126-2.104 0-1.107.897-2.104 2.126-2.104 1.119 0 2.126.886 2.126 2.104s-1.007 2.104-2.126 2.104"/></svg>