<svg xmlns="http://www.w3.org/2000/svg" fill="none" viewBox="0 0 90 90"><path fill="#0092d0" stroke="#fff" stroke-width=".8" d="M40.816 31.2c.71-.1 1.21-.7 1.11-1.4s-.71-1.2-1.42-1.1-1.21.7-1.11 1.4c.1.6.71 1.1 1.42 1.1ZM40.506 68.7c-.71.1-1.21.7-1.11 1.4s.71 1.2 1.42 1.1 1.21-.7 1.11-1.4-.71-1.2-1.42-1.1ZM54.166 36.7c.51.4 1.31.4 1.82-.2.41-.5.41-1.3-.2-1.8-.51-.4-1.32-.4-1.82.2-.41.6-.3 1.4.2 1.8ZM27.157 63.1c-.51-.4-1.32-.4-1.82.2-.41.5-.41 1.3.2 1.8.51.4 1.31.4 1.82-.2.41-.6.3-1.4-.2-1.8ZM20.277 48.7c-.71.1-1.21.7-1.11 1.4s.71 1.2 1.42 1.1 1.21-.7 1.11-1.4-.71-1.2-1.42-1.1ZM55.786 63.1c-.51-.4-1.32-.4-1.82.2-.41.5-.41 1.3.2 1.8.51.4 1.31.4 1.82-.2.41-.6.3-1.4-.2-1.8ZM25.537 36.7c.51.4 1.31.4 1.82-.2.41-.5.41-1.3-.2-1.8-.51-.4-1.32-.4-1.82.2-.41.6-.3 1.4.2 1.8ZM65.197 27.4c2.12 0 3.84-1.7 3.84-3.8s-1.72-3.8-3.84-3.8-3.84 1.7-3.84 3.8 1.72 3.8 3.84 3.8Zm0-5c.71 0 1.31.6 1.31 1.3s-.61 1.3-1.31 1.3-1.32-.6-1.32-1.3c.1-.7.61-1.3 1.32-1.3ZM19.067 22.4c1.72 0 3.14-1.4 3.14-3.1s-1.42-3.1-3.14-3.1-3.14 1.4-3.14 3.1c-.1 1.7 1.42 3.1 3.14 3.1Zm0-3.7c.3 0 .61.3.61.6s-.3.6-.61.6-.61-.3-.61-.6c-.1-.4.2-.6.61-.6ZM68.326 61.2c-1.72 0-3.14 1.4-3.14 3.1s1.42 3.1 3.14 3.1 3.14-1.4 3.14-3.1c.1-1.7-1.42-3.1-3.14-3.1Zm0 3.7c-.3 0-.61-.3-.61-.6s.3-.6.61-.6.61.3.61.6c.1.3-.2.6-.61.6ZM16.026 29.9c.71-.1 1.21-.7 1.11-1.4s-.71-1.2-1.42-1.1-1.21.7-1.11 1.4.71 1.2 1.42 1.1ZM18.256 67.4c-.71.1-1.21.7-1.11 1.4s.71 1.2 1.42 1.1 1.21-.7 1.11-1.4-.71-1.2-1.42-1.1ZM62.467 68.7c-.71.1-1.21.7-1.11 1.4s.71 1.2 1.42 1.1 1.21-.7 1.11-1.4-.81-1.2-1.42-1.1ZM67.617 33.7c-.71.1-1.21.7-1.11 1.4s.71 1.2 1.42 1.1 1.21-.7 1.11-1.4-.71-1.2-1.42-1.1Z"/><path fill="#0092d0" stroke="#fff" stroke-width=".8" d="m74.096 49.9 1.11-3.4c.3-.8-.3-1.6-1.21-1.6h-3.84c-.5 0-1.01.3-1.21.9l-1.01 2.9h-1.52c-.3-7-3.44-13.3-8.29-17.8l.61-1c1.01-1.8.4-4.1-1.42-5.1s-4.15-.4-5.16 1.4l-.2.4c-1.82-.9-3.84-1.6-5.87-2v-2.2h1.42c2.12 0 3.84-1.7 3.84-3.8s-1.72-3.8-3.84-3.8h-13.96c-2.12 0-3.84 1.7-3.84 3.8s1.72 3.8 3.84 3.8h1.62v2.2c-2.02.4-4.05 1.1-5.87 2l-.3-.5c-1.01-1.8-3.34-2.4-5.16-1.4s-2.43 3.3-1.42 5.1l.61 1c-5.16 4.7-8.29 11.4-8.29 18.8 0 14.1 11.63 25.6 25.9 25.6s25.09-10.7 25.9-24.1h1.52l1.01 2.9c.2.5.61.9 1.21.9h3.84c.91 0 1.52-.8 1.21-1.6l-1.21-3.4zm-2.94-2.5h1.11l-.41 1.3h-1.11l.4-1.3zm-16.69-20c.3-.6 1.11-.8 1.72-.5s.81 1.1.51 1.7l-.3.6c-.71-.5-1.42-1-2.12-1.4l.2-.4zm-22.15-8.7c0-.7.61-1.3 1.32-1.3h13.86c.71 0 1.32.6 1.32 1.3s-.61 1.3-1.32 1.3h-13.96c-.61-.1-1.21-.7-1.21-1.3zm5.46 3.7h5.87v1.8c-1.92-.2-3.84-.2-5.87 0zm-13.05 6.2c-.3-.6-.1-1.4.51-1.7s1.42-.1 1.72.5l.3.4c-.71.4-1.42.9-2.12 1.4l-.4-.6zm15.88 44.2c-12.95 0-23.37-10.4-23.37-23.1s10.52-23.1 23.37-23.1 22.86 9.8 23.37 22.1h-6.37c-.51-8.8-7.99-15.9-17-15.9s-17.1 7.6-17.1 16.9 7.69 16.9 17.1 16.9c8.9 0 16.29-6.8 17-15.4h6.37c-.71 12-10.93 21.6-23.37 21.6Zm12.04-24.1c-.51-6.1-5.67-10.9-11.94-10.9s-12.04 5.3-12.04 11.9 5.36 11.9 12.04 11.9c6.07 0 11.13-4.5 11.94-10.4h2.53c-.71 7.2-6.98 12.9-14.47 12.9-7.99 0-14.57-6.4-14.57-14.4s6.47-14.4 14.57-14.4 13.96 5.9 14.47 13.4zm-5.16 0c-.51-3.3-3.44-5.9-6.88-5.9-3.84 0-6.98 3.1-6.98 6.9s3.14 6.9 6.98 6.9c3.34 0 6.07-2.3 6.78-5.4h2.53c-.71 4.5-4.65 7.9-9.41 7.9-5.26 0-9.51-4.2-9.51-9.4s4.25-9.4 9.51-9.4c4.86 0 8.9 3.7 9.41 8.4zm-6.37 2.5h3.64c-.61 1.7-2.23 2.9-4.15 2.9-2.43 0-4.45-2-4.45-4.4s2.02-4.4 4.45-4.4c2.12 0 3.84 1.4 4.35 3.4h-3.84c-.71 0-1.32.6-1.32 1.3.1.6.71 1.2 1.32 1.2Zm30.04 1.2-.4-1.2h1.11l.41 1.3h-1.11v-.1z"/></svg>