<svg xmlns="http://www.w3.org/2000/svg" fill="none" viewBox="0 0 32 32"><path fill="#0092d0" fill-rule="evenodd" d="M8 3a2 2 0 0 0-2 2v4c0 .284.059.553.165.798-.149.198-.263.426-.33.676l-2.8 10.263-.035.13V26a1 1 0 0 0 1 1h2v1a1 1 0 1 0 2 0v-1h16v1a1 1 0 1 0 2 0v-1h2a1 1 0 0 0 1-1v-5.134l-.035-.13-2.8-10.262a2 2 0 0 0-.33-.676C25.94 9.553 26 9.284 26 9V5a2 2 0 0 0-2-2zm-.236 8H10a1 1 0 0 0 1 1h3a1 1 0 0 0 1-1h2a1 1 0 0 0 1 1h3a1 1 0 0 0 1-1h2.236l2.455 9H5.309zM22 9h2V5H8v4h2V8a1 1 0 0 1 1-1h3a1 1 0 0 1 1 1v1h2V8a1 1 0 0 1 1-1h3a1 1 0 0 1 1 1zM5 22h22v3H5z" clip-rule="evenodd"/></svg>