<svg xmlns="http://www.w3.org/2000/svg" fill="none" viewBox="0 0 32 32"><path fill="#0092d0" d="M4.111 28.955h2.06c1.294 0 2.142-1.034 2.142-2.135 0-.64-.242-1.303-.818-1.629 1.909-.854 3.101-2.303 3.485-4.404 1.485.966 3.717 1.112 6.04.842-.03 1.55-.242 3.764-.242 4.764 0 1.697.788 2.607 2.272 2.607h1.728c1.515 0 2.323-1.079 2.323-2.382 0-.899-.354-1.876-1.566-2.416.071-1.09.526-3.517.829-4.517.505-1.629 1.525-3.022 1.525-5.314 0-1 .172-1.54.343-1.978.677.45 1.293.663 2.01.663 1.849 0 3.758-2.146 3.758-4.393 0-1.236-1.515-1.989-2.354-2.584-1-.776-1.676-1.798-2.747-2.326l-.303 1.584c.758.427 1.303 1.281 2.192 1.933.95.708 1.646.775 1.646 1.584 0 1.157-1.12 2.45-2.192 2.45-.596 0-1.07-.203-1.899-.843-.383-.293-.777-.236-1.01.168-.767 1.247-1.01 2.247-1.01 3.742 0 1.652-.848 2.719-1.474 4.82-.334 1.169-.9 4.09-.9 5.416 0 .326.101.607.465.753.97.303 1.111.809 1.111 1.157 0 .46-.262.685-.747.685H19.1c-.505 0-.737-.292-.737-.887 0-2.158.363-5.08.363-6.124 0-.506-.414-.775-.899-.595-2.777 1.033-5.636.348-7.222-1.057-.444-.404-.96-.1-.96.438 0 2.944-1.262 4.371-4.1 5.18-.586.18-.586 1.158 0 1.27.787.135 1.191.54 1.191 1.09 0 .438-.303.685-.747.685H4.303c-.444 0-.737-.36-.737-.887v-2.146c0-.854.303-1.36 1.676-2.573 1.05-.933 1.344-2.203 1.344-4.877 0-1.393.151-2.978.687-3.764l-1.455-1.82c-.464-.584.233-1.202.677-.63l1.394 1.798c.182-.157.444-.247.798-.27l8.566-.797C21.04 9.82 20.869 8 22.06 6.618l-.94-1.393c-2.07 2.09-1.636 3.27-4.192 4.28l-7.889.742a13 13 0 0 0-.787.09l-.738-.977c-1.545-2.034-4.505.438-2.808 2.685l.778 1.034c-.303 1.022-.475 2.247-.475 3.64 0 2.382-.162 3-.727 3.506C2.667 21.64 2 22.697 2 24.169v2.337c0 1.438.879 2.449 2.111 2.449M22.818 8.146c1.647 0 2.485-3.079 2.485-3.955 0-.775-.364-1.191-1.09-1.191h-2.779c-.727 0-1.1.416-1.1 1.191 0 .876.848 3.955 2.484 3.955m0-1.517c-.515 0-.93-1.225-1.04-1.91-.02-.112.05-.202.151-.202h1.788c.101 0 .172.09.152.202-.111.685-.536 1.91-1.05 1.91m2.616 2.214c.415 0 .748-.382.748-.854s-.333-.832-.748-.832c-.424 0-.757.36-.757.832s.333.854.757.854"/></svg>