<svg xmlns="http://www.w3.org/2000/svg" fill="none" viewBox="0 0 24 24"><path fill="#0092d0" fill-rule="evenodd" d="M12 2.25a4.5 4.5 0 1 0 0 9 4.5 4.5 0 0 0 0-9m-3 4.5a3 3 0 1 1 6 0 3 3 0 0 1-6 0M12 12c-3.453 0-5.588 1.074-6.838 2.612-1.225 1.508-1.488 3.33-1.492 4.623-.004 1.555 1.347 2.515 2.698 2.515H17.63c1.352 0 2.703-.96 2.699-2.515-.004-1.293-.268-3.115-1.493-4.623C17.586 13.074 15.452 12 12 12m-6.83 7.24c.003-1.13.239-2.552 1.157-3.682.893-1.1 2.545-2.058 5.672-2.058 3.128 0 4.78.958 5.673 2.058.918 1.13 1.154 2.552 1.157 3.682.001.529-.468 1.01-1.199 1.01H6.368c-.73 0-1.2-.481-1.198-1.01" clip-rule="evenodd"/></svg>