<svg xmlns="http://www.w3.org/2000/svg" fill="none" viewBox="0 0 24 24"><path fill="#0092d0" fill-rule="evenodd" d="M12 3.75a.75.75 0 1 0 0 1.5.75.75 0 0 0 0-1.5m-2.25.75a2.25 2.25 0 1 1 4.2 1.124 5.25 5.25 0 0 1 3.3 4.876v3.75c0 .525.274 1.121.624 1.646a6.4 6.4 0 0 0 .648.815l.008.009A.75.75 0 0 1 18 18h-3.131c.081.234.131.485.131.75a3 3 0 1 1-6 0c0-.265.05-.516.131-.75H6a.75.75 0 0 1-.531-1.28l.009-.009.038-.04q.053-.056.149-.167c.126-.147.294-.357.461-.608.35-.525.624-1.121.624-1.646V10.5a5.25 5.25 0 0 1 3.3-4.876 2.24 2.24 0 0 1-.3-1.124M10.834 18c-.211.265-.334.535-.334.75a1.5 1.5 0 0 0 3 0c0-.215-.123-.485-.334-.75zm4.916-3.75c0 .858.369 1.661.73 2.25H7.52c.361-.589.73-1.392.73-2.25V10.5a3.75 3.75 0 0 1 7.5 0z" clip-rule="evenodd"/></svg>