<svg xmlns="http://www.w3.org/2000/svg" fill="none" viewBox="0 0 24 24"><path fill="#0092d0" d="M15.422 20.822c-.404 0-.807-.084-1.135-.244l-4.922-2.465c-.281-.141-.834-.132-1.106.028l-2.213 1.265c-.956.544-1.94.619-2.68.178-.75-.43-1.173-1.312-1.173-2.418V8.053c0-.853.563-1.819 1.303-2.24l4.06-2.325c.684-.394 1.725-.422 2.428-.066l4.922 2.466c.281.14.825.121 1.106-.029l2.203-1.256c.957-.544 1.94-.619 2.682-.178.75.431 1.171 1.313 1.171 2.419v9.122c0 .853-.562 1.818-1.303 2.24l-4.06 2.325c-.355.188-.824.29-1.283.29m-6.572-4.21c.403 0 .806.085 1.134.244l4.922 2.466c.281.14.825.122 1.106-.028l4.06-2.325c.3-.169.59-.675.59-1.013V6.834c0-.59-.169-1.03-.478-1.2-.3-.168-.769-.103-1.275.188l-2.203 1.256c-.684.394-1.725.422-2.428.066L9.356 4.678c-.281-.14-.825-.122-1.106.028L4.19 7.031c-.3.169-.59.675-.59 1.022v9.122c0 .59.168 1.031.468 1.2.3.178.77.103 1.285-.187l2.203-1.257c.365-.215.834-.319 1.294-.319"/><path fill="#0092d0" d="M8.775 17.39a.71.71 0 0 1-.703-.703V4.5c0-.384.319-.703.703-.703.385 0 .704.319.704.703v12.188a.71.71 0 0 1-.704.703M15.496 20.203a.71.71 0 0 1-.703-.703V6.956c0-.384.319-.703.703-.703s.703.319.703.703V19.5a.71.71 0 0 1-.703.703"/></svg>