<svg xmlns="http://www.w3.org/2000/svg" fill="none" viewBox="0 0 24 24"><path fill="#0092d0" d="M12 22.078C6.44 22.078 1.922 17.56 1.922 12 1.922 6.44 6.44 1.922 12 1.922c5.56 0 10.078 4.519 10.078 10.078 0 5.56-4.519 10.078-10.078 10.078m0-18.75c-4.781 0-8.672 3.89-8.672 8.672 0 4.781 3.89 8.672 8.672 8.672 4.781 0 8.672-3.89 8.672-8.672 0-4.781-3.89-8.672-8.672-8.672"/><path fill="#0092d0" d="M11.998 17.86c-.196 0-.384-.029-.543-.085-2.016-.684-5.213-3.14-5.213-6.797 0-1.95 1.575-3.534 3.516-3.534.844 0 1.622.29 2.25.815a3.5 3.5 0 0 1 2.24-.815c1.941 0 3.516 1.584 3.516 3.534 0 3.647-3.197 6.103-5.222 6.797-.16.056-.356.084-.544.084m-2.25-9c-1.162 0-2.109.956-2.109 2.128 0 3.271 3.16 5.09 4.266 5.465.037.01.13.01.168 0 1.107-.375 4.266-2.194 4.266-5.465a2.123 2.123 0 0 0-2.11-2.129c-.656 0-1.284.32-1.677.854-.263.356-.863.356-1.125 0a2.05 2.05 0 0 0-1.679-.854"/></svg>