<svg xmlns="http://www.w3.org/2000/svg" fill="none" viewBox="0 0 24 24"><path fill="#0092d0" d="M12 22.078a2.58 2.58 0 0 1-1.819-.75l-1.603-1.584a2.12 2.12 0 0 0-1.49-.61h-.713c-1.94 0-3.516-1.565-3.516-3.487V5.419c0-1.922 1.575-3.488 3.516-3.488h11.25c1.94 0 3.516 1.566 3.516 3.488v10.228c0 1.922-1.575 3.487-3.516 3.487h-.712c-.563 0-1.097.216-1.491.61l-1.603 1.584a2.58 2.58 0 0 1-1.819.75M6.375 3.328c-1.162 0-2.11.938-2.11 2.081v10.229c0 1.153.948 2.08 2.11 2.08h.712a3.52 3.52 0 0 1 2.485 1.023l1.603 1.584c.46.45 1.2.45 1.66 0l1.602-1.584a3.52 3.52 0 0 1 2.485-1.022h.703c1.163 0 2.11-.938 2.11-2.082V5.41c0-1.153-.947-2.08-2.11-2.08z"/><path fill="#0092d0" d="M10.483 14.353H7.97a1.28 1.28 0 0 1-1.04-.534 1.22 1.22 0 0 1-.178-1.088c.328-1.003 1.134-1.547 1.846-2.034.75-.506 1.172-.825 1.172-1.369a.88.88 0 1 0-1.762 0 .71.71 0 0 1-.703.703.71.71 0 0 1-.703-.703 2.29 2.29 0 0 1 2.287-2.287 2.285 2.285 0 0 1 2.288 2.287c0 1.322-.994 1.997-1.791 2.54-.497.338-.966.657-1.2 1.079h2.287c.385 0 .704.319.704.703a.7.7 0 0 1-.694.703M15.787 14.353a.71.71 0 0 1-.703-.703v-.647h-1.848c-.459 0-.88-.244-1.115-.637a1.28 1.28 0 0 1 0-1.294 144 144 0 0 1 2.053-3.431c.3-.479.872-.694 1.407-.544.534.16.909.647.9 1.21v3.3h.206c.384 0 .703.318.703.702a.71.71 0 0 1-.703.704h-.197v.646c0 .385-.31.694-.703.694m-.703-5.503c-.553.9-1.125 1.866-1.641 2.747h1.64z"/></svg>