<svg xmlns="http://www.w3.org/2000/svg" fill="none" viewBox="-3 -3 24 24"><path fill="#0092d0" fill-rule="evenodd" d="M3.62 7.5a.58.58 0 0 1-.587-.618q.006-.073.014-.132C3.387 4.02 5.563 1.5 9 1.5s5.614 2.52 5.954 5.251l.013.13a.58.58 0 0 1-.586.619h-.131c-.419 0-.743-.334-.808-.747C13.11 4.633 11.37 3 9 3S4.89 4.632 4.558 6.753c-.065.414-.389.747-.807.747zM3.996 9c.375 0 .695.262.794.623q.02.072.037.129c.368 1.176 1.03 2.166 1.922 2.998.532.497 1.112.93 1.677 1.219.194.099.423.226.573.281.147-.053.382-.181.57-.277.57-.293 1.148-.727 1.68-1.223.896-.837 1.56-1.818 1.926-2.998q.018-.056.037-.127A.83.83 0 0 1 14.007 9h.136c.379 0 .669.347.574.714l-.01.036c-.746 2.739-2.762 4.391-4.207 5.25 2.16.105 3.75.411 3.75.75 0 .414-2.35.75-5.25.75s-5.25-.336-5.25-.75c0-.328 1.59-.648 3.75-.75-1.447-.856-3.462-2.509-4.208-5.249l-.01-.038C3.188 9.347 3.478 9 3.856 9zM9 10.5a3 3 0 1 1 0-6 3 3 0 0 1 0 6M9 9a1.5 1.5 0 1 0 0-3 1.5 1.5 0 0 0 0 3" clip-rule="evenodd"/></svg>