<svg xmlns="http://www.w3.org/2000/svg" fill="none" viewBox="0 0 40 40"><path fill="#343434" d="M0 19.2C0 10.149 0 5.624 2.784 2.812S10.049 0 19.01 0h1.584c8.961 0 13.442 0 16.226 2.812s2.784 7.337 2.784 16.388v1.6c0 9.051 0 13.576-2.784 16.388S29.555 40 20.594 40H19.01c-8.961 0-13.442 0-16.226-2.812S0 29.851 0 20.8z"/><path fill="#f9f9f9" d="M21.076 28.818c-9.026 0-14.175-6.25-14.39-16.65h4.522c.149 7.633 3.482 10.867 6.122 11.533V12.168h4.258v6.583c2.607-.283 5.346-3.283 6.27-6.583h4.257c-.71 4.067-3.68 7.067-5.792 8.3 2.113 1 5.496 3.617 6.783 8.35h-4.687c-1.006-3.167-3.515-5.617-6.831-5.95v5.95z"/></svg>