<svg xmlns="http://www.w3.org/2000/svg" fill="none" viewBox="0 0 42 42"><circle cx="21" cy="21" r="21" fill="url(#a)"/><circle cx="21" cy="21" r="18.044" fill="url(#b)"/><path fill="#fff" d="M20.1 21.65c.457-.124 1.343.042 1.966.347.61.305 1.123.86 2.05 2.258.305.457.665.942.79 1.066.137.138.248.304.248.373.003.07.486.361 1.08.652 2.507 1.232 2.798 1.537 2.798 3.019 0 .802-.042.956-.416 1.385-.235.263-.72.623-1.08.789-.859.429-2.48.429-4.349.013-1.869-.415-2.838-.387-4.472.112-1.08.332-1.607.415-2.632.415-1.19 0-1.316-.028-1.842-.415-.928-.665-1.273-1.303-1.273-2.327 0-1.288.387-1.98 1.66-2.936.513-.388 1.802-1.676 3.186-3.185.817-.9 1.483-1.358 2.286-1.566m9.666-4.126c.941-.235 2.313.138 2.313.637 0 .11.055.207.11.208.07 0 .222.221.347.484.166.36.236.86.236 1.815 0 1.26-.028 1.371-.554 2.437-.305.61-.707 1.274-.9 1.468-.194.18-.347.401-.347.457 0 .069-.097.125-.207.125s-.208.056-.208.139c-.003.29-1.095.692-1.912.692-.678 0-.9-.07-1.357-.402-1.135-.845-1.495-2.535-.872-4.072.415-1.023.72-1.618.845-1.62.041 0 .124-.112.18-.263.069-.222.456-.735.871-1.15.402-.415 1.08-.857 1.455-.955m-17.02-.042c.83.083 1.482.596 2.16 1.676l.444.72-.056 1.704c-.042 1.578-.083 1.758-.457 2.465-.43.789-1.053 1.509-1.55 1.786-.361.18-1.428.208-1.871.028-.568-.222-1.33-1.025-1.759-1.87-.387-.72-.428-.928-.428-2.077 0-1.163.041-1.344.47-2.23.512-1.052 1.343-1.952 1.966-2.146.222-.07.707-.097 1.081-.056m10.954-7.34c.554-.29 2.119-.29 2.534 0 .72.499 1.15 1.011 1.51 1.787.526 1.149.555 2.977.042 4.431-.457 1.33-1.233 2.369-2.05 2.729-.775.346-1.745.373-2.285.083-1.135-.624-1.898-2.397-2.009-4.682-.055-1.246-.04-1.372.36-2.216.444-.941 1.192-1.771 1.898-2.132m-6.01-.221c.844 0 .983.04 1.482.442.346.277.734.804.997 1.344.443.872.443.872.388 2.63-.056 1.385-.139 1.912-.388 2.577-.36.954-.679 1.44-.928 1.454-.097 0-.18.056-.18.111-.002.222-.694.444-1.358.444-1.066 0-2.008-.804-2.756-2.355-.484-.997-.498-1.109-.498-2.493 0-1.495.028-1.593.803-2.908.166-.277.818-.845 1.247-1.08.153-.083.692-.166 1.19-.166"/><defs><linearGradient id="a" x1="21" x2="70.516" y1="-48.269" y2="-18.85" gradientUnits="userSpaceOnUse"><stop stop-color="#d6b7f7"/><stop offset=".46" stop-color="#a9cffc"/><stop offset="1" stop-color="#bcc0f7"/></linearGradient><linearGradient id="b" x1="21" x2="63.546" y1="-38.52" y2="-13.242" gradientUnits="userSpaceOnUse"><stop stop-color="#b99bec"/><stop offset=".46" stop-color="#8ab0f8"/><stop offset="1" stop-color="#909bf0"/></linearGradient></defs></svg>