<svg xmlns="http://www.w3.org/2000/svg" fill="none" viewBox="0 0 24 24"><path fill="#0092d0" d="M10.953 3.181c-2.155.93-.862 5.43 1.551 5.43 2.172 0 2.534-3.224.569-4.964-.345-.293-.741-.552-.88-.552-.12 0-.327-.034-.465-.086-.12-.035-.465.034-.775.172M16.555 5.611c-1.517.81-1.276 3.672.413 4.775 1.017.655 1.896.638 2.586-.052.5-.5.517-.586.448-1.706-.069-1.483-.672-2.465-1.74-2.965-.863-.379-1.104-.396-1.707-.052M6.127 5.853c-.603.258-1.086 1.19-1.086 2.103 0 1 .224 1.637.827 2.258 1.638 1.723 3.654 1.068 3.654-1.19 0-2.034-1.896-3.809-3.395-3.171M10.832 11.213a3.6 3.6 0 0 0-.793 1.603 50 50 0 0 1-.689 2.62c-.638 2.155-.672 3.24-.12 4.05.758 1.121 2.05 1.69 3.309 1.466.43-.086.913-.431 1.689-1.207 1.224-1.258 1.792-1.482 3.706-1.482 1.172 0 1.292-.035 1.861-.569 1.241-1.12 1.327-3.292.173-4.412-.431-.431-1-.673-2.362-1.069-.982-.293-2.413-.793-3.154-1.12-.93-.397-1.637-.586-2.189-.586-.741 0-.88.069-1.43.706M3.954 12.075c-2.016 1.569.517 6.085 2.758 4.912 1.12-.568 1.396-2.223.62-3.723-.758-1.447-2.344-2.016-3.378-1.189"/></svg>