<svg xmlns="http://www.w3.org/2000/svg" fill="none" viewBox="0 0 32 32"><g fill="#0092d0" clip-path="url(#a)"><path d="M7.293 14.333a3.8 3.8 0 0 1-2.64-1.053C2.2 10.947 1.213 8.4 1.787 5.907c.68-2.934 3.253-4.24 5.506-4.24s4.84 1.32 5.507 4.24c.573 2.493-.427 5.04-2.867 7.373a3.78 3.78 0 0 1-2.64 1.053M3.733 6.36c-.506 2.227.974 4.2 2.307 5.467.707.68 1.813.666 2.52 0 1.333-1.267 2.813-3.24 2.293-5.48-.453-1.974-2.2-2.68-3.546-2.68-1.36 0-3.107.706-3.574 2.693"/><path d="M7.347 8.267c-.734 0-1.334-.6-1.334-1.334C6.013 6.2 6.6 5.6 7.347 5.6h.013c.733 0 1.333.6 1.333 1.333 0 .734-.6 1.334-1.346 1.334M24.653 30.333A3.85 3.85 0 0 1 22 29.28c-2.467-2.333-3.467-4.88-2.88-7.387.68-2.92 3.267-4.24 5.533-4.24s4.854 1.32 5.534 4.24c.573 2.494-.427 5.054-2.894 7.374a3.73 3.73 0 0 1-2.64 1.066m0-10.666c-1.36 0-3.12.706-3.586 2.693-.52 2.227.973 4.213 2.306 5.48.707.68 1.827.68 2.547 0 1.333-1.267 2.827-3.24 2.307-5.467-.44-2-2.2-2.706-3.574-2.706"/><path d="M24.707 24.267c-.733 0-1.334-.6-1.334-1.334 0-.733.587-1.333 1.334-1.333h.013c.733 0 1.334.6 1.334 1.333 0 .734-.614 1.334-1.347 1.334M16 26.333h-3.574A3.62 3.62 0 0 1 9 23.96c-.547-1.44-.147-3.027 1.013-4.053l10.653-9.32c.64-.56.654-1.32.467-1.84-.2-.52-.707-1.08-1.56-1.08H16c-.547 0-1-.454-1-1 0-.547.453-1 1-1h3.573A3.62 3.62 0 0 1 23 8.04c.546 1.44.146 3.027-1.014 4.053l-10.653 9.32c-.64.56-.653 1.32-.467 1.84.2.52.707 1.08 1.56 1.08H16c.546 0 1 .454 1 1 0 .547-.454 1-1 1"/><path d="M16 26.333h-3.574A3.62 3.62 0 0 1 9 23.96c-.547-1.44-.147-3.027 1.013-4.053l10.653-9.32c.64-.56.654-1.32.467-1.84-.2-.52-.707-1.08-1.56-1.08H16c-.547 0-1-.454-1-1 0-.547.453-1 1-1h3.573A3.62 3.62 0 0 1 23 8.04c.546 1.44.146 3.027-1.014 4.053l-10.653 9.32c-.64.56-.653 1.32-.467 1.84.2.52.707 1.08 1.56 1.08H16c.546 0 1 .454 1 1 0 .547-.454 1-1 1"/></g><defs><clipPath id="a"><path fill="#fff" d="M0 0h32v32H0z"/></clipPath></defs></svg>