<svg xmlns="http://www.w3.org/2000/svg" fill="none" viewBox="0 0 32 32"><path fill="#0092d0" d="M16 30.333C8.093 30.333 1.667 23.907 1.667 16S8.092 1.667 16 1.667 30.333 8.093 30.333 16 23.907 30.333 16 30.333m0-26.666C9.2 3.667 3.667 9.2 3.667 16S9.2 28.333 16 28.333 28.333 22.8 28.333 16 22.8 3.667 16 3.667"/><path fill="#0092d0" d="M16 24.333c-.28 0-.547-.04-.774-.12-2.866-.973-7.413-4.466-7.413-9.666 0-2.774 2.24-5.027 5-5.027 1.2 0 2.307.413 3.2 1.16A4.96 4.96 0 0 1 19.2 9.52c2.76 0 5 2.253 5 5.027 0 5.186-4.547 8.68-7.427 9.666-.227.08-.507.12-.773.12m-3.2-12.8c-1.654 0-3 1.36-3 3.027 0 4.653 4.493 7.24 6.066 7.773a.7.7 0 0 0 .24 0c1.574-.533 6.067-3.12 6.067-7.773 0-1.667-1.347-3.027-3-3.027-.933 0-1.827.454-2.387 1.214-.373.506-1.226.506-1.6 0a2.9 2.9 0 0 0-2.386-1.214"/></svg>