<svg xmlns="http://www.w3.org/2000/svg" fill="none" viewBox="0 0 32 32"><path fill="#0092d0" fill-rule="evenodd" d="M4.874 11.1A4 4 0 0 1 8.77 8h7.98a5 5 0 0 1 4.11 2.154l2.838 4.1 3.359 2.015A4 4 0 0 1 29 19.699V21a2 2 0 0 1-2 2h-2.17a3.001 3.001 0 0 1-5.66 0h-6.34a3.001 3.001 0 0 1-5.66 0H5a2 2 0 0 1-2-2v-2.513a4 4 0 0 1 .205-1.265l.831-2.493zM7.17 21a3.001 3.001 0 0 1 5.658 0h6.342a3.001 3.001 0 0 1 5.658 0H27v-1.301a2 2 0 0 0-.971-1.715L22.723 16H5.721l-.618 1.854a2 2 0 0 0-.103.633V21zm12.046-9.708L21.09 14H14v-4h2.75a3 3 0 0 1 2.467 1.292M12 10H8.771a2 2 0 0 0-1.949 1.55L6.257 14H12zm10 11a1 1 0 1 0 0 2 1 1 0 0 0 0-2M9 22a1 1 0 1 1 2 0 1 1 0 0 1-2 0" clip-rule="evenodd"/></svg>