<svg xmlns="http://www.w3.org/2000/svg" fill="none" viewBox="0 0 32 32"><path fill="#0092d0" fill-rule="evenodd" d="M12 12a4 4 0 1 1 8 0 4 4 0 0 1-8 0m4-2a2 2 0 1 0 0 4 2 2 0 0 0 0-4" clip-rule="evenodd"/><path fill="#0092d0" fill-rule="evenodd" d="M7 12a9 9 0 1 1 18 0c0 .991-.467 2.293-1.063 3.565-.62 1.32-1.458 2.77-2.355 4.115-.895 1.342-1.867 2.61-2.762 3.555-.446.47-.895.884-1.324 1.188-.391.278-.92.577-1.496.577-.575 0-1.104-.3-1.496-.577-.43-.304-.878-.718-1.324-1.188-.895-.945-1.867-2.213-2.762-3.555-.897-1.345-1.736-2.795-2.355-4.115C7.467 14.293 7 12.991 7 12m9-7a7 7 0 0 0-7 7c0 .509.283 1.457.874 2.716.569 1.212 1.355 2.574 2.208 3.854.855 1.283 1.758 2.452 2.55 3.29.398.42.746.732 1.028.932.185.13.295.18.34.198.045-.018.155-.068.34-.198.282-.2.63-.513 1.028-.933.792-.837 1.695-2.006 2.55-3.289.853-1.28 1.64-2.642 2.208-3.854.59-1.26.874-2.207.874-2.716a7 7 0 0 0-7-7" clip-rule="evenodd"/><path fill="#0092d0" d="M8.286 21.977a1 1 0 0 0-.572-1.917c-1.285.384-2.404.873-3.224 1.472C3.69 22.116 3 22.939 3 24c0 .99.603 1.774 1.324 2.342.733.578 1.73 1.054 2.874 1.435C9.497 28.543 12.608 29 16 29s6.503-.457 8.802-1.223c1.143-.381 2.142-.857 2.874-1.435C28.397 25.774 29 24.99 29 24c0-1.061-.69-1.884-1.49-2.468-.82-.599-1.94-1.088-3.224-1.472a1 1 0 1 0-.572 1.917c1.17.349 2.051.758 2.617 1.17.586.428.669.73.669.853 0 .115-.069.383-.562.772-.482.38-1.241.765-2.269 1.108C22.124 26.56 19.236 27 16 27s-6.124-.439-8.17-1.12c-1.027-.343-1.786-.729-2.268-1.108C5.069 24.382 5 24.115 5 24c0-.123.083-.425.669-.852.566-.413 1.447-.822 2.617-1.171"/></svg>