<svg xmlns="http://www.w3.org/2000/svg" fill="none" viewBox="0 0 32 32"><path fill="#0092d0" d="M6.537 7.605c2.017-2.14 5.262-2.14 7.28 0l1.455 1.545a1 1 0 0 0 1.456 0l1.456-1.545c2.017-2.14 5.262-2.14 7.28 0 2.048 2.174 2.048 5.722 0 7.897a1 1 0 0 0 1.455 1.371c2.775-2.944 2.775-7.695 0-10.64-2.807-2.978-7.384-2.978-10.19 0L16 7.007l-.728-.772c-2.807-2.979-7.384-2.979-10.19 0-2.776 2.944-2.776 7.695 0 10.64l10.19 10.812a1 1 0 0 0 1.456 0l2-2.122a1 1 0 0 0-1.456-1.372L16 25.542l-9.463-10.04c-2.05-2.175-2.05-5.723 0-7.897"/><path fill="#0092d0" d="M18.923 13.615a1 1 0 0 0-1.872.069L15.28 19H14a1 1 0 1 0 0 2h2a1 1 0 0 0 .949-.684l1.155-3.466 3.973 9.535a1 1 0 0 0 1.817.062L26.618 21H28a1 1 0 1 0 0-2h-2a1 1 0 0 0-.894.553l-2.023 4.046z"/></svg>