<svg xmlns="http://www.w3.org/2000/svg" fill="none" viewBox="0 0 32 32"><path fill="#fff" d="M0 5a5 5 0 0 1 5-5h22a5 5 0 0 1 5 5v22a5 5 0 0 1-5 5H5a5 5 0 0 1-5-5z"/><path fill="#444" d="M4.92 10.928V20h-.816v-9.072zm6.911 4.152q.852.84.852 2.112t-.852 2.112q-.84.84-2.148.84-1.296 0-2.148-.84-.84-.84-.84-2.112t.84-2.112q.852-.84 2.148-.84 1.308 0 2.148.84m-.6 3.732q.588-.648.588-1.62t-.588-1.62-1.548-.648q-.948 0-1.536.648t-.588 1.62q0 .96.588 1.608t1.536.648q.96 0 1.548-.636m2.92 2.94.588-.624q.348.444.936.732.588.3 1.212.3 1.14 0 1.668-.612t.528-1.596v-1.056h-.024a2.2 2.2 0 0 1-.912.804q-.588.3-1.212.3-1.296 0-2.1-.804t-.804-2.052q0-1.224.804-2.064.816-.84 2.1-.84.636 0 1.212.3.588.288.912.816h.024v-.972h.816v5.568q0 .516-.144.984-.132.468-.444.924-.312.468-.948.744-.624.276-1.512.276-.768 0-1.488-.3a3.6 3.6 0 0 1-1.212-.828m1.308-6.192q-.564.636-.564 1.56t.564 1.56q.576.624 1.56.624.948 0 1.548-.6.612-.612.612-1.584 0-.9-.624-1.548-.612-.648-1.536-.648-.984 0-1.56.636m11.29-.48q.852.84.852 2.112t-.852 2.112q-.84.84-2.148.84-1.296 0-2.148-.84-.84-.84-.84-2.112t.84-2.112q.852-.84 2.148-.84 1.308 0 2.148.84m-.6 3.732q.588-.648.588-1.62t-.588-1.62-1.548-.648q-.948 0-1.536.648t-.588 1.62q0 .96.588 1.608t1.536.648q.96 0 1.548-.636"/></svg>