<svg xmlns="http://www.w3.org/2000/svg" fill="none" viewBox="0 0 32 32"><path fill="#0092d0" d="M21.146 2.998a1 1 0 0 1 .785 1.177l-.354 1.768a1 1 0 0 1-1.96-.393l.353-1.767a1 1 0 0 1 1.176-.785M16.708 2.979a1 1 0 0 1 1 1V8.22a1 1 0 1 1-2 0V3.98a1 1 0 0 1 1-1"/><path fill="#0092d0" fill-rule="evenodd" d="M14.586 8.928a1 1 0 0 0-1.523.13l-3.369 4.763-.057.057.01.01-3.393 4.796a5.066 5.066 0 0 0 7.062 7.062l4.796-3.392.01.01.058-.059 4.762-3.368a1 1 0 0 0 .13-1.523zm3.748 10.819 2.485-1.758-6.808-6.808-1.758 2.485zm-10.182-.282-.265.374a3.066 3.066 0 0 0 4.274 4.274l.375-.265zm1.172-1.657 4.868 4.868 2.485-1.757-5.596-5.596z" clip-rule="evenodd"/><path fill="#0092d0" d="M21.1 9.443a1 1 0 0 0-1.714-1.03l-1.06 1.769a1 1 0 1 0 1.714 1.029zM24.933 12.651a1 1 0 0 0-.894-1.789l-2.829 1.415a1 1 0 0 0 .895 1.789zM29.002 15.096a1 1 0 0 1-.784 1.177l-3.536.707a1 1 0 0 1-.392-1.961l3.535-.707a1 1 0 0 1 1.177.784M25.51 9.17a1 1 0 0 0-.633-1.897l-2.122.707a1 1 0 1 0 .633 1.897zM27.63 10.808a1 1 0 0 1 .633 1.265l-.354 1.06a1 1 0 0 1-1.897-.632l.354-1.06a1 1 0 0 1 1.265-.633"/></svg>