<svg xmlns="http://www.w3.org/2000/svg" fill="none" viewBox="0 0 32 32"><path fill="#0092d0" d="M13.999 12a1 1 0 1 0-2 0v1a1 1 0 0 0 2 0zM14.999 17a1 1 0 0 0 0 2c0 .954-.69 1.768-1.63 1.925l-.534.089a1 1 0 0 0 .328 1.973l.534-.09A3.94 3.94 0 0 0 16 21.628a3.94 3.94 0 0 0 2.302 1.27l.534.09a1 1 0 0 0 .328-1.973l-.534-.09A1.95 1.95 0 0 1 17 19a1 1 0 0 0 0-2zM18.999 11a1 1 0 0 1 1 1v1a1 1 0 0 1-2 0v-1a1 1 0 0 1 1-1"/><path fill="#0092d0" fill-rule="evenodd" d="m11.649 5.236-.776-.776A4.925 4.925 0 0 0 2.561 8.91l.224 1.121a3 3 0 0 1-.156 1.703l-1.016 2.54a3.214 3.214 0 0 0 4 4.243l.434-.144q-.039.692-.046 1.305c-.72 1.055-1.057 2.155-.907 3.242.165 1.184.881 2.15 1.872 2.885C8.908 27.242 12.166 28 16 28c3.834 0 7.091-.758 9.033-2.196.99-.734 1.707-1.701 1.872-2.885.15-1.087-.187-2.187-.907-3.242a29 29 0 0 0-.046-1.305l.434.144a3.214 3.214 0 0 0 4-4.243l-1.016-2.54a3 3 0 0 1-.156-1.703l.224-1.121a4.925 4.925 0 0 0-8.312-4.449l-.776.776C19.157 4.466 17.721 4 16 4s-3.158.466-4.35 1.236m-2.19.638a2.925 2.925 0 0 0-4.937 2.643l.224 1.121a5 5 0 0 1-.26 2.838l-1.016 2.54A1.214 1.214 0 0 0 4.98 16.62l1.268-.423c.25-1.932.715-4.04 1.515-5.947.573-1.365 1.338-2.667 2.344-3.726zm16.654-.44a2.925 2.925 0 0 0-3.574.44l-.649.65c1.006 1.058 1.771 2.36 2.344 3.725.8 1.908 1.265 4.015 1.515 5.947l1.268.423a1.214 1.214 0 0 0 1.511-1.603l-1.016-2.54a5 5 0 0 1-.26-2.838l.224-1.121a2.925 2.925 0 0 0-1.363-3.082M7.999 20c0-2.416.369-6.018 1.61-8.977C10.845 8.076 12.824 6 15.999 6s5.154 2.076 6.39 5.023C23.631 13.982 24 17.583 24 20v.334l.2.266c.646.861.794 1.539.724 2.044-.07.504-.385 1.037-1.082 1.553C22.408 25.259 19.665 26 16 26s-6.409-.741-7.842-1.803c-.697-.516-1.012-1.05-1.082-1.553-.07-.505.078-1.183.724-2.044l.2-.266z" clip-rule="evenodd"/></svg>