<svg xmlns="http://www.w3.org/2000/svg" fill="none" viewBox="0 0 24 24"><rect width="24" height="24" fill="#fff" fill-opacity=".35" rx="12"/><path fill="#0092d0" d="M15.494 19.167H8.507c-1.867 0-3.053-1.114-3.16-2.974L5 10.694a2.96 2.96 0 0 1 .807-2.24A3.01 3.01 0 0 1 8 7.5a.59.59 0 0 0 .52-.327L9 6.22c.394-.78 1.38-1.386 2.24-1.386h1.527c.86 0 1.84.606 2.233 1.38l.48.973c.1.186.3.313.52.313.827 0 1.627.347 2.194.954a2.97 2.97 0 0 1 .806 2.24l-.346 5.506c-.12 1.887-1.274 2.967-3.16 2.967M11.24 5.834c-.493 0-1.12.386-1.346.833l-.48.96c-.28.54-.82.873-1.414.873-.56 0-1.08.227-1.466.633-.38.407-.574.94-.534 1.494l.347 5.507c.08 1.346.807 2.033 2.16 2.033h6.987c1.346 0 2.073-.687 2.16-2.033L18 10.627A1.993 1.993 0 0 0 16 8.5a1.6 1.6 0 0 1-1.413-.86l-.487-.973c-.22-.44-.846-.827-1.34-.827h-1.52z"/><path fill="#0092d0" d="M13 9.834h-2a.504.504 0 0 1-.5-.5c0-.274.227-.5.5-.5h2c.273 0 .5.226.5.5 0 .273-.227.5-.5.5M12 16.5a2.666 2.666 0 1 1 0-5.334 2.666 2.666 0 1 1 0 5.334m0-4.334a1.667 1.667 0 1 0 .002 3.335 1.667 1.667 0 0 0-.001-3.335"/></svg>