<svg xmlns="http://www.w3.org/2000/svg" fill="none" viewBox="-6 -6 24 24"><path fill="#ffe372" d="M8.35 9.865h-4.7a.97.97 0 0 1-.87-.61L.71 3.46C.455 2.73.64 2.395.84 2.245s.575-.24 1.205.21l1.95 1.395c.06.035.115.05.155.04q.067-.021.105-.125l.88-2.345C5.4.72 5.79.615 6 .615s.6.105.865.805l.88 2.345c.025.065.06.11.105.125s.1 0 .155-.045l1.83-1.305c.67-.48 1.06-.385 1.275-.23.21.16.405.515.13 1.29L9.22 9.255a.97.97 0 0 1-.87.61m-7.01-6.96c.01.07.03.17.08.3L3.49 9c.02.05.11.115.16.115h4.7c.055 0 .145-.065.16-.115l2.02-5.65c.07-.19.09-.32.095-.395-.075.025-.19.08-.355.2L8.44 4.46a.94.94 0 0 1-.81.15.93.93 0 0 1-.59-.575L6.16 1.69a1 1 0 0 0-.16-.3 1 1 0 0 0-.16.295L4.96 4.03a.91.91 0 0 1-.59.575.94.94 0 0 1-.81-.15L1.61 3.06a1.4 1.4 0 0 0-.27-.155M8.75 11.375h-5.5A.38.38 0 0 1 2.875 11c0-.205.17-.375.375-.375h5.5c.205 0 .375.17.375.375s-.17.375-.375.375"/><path fill="#ffe372" d="M7.25 7.375h-2.5A.38.38 0 0 1 4.375 7c0-.205.17-.375.375-.375h2.5c.205 0 .375.17.375.375s-.17.375-.375.375"/></svg>