<svg xmlns="http://www.w3.org/2000/svg" fill="none" viewBox="-4 0 24 17"><path fill="#0092d0" fill-rule="evenodd" d="M9.334 4.027q0 .29.059.563L6.012 6.292A2.65 2.65 0 0 0 4 5.37a2.676 2.676 0 0 0-2.667 2.685A2.676 2.676 0 0 0 4 10.74c.802 0 1.522-.357 2.01-.922l3.382 1.702q-.06.273-.06.562a2.676 2.676 0 0 0 2.668 2.685 2.676 2.676 0 0 0 2.666-2.685 2.676 2.676 0 0 0-2.666-2.685c-.803 0-1.523.357-2.012.922L6.61 8.617a2.7 2.7 0 0 0 0-1.125l3.38-1.702a2.65 2.65 0 0 0 2.012.922 2.676 2.676 0 0 0 2.666-2.685 2.676 2.676 0 0 0-2.666-2.685 2.676 2.676 0 0 0-2.667 2.685m-4 4.028c0 .741-.597 1.342-1.333 1.342a1.34 1.34 0 0 1-1.334-1.342c0-.742.597-1.343 1.334-1.343.736 0 1.333.601 1.333 1.343M12 5.37c.736 0 1.333-.601 1.333-1.343 0-.741-.597-1.342-1.333-1.342-.737 0-1.334.6-1.334 1.342s.597 1.343 1.334 1.343m1.333 6.712c0 .742-.597 1.343-1.333 1.343a1.34 1.34 0 0 1-1.334-1.343c0-.741.597-1.342 1.334-1.342.736 0 1.333.6 1.333 1.342" clip-rule="evenodd"/></svg>