<svg xmlns="http://www.w3.org/2000/svg" fill="none" viewBox="0 0 32 32"><g clip-path="url(#a)"><path fill="#0092d0" fill-rule="evenodd" d="M15 3c-.89 0-1.687.387-2.236 1H12a2 2 0 0 0-2 2H8a3 3 0 0 0-3 3v16a3 3 0 0 0 3 3h14a3 3 0 0 0 3-3V9a3 3 0 0 0-3-3h-2a2 2 0 0 0-2-2h-.764A3 3 0 0 0 15 3m-.867 2.5a1 1 0 0 1 1.734 0l.289.5H18v2h-6V6h1.844zM20 8a2 2 0 0 1-2 2h-6a2 2 0 0 1-2-2H8a1 1 0 0 0-1 1v16a1 1 0 0 0 1 1h14a1 1 0 0 0 1-1V9a1 1 0 0 0-1-1z" clip-rule="evenodd"/><path stroke="#0092d0" stroke-linecap="round" stroke-width="2" d="M20 13h-6M18 18h-4M20 23h-6"/><circle cx="10" cy="13" r="1" fill="#0092d0"/><circle cx="10" cy="18" r="1" fill="#0092d0"/><circle cx="10" cy="23" r="1" fill="#0092d0"/></g><defs><clipPath id="a"><path fill="#fff" d="M0 0h32v32H0z"/></clipPath></defs></svg>