<svg xmlns="http://www.w3.org/2000/svg" fill="none" viewBox="0 0 32 32"><path fill="#0092d0" fill-rule="evenodd" d="M23.028 3A.996.996 0 0 1 24 4v13q0 .085-.014.166A3 3 0 0 1 26 20v6a3 3 0 1 1-6 0v-6c0-1.311.841-2.426 2.014-2.834A1 1 0 0 1 22 17v-3.22l-.97-.242A4 4 0 0 1 18 9.658V7.342a4 4 0 0 1 3.03-3.88l1.706-.427A1 1 0 0 1 23.028 3M22 5.28l-.485.122A2 2 0 0 0 20 7.342v2.316a2 2 0 0 0 1.515 1.94l.485.121zM23 19a1 1 0 0 0-1 1v6a1 1 0 1 0 2 0v-6a1 1 0 0 0-1-1M8 4a1 1 0 1 0-2 0v4a3 3 0 0 0 3 3v6q0 .085.014.166A3 3 0 0 0 7 20v6a3 3 0 1 0 6 0v-6a3 3 0 0 0-2.014-2.834q.015-.081.014-.166v-6a3 3 0 0 0 3-3V4a1 1 0 1 0-2 0v4a1 1 0 0 1-1 1V4a1 1 0 1 0-2 0v5a1 1 0 0 1-1-1zm1 16a1 1 0 1 1 2 0v6a1 1 0 1 1-2 0z" clip-rule="evenodd"/></svg>