<svg xmlns="http://www.w3.org/2000/svg" fill="none" viewBox="0 0 32 32"><path fill="#0092d0" d="M16 26.92c-.326 0-.65-.076-.921-.227-2.026-1.105-5.59-2.276-7.822-2.568l-.314-.043c-1.42-.174-2.59-1.506-2.59-2.947V8.048c0-.855.336-1.635.954-2.199a2.93 2.93 0 0 1 2.264-.758c2.383.184 5.98 1.376 8.017 2.654l.26.152a.42.42 0 0 0 .303.01l.173-.108c2.037-1.278 5.634-2.491 8.028-2.697h.13a2.87 2.87 0 0 1 2.21.769c.617.563.953 1.343.953 2.199v13.076c0 1.451-1.17 2.773-2.6 2.947l-.357.043c-2.232.292-5.807 1.473-7.79 2.567-.26.152-.574.217-.899.217M7.31 6.705c-.347 0-.66.12-.91.347a1.34 1.34 0 0 0-.422.996v13.087c0 .64.552 1.257 1.17 1.343l.325.044c2.437.325 6.175 1.549 8.341 2.73.098.043.239.054.293.032 2.166-1.202 5.926-2.437 8.374-2.762l.368-.044c.618-.076 1.17-.704 1.17-1.343V8.059c0-.4-.151-.747-.422-1.007a1.42 1.42 0 0 0-1.04-.347h-.13c-2.07.184-5.406 1.3-7.226 2.438l-.174.119c-.595.368-1.44.368-2.014.01l-.26-.151C12.9 7.983 9.564 6.878 7.44 6.705z"/><path fill="#0092d0" d="M16 26.01a.82.82 0 0 1-.812-.812V8.948c0-.445.368-.813.812-.813s.813.368.813.813v16.25a.81.81 0 0 1-.813.812M11.397 13.01H8.958a.82.82 0 0 1-.813-.812c0-.445.369-.813.813-.813h2.438c.444 0 .812.368.812.813a.82.82 0 0 1-.812.812M12.209 16.26h-3.25a.82.82 0 0 1-.813-.813c0-.444.369-.812.813-.812h3.25c.444 0 .813.368.813.813a.82.82 0 0 1-.813.812"/></svg>