<svg xmlns="http://www.w3.org/2000/svg" fill="none" viewBox="0 0 32 32"><path fill="#0092d0" fill-rule="evenodd" d="M19 17.5a1 1 0 0 0-1 1v4a1 1 0 0 0 1 1h4a1 1 0 0 0 1-1v-4a1 1 0 0 0-1-1zm1 4v-2h2v2z" clip-rule="evenodd"/><path fill="#0092d0" fill-rule="evenodd" d="M4.793 5.293A6.12 6.12 0 0 1 9.12 3.5H22.88A6.12 6.12 0 0 1 29 9.621v.882a3.99 3.99 0 0 1-1 2.643V26.5a3 3 0 0 1-3 3H7a3 3 0 0 1-3-3V13.146A3.99 3.99 0 0 1 3 10.5v-.879c0-1.623.645-3.18 1.793-4.328M25 27.5h-9v-9a1 1 0 0 0-1-1H9a1 1 0 0 0-1 1v9H7a1 1 0 0 1-1-1V14.374a4.01 4.01 0 0 0 4-1.228 4 4 0 0 0 3 1.354 4 4 0 0 0 3-1.354 4 4 0 0 0 3 1.354 4 4 0 0 0 3-1.354 3.99 3.99 0 0 0 4 1.228V26.5a1 1 0 0 1-1 1m-11 0h-4v-8h4zM27 9.621v.879a2 2 0 1 1-4 0 1 1 0 1 0-2 0 2 2 0 1 1-4 0 1 1 0 1 0-2 0 2 2 0 1 1-4 0 1 1 0 1 0-2 0 2 2 0 1 1-4 0v-.879A4.12 4.12 0 0 1 9.121 5.5H22.88A4.12 4.12 0 0 1 27 9.621" clip-rule="evenodd"/></svg>