<svg xmlns="http://www.w3.org/2000/svg" fill="none" viewBox="0 0 32 32"><path fill="#0092d0" fill-rule="evenodd" d="M14 5a2 2 0 0 1 3.732-1H20a1 1 0 0 1 1 1h-1 1v.04a8 8 0 0 1-.018.41c-.017.27-.05.65-.118 1.103-.133.901-.402 2.12-.95 3.353s-1.391 2.515-2.689 3.488c-1.105.828-2.496 1.402-4.225 1.561V21.5a5.5 5.5 0 1 0 11 0v-1.626A4.002 4.002 0 0 1 25 12a4 4 0 0 1 1 7.874V21.5a7.5 7.5 0 0 1-15 0v-6.545c-1.729-.16-3.12-.733-4.225-1.561-1.298-.973-2.14-2.254-2.689-3.488-.548-1.232-.817-2.452-.95-3.353a13 13 0 0 1-.134-1.422L3 5.04V5L4 5l-1 .001A1 1 0 0 1 4 4h2.268a2 2 0 1 1 0 2h-1.19l.036.26c.117.786.348 1.816.8 2.834.452 1.016 1.109 1.986 2.061 2.7C8.915 12.499 10.201 13 12 13s3.085-.501 4.025-1.206c.952-.715 1.61-1.684 2.061-2.7.452-1.018.683-2.048.8-2.834q.02-.135.035-.26h-1.189A2 2 0 0 1 14 5m9 11a2 2 0 1 1 4 0 2 2 0 0 1-4 0" clip-rule="evenodd"/></svg>