<svg xmlns="http://www.w3.org/2000/svg" fill="none" viewBox="0 0 32 32"><path fill="#0092d0" d="M10.476 28.5c.556 0 .941-.296 1.633-.91l3.914-3.494h7.282c3.38 0 5.195-1.877 5.195-5.211v-8.717c0-3.334-1.815-5.211-5.195-5.211H8.695c-3.38 0-5.195 1.866-5.195 5.211v8.717c0 3.345 1.815 5.211 5.195 5.211h.545v2.959c0 .876.442 1.445 1.236 1.445m.465-2.082v-3.3c0-.615-.238-.854-.85-.854H8.694c-2.291 0-3.369-1.172-3.369-3.39v-8.706c0-2.219 1.078-3.38 3.37-3.38h14.609c2.28 0 3.369 1.161 3.369 3.38v8.705c0 2.22-1.09 3.391-3.37 3.391h-7.35c-.635 0-.952.091-1.383.535z"/><path fill="#0092d0" d="m13.595 18.816 2.416-1.775 2.416 1.775c.465.353 1.021.035.806-.591l-.942-2.845 2.473-1.787c.5-.364.284-.944-.284-.944h-3.062l-.908-2.834c-.17-.546-.828-.546-.998 0l-.919 2.834h-3.062c-.567 0-.794.58-.284.944l2.484 1.787-.952 2.845c-.205.625.34.944.816.591"/></svg>