<svg xmlns="http://www.w3.org/2000/svg" fill="none" viewBox="0 0 32 32"><g fill="#0092d0" clip-path="url(#a)"><path d="M16.014 30.32a3.55 3.55 0 0 1-2.32-.84l-2.107-1.8c-.213-.187-.747-.373-1.027-.373H8.227a3.574 3.574 0 0 1-3.574-3.574v-2.28c0-.28-.186-.813-.36-1.013L2.48 18.307c-1.093-1.294-1.093-3.32 0-4.627l1.813-2.133c.174-.2.36-.734.36-1.014V8.267c0-1.974 1.6-3.574 3.574-3.574h2.307c.28 0 .8-.2 1.026-.386l2.107-1.8c1.306-1.107 3.347-1.107 4.653 0l2.107 1.8c.213.186.76.373 1.04.373h2.267c1.973 0 3.573 1.6 3.573 3.573v2.267c0 .28.2.8.387 1.027l1.8 2.106c1.12 1.32 1.106 3.36 0 4.654l-1.8 2.106c-.187.227-.374.747-.374 1.027v2.267c0 1.973-1.6 3.573-3.573 3.573H21.48c-.28 0-.8.2-1.04.387l-2.107 1.8a3.52 3.52 0 0 1-2.32.853M8.227 6.693c-.867 0-1.574.707-1.574 1.574v2.266c0 .76-.346 1.72-.84 2.307L4 14.973c-.453.547-.453 1.507 0 2.04l1.8 2.12c.48.547.84 1.547.84 2.307v2.28c0 .867.707 1.573 1.573 1.573h2.32c.747 0 1.734.36 2.32.854l2.12 1.813c.547.467 1.494.467 2.054 0l2.107-1.8c.6-.507 1.573-.853 2.32-.853h2.266c.867 0 1.574-.707 1.574-1.574v-2.266c0-.747.36-1.72.853-2.32l1.813-2.12c.467-.547.467-1.507 0-2.054l-1.8-2.106c-.506-.6-.853-1.574-.853-2.32v-2.28c0-.867-.707-1.574-1.573-1.574h-2.267c-.76 0-1.747-.36-2.333-.853l-2.12-1.813c-.547-.467-1.494-.467-2.054 0L12.867 5.84c-.6.493-1.574.853-2.334.853z"/><path d="m19.747 21.653-3.746-8.44-3.747 8.44-1.84-.813 4.667-10.493h1.84l4.666 10.493z"/><path d="M18.333 18.747h-4.667c-.547 0-1-.454-1-1 0-.547.453-1 1-1h4.667c.546 0 1 .453 1 1s-.454 1-1 1"/></g><defs><clipPath id="a"><path fill="#fff" d="M0 0h32v32H0z"/></clipPath></defs></svg>