<svg xmlns="http://www.w3.org/2000/svg" fill="none" viewBox="0 0 32 32"><g clip-path="url(#a)"><rect width="32" height="32" fill="#419fd9" rx="16"/><path fill="#fff" fill-rule="evenodd" d="M19.557 23.923c1.118.49 1.537-.536 1.537-.536l2.96-14.865c-.024-1.001-1.375-.396-1.375-.396l-16.566 6.5s-.792.28-.722.77c.07.489.699.722.699.722l4.17 1.398s1.259 4.124 1.515 4.916c.233.769.443.792.443.792.233.093.442-.07.442-.07l2.703-2.446zm.722-12.768s.582-.35.56 0c0 0 .092.047-.21.373-.28.28-6.874 6.197-7.759 6.99a.25.25 0 0 0-.116.21l-.257 2.19c-.046.232-.35.256-.42.046l-1.094-3.588a.34.34 0 0 1 .14-.396z" clip-rule="evenodd"/></g><defs><clipPath id="a"><path fill="#fff" d="M0 0h32v32H0z"/></clipPath></defs></svg>