<svg xmlns="http://www.w3.org/2000/svg" fill="none" viewBox="0 0 32 32"><g clip-path="url(#a)"><rect width="32" height="32" fill="#0dc143" rx="16"/><path fill="#fff" d="M23.168 8.808c-1.716-1.766-4.087-2.724-6.508-2.724-5.146 0-9.283 4.187-9.233 9.282 0 1.615.454 3.179 1.21 4.591l-1.31 4.793 4.893-1.261c1.362.757 2.875 1.11 4.39 1.11 5.095 0 9.232-4.188 9.232-9.283 0-2.472-.96-4.793-2.674-6.508M16.66 23.035c-1.363 0-2.725-.353-3.885-1.06l-.303-.151-2.926.757.757-2.876-.202-.303c-2.22-3.582-1.16-8.324 2.472-10.544 3.633-2.22 8.324-1.16 10.544 2.472 2.22 3.633 1.16 8.325-2.472 10.545-1.16.756-2.573 1.16-3.985 1.16m4.44-5.6-.556-.252s-.807-.354-1.311-.606c-.051 0-.101-.05-.152-.05-.151 0-.252.05-.353.1 0 0-.05.051-.757.858a.28.28 0 0 1-.252.152h-.05a.4.4 0 0 1-.202-.101l-.252-.101c-.555-.252-1.06-.555-1.464-.959-.1-.1-.252-.201-.353-.302-.353-.354-.706-.757-.958-1.211l-.05-.101c-.051-.05-.051-.101-.102-.202 0-.1 0-.202.05-.252 0 0 .203-.252.354-.404.1-.1.151-.252.252-.353.101-.151.151-.353.101-.504-.05-.253-.656-1.615-.807-1.918-.101-.15-.202-.201-.353-.252h-.555c-.101 0-.202.05-.303.05l-.05.051c-.101.05-.202.151-.303.202-.101.1-.151.202-.252.303a2.57 2.57 0 0 0-.555 1.564c0 .403.1.807.252 1.16l.05.151a8.4 8.4 0 0 0 1.867 2.573l.202.202c.151.151.303.252.404.404a9 9 0 0 0 3.632 1.917c.151.05.353.05.504.1h.505c.252 0 .555-.1.757-.201.151-.101.252-.101.353-.202l.1-.1c.102-.102.203-.152.303-.253.101-.101.202-.202.253-.303.1-.202.151-.454.201-.706v-.353s-.05-.05-.15-.101"/></g><defs><clipPath id="a"><path fill="#fff" d="M0 0h32v32H0z"/></clipPath></defs></svg>