<svg xmlns="http://www.w3.org/2000/svg" fill="none" viewBox="0 0 32 32"><g clip-path="url(#a)"><rect width="32" height="32" fill="#5181b8" rx="16"/><path fill="#fff" fill-rule="evenodd" d="M26.178 11.023c.148-.494 0-.857-.706-.857h-2.334c-.593 0-.867.313-1.015.66 0 0-1.187 2.893-2.868 4.772-.544.544-.792.716-1.088.716-.149 0-.363-.172-.363-.667v-4.624c0-.593-.173-.857-.667-.857h-3.668c-.37 0-.594.275-.594.536 0 .563.84.692.928 2.275v3.437c0 .753-.136.89-.433.89-.791 0-2.716-2.906-3.857-6.231-.224-.646-.448-.908-1.045-.908H6.134c-.667 0-.8.314-.8.66 0 .619.791 3.685 3.684 7.74 1.929 2.769 4.646 4.27 7.119 4.27 1.483 0 1.667-.333 1.667-.908v-2.093c0-.666.14-.8.61-.8.346 0 .94.174 2.324 1.509 1.583 1.582 1.843 2.292 2.734 2.292h2.333c.667 0 1-.333.808-.991-.21-.656-.966-1.607-1.968-2.735-.544-.643-1.36-1.336-1.607-1.682-.346-.445-.248-.642 0-1.038 0 0 2.843-4.005 3.14-5.365" clip-rule="evenodd"/></g><defs><clipPath id="a"><path fill="#fff" d="M0 0h32v32H0z"/></clipPath></defs></svg>