<svg xmlns="http://www.w3.org/2000/svg" fill="none" viewBox="0 0 32 32"><path fill="#0092d0" d="M14.648.101c-.245.16-.435.374-.514.582-.043.11-.068.985-.068 2.454v2.277l.178.275c.483.771 1.652.68 2.032-.159.104-.22.116-.44.116-2.448 0-2.485-.012-2.54-.459-2.883-.196-.147-.3-.177-.667-.196-.349-.012-.471.007-.618.098M26.454 4.949c-.294.067-.453.208-1.714 1.48-1.065 1.078-1.175 1.206-1.242 1.482a1.17 1.17 0 0 0 .52 1.297c.3.178.845.202 1.145.05.257-.135 2.331-2.186 2.558-2.528.147-.227.177-.343.177-.63 0-.607-.275-.992-.826-1.145-.27-.074-.343-.074-.618-.006M2.836 5.493c-.685.172-1.046.753-.881 1.439.067.293.153.391 1.548 1.799.808.82 1.58 1.542 1.702 1.61.41.208.997.134 1.358-.184.319-.282.435-.894.245-1.34-.11-.276-2.748-2.95-3.115-3.165-.282-.159-.594-.22-.857-.159M13.7 7.305c-1.126.208-2.436.728-3.311 1.322-1.506 1.01-2.663 2.442-3.293 4.064-1.053 2.717-.728 5.643.9 8.103.367.557 1.303 1.573 1.793 1.946l.312.233-.043 1.101c-.049 1.224-.012 1.494.257 1.812.092.11.276.245.416.306.227.104.496.116 4.193.116s3.966-.012 4.192-.116c.551-.245.82-.863.63-1.42a1.15 1.15 0 0 0-.526-.649l-.226-.14h-6.58v-.857c0-1.181-.116-1.439-.795-1.763-.398-.183-1.506-1.26-1.855-1.793-1.64-2.528-1.48-5.57.41-7.877.6-.734 1.298-1.273 2.247-1.72 1.046-.495 1.475-.587 2.809-.581 1.052 0 1.175.012 1.683.165 2.68.808 4.504 2.968 4.81 5.704.129 1.157-.085 2.332-.63 3.458-.257.526-.312.704-.318.98-.006.624.416 1.04 1.065 1.04.563 0 .777-.19 1.193-1.04.581-1.206.845-2.381.85-3.795 0-1.469-.262-2.62-.893-3.886A8.7 8.7 0 0 0 19.055 8.1c-1.322-.655-2.375-.888-3.948-.882-.52 0-1.156.043-1.407.086"/><path fill="#0092d0" d="M12.372 11.16c-.38.19-1.236 1.072-1.536 1.58-.576.96-.82 1.86-.814 3.01 0 1.451.495 2.718 1.475 3.783.397.44.722.612 1.132.612.783 0 1.316-.673 1.132-1.438-.055-.227-.16-.392-.453-.71-.667-.728-.955-1.414-.955-2.27 0-.968.319-1.678 1.084-2.424.55-.539.63-.686.63-1.139 0-.618-.416-1.07-1.046-1.132-.276-.03-.386-.006-.65.129M.54 18.364c-.39.202-.562.514-.538.998.025.44.19.71.539.887.226.117.367.123 2.215.123 1.934 0 1.983-.006 2.222-.141.692-.386.673-1.487-.03-1.86-.258-.141-.3-.141-2.198-.141-1.89 0-1.946.006-2.21.134M26.277 18.327c-.417.214-.6.514-.6.973 0 .466.25.857.649 1.004.275.104 3.971.092 4.223-.018.47-.202.746-.777.605-1.255-.098-.312-.349-.612-.605-.716-.313-.135-4.015-.122-4.273.012M11.778 27.134c-.3.104-.625.423-.716.692-.11.337-.043.826.153 1.083.373.484.165.46 3.788.46 3.63 0 3.507.012 3.844-.447.459-.637.146-1.604-.588-1.812-.386-.104-6.17-.086-6.481.024M11.729 30.58c-.46.282-.453 1.04.006 1.316.16.092.471.104 3.33.104h3.151l.19-.16a.804.804 0 0 0 0-1.21l-.19-.16h-3.158c-2.87.006-3.182.012-3.33.11"/></svg>