<svg xmlns="http://www.w3.org/2000/svg" fill="none" viewBox="-3 -3 24 24"><path fill="#0092d0" fill-rule="evenodd" d="M9 3c2.046 0 4.002 1.073 5.825 2.836a17.5 17.5 0 0 1 2.307 2.76L17.39 9l-.258.404c-.116.182-.329.487-.627.874a17.5 17.5 0 0 1-1.68 1.886C13.002 13.927 11.045 15 9 15s-4.002-1.073-5.825-2.836a17.5 17.5 0 0 1-2.307-2.76L.61 9l.258-.404a17.48 17.48 0 0 1 2.307-2.76C4.998 4.073 6.955 3 9 3m6.317 5.638a16 16 0 0 0-1.535-1.724C12.212 5.396 10.579 4.5 9 4.5s-3.212.896-4.782 2.414A16 16 0 0 0 2.412 9q.124.171.271.362c.454.588.97 1.177 1.535 1.724C5.788 12.604 7.421 13.5 9 13.5s3.212-.896 4.782-2.414A16 16 0 0 0 15.588 9a15 15 0 0 0-.271-.362M6 9a3 3 0 1 0 6 0 3 3 0 0 0-6 0m4.5 0a1.5 1.5 0 1 1-3 0 1.5 1.5 0 0 1 3 0" clip-rule="evenodd"/></svg>