<svg xmlns="http://www.w3.org/2000/svg" fill="none" viewBox="0 0 120 120"><path fill="#343434" fill-rule="evenodd" d="M0 21.845v21.844h10.874v10.874H0v10.874h10.874V54.563h10.874v10.874H32.62V76.31H0V120h43.689V76.311H76.31V65.437H65.438V54.563h21.942v10.874h10.873V76.31H87.385l-.052 5.485-.052 5.485-13.64.05-13.641.05V120h10.874V98.252h21.942v10.874H81.834l-.017 5.437L81.8 120h11.015v-10.874h10.874V98.252h5.437V87.38H120V76.31h-10.874V65.437H120V54.563h-10.874V43.69H120V0H76.311v43.689H43.69V0H0zm54.563-10.971v10.874h-5.437V32.62h5.437v5.534l5.437.011 5.437.011V21.748h5.437V10.874h-5.437V0H54.563zM32.621 21.748V32.62H10.874V10.874H32.62zm76.505 0V32.62H87.379V10.874h21.747zm-92.815 0v5.436h10.873V16.311H16.311zm76.505 0v5.436h10.873V16.311H92.816zM43.689 49.126v5.437h10.874v10.874H32.621V54.563H21.748V43.69h21.941zm54.563 0v5.437h10.874v10.874H98.252V54.563H87.38V43.69h10.873zm10.874 32.719v5.534H98.252V76.31h10.874zM32.621 98.252v10.874H10.874V87.379H32.62zm-16.31 0v5.437h10.873V92.816H16.311zm92.815 16.311V120H120v-10.874h-10.874z" clip-rule="evenodd"/></svg>