<svg xmlns="http://www.w3.org/2000/svg" fill="none" viewBox="0 0 87 32"><path fill="url(#a)" d="M.099 3.953c3.56-.98 10.824-1.052 14.409 0 0 0 .12 0 .096.119l-.025 16.823c0 .12-.119.12-.119.12H9.514s-.12 0-.096-.12V6.845h-4.23v14.05c.024.118-.093.12-.095.12H.146s-.12 0-.12-.12L.003 4.072c-.024-.12.096-.12.096-.12m27.31 4.54c4.707-.884 10.656-.168 11.494-.048.168.024.216.12.24.24 0 .003.07.289.07.693.048 2.365-2.484 2.556-3.775 2.365h-.023v3.943c0 3.799 1.625 2.987 1.41 3.632-.263.765-1.578 1.696-2.916 1.696-1.911 0-3.321-1.385-3.321-3.631v-5.831l-3.107-.024s-.072 0-.072-.096l-.047-2.676v-.167c0-.072.023-.072.047-.096m-6.453-.455c4.11 0 7.24 3.369 6.715 7-.263 3.561-3.154 6.047-6.786 5.975-2.103-.047-5.306-.884-5.306-3.226 0-1.17.837-2.294 2.294-2.294.74 0 1.65.191 1.602.693-.072.693.023 1.171.214 1.482.335.525.837.693 1.363.693.956 0 1.816-.526 1.935-2.39h-2.963s-.095 0-.095-.12v-2.365c0-.096.095-.096.095-.096h2.963c-.12-1.864-.908-2.652-2.127-2.652-.453.048-.883.239-1.146.669-.191.335-.288.813-.216 1.506.047.501-.86.692-1.6.692-1.458 0-2.318-1.147-2.294-2.294.071-2.485 3.201-3.225 5.304-3.273zm30.942-5.2c2.103-.263 3.848.98 3.585 3.01-.43 3.465-4.587 2.414-4.587 2.103 0-.478.118-1.219-.694-1.219-.98 0-1.457 1.554-1.433 3.346 1.6-.024 2.222 1.195 2.987 2.82.526 1.1 2.03 4.493 3.894 5.09.407.143-.286 2.723-2.556 2.986-4.636.526-5.76-4.253-6.261-7.957-.191-.047-.692-.023-.884.096l.167 7.265c0 .119-.12.119-.12.119H40.86s-.119 0-.095-.12c-.024-11.376 0-12.94 0-12.975-.263-2.844-1.721-2.199-1.506-2.82.287-.789 1.864-1.744 3.273-1.744 1.864 0 3.537 1.099 3.537 3.823l-.119 3.823c.168-.095.573-.095.74-.167-.047-3.656 1.673-7.049 5.21-7.48m25.156-.036c1.285 0 2.97.847 3.18 2.666.468-.019.953-.025 1.446-.008 3.15.102 5.319 1.678 5.319 4.686 0 2.19-.797 5.279-6.322 5.054v.982c.102 3.233 1.534 2.538 1.33 3.11-.246.737-2.026 1.659-3.254 1.659-1.657 0-3.09-1.044-3.09-3.581l.015-8.403c-.03-.761-.048-1.35-.048-1.63 0-3.233-1.22-2.542-1.037-3.091.224-.65 1.322-1.444 2.46-1.444M64.749 12.34c.303-.083.89.027 1.303.229.403.202.743.57 1.358 1.496.202.303.441.624.524.706.091.092.165.202.165.248s.32.24.715.432c1.66.816 1.854 1.018 1.854 2 0 .532-.028.633-.275.918a2.6 2.6 0 0 1-.716.522c-.57.285-1.643.285-2.882.01s-1.881-.257-2.964.073c-.715.22-1.064.276-1.743.276-.79 0-.872-.019-1.22-.276-.616-.44-.845-.863-.845-1.542 0-.853.258-1.312 1.102-1.945.34-.257 1.193-1.11 2.11-2.11.542-.597.982-.9 1.514-1.038m6.405-2.735c.624-.156 1.532.093 1.532.423 0 .073.037.138.074.138.046 0 .147.146.23.32.11.239.154.57.154 1.202 0 .835-.017.909-.366 1.615-.202.404-.468.845-.596.973-.129.12-.23.266-.23.303 0 .034-.036.063-.085.076l-.105.014c-.05.013-.085.043-.085.085-.001.192-.726.459-1.267.459-.449 0-.596-.047-.898-.267-.753-.56-.991-1.679-.578-2.697.275-.68.477-1.075.56-1.075.027 0 .082-.073.118-.173.046-.147.303-.487.578-.762.267-.275.716-.57.964-.634m-11.277-.027c.55.055.982.395 1.432 1.11l.293.478-.037 1.128c-.027 1.046-.055 1.166-.302 1.633-.285.524-.698 1-1.029 1.184-.238.12-.944.138-1.238.019-.376-.147-.882-.68-1.166-1.24-.257-.476-.284-.614-.284-1.376 0-.77.028-.89.312-1.477.34-.697.89-1.294 1.303-1.422.147-.046.468-.065.716-.037m23.378.527c0-1.534-1.044-2.68-2.578-2.435v5.422c1.637 0 2.578-1.493 2.578-2.987m-16.12-5.39c.367-.193 1.404-.193 1.68 0 .477.33.76.67 1 1.183.348.762.366 1.973.027 2.937-.303.88-.816 1.569-1.358 1.807-.513.23-1.156.248-1.514.055-.752-.413-1.257-1.588-1.33-3.102-.037-.825-.028-.908.238-1.467.293-.624.789-1.175 1.257-1.413m-3.983-.147c.56 0 .652.028.983.294.23.184.486.532.66.89.293.578.293.578.257 1.743-.037.917-.092 1.266-.257 1.707-.239.633-.45.954-.614.964-.065 0-.12.036-.12.073 0 .147-.459.293-.899.293-.706 0-1.33-.532-1.826-1.56-.321-.66-.33-.734-.33-1.651 0-.991.018-1.055.532-1.927.11-.183.54-.56.825-.716.101-.055.46-.11.79-.11"/><path fill="#00405b" d="M79.227 27.798q0-.093.083-.238l1.482-2.311-1.269-2.108a.3.3 0 0 1-.05-.177q0-.102.083-.177a.3.3 0 0 1 .206-.076q.184 0 .325.1a.9.9 0 0 1 .253.294l.926 1.641h.043l.948-1.641q.12-.21.231-.3a.37.37 0 0 1 .242-.094q.09 0 .156.05a.15.15 0 0 1 .069.127.4.4 0 0 1-.084.224l-1.243 2.021 1.457 2.383a.46.46 0 0 1 .061.206.22.22 0 0 1-.08.17.3.3 0 0 1-.21.069.8.8 0 0 1-.194-.022.6.6 0 0 1-.156-.065.7.7 0 0 1-.13-.12 2 2 0 0 1-.12-.176l-1.11-1.892h-.028l-1.165 1.874q-.072.123-.137.202a1 1 0 0 1-.127.123.4.4 0 0 1-.115.061.5.5 0 0 1-.123.015q-.113 0-.17-.047a.15.15 0 0 1-.054-.116M72.639 27.592V23.08q0-.202.076-.286.075-.084.25-.083.23 0 .35.144.123.145.123.427v1.74h.89q.433 0 .755.072.322.068.568.23.249.164.376.453.13.29.13.701 0 .264-.069.485a1.2 1.2 0 0 1-.455.633 1.6 1.6 0 0 1-.326.184 2 2 0 0 1-.35.112 3 3 0 0 1-.644.069h-1.334q-.34 0-.34-.369m.792-.025h.784q.159 0 .304-.026a1.2 1.2 0 0 0 .293-.1.9.9 0 0 0 .26-.192.9.9 0 0 0 .177-.315 1.4 1.4 0 0 0 .069-.456q0-.585-.293-.824-.292-.243-.846-.242h-.748zm3.51-.177v-4.198q0-.26.113-.37.111-.111.347-.111.34 0 .34.369v4.512q0 .202-.076.286t-.25.083q-.231 0-.354-.145-.12-.144-.12-.426M66.713 23.741v-.756q0-.162.105-.216.108-.059.34-.058h3.626q.232 0 .337.058.108.054.108.216v.756q0 .195-.08.282-.076.087-.238.087-.217 0-.326-.108-.104-.113-.104-.373v-.524h-1.11v4.411q0 .254-.109.35t-.35.095q-.34 0-.34-.369v-4.487h-1.11v.524q0 .261-.11.372-.104.11-.32.109-.32 0-.32-.369M61.36 27.755q0-.076.035-.177l1.743-4.69q.034-.087.141-.13a.7.7 0 0 1 .264-.047q.163 0 .29.054.126.05.162.145l1.696 4.697q.015.06.015.108 0 .105-.069.177-.07.069-.22.069-.413 0-.554-.394l-.394-1.013h-2.08l-.379 1.013q-.09.235-.206.314a.4.4 0 0 1-.246.08q-.105 0-.152-.058a.23.23 0 0 1-.047-.148m1.146-1.588h1.85l-.892-2.581h-.047zM55.861 23.741v-.756q0-.162.105-.216.108-.059.34-.058h3.627q.231 0 .336.058.108.054.109.216v.756q0 .195-.08.282-.075.087-.239.087-.216 0-.325-.108-.105-.113-.105-.373v-.524h-1.11v4.411q0 .254-.108.35-.11.095-.351.095-.34 0-.34-.369v-4.487h-1.11v.524q0 .261-.109.372-.105.11-.322.109-.318 0-.318-.369M51.287 25.383q0-.687.17-1.19.174-.506.477-.835.305-.33.716-.488a2.5 2.5 0 0 1 .9-.16 4.5 4.5 0 0 1 .789.073q.188.036.333.09a.46.46 0 0 1 .202.12q.061.072.061.235v.444q0 .195-.079.286-.075.087-.239.087-.216 0-.325-.112-.105-.113-.105-.373v-.412a2.7 2.7 0 0 0-.539-.061q-.351 0-.633.148a1.3 1.3 0 0 0-.48.441 2.2 2.2 0 0 0-.308.723q-.105.43-.105.998 0 .626.105 1.045.109.42.311.673t.496.358.665.105a1.9 1.9 0 0 0 .466-.055q.243-.057.503-.162l.141-.058a.2.2 0 0 1 .062-.015q.072 0 .122.07a.24.24 0 0 1 .055.15q0 .113-.098.15l-.127.05q-.315.126-.643.191a3.7 3.7 0 0 1-.687.062 2.6 2.6 0 0 1-.98-.17 1.7 1.7 0 0 1-.687-.499 2.2 2.2 0 0 1-.405-.81 4.1 4.1 0 0 1-.134-1.1M45.467 25.34q0-.192.025-.46.026-.27.105-.564.08-.293.228-.578.152-.29.401-.517t.615-.37q.365-.14.875-.14t.875.144q.369.14.622.373.254.23.405.52t.231.583q.084.288.109.556t.025.452q0 .189-.025.456a3.3 3.3 0 0 1-.105.557q-.08.293-.232.582-.148.286-.4.514a2 2 0 0 1-.62.372 2.5 2.5 0 0 1-.885.14 2.4 2.4 0 0 1-.89-.144 1.9 1.9 0 0 1-.618-.376 1.9 1.9 0 0 1-.398-.524 3 3 0 0 1-.224-.582 3.3 3.3 0 0 1-.097-.553 6 6 0 0 1-.022-.442m.835 0q0 .17.014.404.014.232.062.481.047.25.137.496.094.242.25.434.159.191.39.31.232.12.56.12.32-.008.547-.116.231-.108.387-.286.159-.177.257-.404a2.6 2.6 0 0 0 .148-.478q.054-.249.072-.495.018-.25.018-.467 0-.173-.014-.408a3.5 3.5 0 0 0-.058-.485 3 3 0 0 0-.141-.495 1.5 1.5 0 0 0-.25-.434 1.15 1.15 0 0 0-.397-.311 1.24 1.24 0 0 0-.568-.12q-.314 0-.543.113a1.2 1.2 0 0 0-.383.296q-.155.18-.253.42a3 3 0 0 0-.148.484 4 4 0 0 0-.069.496 6 6 0 0 0-.018.444M40.334 27.592V23.08q0-.37.34-.37h1.519q1.645 0 1.645 1.32 0 .181-.062.362a1.2 1.2 0 0 1-.166.33q-.108.147-.264.26a1 1 0 0 1-.347.159v.036q.293.054.502.17a1.2 1.2 0 0 1 .344.274 1 1 0 0 1 .199.358q.065.195.065.413 0 .34-.094.589-.09.246-.246.42a1.3 1.3 0 0 1-.35.285q-.195.109-.406.17a2.3 2.3 0 0 1-.412.083q-.202.022-.372.022h-1.555q-.34 0-.34-.369m.8-.025h.99q.17 0 .369-.047a1.1 1.1 0 0 0 .376-.17 1 1 0 0 0 .289-.337q.116-.216.116-.55a.96.96 0 0 0-.409-.816 1.2 1.2 0 0 0-.394-.185 1.6 1.6 0 0 0-.42-.058h-.918zm0-2.553h.852q.166 0 .348-.054a.9.9 0 0 0 .325-.174.9.9 0 0 0 .242-.314q.098-.192.098-.467a.8.8 0 0 0-.105-.43.85.85 0 0 0-.267-.279 1 1 0 0 0-.348-.148 1.6 1.6 0 0 0-.354-.043h-.792zM34.936 27.798q0-.093.083-.238l1.482-2.311-1.269-2.108a.3.3 0 0 1-.05-.177q0-.102.083-.177a.3.3 0 0 1 .206-.076q.184 0 .325.1a.9.9 0 0 1 .253.294l.926 1.641h.043l.948-1.641q.12-.21.231-.3a.37.37 0 0 1 .242-.094q.09 0 .156.05a.15.15 0 0 1 .069.127.4.4 0 0 1-.084.224l-1.243 2.021 1.457 2.383a.46.46 0 0 1 .061.206.22.22 0 0 1-.08.17.3.3 0 0 1-.21.069.8.8 0 0 1-.194-.022.6.6 0 0 1-.156-.065.7.7 0 0 1-.13-.12 2 2 0 0 1-.12-.176l-1.11-1.892h-.028l-1.165 1.874q-.072.123-.137.202a1 1 0 0 1-.127.123.4.4 0 0 1-.115.061.5.5 0 0 1-.123.015q-.113 0-.17-.047a.15.15 0 0 1-.055-.116M27.744 27.592V23.08q0-.37.34-.37h2.517q.231 0 .336.058.108.055.108.217v.644q0 .195-.08.282-.076.087-.238.087-.22 0-.325-.109-.105-.111-.105-.372v-.412h-1.754v1.938h1.555q.098 0 .152.061.054.062.054.145a.2.2 0 0 1-.018.072.25.25 0 0 1-.112.112.2.2 0 0 1-.076.018h-1.555v2.116h1.866v-.412q0-.26.105-.37.105-.111.325-.111.163 0 .239.086.08.087.08.282v.644q0 .163-.109.22-.105.055-.336.055h-2.629q-.34 0-.34-.369M21.787 27.592V23.08q0-.202.076-.286t.25-.083q.23 0 .35.144.123.145.123.427v4.285h2.235v-4.375q0-.26.112-.37.112-.111.347-.111.174 0 .257.09.087.086.087.279v4.487h.22q.231 0 .336.058.11.057.109.217v.987q0 .369-.318.369-.217 0-.326-.113-.105-.111-.105-.368v-.756h-3.413q-.34 0-.34-.369M15.291 27.842q0-.153.101-.21a.7.7 0 0 1 .322-.065h.072q.442-.438.597-1.291.16-.857.16-2.401v-.796q0-.202.075-.285.076-.084.25-.083h2.458q.174 0 .257.09.084.086.083.279v4.487h.224q.232 0 .337.058.108.057.108.217v.987q0 .369-.318.369-.217 0-.325-.113-.105-.111-.105-.368v-.756H16.04v.756q0 .256-.109.369-.105.112-.322.112-.318 0-.318-.37zm1.186-.275h2.39v-4.462h-1.74v.745q0 1.33-.133 2.216-.134.886-.517 1.5M10.945 27.592V23.08q0-.207.076-.286.075-.084.25-.083h1.236q.127 0 .286.003.163.004.344.033.18.026.376.087.195.06.39.18.127.077.239.188.112.113.195.264.084.15.13.344.047.192.047.434 0 .354-.123.662-.123.304-.372.531a1.8 1.8 0 0 1-.626.358q-.375.13-.878.13h-.77v1.555q0 .261-.113.372-.108.11-.347.109-.34 0-.34-.369m.8-2.061h.762q.558 0 .865-.31.306-.315.307-.977 0-.275-.065-.488a.86.86 0 0 0-.206-.358.9.9 0 0 0-.365-.217 1.7 1.7 0 0 0-.536-.076h-.763zM5.97 27.592V23.08q0-.37.34-.37h2.517q.232 0 .337.058.108.055.108.217v.644q0 .195-.08.282-.076.087-.238.087-.22 0-.326-.109-.104-.111-.104-.372v-.412H6.77v1.938h1.555q.097 0 .152.061.054.062.054.145a.2.2 0 0 1-.018.072.25.25 0 0 1-.112.112.2.2 0 0 1-.076.018H6.77v2.116h1.866v-.412q0-.26.104-.37.105-.111.326-.111.162 0 .239.086.08.087.08.282v.644q0 .163-.11.22-.104.055-.336.055H6.311q-.34 0-.34-.369M.803 25.383q0-.687.17-1.19.173-.506.477-.835.303-.33.716-.488a2.5 2.5 0 0 1 .9-.16 4.5 4.5 0 0 1 .789.073q.188.036.332.09a.46.46 0 0 1 .203.12q.06.072.061.235v.444q0 .195-.08.286-.075.087-.238.087-.217 0-.325-.112-.105-.113-.105-.373v-.412a2.7 2.7 0 0 0-.54-.061q-.35 0-.632.148a1.3 1.3 0 0 0-.48.441 2.2 2.2 0 0 0-.308.723q-.105.43-.105.998 0 .626.105 1.045.108.42.31.673.204.253.496.358t.666.105a1.9 1.9 0 0 0 .466-.055 3.6 3.6 0 0 0 .503-.162l.14-.058a.2.2 0 0 1 .062-.015q.073 0 .123.07a.24.24 0 0 1 .054.15q0 .113-.097.15l-.127.05q-.314.126-.644.191a3.7 3.7 0 0 1-.687.062 2.6 2.6 0 0 1-.98-.17 1.7 1.7 0 0 1-.687-.499 2.2 2.2 0 0 1-.404-.81 4.1 4.1 0 0 1-.134-1.1"/><defs><linearGradient id="a" x1="43.5" x2="58.825" y1="-18.128" y2="25.368" gradientUnits="userSpaceOnUse"><stop stop-color="#e635c4"/><stop offset=".46" stop-color="#757ce6"/><stop offset="1" stop-color="#54b5fb"/></linearGradient></defs></svg>