<svg xmlns="http://www.w3.org/2000/svg" fill="none" viewBox="0 0 120 75"><circle cx="60" cy="37.125" r="37.125" fill="url(#a)"/><circle cx="60" cy="37.125" r="31.9" fill="url(#b)"/><path fill="url(#c)" d="M59.88 8.59c6.528 0 12.535 2.39 17.308 6.313 4.591 3.773 11.17 5.573 16.813 3.71 3.73-1.231 7.526-1.953 10.928-1.953C117.575 16.66 120 26.63 120 35.684s-2.425 20.752-15.071 20.752c-2.794 0-5.854-.57-8.925-1.558-6.011-1.934-13.123.154-17.963 4.21-4.901 4.107-11.239 6.572-18.16 6.572-6.916 0-13.25-2.46-18.15-6.561-4.811-4.027-11.856-6.095-17.835-4.19-3.037.968-6.06 1.527-8.825 1.527C2.425 56.436 0 44.737 0 35.684S2.425 16.66 15.071 16.66c3.371 0 7.128.709 10.826 1.92 5.61 1.837 12.13.051 16.695-3.694 4.771-3.913 10.771-6.296 17.289-6.296" opacity=".35"/><path fill="url(#d)" d="M59.887 11.97c5.995 0 11.525 2.007 15.963 5.32 4.575 3.412 10.83 5.14 16.288 3.473 3.466-1.06 6.986-1.679 10.145-1.679 11.902 0 14.184 8.79 14.184 16.77 0 7.982-2.282 18.295-14.184 18.295-2.576 0-5.39-.483-8.22-1.321-5.834-1.727-12.619.291-17.473 3.957-4.557 3.442-10.37 5.496-16.703 5.496-6.33 0-12.141-2.052-16.698-5.49-4.824-3.64-11.544-5.638-17.343-3.936-2.8.82-5.582 1.294-8.13 1.294-11.902 0-14.185-10.313-14.185-18.294s2.283-16.77 14.185-16.77c3.13 0 6.614.608 10.05 1.65 5.425 1.645 11.624-.069 16.17-3.457 4.437-3.305 9.962-5.308 15.95-5.308"/><g fill="#fff" filter="url(#e)"><path d="M17.137 24.573c3.527-.97 10.725-1.041 14.276 0 0 0 .118 0 .095.118l-.024 16.668c0 .114-.11.118-.118.118h-4.901c-.006 0-.118-.003-.095-.118V27.44h-4.19v13.92c.023.118-.095.118-.095.118h-4.9s-.118 0-.119-.118l-.024-16.668c-.023-.114.088-.118.095-.118m27.058 4.498c4.664-.876 10.558-.165 11.388-.047.166.024.214.118.237.237 0 0 .072.284.072.686.047 2.344-2.463 2.533-3.742 2.344h-.023v3.907c0 3.764 1.61 2.96 1.396 3.599-.26.757-1.562 1.68-2.887 1.68-1.894 0-3.291-1.373-3.291-3.598v-5.777l-3.078-.024c-.002 0-.072 0-.072-.095l-.047-2.651v-.166c0-.07.024-.071.047-.095m-6.393-.45c4.072 0 7.174 3.338 6.653 6.937-.26 3.527-3.125 5.988-6.724 5.917-2.083-.047-5.256-.875-5.256-3.195 0-1.16.829-2.273 2.273-2.273.734 0 1.633.19 1.586.686-.071.687.024 1.16.213 1.468.331.52.829.686 1.35.687.947 0 1.8-.52 1.918-2.368h-2.936s-.095 0-.095-.118V34.02c0-.095.095-.095.095-.095h2.936c-.119-1.847-.9-2.628-2.108-2.628-.45.047-.875.237-1.136.663-.189.331-.285.805-.214 1.491.048.497-.852.687-1.585.687-1.444 0-2.296-1.137-2.273-2.273.071-2.462 3.172-3.197 5.256-3.244zm30.657-5.152c2.083-.26 3.811.97 3.55 2.982-.425 3.432-4.541 2.392-4.544 2.084 0-.473.118-1.208-.687-1.208-.97 0-1.444 1.539-1.42 3.314 1.585-.023 2.2 1.185 2.958 2.794.521 1.09 2.013 4.452 3.86 5.043.402.142-.284 2.699-2.533 2.96-4.593.52-5.706-4.215-6.203-7.884-.19-.048-.687-.024-.876.094l.166 7.198c0 .114-.112.119-.119.119h-5.09c-.007 0-.118-.005-.095-.12-.024-11.316 0-12.831 0-12.855-.26-2.817-1.705-2.178-1.491-2.794.284-.78 1.846-1.727 3.243-1.727 1.846 0 3.504 1.089 3.504 3.788l-.119 3.788c.166-.095.57-.095.735-.166-.047-3.623 1.657-6.984 5.161-7.41m24.922-.036c1.274 0 2.943.839 3.152 2.642a20 20 0 0 1 1.43-.009c3.123.102 5.272 1.663 5.272 4.643 0 2.17-.79 5.23-6.264 5.008v.973c.101 3.203 1.52 2.515 1.318 3.081-.243.73-2.008 1.643-3.225 1.643-1.641 0-3.061-1.034-3.061-3.548l.015-8.336a55 55 0 0 1-.047-1.603c0-3.204-1.209-2.519-1.028-3.063.222-.645 1.31-1.43 2.438-1.43m-12.19 9.45c.3-.082.882.027 1.29.227.4.2.737.564 1.346 1.482.2.3.436.618.518.7.09.09.163.2.164.245 0 .046.318.237.709.428 1.645.809 1.836 1.009 1.836 1.981 0 .527-.028.628-.273.91-.154.172-.472.409-.709.518-.563.282-1.627.281-2.854.009-1.227-.273-1.864-.255-2.937.072-.709.218-1.055.273-1.727.273-.782 0-.864-.019-1.21-.273-.608-.436-.835-.855-.835-1.527 0-.845.254-1.3 1.09-1.927.337-.255 1.183-1.1 2.091-2.09.537-.592.973-.892 1.5-1.028m6.345-2.71c.618-.153 1.517.092 1.518.419 0 .072.037.137.073.137.046 0 .146.145.228.317.109.236.154.564.154 1.191 0 .827-.018.9-.364 1.6-.2.4-.464.836-.591.964-.127.117-.226.262-.227.3 0 .045-.064.081-.137.082-.072 0-.136.036-.136.09 0 .191-.718.455-1.254.455-.446 0-.592-.045-.892-.263-.745-.555-.981-1.664-.572-2.673.273-.673.473-1.064.555-1.064.027 0 .082-.073.118-.172.046-.146.3-.483.572-.755.264-.273.71-.564.955-.627m-11.173-.027c.545.055.973.391 1.418 1.1l.291.473-.036 1.118c-.027 1.036-.055 1.155-.3 1.618-.282.518-.691.99-1.018 1.173-.237.118-.937.136-1.228.018-.372-.145-.872-.673-1.154-1.227-.255-.473-.282-.609-.282-1.363 0-.764.028-.883.31-1.464.336-.69.88-1.282 1.29-1.41.145-.045.464-.063.71-.036m23.162.523c0-1.52-1.034-2.657-2.554-2.413v5.373c1.622 0 2.554-1.48 2.554-2.96m-15.971-5.34c.364-.192 1.391-.192 1.664 0 .472.326.755.663.991 1.172.345.754.363 1.955.026 2.91-.3.871-.808 1.554-1.344 1.79-.51.227-1.146.245-1.5.054-.746-.41-1.246-1.572-1.319-3.072-.036-.819-.027-.901.237-1.456.29-.617.781-1.163 1.245-1.399m-3.946-.146c.555 0 .646.027.973.29.227.182.482.528.654.882.291.573.292.573.255 1.728-.036.909-.091 1.254-.255 1.69-.236.627-.445.945-.608.956-.063 0-.118.035-.118.072 0 .145-.456.29-.892.29-.7 0-1.318-.527-1.808-1.545-.319-.654-.328-.727-.328-1.636 0-.982.019-1.046.528-1.91.11-.18.535-.553.817-.708.1-.055.456-.11.782-.11M95.531 48.198q0-.093.083-.236l1.468-2.29-1.257-2.088a.3.3 0 0 1-.05-.176.23.23 0 0 1 .082-.175.3.3 0 0 1 .204-.075.54.54 0 0 1 .323.1.9.9 0 0 1 .25.29l.918 1.627h.043l.938-1.627a1 1 0 0 1 .23-.297.37.37 0 0 1 .24-.093q.089 0 .154.05a.14.14 0 0 1 .068.125q0 .1-.083.222l-1.232 2.003 1.444 2.36a.45.45 0 0 1 .06.205.22.22 0 0 1-.078.168.3.3 0 0 1-.208.068.8.8 0 0 1-.193-.021.6.6 0 0 1-.154-.065.7.7 0 0 1-.13-.118 2 2 0 0 1-.118-.175l-1.1-1.874h-.028l-1.154 1.856a2 2 0 0 1-.136.2 1 1 0 0 1-.125.122.4.4 0 0 1-.115.061.5.5 0 0 1-.122.014q-.111 0-.168-.046a.15.15 0 0 1-.054-.115M89.008 47.994v-4.471q0-.2.075-.283.076-.083.247-.083.23 0 .348.144.12.142.121.423v1.723h.882q.43 0 .749.071.319.069.562.23a1 1 0 0 1 .373.448q.129.285.129.695 0 .261-.069.48a1.2 1.2 0 0 1-.45.627 1.6 1.6 0 0 1-.323.182 2 2 0 0 1-.348.111 3 3 0 0 1-.638.068h-1.321q-.337 0-.337-.365m.784-.025h.778q.157 0 .3-.025.144-.03.29-.1.151-.075.259-.19a.9.9 0 0 0 .175-.312q.069-.197.068-.451 0-.581-.29-.817-.29-.24-.838-.24h-.742zm3.479-.176v-4.159q0-.258.111-.365.111-.111.344-.111.337 0 .337.365v4.47q0 .202-.076.284-.075.082-.247.082-.23 0-.35-.143t-.119-.423M83.135 44.179v-.75q0-.16.104-.214.107-.057.336-.058h3.594q.23 0 .333.058.108.053.107.215v.749q0 .193-.078.279-.076.086-.237.086-.214 0-.322-.107-.105-.112-.104-.37v-.519h-1.1v4.37q0 .252-.108.348-.107.093-.347.093-.337 0-.337-.365v-4.446h-1.1v.52q0 .257-.107.369-.105.107-.319.107-.315 0-.315-.365M77.83 48.155q0-.075.036-.175l1.727-4.647q.032-.086.14-.129a.7.7 0 0 1 .26-.047.7.7 0 0 1 .288.054q.125.05.16.144l1.68 4.653a.5.5 0 0 1 .015.108q0 .103-.068.175-.068.069-.218.068-.409 0-.548-.39l-.391-1.003h-2.06l-.376 1.003q-.09.233-.204.312a.4.4 0 0 1-.244.078q-.105 0-.15-.057a.23.23 0 0 1-.047-.147m1.136-1.573H80.8l-.885-2.557h-.047zM72.385 44.179v-.75q0-.16.104-.214.107-.057.336-.058h3.594q.23 0 .333.058.107.053.107.215v.749q0 .193-.078.279-.076.086-.237.086-.214 0-.322-.107-.104-.112-.104-.37v-.519h-1.1v4.37q0 .252-.108.348-.107.093-.347.093-.337 0-.337-.365v-4.446h-1.1v.52q0 .257-.107.369-.105.107-.319.107-.315 0-.315-.365M67.852 45.805q0-.681.168-1.179.172-.501.473-.827.3-.327.71-.484.411-.157.891-.157a4.5 4.5 0 0 1 .781.071q.186.036.33.09a.46.46 0 0 1 .2.118q.061.072.061.233v.44q0 .195-.078.284-.076.086-.237.086-.214 0-.322-.112-.105-.111-.104-.369v-.408a2.7 2.7 0 0 0-.534-.06q-.347 0-.627.146a1.3 1.3 0 0 0-.476.437q-.198.286-.305.717-.105.426-.104.988 0 .62.104 1.036.108.416.308.666t.49.355.66.104q.226.003.462-.054.24-.057.498-.161l.14-.058a.2.2 0 0 1 .06-.014q.074 0 .123.068a.24.24 0 0 1 .053.15q0 .112-.096.147l-.126.05a3.6 3.6 0 0 1-.638.19q-.321.061-.68.061-.559 0-.971-.168a1.7 1.7 0 0 1-.68-.495 2.15 2.15 0 0 1-.402-.802 4 4 0 0 1-.132-1.089M62.086 45.762q0-.19.025-.455.025-.269.104-.559t.226-.573q.15-.287.397-.512t.61-.366.866-.14.867.144q.367.14.616.369.251.23.402.516.15.285.229.577.082.285.107.551.025.265.025.448 0 .187-.025.451a3.3 3.3 0 0 1-.103.552 3 3 0 0 1-.23.577q-.147.283-.397.509a2 2 0 0 1-.613.369q-.365.14-.878.14-.516 0-.881-.144a1.9 1.9 0 0 1-.613-.373 1.9 1.9 0 0 1-.394-.52 3 3 0 0 1-.222-.576 3.3 3.3 0 0 1-.097-.548 6 6 0 0 1-.021-.437m.828 0q0 .168.014.401.015.23.06.477.047.247.137.49.093.24.247.43.157.19.387.308a1.2 1.2 0 0 0 .555.119q.315-.007.541-.115.229-.108.383-.283.158-.175.255-.401.096-.229.147-.473.054-.248.071-.49a6 6 0 0 0 .018-.463q0-.172-.014-.405a3.5 3.5 0 0 0-.057-.48 2.7 2.7 0 0 0-.14-.49 1.5 1.5 0 0 0-.247-.43 1.15 1.15 0 0 0-.394-.309 1.2 1.2 0 0 0-.563-.118q-.311 0-.537.111a1.2 1.2 0 0 0-.38.294q-.154.18-.25.415a3 3 0 0 0-.148.48 4 4 0 0 0-.068.491q-.017.244-.017.441M57 47.994v-4.471q0-.366.337-.366h1.504q1.63 0 1.63 1.308 0 .18-.06.358a1.2 1.2 0 0 1-.165.326 1.2 1.2 0 0 1-.262.258 1 1 0 0 1-.344.158v.036q.291.054.498.168t.34.272a1 1 0 0 1 .198.355q.064.194.064.408 0 .338-.093.584-.09.244-.244.416a1.3 1.3 0 0 1-.347.283 2 2 0 0 1-.401.168q-.204.062-.409.083a4 4 0 0 1-.369.021h-1.54q-.337 0-.337-.365m.792-.025h.981q.169 0 .366-.047.2-.046.372-.168a.96.96 0 0 0 .287-.333 1.15 1.15 0 0 0 .115-.545.95.95 0 0 0-.405-.81 1.2 1.2 0 0 0-.39-.182 1.6 1.6 0 0 0-.416-.057h-.91zm0-2.53h.845q.165 0 .344-.053a.9.9 0 0 0 .322-.172.9.9 0 0 0 .24-.312 1 1 0 0 0 .097-.462.8.8 0 0 0-.104-.426.84.84 0 0 0-.265-.276 1 1 0 0 0-.344-.147 1.6 1.6 0 0 0-.35-.043h-.785zM51.65 48.198q0-.093.083-.236l1.469-2.29-1.258-2.088a.3.3 0 0 1-.05-.176.23.23 0 0 1 .082-.175.3.3 0 0 1 .205-.075q.182 0 .322.1a.9.9 0 0 1 .25.29l.918 1.627h.043l.939-1.627q.118-.209.229-.297a.37.37 0 0 1 .24-.093q.089 0 .154.05a.14.14 0 0 1 .068.125q0 .1-.083.222l-1.232 2.003 1.444 2.36a.46.46 0 0 1 .06.205q0 .096-.078.168a.3.3 0 0 1-.208.068.8.8 0 0 1-.193-.021.6.6 0 0 1-.154-.065.7.7 0 0 1-.13-.118 2 2 0 0 1-.117-.175l-1.1-1.874h-.029l-1.154 1.856a2 2 0 0 1-.136.2 1 1 0 0 1-.125.122.4.4 0 0 1-.115.061.5.5 0 0 1-.121.014q-.112 0-.169-.046a.15.15 0 0 1-.054-.115M44.525 47.994v-4.471q0-.366.337-.366h2.493q.23 0 .334.058.107.053.107.215v.638q0 .193-.079.279-.075.086-.236.086-.218 0-.323-.108-.103-.111-.103-.369v-.408h-1.738v1.92h1.54a.19.19 0 0 1 .151.061.2.2 0 0 1 .054.143.2.2 0 0 1-.018.072.25.25 0 0 1-.111.111.2.2 0 0 1-.075.018h-1.54v2.096h1.848v-.409q0-.257.104-.365.103-.111.322-.111.162 0 .236.086.08.085.08.28v.637q0 .16-.108.218-.104.054-.333.054h-2.605q-.337 0-.337-.365M38.625 47.994v-4.471q0-.2.075-.283t.247-.083q.23 0 .348.144.122.142.122.423v4.245h2.214v-4.335q0-.258.11-.365.112-.111.345-.111.172 0 .254.09.086.084.086.275v4.446h.218q.23 0 .334.057.107.057.107.215v.978q0 .365-.315.365-.214 0-.323-.11-.103-.112-.103-.366v-.749h-3.382q-.337 0-.337-.365M32.19 48.241q0-.15.1-.208a.7.7 0 0 1 .319-.064h.071q.438-.434.591-1.28.158-.848.158-2.378v-.788q0-.2.075-.283t.247-.083h2.437q.171 0 .254.09.082.086.082.276v4.446h.222q.23 0 .334.057.107.057.107.215v.978q0 .365-.315.365-.215 0-.323-.11-.104-.112-.104-.366v-.749h-3.514v.749q0 .255-.107.365-.105.112-.32.111-.314 0-.314-.365zm1.175-.272h2.367v-4.421H34.01v.738q0 1.318-.132 2.196-.133.877-.513 1.487M27.88 47.994v-4.471q0-.204.076-.283.075-.083.247-.083h1.226q.124 0 .283.004.16.003.34.032.18.026.372.086.194.06.387.18.126.075.237.186t.193.261q.082.148.13.34.046.19.046.43 0 .352-.122.656-.122.3-.369.527-.247.225-.62.354a2.7 2.7 0 0 1-.87.13h-.763v1.54q0 .258-.111.369-.108.108-.344.107-.337 0-.337-.365m.793-2.042h.756q.551 0 .856-.308.304-.311.304-.968 0-.271-.064-.483a.86.86 0 0 0-.204-.355.87.87 0 0 0-.362-.215 1.6 1.6 0 0 0-.53-.075h-.756zM22.955 47.994v-4.471q0-.366.337-.366h2.493q.23 0 .333.058.108.053.108.215v.638q0 .193-.079.279-.075.086-.236.086-.22 0-.323-.108-.105-.111-.104-.369v-.408h-1.737v1.92h1.54a.2.2 0 0 1 .15.061.2.2 0 0 1 .054.143.2.2 0 0 1-.017.072.25.25 0 0 1-.111.111.2.2 0 0 1-.076.018h-1.54v2.096h1.848v-.409q0-.257.104-.365.105-.111.323-.111.16 0 .236.086.08.085.079.28v.637q0 .16-.107.218-.104.054-.334.054h-2.604q-.337 0-.337-.365M17.834 45.805q0-.681.168-1.179a2.3 2.3 0 0 1 .473-.827q.3-.327.71-.484.412-.157.892-.157a4.5 4.5 0 0 1 .78.071q.187.036.33.09a.46.46 0 0 1 .2.118q.062.072.062.233v.44q0 .195-.08.284-.075.086-.236.086-.214 0-.322-.111-.105-.112-.104-.37v-.408a2.7 2.7 0 0 0-.534-.06q-.347 0-.627.146a1.3 1.3 0 0 0-.476.437 2.2 2.2 0 0 0-.305.717q-.104.426-.104.988 0 .62.104 1.036.108.416.308.666.201.25.491.355t.66.104q.225.003.462-.054.24-.057.498-.161l.14-.058a.2.2 0 0 1 .06-.014q.072 0 .122.068a.24.24 0 0 1 .054.15q0 .112-.097.147l-.125.05a3.6 3.6 0 0 1-.638.19q-.323.061-.68.061-.56 0-.972-.168a1.7 1.7 0 0 1-.68-.494 2.15 2.15 0 0 1-.401-.803 4 4 0 0 1-.133-1.089"/></g><defs><linearGradient id="a" x1="60" x2="147.536" y1="-85.332" y2="-33.325" gradientUnits="userSpaceOnUse"><stop stop-color="#d6b7f7"/><stop offset=".46" stop-color="#a9cffc"/><stop offset="1" stop-color="#bcc0f7"/></linearGradient><linearGradient id="b" x1="60" x2="135.216" y1="-68.097" y2="-23.41" gradientUnits="userSpaceOnUse"><stop stop-color="#b99bec"/><stop offset=".46" stop-color="#8ab0f8"/><stop offset="1" stop-color="#909bf0"/></linearGradient><linearGradient id="c" x1="2.306" x2="85.556" y1="33.09" y2="-16.349" gradientUnits="userSpaceOnUse"><stop stop-color="#e635c4"/><stop offset=".46" stop-color="#757ce6"/><stop offset="1" stop-color="#54b5fb"/></linearGradient><linearGradient id="d" x1="5.702" x2="81.296" y1="33.568" y2="-14.359" gradientUnits="userSpaceOnUse"><stop stop-color="#e635c4"/><stop offset=".46" stop-color="#757ce6"/><stop offset="1" stop-color="#54b5fb"/></linearGradient><filter id="e" width="90.195" height="30.151" x="15.039" y="23.433" color-interpolation-filters="sRGB" filterUnits="userSpaceOnUse"><feFlood flood-opacity="0" result="BackgroundImageFix"/><feColorMatrix in="SourceAlpha" result="hardAlpha" values="0 0 0 0 0 0 0 0 0 0 0 0 0 0 0 0 0 0 127 0"/><feOffset dy="2"/><feGaussianBlur stdDeviation="1"/><feComposite in2="hardAlpha" operator="out"/><feColorMatrix values="0 0 0 0 0 0 0 0 0 0 0 0 0 0 0 0 0 0 0.25 0"/><feBlend in2="BackgroundImageFix" result="effect1_dropShadow_3009_1526"/><feBlend in="SourceGraphic" in2="effect1_dropShadow_3009_1526" result="shape"/></filter></defs></svg>