<svg xmlns="http://www.w3.org/2000/svg" fill="none" viewBox="0 0 60 60"><rect width="59.2" height="59.2" x=".4" y=".4" fill="#fff" rx="29.6"/><rect width="59.2" height="59.2" x=".4" y=".4" stroke="#f5f5f5" stroke-width=".8" rx="29.6"/><path fill="#f5f5f5" d="M35.325 18.917c-.071 0-.108-1.403-.08-3.117s.087-3.117.13-3.117.08 1.403.08 3.117-.06 3.117-.13 3.117M30.346 16.274c-.571.035-1.466.035-1.991 0-.523-.034-.056-.062 1.039-.062s1.524.028.952.062M35.195 33.74c-.296-.016-.35-.146-.364-.884l-.017-.866.06.823c.045.615.137.838.364.883q.318.063-.043.043M27.375 32.636c-.682.026-1.204-.012-1.16-.083.043-.07.874-.116 1.846-.1.971.015 1.492.053 1.16.081a49 49 0 0 1-1.846.102M33.203 35.715c-.048 0-.788-.701-1.645-1.56s-1.497-1.56-1.421-1.56c.074.002.815.703 1.645 1.562.83.857 1.468 1.558 1.421 1.558M28.696 36.45c-.002-.072-.135-.286-.296-.477-.218-.258-.184-.248.135.042.308.282.372.436.23.566-.123.114-1.24.161-5.865.076l2.9-.04c1.596-.02 2.9-.097 2.896-.168M36.147 36.71c-1 .025-1.873-.013-1.941-.086-.066-.073.752-.093 3.76.04z"/><path fill="#0092d0" d="M35.325 18.922c.07-.002.13-1.446.13-3.209 0-2.732.038-3.203.26-3.203.141 0 1.057.441 2.034.98a253 253 0 0 1 7.316 4.244c.485.305 1.326 1.323 4.935 6.378l-.192.909c-.106.5-.398 1.371-.65 1.936-.417.936-.54 1.063-1.41 1.45-.524.231-2.276.958-3.895 1.615-1.78.723-3.183 1.193-3.55 1.186-.334-.004-.88-.17-1.818-.726l-3.746 1.682.054.774c.056.763.068.777.791.909.636.116.844.277 1.516 1.174.427.571.817 1.157.865 1.298.075.222-.206.26-3.81.25l-4.086-4.06-3.705-.122-.477.712c-.261.39-.476.788-.476.883s.156.173.347.173.933.487 1.652 1.082c.716.596 1.302 1.141 1.298 1.212-.003.071-1.312.129-5.808.127l-.346-.715c-.19-.393-.424-.748-.52-.79-.095-.04-1.615.391-6.58 1.995l-.597 4.102 1.117 2.864.65-.003c.465-.002.616-.065.533-.22-.064-.12-.348-.567-.63-.996-.487-.736-.508-.84-.385-1.905.073-.618.2-1.3.284-1.515.1-.253.698-.661 1.713-1.169.857-.43 1.695-.743 1.861-.7.166.046 1.004.466 1.861.936 1.464.803 1.566.897 1.678 1.522.066.367.125 1.446.139 4.13l-3.375 3.378-4.935-.002-1.602-1.601c-.881-.882-2.09-2.245-3.766-4.46v-7.445l1.917-3.16c1.285-2.12 2.87-4.386 4.817-6.883 2.866-3.677 2.921-3.734 4.362-4.568.802-.464 2.393-1.339 5.614-3.045l4.762-.006 1.428.983c.787.54 1.623 1.127 1.862 1.304.237.177.492.319.563.315"/><path fill="#f5f5f5" d="M35.974 26.016V19.61c0-3.524.059-6.407.13-6.407.07 0 2.154 1.203 9.134 5.35l2.042 2.823c1.892 2.618 2.033 2.865 1.94 3.428-.058.335-.14.743-.181.91-.073.282-.532.302-13.065.302M27.723 19.523c-.218-.953-.438-1.907-.492-2.121-.097-.388-.086-.39 4.068-.39l4.156 2.77v6.061l-.606-.086c-.504-.073-.676-.007-1.019.39-.225.26-1.103 1.277-1.948 2.259-.845.98-1.574 1.778-1.622 1.775-.047-.004-.55-2.012-1.115-4.466-.565-2.453-1.206-5.24-1.422-6.192M20.535 20.458c-.007-.059 1.297-.816 2.9-1.685 1.604-.867 2.965-1.522 3.026-1.453.062.068.315 1.022.564 2.116s.89 3.862 1.427 6.148 1.027 4.644 1.202 6.323l-1.429-.001c-.786-.002-1.427-.061-1.425-.132 0-.071.071-.248.156-.39.093-.155.083-.465-.026-.779a3.3 3.3 0 0 0-.575-.952c-.216-.24-1.612-2.381-3.1-4.762s-2.711-4.376-2.72-4.433M16.172 25.757c.81-1.048 1.993-2.56 2.63-3.358l1.155-1.453 1.035 1.626c.57.894 1.714 2.717 2.546 4.05.83 1.334 1.494 2.444 1.475 2.468s-1.281-.47-2.805-1.098a562 562 0 0 1-3.204-1.33c-.355-.154-.772-.076-2.337.437-1.048.343-1.919.61-1.936.592-.02-.016.63-.887 1.44-1.934M34.849 31.384c-.047 0-.09-1.127-.094-2.505-.009-2.359.01-2.497.308-2.381.175.07.63.476 1.015.904a71 71 0 0 1 1.378 1.605c.376.455.644.859.596.899-.047.04-.767.388-1.602.775-.833.386-1.553.703-1.602.703M36.523 26.796l1.068-.094c.587-.05 3.3-.112 6.032-.135 3.338-.03 4.968.014 4.978.135.009.099-.161.372-.376.606-.244.269-1.74.977-4.026 1.91-2 .814-3.752 1.477-3.896 1.472-.142-.005-.434-.106-.651-.222-.215-.114-1.008-.988-3.129-3.672"/><path fill="#f5f5f5" d="M30.52 30.984c.285-.33 1.182-1.366 1.99-2.297l1.473-1.697.086 4.232c.049 2.327.064 4.271.037 4.318-.026.049-.961-.822-4.106-3.955zM13.695 29.078c.118-.185 1.098-.629 2.366-1.072 1.191-.416 2.185-.76 2.207-.765.025-.007.423.788.885 1.762.464.977 1.21 2.555 1.66 3.507.451.952.754 1.782.675 1.84-.08.06-1.509.553-3.176 1.097-1.666.542-3.04.96-3.055.93-.014-.032-.303-1.109-.644-2.395-.34-1.285-.73-2.843-.867-3.463-.194-.868-.207-1.197-.05-1.441M22.443 34.285a259 259 0 0 1-2.06-4.243c-.643-1.355-1.138-2.467-1.1-2.467s1.062.416 2.275.925c1.216.507 2.638 1.066 3.16 1.241.525.177 1.13.5 1.732 1.124l-.543.996c-.302.549-.925 1.717-1.386 2.597-.462.881-.92 1.602-1.015 1.602s-.573-.799-1.063-1.775M10.91 33.966c-.023-.086.404-.895.951-1.796.55-.902 1.06-1.643 1.136-1.645.078-.003.224.442.324.99.102.548.452 1.97.778 3.16.325 1.19.57 2.445.49 3.407l-1.818-1.979c-1-1.09-1.838-2.05-1.862-2.137M34.849 35.973l-.052-.822c-.049-.731-.014-.823.303-.823.195 0 .765.391 2.173 1.737zM24.546 35.973c0-.047.124-.358.275-.692.204-.449.384-.607.692-.607.23 0 .726.255 1.102.563.376.31.687.622.692.693.006.073-.614.13-1.376.13s-1.386-.038-1.386-.087M10.693 41.081l-.002-3.073-.004-3.074.71.693c.392.38 1.25 1.297 3.105 3.376l-.173 2.078zM16.83 40.172c.091-.606.185-.692 1.44-1.333.738-.376 1.44-.687 1.559-.693.12-.003.88.362 3.167 1.637l-.007 3.723h-.78c-.721 0-.767-.025-.605-.347.095-.19.173-.814.173-2.424l-.866-.693c-.476-.38-1.022-.692-1.212-.692s-.58.117-.866.26a2.9 2.9 0 0 0-.873.735 2.1 2.1 0 0 0-.35 1.083c0 .4.137.74.395.999.217.216.707.441 1.088.5.618.096.734.052 1.087-.393.218-.275.393-.635.39-.803-.004-.166-.161-.46-.352-.65s-.443-.346-.562-.348c-.12-.001-.366.096-.546.217-.225.149-.293.329-.215.564.108.333.127.334.416.04.244-.25.343-.265.518-.087a.59.59 0 0 1 .13.523c-.047.168-.243.343-.433.39-.19.049-.503.009-.693-.087a1.36 1.36 0 0 1-.52-.519q-.172-.345 0-.78a1.8 1.8 0 0 1 .563-.692c.215-.144.546-.261.736-.261.19-.002.608.213.927.476.514.424.583.582.606 1.382.024.833-.023.945-.58 1.421-.508.435-.762.52-1.559.53-.78.009-1.018-.06-1.314-.383-.2-.216-.53-.685-.736-1.044-.227-.394-.345-.834-.3-1.125.042-.262.12-.767.174-1.126M13.437 44.595c-.92-1.027-1.847-2.082-2.059-2.345l-.384-.476 3.423-.002.48 1.257c.34.894.478 1.57.476 2.338-.002.596-.062 1.086-.133 1.09-.071.003-.883-.834-1.803-1.862M18.097 44.534c1.119-.005 2.572-.105 3.228-.223s1.24-.189 1.298-.158-.48.64-2.491 2.646l-3.983.002-.13-.954c-.073-.525-.092-1.034-.043-1.13.048-.098.949-.176 2.121-.183"/><path fill="#0092d0" d="M41.774 21.688c.05-.3.314-.704.62-.953.294-.237.722-.433.953-.433s.593.087.808.194c.215.106.525.359.69.563s.3.583.302.845a2.5 2.5 0 0 1-.235.952c-.132.262-.444.573-.693.693-.25.12-.57.216-.713.216-.142 0-.494-.117-.78-.26a2.04 2.04 0 0 1-.779-.779c-.143-.289-.221-.75-.173-1.038"/></svg>