<svg xmlns="http://www.w3.org/2000/svg" fill="none" viewBox="0 0 60 60"><rect width="59.2" height="59.2" x=".4" y=".4" fill="#fff" rx="29.6"/><rect width="59.2" height="59.2" x=".4" y=".4" stroke="#f5f5f5" stroke-width=".8" rx="29.6"/><path fill="#0092d0" d="M33.4 17.494c.046-.894.119-1.677.159-1.74.04-.064.447.216.905.62a748 748 0 0 0 2.531 2.222c1.33 1.163 1.795 1.488 2.142 1.492.356.005.62-.18 1.33-.929a73 73 0 0 0 1.994-2.226c.609-.712 1.175-1.27 1.256-1.24.09.031.162 1.165.221 5.716l.628.5c.596.474.643.571.924 1.871.257 1.191.354 1.414.738 1.69.244.175 1.191.862 2.105 1.526.915.665 1.664 1.26 1.667 1.32s-.158.409-.356.775c-.341.63-.426.686-1.593 1.061-.678.219-1.984.617-4.572 1.377l-2.498 3.767c-1.374 2.071-2.5 3.834-2.5 3.915-.001.081.386.68.857 1.33s1.135 1.597 1.473 2.105c.34.508.582.99.542 1.07-.049.097-3.028.144-8.532.135-4.652-.006-8.614-.056-8.807-.11-.31-.088-.339-.158-.259-.652.087-.527.075-.548-.24-.422-.184.07-1.147.47-3.953 1.64l-3.139-.584a290 290 0 0 1-4.752-.923c-.888-.187-1.639-.405-1.67-.487-.03-.08.596-.917 1.392-1.858.796-.94 2.012-2.36 3.959-4.606l3.62-1.764c1.99-.97 4.536-2.209 5.656-2.751 1.387-.672 2.066-1.081 2.126-1.282.049-.163.96-1.258 2.025-2.432a299 299 0 0 1 4.326-4.66l.104-1.92c.056-1.056.141-2.652.19-3.546"/><path fill="#fff" d="M35.247 20.375c-.32-1.259-.624-2.473-.677-2.696-.052-.223-.043-.408.02-.41.063 0 .314.205.558.457.243.253 1.001.926 1.684 1.497.682.57 1.227 1.112 1.213 1.205-.017.093-.476.686-1.021 1.318-.545.63-1.037 1.096-1.093 1.034s-.364-1.145-.684-2.405M38.249 28.802c-1.463-.628-2.859-1.247-3.103-1.377-.418-.222-.328-.23 1.625-.16 1.138.042 3.3.126 4.802.185 2.647.106 2.787.128 4.486.691 1.482.492 1.786.645 2.162 1.395l-1.22.36c-.67.198-1.8.53-3.803 1.117l-1.145-.535c-.63-.294-2.342-1.048-3.804-1.676M36.179 31.53c-.047-1.056-.127-2.171-.177-2.476-.09-.539-.082-.552.264-.416.197.075 1.721.743 3.386 1.481 1.666.74 3.045 1.376 3.066 1.414s-.974 1.583-2.21 3.432a201 201 0 0 0-3.796 5.873l-.083-1.108c-.044-.61-.144-2.273-.223-3.694-.078-1.422-.18-3.45-.227-4.506M11.73 40.912c.507-.61 1.615-1.89 2.46-2.844.847-.956 1.605-1.736 1.683-1.736s.442.066 1.471.295l-.517 1.034c-.283.57-.517 1.1-.517 1.182s.516.254 1.145.383c.63.13 1.194.28 1.253.332.059.053-.14.616-.443 1.252-.466.976-.517 1.174-.33 1.28.123.07.671.198 2.216.446l-.295.591c-.259.516-.347.581-.702.519-.223-.04-2.002-.375-3.952-.746-1.95-.37-3.736-.721-4.393-.88z"/><path fill="#f5f5f5" d="M40.543 20.006c0-.04.613-.771 1.365-1.625.75-.853 1.382-1.552 1.403-1.552.02 0 .038.931.038 4.137l-.59-.443c-.49-.367-.732-.444-1.404-.444-.447 0-.812-.032-.812-.073M33.683 22.517c.107-1.787.197-3.482.2-3.767.004-.315.057-.458.137-.37.072.082.406 1.23.742 2.549.335 1.32.61 2.501.61 2.622 0 .123-.417.69-.923 1.263-.509.572-.933 1.021-.943.998-.01-.024.07-1.507.177-3.295M35.03 25.029c.695-.813 1.86-2.162 2.589-3 1.047-1.202 1.396-1.514 1.659-1.477.188.025 1.474 1.113 2.941 2.482 1.435 1.342 2.608 2.504 2.606 2.586-.001.08-.218.392-.958 1.236l-4.802-.139c-2.641-.075-4.913-.153-5.05-.174-.184-.027.086-.43 1.014-1.514M44.444 24.259a87 87 0 0 1-2.35-2.173c-1.594-1.52-1.616-1.55-1.145-1.556.263-.004.728.1 1.034.228.304.13 1.037.611 1.63 1.07.822.64 1.106.96 1.21 1.354.073.285.181.783.348 1.699z"/><path fill="#f5f5f5" d="M27.598 29.792c.031-.1 1.24-1.465 2.685-3.029 1.444-1.563 2.654-2.844 2.688-2.844s.017.649-.145 2.88l.423.308c.233.167.805.483 2.123 1.096l.072.924c.04.508.14 2.42.226 4.247.084 1.829.195 4.188.342 7.165l-2.193-2.733-4.235-5.281c-1.123-1.4-2.017-2.631-1.986-2.733M44.531 27.022l.454-.591c.25-.325.516-.591.59-.591.076 0 .769.433 1.542.96.77.529 1.436 1.027 1.477 1.108.04.081-.01.148-.11.146-.103-.001-.584-.106-1.072-.232-.487-.124-1.335-.356-2.88-.8M38.179 27.279c-.367.03-1.031.03-1.477 0-.448-.03-.148-.055.664-.055s1.178.024.813.055M42.79 27.497c-.952-.023-1.897-.063-2.1-.088s.461-.052 1.478-.058c1.015-.007 1.96.033 2.099.089.139.054-.526.08-1.477.057M48.625 28.976c-.145-.14-.275-.293-.288-.34s.174-.056.418-.02c.244.035.457.124.473.196s-.036.098-.117.058c-.081-.042-.115.025-.074.147.04.122.024.22-.037.218-.062-.002-.23-.119-.375-.259M24.722 41.28c.236-1.057.885-3.9 1.44-6.318.556-2.417 1.048-4.379 1.095-4.358s2.022 2.464 4.39 5.43c2.37 2.966 4.654 5.792 5.845 7.166l-6.564.034c-3.61.017-6.58.017-6.6 0-.02-.02.157-.898.394-1.955M19.786 34.297a210 210 0 0 0 4.58-2.22c.975-.496 1.855-.906 1.957-.91.14-.006.15.11.04.473-.078.263-.479 1.942-.89 3.73-.409 1.788-.91 3.981-1.477 6.5l-1.7.739c-.935.406-1.75.69-1.81.63-.06-.058.006-.274.15-.48.141-.205.258-.438.258-.52 0-.08-.5-.248-1.108-.369-.61-.122-1.108-.288-1.108-.37 0-.08.232-.63.517-1.218.285-.59.468-1.12.406-1.179-.06-.059-.654-.224-2.524-.63l.412-.813c.226-.448.455-.946.508-1.108.081-.254-.005-.324-.609-.486-.433-.115-.648-.24-.557-.32.082-.072 1.411-.723 2.955-1.449"/><path fill="#0092d0" d="M40.588 24.642c.093-.213.305-.458.467-.544.164-.087.414-.163.556-.167.142-.006.424.155.628.359.202.202.369.502.369.665 0 .162-.05.405-.11.538-.061.132-.295.332-.518.443-.33.162-.481.165-.808.016-.222-.102-.482-.352-.578-.554-.134-.28-.136-.462-.006-.756"/><path fill="#fff" d="M40.955 24.984c-.016-.065.065-.2.182-.301a.73.73 0 0 1 .51-.14c.192.028.314.174.345.412.034.266-.038.4-.258.48a.475.475 0 0 1-.528-.111c-.122-.123-.235-.275-.25-.34"/></svg>