<svg xmlns="http://www.w3.org/2000/svg" fill="none" viewBox="0 0 60 60"><rect width="59.2" height="59.2" x=".4" y=".4" fill="#fff" rx="29.6"/><rect width="59.2" height="59.2" x=".4" y=".4" stroke="#f5f5f5" stroke-width=".8" rx="29.6"/><path fill="#0092d0" d="m14.301 24.467 3.255-3.25 3.255-3.25 10.552.003 6.501 6.324.693 3.986c.382 2.193.69 4.22.688 4.507-.003.43.474-.165 5.545-7.453l.003-2.557c0-1.528.072-2.59.175-2.643.096-.048.28.089.408.304s.693 1.208 2.279 4.03l.22-1.56c.12-.859.28-1.794.352-2.08.075-.286.248-.52.386-.52.169 0 .425.554.765 1.646.464 1.501.514 1.908.622 7.54l-2.51 3.986c-1.381 2.193-3.156 5-5.385 8.493l-16.074.043c-14.895.04-16.07.023-16.03-.244.028-.184.574-.5 1.517-.876.81-.324 2.821-1.15 4.468-1.835 1.648-.686 2.974-1.3 2.946-1.364-.026-.062-1.081-1.175-4.641-4.824z"/><path fill="#fff" d="m48.348 25.076.174-1.376c.095-.756.192-1.361.214-1.342.023.017.158.46.302.985.142.523.26 1.128.262 1.343.001.31-.096.39-.952.39M42.46 29.929a969 969 0 0 0 2.326-3.333l.444-.647 4.073-.007.01 3.38-1.114 1.733c-.613.953-1.96 3.075-2.995 4.716l-3.527 5.597-14.516-.005c-10.985-.004-14.432-.054-14.169-.203.191-.11 1.75-.771 3.467-1.47 2.12-.865 3.175-1.215 3.293-1.094.106.11 1.5.179 3.64.18 3.217.004 3.499-.022 3.943-.35.452-.334.752-.353 11.829-.438l.043-1.776c.042-1.758.05-1.787.707-2.687.366-.5 1.512-2.12 2.547-3.596"/><path fill="#fff" d="M29.846 37.227c-.118-.038 1.695-1.028 4.032-2.201 2.334-1.172 4.303-2.135 4.376-2.14.071-.006.13.965.13 4.322l-4.162.044c-2.29.024-4.258.012-4.376-.025"/><path fill="#f5f5f5" fill-rule="evenodd" d="m18.054 21.654-3.083 2.987.022 8.146 5.278 5.29 6.326-.004 4.766-4.726.089-5.933-3.815-3.9h-5.2l-3.475 3.207.023 4.16 2.412 2.86h3.467l2.263-2.167c-.008-2.593-.012-2.606-.745-3.36-.405-.417-.913-.826-1.128-.91-.215-.082-.643-.152-.953-.154-.35-.001-.841.195-1.3.52-.62.44-.75.638-.832 1.26-.08.612-.021.83.346 1.3.325.411.583.564.962.564.286 0 .657-.144.824-.32.166-.174.38-.462.476-.637.099-.18.267-.267.39-.201.173.093.173.227 0 .665-.12.302-.373.654-.563.782s-.697.234-1.127.236c-.593.002-.865-.092-1.137-.392a6.4 6.4 0 0 1-.62-.827c-.168-.28-.236-.709-.187-1.213.053-.579.215-.927.618-1.348.302-.312.8-.683 1.11-.824.44-.199.802-.221 1.646-.1 1.03.147 1.128.206 2.002 1.17l.917 1.015c-.16 2.552-.222 3.293-.241 3.293s-.6.527-1.291 1.17l-1.257 1.17c-2.217.002-3.126-.055-3.454-.128-.456-.102-.913-.496-1.966-1.691l-1.37-1.56.164-4.68 3.68-3.553 5.806-.01 4.206 4.256-.171 6.586c-2.32 2.352-2.955 3.034-2.908 3.032s1.998-.98 4.333-2.174 4.464-2.265 4.731-2.381c.36-.158.461-.298.394-.556-.05-.191-.347-1.855-.659-3.7l-.567-3.35-6.153-5.863-9.966.009zm27.3 1.815.05 1.69c1.208.075 1.624.036 1.702-.038.078-.075-.242-.858-.712-1.739-.468-.882-.905-1.603-.97-1.603-.067 0-.098.76-.07 1.69m-.463 2.771-.288.477c.683-.745.893-.783 2.751-.828l2.037-.05-4.214-.075zm-6.55 8.71.044 2.253-8.233.094 8.406.08c0-3.626-.059-4.68-.13-4.68s-.11 1.014-.087 2.253m.773 1.17c-.026 1.24-.102 1.799-.253 1.85-.173.058-.173.075 0 .087.12.007.259-.084.309-.204.05-.118.066-.957.036-1.863l-.055-1.647zm-9.742 1.906c.619.033 1.555.033 2.08-.001.523-.035.017-.063-1.127-.061-1.144 0-1.573.028-.953.062m12.377 3.163c-.11.108-3.987.19-10.564.217l-10.392.047c19.602.093 20.824.07 21.027-.168.126-.148.2-.269.165-.269s-.143.078-.236.173" clip-rule="evenodd"/></svg>