<svg xmlns="http://www.w3.org/2000/svg" fill="none" viewBox="0 0 30 27"><g clip-path="url(#a)"><path fill="#0092d0" d="M17.846 15.077c-.195-.08-.392-.148-.579-.248a3.6 3.6 0 0 1-.538-.355 3.3 3.3 0 0 1-.809-.944c-.168-.293-.28-.612-.452-.904a4 4 0 0 0-.571-.766 3.7 3.7 0 0 0-1.946-1.052c-.872-.177-1.828-.11-2.652.234a3.67 3.67 0 0 0-1.581 1.302 4.7 4.7 0 0 0-.439.794c-.167.38-.382.733-.67 1.034a3.4 3.4 0 0 1-1.018.733c-.193.091-.396.157-.59.245a4 4 0 0 0-.534.291 3.93 3.93 0 0 0-1.495 1.778c-.31.742-.373 1.57-.258 2.363.11.755.386 1.487.848 2.098a3.5 3.5 0 0 0 1.76 1.24c.784.236 1.649.2 2.418-.074.676-.24 1.266-.659 1.93-.922a3.6 3.6 0 0 1 1.328-.253h.022c.324.002.648.047.96.138.685.2 1.272.609 1.922.898a4.1 4.1 0 0 0 2.4.303 3.44 3.44 0 0 0 1.898-1.056 4.33 4.33 0 0 0 1.015-1.989c.085-.378.125-.767.126-1.155a4.1 4.1 0 0 0-.663-2.258c-.442-.668-1.094-1.171-1.832-1.475m-7.177 5.638-.015-.012a8 8 0 0 1-.238-.217 6.902 6.902 0 0 1-1.053-1.295 6.6 6.6 0 0 1-.55-1.088 6 6 0 0 1-.195-.584 2.6 2.6 0 0 1-.106-.575 1.74 1.74 0 0 1 .285-1.025 1.36 1.36 0 0 1 .45-.433 1.4 1.4 0 0 1 .157-.075l.076-.025.081-.021.037-.008.011-.002h.006a1.4 1.4 0 0 1 .24-.016h.008l.056.004a1.7 1.7 0 0 1 .296.055c.214.064.398.157.579.288.365.265.64.642.87 1.026q.088.147.17.299c.057.103.26.12.322.009.22-.4.46-.8.79-1.12.165-.16.335-.288.539-.39.104-.05.18-.08.293-.113.116-.033.18-.045.294-.054.115-.009.176-.008.294.01.096.016.179.04.279.084l.04.018a2 2 0 0 1 .176.108l.079.062q.055.048.105.102a1.7 1.7 0 0 1 .435.973c.042.391-.07.771-.194 1.146q-.195.577-.498 1.104a7 7 0 0 1-.666.966c-.22.267-.456.515-.727.752a5 5 0 0 1-.46.358l-.002.001-.02.014a3 3 0 0 1-.226.138 3 3 0 0 1-.254.126l-.041.017-.004.002-.01.003a2 2 0 0 1-.224.067l-.027.005-.011.002a1 1 0 0 1-.106.009h-.024l-.022-.002a1 1 0 0 1-.139-.021l-.005-.002-.04-.01a2 2 0 0 1-.317-.123h-.001l-.015-.008a3 3 0 0 1-.131-.07 4.493 4.493 0 0 1-.543-.373l-.09-.074zm9.323-1.882c-.002.744-.158 1.5-.505 2.163-.322.614-.803 1.147-1.42 1.47-.661.345-1.432.423-2.169.279-.69-.136-1.277-.509-1.896-.82a5 5 0 0 0-1.008-.394 4 4 0 0 0-.271-.057c.27-.13.52-.302.752-.489a6.8 6.8 0 0 0 1.511-1.734c.227-.37.422-.762.573-1.169q.114-.305.194-.622c.05-.206.09-.413.086-.626-.017-.829-.594-1.646-1.452-1.746-.502-.058-1.005.113-1.411.402-.401.285-.704.693-.955 1.111l-.018.031a4.2 4.2 0 0 0-.694-.912c-.356-.339-.81-.588-1.305-.635a1.6 1.6 0 0 0-1.253.41c-.292.275-.487.651-.557 1.045a1.9 1.9 0 0 0-.015.6c.032.22.094.438.16.65.128.412.302.81.511 1.188a6.9 6.9 0 0 0 1.47 1.84c.244.214.503.413.787.572q.081.045.165.086-.361.066-.704.2c-.329.126-.64.288-.95.455-.299.16-.61.328-.919.444-.36.135-.732.216-1.115.234a3.17 3.17 0 0 1-2.024-.582c-.57-.413-.983-1.013-1.236-1.666a4.7 4.7 0 0 1-.286-2.25 3.76 3.76 0 0 1 .896-2.031c.245-.279.54-.519.859-.708q.254-.15.528-.264c.195-.081.393-.15.582-.248a3.7 3.7 0 0 0 1.698-1.83c.232-.54.573-1.054 1.025-1.442.561-.482 1.269-.737 2.005-.793.795-.06 1.623.067 2.312.486.537.327.962.809 1.26 1.356.166.303.282.629.468.921q.345.544.852.94c.341.266.719.44 1.118.6a3.641 3.641 0 0 1 2.202 2.417c.103.362.148.741.15 1.118"/><path fill="#0092d0" d="m10.669 20.715-.015-.012a8 8 0 0 1-.238-.217 6.902 6.902 0 0 1-1.053-1.295 6.6 6.6 0 0 1-.55-1.088 6 6 0 0 1-.195-.584 2.6 2.6 0 0 1-.106-.575 1.74 1.74 0 0 1 .285-1.025 1.36 1.36 0 0 1 .45-.433 1 1 0 0 1 .125-.062l.02-.008.012-.005.076-.025.081-.021.037-.008.011-.002h.006a1.4 1.4 0 0 1 .24-.016h.008l.056.004a1.7 1.7 0 0 1 .296.055c.214.064.398.157.579.288.365.265.64.642.87 1.026q.088.147.17.299c.057.103.26.12.322.009.22-.4.46-.8.79-1.12.165-.16.335-.288.539-.39.104-.05.18-.08.293-.113.116-.033.18-.045.294-.054.115-.009.176-.008.294.01.096.016.179.04.279.084l.04.018a2 2 0 0 1 .176.108l.079.062q.055.048.105.102a1.7 1.7 0 0 1 .435.973c.042.391-.07.771-.194 1.146q-.195.577-.498 1.104a7 7 0 0 1-.666.966c-.22.267-.456.515-.727.752a5 5 0 0 1-.46.358l-.002.001-.02.014a3 3 0 0 1-.226.138 3 3 0 0 1-.254.126l-.041.017-.004.002-.01.003a2 2 0 0 1-.224.067l-.027.005-.011.002a1 1 0 0 1-.106.009h-.024l-.022-.002a1 1 0 0 1-.139-.021l-.005-.002-.04-.01a2 2 0 0 1-.317-.123h-.001l-.015-.008a3 3 0 0 1-.131-.07 4.493 4.493 0 0 1-.543-.373l-.09-.074z"/><path stroke="#0092d0" stroke-width="1.077" d="m10.669 20.715-.015-.012m.014.012.015.012m-.014-.012-.015-.012m.014.012.015.012m-.029-.024a8 8 0 0 1-.238-.217 6.902 6.902 0 0 1-1.053-1.295 6.6 6.6 0 0 1-.55-1.088 6 6 0 0 1-.195-.584 2.6 2.6 0 0 1-.106-.575 1.74 1.74 0 0 1 .285-1.025 1.36 1.36 0 0 1 .45-.433 1 1 0 0 1 .125-.062m0 0 .02-.008m-.02.008.02-.008m0 0 .012-.005.076-.025.081-.021.037-.008m0 0 .011-.002m-.011.002.011-.002m0 0h.006a1.4 1.4 0 0 1 .24-.016h.001m0 0h.007m-.007 0h.007m0 0 .056.004a1.7 1.7 0 0 1 .296.055c.214.064.398.157.579.288.365.265.64.642.87 1.026q.088.147.17.299c.057.103.26.12.322.009.22-.4.46-.8.79-1.12.165-.16.335-.288.539-.39.104-.05.18-.08.293-.113.116-.033.18-.045.294-.054.115-.009.176-.008.294.01.096.016.179.04.279.084l.04.018a2 2 0 0 1 .176.108l.079.062q.055.048.105.102a1.7 1.7 0 0 1 .435.973c.042.391-.07.771-.194 1.146q-.195.577-.498 1.104a7 7 0 0 1-.666.966c-.22.267-.456.515-.727.752a5 5 0 0 1-.46.358l-.002.001m0 0-.02.014m.02-.014-.02.014m0 0a3 3 0 0 1-.226.138 3 3 0 0 1-.254.126l-.041.017-.004.002m0 0-.01.003m.01-.003-.01.003m0 0a2 2 0 0 1-.224.067l-.027.005-.011.002a1 1 0 0 1-.106.009m0 0h-.024m.024 0h-.024m0 0-.022-.002a1 1 0 0 1-.139-.021m0 0-.005-.002m.005.002-.005-.002m0 0-.04-.01a2 2 0 0 1-.317-.123h-.001m0 0-.015-.008m.015.008-.015-.008m0 0a3 3 0 0 1-.131-.07 4.493 4.493 0 0 1-.543-.373l-.09-.074m7.163-5.65c-.195-.08-.392-.148-.579-.248a3.6 3.6 0 0 1-.538-.355 3.3 3.3 0 0 1-.809-.944c-.168-.293-.28-.612-.452-.904a4 4 0 0 0-.571-.766 3.7 3.7 0 0 0-1.946-1.052c-.872-.177-1.828-.11-2.652.234a3.67 3.67 0 0 0-1.581 1.302 4.7 4.7 0 0 0-.439.794c-.167.38-.382.733-.67 1.034a3.4 3.4 0 0 1-1.018.733c-.193.091-.396.157-.59.245a4 4 0 0 0-.534.291 3.93 3.93 0 0 0-1.495 1.778c-.31.742-.373 1.57-.258 2.363.11.755.386 1.487.848 2.098a3.5 3.5 0 0 0 1.76 1.24c.784.236 1.649.2 2.418-.074.676-.24 1.266-.659 1.93-.922a3.6 3.6 0 0 1 1.328-.253h.022c.324.002.648.047.96.138.685.2 1.272.609 1.922.898a4.1 4.1 0 0 0 2.4.303 3.44 3.44 0 0 0 1.898-1.056 4.33 4.33 0 0 0 1.015-1.989c.085-.378.125-.767.126-1.155a4.1 4.1 0 0 0-.663-2.258c-.442-.668-1.094-1.171-1.832-1.475Zm2.146 3.756c-.002.744-.158 1.5-.505 2.163-.322.614-.803 1.147-1.42 1.47-.661.345-1.432.423-2.169.279-.69-.136-1.277-.509-1.896-.82a5 5 0 0 0-1.008-.394 4 4 0 0 0-.271-.057c.27-.13.52-.302.752-.489a6.8 6.8 0 0 0 1.511-1.734c.227-.37.422-.762.573-1.169q.114-.305.194-.622c.05-.206.09-.413.086-.626-.017-.829-.594-1.646-1.452-1.746-.502-.058-1.005.113-1.411.402-.401.285-.704.693-.955 1.111l-.018.031a4.2 4.2 0 0 0-.694-.912c-.356-.339-.81-.588-1.305-.635a1.6 1.6 0 0 0-1.253.41c-.292.275-.487.651-.557 1.045a1.9 1.9 0 0 0-.015.6c.032.22.094.438.16.65.128.412.302.81.511 1.188a6.9 6.9 0 0 0 1.47 1.84c.244.214.503.413.787.572q.081.045.165.086-.361.066-.704.2c-.329.126-.64.288-.95.455-.299.16-.61.328-.919.444-.36.135-.732.216-1.115.234a3.17 3.17 0 0 1-2.024-.582c-.57-.413-.983-1.013-1.236-1.666a4.7 4.7 0 0 1-.286-2.25 3.76 3.76 0 0 1 .896-2.031c.245-.279.54-.519.859-.708q.254-.15.528-.264c.195-.081.393-.15.582-.248a3.7 3.7 0 0 0 1.698-1.83c.232-.54.573-1.054 1.025-1.442.561-.482 1.269-.737 2.005-.793.795-.06 1.623.067 2.312.486.537.327.962.809 1.26 1.356.166.303.282.629.468.921q.345.544.852.94c.341.266.719.44 1.118.6a3.642 3.642 0 0 1 2.202 2.417c.103.362.148.741.15 1.118Z"/><path fill="#fff" stroke="#0092d0" stroke-width="1.077" d="m10.67 20.715-.015-.012a8 8 0 0 1-.238-.217 6.906 6.906 0 0 1-1.053-1.295 6.6 6.6 0 0 1-.55-1.088 6 6 0 0 1-.195-.584 2.6 2.6 0 0 1-.106-.575 1.74 1.74 0 0 1 .285-1.025 1.36 1.36 0 0 1 .45-.433q.062-.034.125-.062l.02-.008.012-.005.076-.025.081-.021.037-.008.011-.002h.006a1.4 1.4 0 0 1 .24-.016h.008l.056.004a1.7 1.7 0 0 1 .296.055c.214.064.398.157.579.288.365.265.64.642.87 1.026q.088.147.17.299c.057.103.26.12.321.009.22-.4.462-.8.791-1.12.165-.16.335-.288.539-.39.104-.05.18-.08.293-.113.116-.033.18-.045.294-.054.115-.009.176-.008.294.01.096.016.179.04.279.084l.04.018a1.5 1.5 0 0 1 .225.145l.02.016.01.009q.054.048.105.102a1.7 1.7 0 0 1 .435.973c.042.391-.07.771-.194 1.146q-.195.577-.498 1.104-.293.51-.666.966c-.22.267-.456.515-.727.752a5 5 0 0 1-.46.358l-.002.001-.02.014a3 3 0 0 1-.227.138 3 3 0 0 1-.253.126l-.042.017-.003.002-.01.003a2 2 0 0 1-.224.067l-.027.005-.011.002a1 1 0 0 1-.106.009h-.024l-.022-.002a1 1 0 0 1-.139-.021l-.006-.002-.04-.01a2 2 0 0 1-.316-.123h-.001l-.015-.008-.043-.022a3 3 0 0 1-.264-.155 5 5 0 0 1-.457-.34z"/><path fill="#0092d0" stroke="#0092d0" stroke-width="1.077" d="M13.045 7.128c.019.185.037.37.078.552.064.278.17.543.322.785.256.41.654.738 1.113.892.443.15.929.152 1.365-.021.496-.197.878-.581 1.12-1.053.088-.172.162-.353.236-.532q.124-.297.232-.6c.144-.409.265-.825.342-1.252q.057-.318.081-.641c.055-.759-.053-1.556-.392-2.242a2.9 2.9 0 0 0-.666-.896 2.4 2.4 0 0 0-.906-.499 1.94 1.94 0 0 0-.993-.033c-.331.08-.624.257-.868.492-.497.48-.755 1.172-.906 1.832-.09.394-.141.796-.176 1.198a10.7 10.7 0 0 0 .018 2.018Zm.316-2.554c.049-.331.119-.66.22-.98.088-.274.232-.608.394-.851a2 2 0 0 1 .634-.631c.256-.156.563-.236.859-.228.32.009.617.096.896.248.279.153.517.369.703.621.105.144.182.272.255.422a3.4 3.4 0 0 1 .187.473c.105.35.156.69.17 1.037q.009.267-.011.534c-.062.804-.312 1.586-.621 2.328-.072.175-.144.351-.23.52a2.074 2.074 0 0 1-.438.588l-.031.029-.002.001-.013.011a2 2 0 0 1-.356.239l-.11.052-.016.007-.004.001a1.9 1.9 0 0 1-.584.127l-.022.002a2 2 0 0 1-.553-.07l-.038-.011h-.001l-.018-.007a2 2 0 0 1-.44-.21l-.019-.013-.022-.015a2 2 0 0 1-.317-.28l-.01-.01a2 2 0 0 1-.228-.321l-.003-.005-.004-.007-.024-.045a2 2 0 0 1-.113-.258l-.013-.039-.012-.035a3 3 0 0 1-.047-.18 4 4 0 0 1-.07-.473c-.085-.855-.072-1.721.053-2.57ZM23.773 9.576c.06-.618-.106-1.243-.534-1.703a1.7 1.7 0 0 0-.711-.458 1.7 1.7 0 0 0-.878-.031c-.608.134-1.133.519-1.57.948a8.5 8.5 0 0 0-1.31 1.695q-.144.238-.272.485c-.075.144-.152.289-.21.44-.087.225-.14.467-.145.708-.01.433.127.867.404 1.203.274.33.651.55 1.075.62.482.078.975-.066 1.382-.324.589-.374 1.161-.794 1.64-1.305a6 6 0 0 0 .347-.408c.411-.54.716-1.19.782-1.87Zm-2.904 3.358a2 2 0 0 1-.17.1l-.026.012a2 2 0 0 1-.297.113l-.025.007-.052.012a2 2 0 0 1-.217.032l-.038.003h-.021a1.6 1.6 0 0 1-.293-.02l-.036-.006-.005-.001-.005-.001-.07-.017a1.6 1.6 0 0 1-.317-.124l-.02-.01a1.6 1.6 0 0 1-.37-.285l-.015-.016-.062-.072a1.7 1.7 0 0 1-.224-.364l-.014-.033-.003-.005-.002-.007-.03-.08a1.7 1.7 0 0 1-.087-.438v-.009l-.002-.032a1.85 1.85 0 0 1 .132-.732c.052-.131.118-.258.184-.383A9 9 0 0 1 19.96 8.85a5.6 5.6 0 0 1 .69-.674 3.6 3.6 0 0 1 .543-.35l.061-.03a2 2 0 0 1 .267-.1c.05-.015.035-.011.086-.023q.088-.02.178-.032c.08-.01.113-.011.188-.01.256.004.5.08.713.221.45.299.715.81.764 1.344.057.613-.151 1.238-.46 1.756q-.125.206-.271.398c-.395.513-.9.934-1.427 1.301q-.209.145-.424.283ZM6.709 7.764c.13.311.26.626.467.895a1.97 1.97 0 0 0 1.905.772 2.16 2.16 0 0 0 1.253-.69c.181-.203.328-.435.43-.688.124-.305.173-.62.205-.946.09-.896.075-1.804-.061-2.695-.106-.686-.292-1.391-.694-1.969a2.2 2.2 0 0 0-.708-.664 1.8 1.8 0 0 0-.989-.226c-.717.038-1.37.45-1.788 1.022-.454.621-.656 1.398-.686 2.158q-.011.277.01.553c.065.86.324 1.687.656 2.478Zm-.01-4.634q.028-.057.059-.113l.02-.037a3 3 0 0 1 .176-.268l.077-.1.018-.02c.001-.003.01-.012.014-.018l.007-.008.029-.032q.083-.089.174-.168a2.05 2.05 0 0 1 .809-.432c.282-.076.594-.084.884-.005.286.077.553.247.755.453.454.466.68 1.106.818 1.73.082.375.129.746.16 1.133a11 11 0 0 1-.021 1.92 4 4 0 0 1-.073.494l-.023.096-.013.046-.012.038-.01.03a3 3 0 0 1-.052.138q-.036.084-.077.165l-.021.04-.004.007-.001.002-.05.08a2 2 0 0 1-.152.208l-.015.018.01-.012-.032.036q-.116.121-.246.226l-.009.006-.105.072a2 2 0 0 1-.139.08l-.071.036-.004.002-.006.003-.042.018a2 2 0 0 1-.305.098l-.039.009-.095.016a2 2 0 0 1-.455.007 1.9 1.9 0 0 1-.53-.15l-.024-.011a2 2 0 0 1-.19-.108 2 2 0 0 1-.303-.244l-.006-.006-.009-.01a2.2 2.2 0 0 1-.385-.551 10 10 0 0 1-.447-1.091 8 8 0 0 1-.321-1.18 6 6 0 0 1-.075-.582c-.051-.71.043-1.429.352-2.061ZM10.176 8.527q-.005.006 0 0ZM6.14 12.858c.306-.314.501-.74.535-1.178a2.1 2.1 0 0 0-.069-.722c-.077-.277-.218-.526-.368-.77a9.4 9.4 0 0 0-1.383-1.742c-.428-.424-.93-.82-1.507-1.014a1.9 1.9 0 0 0-.84-.1c-.294.038-.57.153-.801.338C1.215 8.064.95 8.676.938 9.3c-.014.676.253 1.344.633 1.893q.149.212.32.407c.464.525 1.036.936 1.636 1.294.252.15.508.31.79.4.217.07.448.105.676.09a1.76 1.76 0 0 0 1.146-.526Zm-.575.056c-.014.006-.007.003 0 0Zm-.926.105a1 1 0 0 1-.111-.026 2 2 0 0 1-.16-.05 2.4 2.4 0 0 1-.336-.158c-.574-.317-1.131-.674-1.612-1.123a5 5 0 0 1-.344-.352c-.41-.47-.734-1.05-.834-1.67a2 2 0 0 1 .027-.83l.01-.033a2 2 0 0 1 .101-.27l.021-.044a2 2 0 0 1 .145-.233c.03-.042.021-.03.055-.07.169-.2.368-.346.611-.429.238-.08.503-.089.745-.043.553.103 1.042.442 1.456.808.506.447.949.97 1.331 1.526.18.26.364.532.499.82a1.974 1.974 0 0 1 .143.46l.001.007.001.006a2 2 0 0 1 .02.273q0 .037-.002.076v.007l-.004.05a2 2 0 0 1-.043.243l-.002.009-.002.004a2 2 0 0 1-.103.27l-.017.032a2 2 0 0 1-.12.189c-.007.009-.047.059-.016.021a2 2 0 0 1-.15.164l-.052.047-.033.028a2 2 0 0 1-.29.182l-.007.003-.04.017a1.6 1.6 0 0 1-.368.104l-.025.003a1.6 1.6 0 0 1-.47-.013l-.025-.005Z"/></g><circle cx="23.462" cy="20.385" r="6" fill="#fff" stroke="#0092d0" stroke-width="1.077"/><path fill="#0092d0" d="M26.452 21.063h-2.283v2.25h-1.4v-2.25h-2.294v-1.357h2.283v-2.25h1.4v2.25h2.293z"/><defs><clipPath id="a"><path fill="#fff" d="M0 0h24.615v24.615H0z"/></clipPath></defs></svg>