<svg xmlns="http://www.w3.org/2000/svg" fill="none" viewBox="0 0 150 50"><g clip-path="url(#a)"><path fill="#000" d="M137.176 0h-125.3c-.457 0-.908 0-1.364.002q-.57.006-1.144.016-1.257.015-2.496.22a8.3 8.3 0 0 0-2.368.778 8 8 0 0 0-3.483 3.478 8.2 8.2 0 0 0-.779 2.364A16 16 0 0 0 .02 9.344c-.012.381-.013.763-.019 1.144v28.71c.006.385.007.758.019 1.144q.015 1.252.223 2.487c.137.823.4 1.62.779 2.365a7.7 7.7 0 0 0 1.467 2.005 7.8 7.8 0 0 0 2.016 1.464 8.4 8.4 0 0 0 2.368.783c.825.136 1.66.209 2.496.22.385.008.763.013 1.144.013.456.003.907.003 1.364.003h125.3c.448 0 .903 0 1.35-.003.38 0 .769-.005 1.149-.013q1.253-.015 2.491-.22a8.5 8.5 0 0 0 2.376-.783 7.8 7.8 0 0 0 2.015-1.464 8 8 0 0 0 1.471-2.005 8.2 8.2 0 0 0 .772-2.365 17 17 0 0 0 .231-2.487c.005-.386.005-.76.005-1.145.009-.451.009-.9.009-1.358V11.844c0-.455 0-.906-.009-1.356q.001-.571-.005-1.144a17 17 0 0 0-.231-2.486 8.2 8.2 0 0 0-.772-2.364 8.04 8.04 0 0 0-3.486-3.478 8.5 8.5 0 0 0-2.376-.778 16 16 0 0 0-2.491-.22c-.38-.006-.769-.013-1.149-.016-.447-.002-.902-.002-1.35-.002"/><path fill="#fff" d="M10.519 48.595c-.38 0-.75-.005-1.126-.013-.78-.01-1.559-.078-2.329-.203a7.4 7.4 0 0 1-2.063-.68 6.7 6.7 0 0 1-1.74-1.263A6.6 6.6 0 0 1 1.99 44.7a7.1 7.1 0 0 1-.676-2.058 15.4 15.4 0 0 1-.208-2.329c-.008-.262-.018-1.134-.018-1.134V10.488s.01-.859.018-1.11q.015-1.171.206-2.326a7.1 7.1 0 0 1 .677-2.065A6.93 6.93 0 0 1 5 1.981a7.3 7.3 0 0 1 2.06-.675 16 16 0 0 1 2.336-.204l1.123-.015h128.002l1.137.015q1.165.015 2.315.202a7.4 7.4 0 0 1 2.081.68 6.96 6.96 0 0 1 3.008 3.007 7.2 7.2 0 0 1 .667 2.048q.194 1.164.216 2.344c.004.351.004.73.004 1.105.01.466.009.91.009 1.356V37.84c0 .45.001.891-.009 1.335 0 .404 0 .774-.005 1.155q-.022 1.158-.213 2.302a7.1 7.1 0 0 1-.673 2.074 6.8 6.8 0 0 1-1.265 1.721 6.7 6.7 0 0 1-1.743 1.27 7.3 7.3 0 0 1-2.077.683q-1.156.188-2.328.203c-.365.008-.747.013-1.118.013l-1.35.002z"/><path fill="#000" d="M31.135 24.703a6.4 6.4 0 0 1 .834-3.072 6.4 6.4 0 0 1 2.218-2.29 6.56 6.56 0 0 0-5.17-2.787c-2.175-.228-4.283 1.298-5.392 1.298-1.13 0-2.836-1.276-4.673-1.238a6.9 6.9 0 0 0-3.363 1 6.9 6.9 0 0 0-2.43 2.523c-2.506 4.325-.637 10.681 1.762 14.177 1.2 1.712 2.604 3.624 4.44 3.556 1.796-.074 2.467-1.142 4.636-1.142 2.148 0 2.778 1.142 4.651 1.099 1.928-.031 3.143-1.72 4.3-3.447a14.1 14.1 0 0 0 1.968-3.995 6.2 6.2 0 0 1-2.748-2.273 6.16 6.16 0 0 1-1.033-3.409M27.596 14.255a6.28 6.28 0 0 0 1.443-4.509 6.43 6.43 0 0 0-4.154 2.144 5.99 5.99 0 0 0-1.482 4.341 5.32 5.32 0 0 0 4.193-1.976M52.69 33.709h-5.896l-1.416 4.168h-2.497l5.584-15.423h2.594l5.585 15.423h-2.54zm-5.286-1.924h4.674l-2.304-6.766h-.065zM68.704 32.255c0 3.495-1.875 5.74-4.706 5.74a3.83 3.83 0 0 1-3.548-1.967h-.053v5.57h-2.315V26.631h2.24v1.87h.043a4 4 0 0 1 3.59-1.987c2.863 0 4.75 2.256 4.75 5.74m-2.379 0c0-2.276-1.18-3.773-2.98-3.773-1.768 0-2.958 1.528-2.958 3.773 0 2.266 1.19 3.783 2.958 3.783 1.8 0 2.98-1.485 2.98-3.783M81.115 32.255c0 3.495-1.876 5.74-4.706 5.74a3.83 3.83 0 0 1-3.549-1.967h-.053v5.57h-2.315V26.631h2.24v1.87h.043a4 4 0 0 1 3.59-1.987c2.863 0 4.75 2.256 4.75 5.74m-2.38 0c0-2.276-1.18-3.773-2.98-3.773-1.768 0-2.958 1.528-2.958 3.773 0 2.266 1.19 3.783 2.958 3.783 1.8 0 2.98-1.485 2.98-3.783M89.317 33.58c.171 1.53 1.661 2.534 3.697 2.534 1.951 0 3.355-1.005 3.355-2.384 0-1.197-.847-1.914-2.851-2.405l-2.005-.482c-2.84-.683-4.158-2.008-4.158-4.157 0-2.662 2.325-4.49 5.627-4.49 3.27 0 5.51 1.828 5.585 4.49H96.23c-.14-1.54-1.415-2.469-3.28-2.469s-3.14.94-3.14 2.309c0 1.09.814 1.732 2.808 2.223l1.704.417c3.173.748 4.49 2.02 4.49 4.276 0 2.885-2.303 4.692-5.97 4.692-3.43 0-5.745-1.764-5.895-4.554zM103.811 23.971v2.661h2.144v1.828h-2.144v6.2c0 .963.429 1.411 1.372 1.411q.383-.006.761-.053v1.817a6.4 6.4 0 0 1-1.285.107c-2.283 0-3.174-.855-3.174-3.036V28.46h-1.64v-1.828h1.64v-2.66zM107.197 32.256c0-3.539 2.09-5.762 5.349-5.762 3.269 0 5.349 2.223 5.349 5.762 0 3.547-2.069 5.761-5.349 5.761s-5.349-2.214-5.349-5.761m8.339 0c0-2.428-1.115-3.86-2.991-3.86-1.875 0-2.99 1.443-2.99 3.86 0 2.436 1.115 3.858 2.99 3.858s2.991-1.422 2.991-3.858M119.803 26.632h2.207v1.914h.054a2.684 2.684 0 0 1 2.712-2.031q.402-.001.793.086v2.159a3.2 3.2 0 0 0-1.04-.14 2.335 2.335 0 0 0-2.31 1.598c-.105.318-.14.656-.102.99v6.67h-2.314zM136.241 34.575c-.312 2.041-2.305 3.442-4.856 3.442-3.28 0-5.317-2.192-5.317-5.708 0-3.527 2.047-5.815 5.22-5.815 3.12 0 5.082 2.137 5.082 5.547v.79h-7.965v.14a2.92 2.92 0 0 0 1.817 2.97c.385.157.8.23 1.217.215a2.55 2.55 0 0 0 2.604-1.582zm-7.825-3.357h5.638a2.7 2.7 0 0 0-.758-2.03 2.71 2.71 0 0 0-2.008-.823 2.87 2.87 0 0 0-2.033.83 2.84 2.84 0 0 0-.839 2.023M45.758 13.977h.994a1.25 1.25 0 0 0 1.401-1.181c0-.684-.516-1.125-1.39-1.125a1.33 1.33 0 0 0-1.339.662 1.3 1.3 0 0 0-.16.498h-1.092a2.32 2.32 0 0 1 .84-1.653 2.33 2.33 0 0 1 1.786-.514c1.463 0 2.494.817 2.494 1.993a1.72 1.72 0 0 1-1.35 1.695v.087c.457.02.887.22 1.197.556s.473.78.455 1.236a2.47 2.47 0 0 1-.923 1.684 2.49 2.49 0 0 1-1.852.52 2.48 2.48 0 0 1-2.5-1.256c-.159-.29-.258-.608-.292-.937h1.108c.067.709.72 1.166 1.684 1.166.963 0 1.592-.514 1.592-1.238 0-.734-.592-1.187-1.627-1.187h-1.026zM50.854 16.673c0-1.006.752-1.587 2.086-1.67l1.519-.087v-.482c0-.591-.39-.925-1.149-.925-.617 0-1.044.227-1.168.622H51.07c.113-.96 1.02-1.577 2.293-1.577 1.406 0 2.199.698 2.199 1.88v3.821h-1.067v-.786h-.087a1.89 1.89 0 0 1-1.685.878 1.7 1.7 0 0 1-1.721-.989 1.7 1.7 0 0 1-.149-.685m3.605-.478v-.467l-1.37.087c-.772.052-1.123.314-1.123.807 0 .503.438.796 1.04.796a1.324 1.324 0 0 0 1.453-1.223M58.5 13.591v4.664h-1.107v-5.593h3.692v.93zM67.794 15.456c0 1.777-.901 2.891-2.317 2.891a1.83 1.83 0 0 1-1.726-.94h-.087v2.707h-1.107v-7.452h1.065v.924h.083a1.95 1.95 0 0 1 1.761-1.017c1.427 0 2.328 1.11 2.328 2.887m-1.138 0c0-1.181-.561-1.895-1.499-1.895-.931 0-1.514.729-1.514 1.9 0 1.166.582 1.895 1.51 1.895.942 0 1.503-.714 1.503-1.9M69.267 20.258v-.95q.18.023.361.02a.96.96 0 0 0 1.015-.78l.082-.272-2.03-5.614h1.206l1.406 4.443h.087l1.402-4.443h1.173l-2.09 5.824c-.48 1.36-1.01 1.798-2.153 1.798-.093 0-.356-.01-.459-.026M74.832 16.668h1.102c.108.493.572.75 1.22.75.737 0 1.19-.324 1.19-.827 0-.54-.407-.796-1.19-.796h-.84v-.858h.825c.67 0 1.01-.256 1.01-.724 0-.41-.33-.724-1.01-.724-.619 0-1.071.262-1.143.703h-1.067a1.96 1.96 0 0 1 .77-1.27 1.97 1.97 0 0 1 1.44-.368c1.334 0 2.096.601 2.096 1.546a1.15 1.15 0 0 1-.885 1.145v.088a1.26 1.26 0 0 1 1.097 1.258c0 1.063-.908 1.767-2.293 1.767-1.225 0-2.22-.56-2.322-1.69M81.041 18.255v-5.593h1.097v3.847h.088l2.585-3.847h1.097v5.593H84.81v-3.867h-.083l-2.59 3.867zM91.95 13.591h-1.765v4.664h-1.108v-4.664H87.31v-.929h4.64zM97.913 16.745c-.15.511-.477.953-.921 1.249a2.28 2.28 0 0 1-1.51.369 2.55 2.55 0 0 1-2.504-1.797 2.5 2.5 0 0 1-.087-1.09 2.57 2.57 0 0 1 1.51-2.698c.339-.15.706-.227 1.076-.224 1.56 0 2.503 1.063 2.503 2.82v.385h-3.96v.062a1.47 1.47 0 0 0 .892 1.483c.19.08.395.122.601.119a1.35 1.35 0 0 0 1.334-.678zm-3.893-1.802h2.832a1.35 1.35 0 0 0-.83-1.346 1.4 1.4 0 0 0-.55-.103 1.44 1.44 0 0 0-1.347.891 1.4 1.4 0 0 0-.105.558M102.607 12.662h2.529c1.097 0 1.741.554 1.741 1.422a1.21 1.21 0 0 1-.948 1.182v.087a1.28 1.28 0 0 1 1.2 1.29c0 .975-.736 1.612-1.967 1.612h-2.555zm1.098.847v1.449h1.097c.669 0 .989-.257.989-.73 0-.436-.279-.719-.866-.719zm0 2.26v1.639h1.312c.654 0 1.005-.288 1.005-.817 0-.56-.397-.822-1.144-.822z"/></g><defs><clipPath id="a"><path fill="#fff" d="M0 0h149.045v49.682H0z"/></clipPath></defs></svg>