<svg xmlns="http://www.w3.org/2000/svg" fill="none" viewBox="0 0 168 50"><g clip-path="url(#a)"><path fill="#fff" d="M161.466 0H6.21A6.21 6.21 0 0 0 0 6.21v37.262a6.21 6.21 0 0 0 6.21 6.21h155.256a6.21 6.21 0 0 0 6.21-6.21V6.21a6.21 6.21 0 0 0-6.21-6.21"/><path fill="#000" d="M161.466.994a5.215 5.215 0 0 1 5.216 5.216v37.262a5.214 5.214 0 0 1-5.216 5.216H6.21a5.217 5.217 0 0 1-5.216-5.217V6.212A5.217 5.217 0 0 1 6.21.993zm0-.994H6.21A6.21 6.21 0 0 0 0 6.21v37.262a6.21 6.21 0 0 0 6.21 6.21h155.256a6.21 6.21 0 0 0 6.21-6.21V6.21a6.21 6.21 0 0 0-6.21-6.21"/><path fill="#000" d="M84.633 27.015a5.291 5.291 0 1 0 5.303 5.278 5.204 5.204 0 0 0-5.304-5.278m0 8.483a3.204 3.204 0 1 1 2.98-3.205 3.055 3.055 0 0 1-2.98 3.205m-11.576-8.483a5.29 5.29 0 1 0 5.303 5.278 5.204 5.204 0 0 0-5.303-5.278m0 8.483a3.204 3.204 0 1 1 2.98-3.205 3.055 3.055 0 0 1-2.98 3.205m-13.762-6.856v2.235h5.365a4.68 4.68 0 0 1-1.242 2.82 5.5 5.5 0 0 1-4.148 1.64 5.962 5.962 0 1 1 0-11.925 5.76 5.76 0 0 1 4.074 1.603l1.577-1.578a7.82 7.82 0 0 0-5.626-2.26 8.21 8.21 0 1 0 0 16.407 7.54 7.54 0 0 0 5.726-2.298 7.45 7.45 0 0 0 1.937-5.253 8 8 0 0 0-.112-1.391zm56.277 1.738a4.97 4.97 0 0 0-4.521-3.365 4.967 4.967 0 0 0-4.968 5.278 5.25 5.25 0 0 0 7.032 4.993 5.26 5.26 0 0 0 2.606-2.05l-1.801-1.241a3 3 0 0 1-2.596 1.453 2.67 2.67 0 0 1-2.559-1.602l7.068-2.92zm-7.204 1.764a2.91 2.91 0 0 1 .735-2.128 2.9 2.9 0 0 1 2.035-.965 2.04 2.04 0 0 1 1.95 1.13zm-5.738 5.117h2.322V21.736h-2.322zm-3.8-9.067h-.088a3.65 3.65 0 0 0-2.782-1.242 5.291 5.291 0 0 0 0 10.57 3.58 3.58 0 0 0 2.782-1.242h.087v.758c0 2.024-1.08 3.105-2.82 3.105a2.93 2.93 0 0 1-2.67-1.876l-2.012.833a4.97 4.97 0 0 0 4.683 3.13c2.72 0 4.968-1.603 4.968-5.503v-9.402h-2.149zm-2.671 7.304a3.204 3.204 0 0 1 0-6.397 2.97 2.97 0 0 1 2.831 3.192 2.955 2.955 0 0 1-2.831 3.205m30.293-13.762h-5.564V37.26h2.322v-5.887h3.242a4.832 4.832 0 1 0 0-9.638m0 7.452h-3.242v-5.291h3.292a2.655 2.655 0 0 1 2.455 1.64 2.65 2.65 0 0 1-.576 2.897 2.66 2.66 0 0 1-1.879.779zm14.333-2.223a4.33 4.33 0 0 0-4.136 2.372l2.05.857a2.21 2.21 0 0 1 2.124-1.13 2.23 2.23 0 0 1 2.225 1.157c.141.26.229.547.259.843v.149a5.2 5.2 0 0 0-2.422-.597c-2.211 0-4.472 1.242-4.472 3.503a3.58 3.58 0 0 0 1.208 2.526 3.6 3.6 0 0 0 2.655.89 3.29 3.29 0 0 0 2.956-1.516h.075v1.242h2.235v-5.974c0-2.72-2.061-4.297-4.707-4.297zm-.285 8.508c-.758 0-1.814-.385-1.814-1.317 0-1.242 1.317-1.664 2.484-1.664a4.1 4.1 0 0 1 2.112.522 2.81 2.81 0 0 1-2.733 2.484zm13.19-8.148-2.658 6.732h-.074l-2.758-6.732h-2.484l4.136 9.415-2.36 5.229h2.422l6.36-14.644zm-20.866 9.936h2.31V21.736h-2.31z"/><path fill="url(#b)" d="M12.966 9.365a2.48 2.48 0 0 0-.584 1.739v27.474a2.4 2.4 0 0 0 .584 1.739l.087.1 15.389-15.39v-.372L13.053 9.278z"/><path fill="url(#c)" d="m33.536 30.157-5.093-5.13v-.373l5.093-5.13.111.075 6.099 3.453c1.739.982 1.739 2.596 0 3.59l-6.074 3.453z"/><path fill="url(#d)" d="m33.684 30.082-5.241-5.241-15.476 15.476a2.01 2.01 0 0 0 2.57.087z"/><path fill="url(#e)" d="M33.684 19.6 15.538 9.29a2 2 0 0 0-2.571.075l15.476 15.476z"/><path fill="#000" d="M33.535 29.97 15.538 40.218a2.06 2.06 0 0 1-2.484 0l-.087.087.087.1a2.06 2.06 0 0 0 2.484 0l18.146-10.322z" opacity=".2"/><path fill="#000" d="M12.968 40.143a2.48 2.48 0 0 1-.547-1.751v.186a2.4 2.4 0 0 0 .584 1.739l.087-.087zM39.745 26.456l-6.21 3.515.112.111 6.098-3.453a2.17 2.17 0 0 0 1.317-1.788 2.31 2.31 0 0 1-1.317 1.614" opacity=".12"/><path fill="#fff" d="m15.538 9.464 24.207 13.762a2.31 2.31 0 0 1 1.317 1.615 2.17 2.17 0 0 0-1.317-1.789L15.538 9.29c-1.727-.993-3.155-.173-3.155 1.814v.186c.037-1.987 1.428-2.807 3.155-1.826" opacity=".25"/><path fill="#000" stroke="#000" stroke-miterlimit="10" stroke-width=".235" d="M52.303 17.724h-.906V15.24h.77a3.53 3.53 0 0 0 .906-2.82V8.695h4.968v6.533h.833v2.485h-.92v-1.565h-5.65zm1.727-5.303a4.97 4.97 0 0 1-.708 2.844h3.726V9.613H54.03zM66.34 15.178a3.85 3.85 0 0 1-5.454 0 3.987 3.987 0 0 1 0-5.515 3.85 3.85 0 0 1 5.453 0 3.83 3.83 0 0 1 1.106 2.757 3.73 3.73 0 0 1-1.106 2.758Zm-4.758-.621a2.76 2.76 0 0 0 2.025.844 2.72 2.72 0 0 0 2.024-.844 3.155 3.155 0 0 0 0-4.273 2.72 2.72 0 0 0-2.024-.845 2.76 2.76 0 0 0-2.025.845 3.19 3.19 0 0 0 0 4.273ZM72.264 16.308a3.73 3.73 0 0 1-2.708-1.105 4.025 4.025 0 0 1 0-5.565 3.73 3.73 0 0 1 2.758-1.105 3.42 3.42 0 0 1 2.732 1.242l-.658.646a2.49 2.49 0 0 0-2.075-.957 2.8 2.8 0 0 0-2.061.832 3.19 3.19 0 0 0 0 4.298 2.8 2.8 0 0 0 2.062.832 2.93 2.93 0 0 0 2.21-1.105l.671.658c-.34.408-.764.738-1.242.969a3.84 3.84 0 0 1-1.69.36ZM79.094 16.147h-.957V9.613h-2.086v-.919h5.117v.92h-2.074zM87.752 8.694l-2.82 6.285a1.802 1.802 0 0 1-2.484 1.168l.249-.882c.152.085.322.132.497.136a.9.9 0 0 0 .521-.136 1.13 1.13 0 0 0 .336-.472l.273-.596-2.484-5.503h1.13l1.838 4.273 1.814-4.273zM88.832 16.147V8.694h5.39v7.453h-.956V9.613h-3.478v6.534zM95.924 16.147V8.694h.956v3.192h3.726V8.694h.969v7.453h-.969V12.78H96.88v3.366zM109.375 15.178a3.87 3.87 0 0 1-4.211.838 3.9 3.9 0 0 1-1.254-.838 3.985 3.985 0 0 1 0-5.515 3.86 3.86 0 0 1 2.726-1.132 3.85 3.85 0 0 1 2.727 1.132 4.015 4.015 0 0 1 0 5.515zm-4.757-.621a2.72 2.72 0 0 0 2.024.844 2.76 2.76 0 0 0 2.025-.844 3.19 3.19 0 0 0 0-4.273 2.75 2.75 0 0 0-2.025-.845 2.72 2.72 0 0 0-2.024.845 3.154 3.154 0 0 0 0 4.273ZM114.381 16.147V8.694h2.695a2.24 2.24 0 0 1 1.515.572 1.88 1.88 0 0 1 .646 1.453c.003.334-.092.663-.273.944a1.75 1.75 0 0 1-.733.608c.359.123.674.347.907.646.228.305.35.675.348 1.056a1.95 1.95 0 0 1-.671 1.515 2.27 2.27 0 0 1-1.59.609zm.956-4.26h1.739a1.08 1.08 0 0 0 .87-.36 1.12 1.12 0 0 0 .335-.783 1.16 1.16 0 0 0-.286-.808 1.05 1.05 0 0 0-.832-.348h-1.789zm0 3.34h1.938a1.15 1.15 0 0 0 .894-.385c.215-.229.334-.53.335-.844a1.248 1.248 0 0 0-1.279-1.217h-1.888z"/></g><defs><linearGradient id="b" x1="27.076" x2="6.234" y1="10.818" y2="31.66" gradientUnits="userSpaceOnUse"><stop stop-color="#00a0ff"/><stop offset=".01" stop-color="#00a1ff"/><stop offset=".26" stop-color="#00beff"/><stop offset=".51" stop-color="#00d2ff"/><stop offset=".76" stop-color="#00dfff"/><stop offset="1" stop-color="#00e3ff"/></linearGradient><linearGradient id="c" x1="42.019" x2="11.974" y1="24.841" y2="24.841" gradientUnits="userSpaceOnUse"><stop stop-color="#ffe000"/><stop offset=".41" stop-color="#ffbd00"/><stop offset=".78" stop-color="orange"/><stop offset="1" stop-color="#ff9c00"/></linearGradient><linearGradient id="d" x1="30.84" x2="2.571" y1="27.698" y2="55.954" gradientUnits="userSpaceOnUse"><stop stop-color="#ff3a44"/><stop offset="1" stop-color="#c31162"/></linearGradient><linearGradient id="e" x1="9.067" x2="21.686" y1=".224" y2="12.843" gradientUnits="userSpaceOnUse"><stop stop-color="#32a071"/><stop offset=".07" stop-color="#2da771"/><stop offset=".48" stop-color="#15cf74"/><stop offset=".8" stop-color="#06e775"/><stop offset="1" stop-color="#00f076"/></linearGradient><clipPath id="a"><path fill="#fff" d="M0 0h167.676v49.682H0z"/></clipPath></defs></svg>