<svg xmlns="http://www.w3.org/2000/svg" fill="none" viewBox="0 0 167 50"><path fill="#000" d="M154.653 0H9.252C8.42.033 7.588.066 6.789.232a8 8 0 0 0-2.33.762 7.7 7.7 0 0 0-1.996 1.459A8.5 8.5 0 0 0 .998 4.44a7.6 7.6 0 0 0-.765 2.32C.1 7.59.033 8.385 0 9.214V39.34c0 .365 0 .762.033 1.127.034.828.067 1.657.233 2.452.133.83.4 1.591.766 2.32.366.73.865 1.393 1.464 1.99.6.596 1.265 1.06 1.997 1.458.765.397 1.53.63 2.33.762.831.132 1.663.199 2.462.232H157.15c.832-.033 1.664-.067 2.463-.232.832-.133 1.597-.398 2.362-.763a7.7 7.7 0 0 0 1.997-1.458c.599-.563 1.065-1.26 1.465-1.988.366-.73.632-1.525.765-2.32.166-.829.2-1.624.233-2.453V9.247c-.033-.829-.067-1.657-.233-2.453a8 8 0 0 0-.765-2.32 7.7 7.7 0 0 0-1.465-1.988c-.566-.597-1.264-1.06-1.997-1.459-.765-.364-1.53-.63-2.362-.762a20 20 0 0 0-2.463-.232h-1.132C155.551 0 155.119 0 154.653 0"/><path fill="#fff" d="M10.416 48.655H9.318c-.699-.034-1.498-.067-2.296-.2a7.3 7.3 0 0 1-2.03-.662c-.633-.332-1.232-.73-1.731-1.26a6.6 6.6 0 0 1-1.265-1.723c-.333-.63-.532-1.293-.665-2.022-.167-.828-.2-1.657-.2-2.287 0-.265-.033-1.126-.033-1.126v-29s0-.863.033-1.095c0-.63.067-1.491.2-2.286a7.8 7.8 0 0 1 .665-2.055c.333-.63.732-1.227 1.265-1.724a7.2 7.2 0 0 1 1.73-1.26c.633-.33 1.298-.53 2.03-.662a15.4 15.4 0 0 1 2.297-.199h147.83c.632 0 1.464.066 2.297.199a8.8 8.8 0 0 1 2.063.663 7 7 0 0 1 1.73 1.26c.5.496.932 1.06 1.265 1.723.333.63.533 1.292.666 2.021.133.763.199 1.558.199 2.32v31.188c-.033.73-.066 1.525-.199 2.287s-.333 1.425-.666 2.055-.765 1.226-1.265 1.69a7.2 7.2 0 0 1-1.73 1.26c-.632.331-1.298.53-2.063.663-.799.132-1.598.165-2.297.198h-2.429z"/><path fill="#000" d="M61.769 33.575h-5.857l-1.431 3.878h-2.563l5.724-14.55h2.43l5.857 14.55h-2.696zm-5.125-1.988h4.36l-1.565-4.176c-.2-.564-.432-1.227-.632-1.923l-.6 1.89zM66.961 29.267c0-.796-.033-1.69-.067-2.652h2.33c.1.464.133.895.166 1.359.966-1.06 2.064-1.59 3.329-1.59.732 0 1.397.165 2.03.53.632.364 1.131.927 1.497 1.723.366.795.566 1.79.566 2.983 0 1.26-.233 2.353-.666 3.248-.432.895-1.031 1.59-1.83 2.021q-1.148.697-2.696.697a7.3 7.3 0 0 1-2.196-.365v4.54l-2.496.2V29.266zm6.556 5.534c.5-.662.766-1.657.766-2.982 0-1.227-.2-2.088-.633-2.619-.432-.53-.965-.828-1.664-.828-.499 0-.931.1-1.33.331-.4.232-.8.53-1.166.928v5.8c.233.133.533.232.866.299s.665.099.965.099c.932 0 1.664-.331 2.196-1.028M78.309 29.267c0-.796-.034-1.69-.067-2.652h2.33c.1.464.133.895.166 1.359.965-1.06 2.064-1.59 3.328-1.59.732 0 1.398.165 2.03.53.633.364 1.132.927 1.498 1.723.366.795.566 1.79.566 2.983 0 1.26-.233 2.353-.666 3.248s-1.032 1.59-1.83 2.021q-1.149.697-2.696.697a7.3 7.3 0 0 1-2.197-.365v4.54l-2.496.2V29.266zm6.556 5.534c.5-.662.765-1.657.765-2.982 0-1.227-.2-2.088-.632-2.619-.433-.53-.965-.828-1.664-.828-.5 0-.932.1-1.331.331-.4.232-.799.53-1.165.928v5.8c.233.133.533.232.865.299.333.066.666.099.965.099.932 0 1.698-.331 2.197-1.028M92.719 36.757c-1.065-.597-1.897-1.425-2.463-2.552-.566-1.094-.865-2.42-.865-3.911 0-1.624.332-3.016.998-4.143s1.564-1.988 2.729-2.552c1.132-.563 2.43-.862 3.86-.862.833 0 1.631.1 2.397.266.765.198 1.464.43 2.13.762l-.633 1.922c-1.331-.63-2.596-.928-3.794-.928-.998 0-1.897.232-2.662.663a4.23 4.23 0 0 0-1.764 1.89c-.433.828-.632 1.855-.632 3.015 0 1.027.166 1.956.499 2.751A4.35 4.35 0 0 0 94.049 35c.7.464 1.598.696 2.663.696.5 0 .965-.033 1.465-.132.499-.1.931-.2 1.364-.365v-2.95H96.18v-1.922h5.79v6.132c-.832.397-1.697.696-2.629.894-.931.2-1.83.299-2.729.299-1.53 0-2.795-.299-3.893-.895M110.724 37.453c-.1-.431-.134-.895-.167-1.426-.399.464-.865.829-1.497 1.16-.599.332-1.298.464-2.097.464a4 4 0 0 1-1.697-.364 2.8 2.8 0 0 1-1.232-1.094c-.299-.497-.466-1.094-.466-1.79 0-1.06.366-1.889 1.132-2.518.765-.63 2.03-.929 3.794-.929.665 0 1.331.034 1.963.133v-.199c0-.961-.199-1.624-.599-2.022s-.998-.596-1.764-.596a6.3 6.3 0 0 0-1.697.232c-.599.166-1.131.331-1.597.563l-.4-1.79c.433-.198 1.032-.397 1.764-.563a10.4 10.4 0 0 1 2.297-.265c.931 0 1.73.132 2.396.43.665.3 1.165.763 1.531 1.46.366.695.565 1.623.565 2.783v4.309c0 .464.034 1.127.067 2.022zm-1.465-2.022a3.7 3.7 0 0 0 1.265-.928V32.48c-.666-.066-1.231-.1-1.664-.1-1.032 0-1.731.166-2.13.498s-.599.762-.599 1.326c0 .53.133.928.433 1.193.299.265.665.397 1.164.397.5.033.999-.1 1.531-.364M114.918 34.867V22.074l2.463-.199v12.562c0 .464.066.795.233.994.166.199.399.298.765.298.167 0 .366-.033.666-.1l.299 1.79c-.233.1-.532.166-.865.233-.333.066-.666.099-.965.099-1.731-.1-2.596-1.028-2.596-2.884M121.107 34.867V22.074l2.463-.199v12.562c0 .464.067.795.233.994s.399.298.766.298c.166 0 .366-.033.665-.1l.3 1.79c-.233.1-.533.166-.866.233a5 5 0 0 1-.965.099c-1.73-.1-2.596-1.028-2.596-2.884M135.718 32.349h-7.122c.1 2.254 1.198 3.414 3.261 3.414.499 0 1.032-.067 1.564-.2a12 12 0 0 0 1.531-.496l.533 1.69q-1.848.894-4.094.895c-1.165 0-2.13-.232-2.928-.663a4.13 4.13 0 0 1-1.798-1.89c-.399-.828-.599-1.789-.599-2.949 0-1.193.2-2.22.633-3.082.432-.862.998-1.525 1.764-1.989.765-.464 1.63-.696 2.629-.696 1.031 0 1.897.232 2.562.73.699.463 1.198 1.126 1.531 1.922.333.795.499 1.69.499 2.651v.663zm-2.43-1.558c-.033-.862-.266-1.524-.665-1.955-.4-.431-.899-.663-1.565-.663-.632 0-1.164.232-1.564.663-.432.43-.699 1.093-.832 1.922h4.626zM137.58 29.332c0-.596-.033-1.491-.066-2.717h2.329q.05.447.1 1.093c.033.431.067.763.067 1.028.299-.464.565-.862.865-1.193.266-.332.599-.597.965-.796a2.64 2.64 0 0 1 1.265-.298c.399 0 .699.033.998.132l-.299 2.155q-.35-.1-.799-.1c-.599 0-1.098.133-1.531.431-.433.299-.899.796-1.398 1.459v6.96h-2.462v-8.154zM145.502 41.894c-.366-.066-.666-.133-.898-.232l.465-1.79c.167.033.367.1.633.133s.499.066.732.066c1.098 0 1.93-.696 2.463-2.121l.166-.398-3.994-10.904h2.663l2.03 6.098c.333 1.028.532 1.856.632 2.387.2-.796.4-1.558.666-2.354l2.03-6.164h2.496l-3.994 10.97c-.366 1.028-.798 1.89-1.231 2.52a4.8 4.8 0 0 1-1.531 1.424c-.599.298-1.298.464-2.163.464-.399 0-.799-.033-1.165-.1M53.115 16.208c-.566-.298-.965-.762-1.264-1.326-.3-.563-.433-1.226-.433-1.988 0-.796.166-1.492.466-2.088s.765-1.06 1.331-1.36c.6-.33 1.265-.496 2.063-.496.766 0 1.398.165 1.964.464.533.298.965.762 1.265 1.325.3.564.432 1.227.432 1.956 0 .795-.166 1.491-.466 2.088s-.765 1.06-1.33 1.359c-.567.331-1.266.497-2.03.497a3.86 3.86 0 0 1-1.998-.43m3.395-.928c.366-.232.632-.563.832-.994.166-.431.266-.928.266-1.458s-.066-1.028-.233-1.426c-.166-.43-.4-.762-.765-.994-.366-.265-.8-.365-1.365-.365-.532 0-.965.133-1.331.365a2.54 2.54 0 0 0-.832 1.027c-.2.431-.266.895-.266 1.426s.1 1.027.266 1.458c.166.43.433.762.799 1.027s.798.365 1.33.365c.467-.066.933-.166 1.299-.43M61.568 10.143h-2.33l.1-1.094h5.89l-.132 1.094h-2.23v6.43h-1.298zM72.219 16.573h-1.465l-2.23-3.315h-.898v3.315h-1.298v-7.49h1.298v3.082h.666l1.564-2.254c.233-.332.466-.564.699-.73.233-.165.532-.231.865-.231.3 0 .566.033.765.132l-.266.995a.9.9 0 0 0-.4-.1q-.25 0-.398.1c-.1.066-.233.198-.333.364l-1.365 1.956zM73.217 9.082h2.03q1.448 0 2.196.596c.5.398.766.961.766 1.69 0 .498-.1.929-.333 1.293a2.22 2.22 0 0 1-.965.862q-.6.298-1.398.298-.45 0-.998-.1v2.851h-1.298zm3.261 3.347c.267-.265.4-.596.4-1.06s-.133-.796-.433-.995c-.266-.199-.699-.298-1.231-.298h-.7v2.651c.334.067.567.067.733.067.532 0 .965-.133 1.231-.365M80.705 16.208c-.566-.298-.965-.762-1.264-1.326-.3-.563-.433-1.226-.433-1.988 0-.796.166-1.492.466-2.088a3.1 3.1 0 0 1 1.33-1.36c.6-.33 1.266-.496 2.064-.496.766 0 1.398.165 1.964.464.532.298.965.762 1.265 1.325.299.564.432 1.227.432 1.956 0 .795-.166 1.491-.466 2.088s-.765 1.06-1.331 1.359c-.566.331-1.265.497-2.03.497-.799.033-1.464-.133-1.997-.43m3.361-.928c.367-.232.633-.563.832-.994.167-.431.267-.928.267-1.458s-.067-1.028-.233-1.426c-.167-.43-.4-.762-.766-.994-.366-.265-.798-.365-1.364-.365-.533 0-.965.133-1.332.365a2.54 2.54 0 0 0-.832 1.027c-.2.431-.266.895-.266 1.426s.1 1.027.266 1.458c.167.43.433.762.8 1.027.365.265.798.365 1.33.365.5-.066.932-.166 1.298-.43M93.117 16.573v-4.11c0-.53.034-1.127.067-1.79l-3.794 5.9h-1.431v-7.49h1.198v4.275c0 .464 0 .96-.033 1.524l3.727-5.8h1.498v7.49zM90.19 8.419a1.5 1.5 0 0 1-.633-.563 1.9 1.9 0 0 1-.266-.73h.932c.1.564.433.83.965.83.533 0 .865-.266.999-.83h.931a1.9 1.9 0 0 1-.266.73c-.133.232-.366.398-.632.563-.266.166-.632.232-1.032.232-.366 0-.732-.1-.998-.232M97.777 10.143h-2.33l.1-1.094h5.857l-.133 1.094h-2.23v6.43h-1.297v-6.43zM102.504 9.082h4.426l-.133 1.06h-2.995v2.055h2.829v.995h-2.829v2.286h3.161l-.099 1.061h-4.36zM116.047 12.86c.266.166.466.365.632.663.167.265.233.597.233.928q0 .645-.299 1.094c-.2.331-.533.563-.932.729a3.9 3.9 0 0 1-1.464.265h-2.463V9.082h2.363c.799 0 1.398.165 1.797.464.399.298.599.729.599 1.26 0 .43-.133.828-.366 1.126-.266.298-.599.497-.999.63q.5.05.899.298m-2.995-.729h.799c.266 0 .499-.066.698-.166.2-.1.367-.265.466-.43.1-.166.167-.365.167-.597 0-.299-.1-.53-.333-.696s-.533-.232-.965-.232h-.865v2.121zm2.163 3.149c.266-.232.399-.53.399-.928 0-.431-.133-.73-.432-.962-.3-.232-.699-.331-1.265-.331h-.865v2.519h.965q.799.05 1.198-.298"/><path fill="#c8102e" fill-rule="evenodd" d="M33.613 9.114H19.802c-6.523 0-8.886 2.386-8.886 8.85v13.754c0 6.496 2.396 8.849 8.886 8.849h13.811c6.523 0 8.886-2.386 8.886-8.85V17.964c.033-6.463-2.363-8.849-8.886-8.849" clip-rule="evenodd"/><path fill="#fff" d="M17.172 24.858h.832v4.11h-.832V27.31h-1.897v1.657h-.832v-4.11h.832v1.658h1.897zm4.726 2.353c0 .663-.333 1.027-.932 1.027s-.932-.364-.932-1.06v-2.32h-.832v2.353c0 1.16.633 1.823 1.764 1.823s1.797-.663 1.797-1.856v-2.32h-.832v2.353zm9.685.464-.932-2.817h-.7l-.93 2.817-.9-2.817h-.898l1.431 4.11h.699l.932-2.718.931 2.717h.7l1.43-4.11h-.865zm3.294-.464h1.531v-.762h-1.53v-.829h2.23v-.762h-3.03v4.11h3.129v-.763h-2.296v-.994zm3.295 1.756h.832v-4.11h-.832zm-13.778-.861-.366.861h-.865l1.797-4.11h.732l1.797 4.11h-.865l-.333-.861zm.3-.73h1.264l-.632-1.458zM26.723 19.62c-2.895 0-5.258-2.353-5.258-5.236h.732c0 2.486 2.03 4.508 4.526 4.508s4.526-2.022 4.526-4.508h.732c0 2.883-2.363 5.237-5.258 5.237"/></svg>