<svg xmlns="http://www.w3.org/2000/svg" fill="none" viewBox="0 0 90 90"><path fill="#0092d0" d="M72.8 25.35c.5 0 .9.4.9.9s-.4.9-.9.9-.9-.4-.9-.9.4-.9.9-.9M61.6 16.55c.5 0 .9.4.9.9s-.4.9-.9.9-.9-.4-.9-.9.4-.9.9-.9M46.6 15.95c.5 0 .9.4.9.9s-.4.9-.9.9-.9-.4-.9-.9.4-.9.9-.9M29.699 16.25c.5 0 .9.4.9.9s-.4.9-.9.9-.9-.4-.9-.9.4-.9.9-.9M16.6 27.15c.5 0 .9.4.9.9s-.4.9-.9.9-.9-.4-.9-.9.4-.9.9-.9M70.1 65.25c1.1-.9 1.8-2.4 1.8-3.9v-28.4c0-2.8-2.3-5.2-5.2-5.2h-6.9l-1.4-3.3c.9-.4 1.6-1.3 1.6-2.3 0-1.4-1.1-2.5-2.5-2.5H33.1c-1.4 0-2.5 1.1-2.5 2.5 0 1.1.7 2 1.6 2.3l-1.4 3.3h-7.5c-2.8 0-5.2 2.3-5.2 5.2v28.4c0 1.6.7 3 1.8 3.9-2.4 0-4.3 2-4.3 4.4s2 4.4 4.4 4.4h50c2.4 0 4.4-2 4.4-4.4s-1.9-4.3-4.3-4.4m-8.2-31.3v-.6h4.4v27.8H23.8v-27.8h5v.6c0 1.9 1.4 3.4 3.1 3.7v15.7h-1.3c-.3 0-.6.3-.6.6s.3.6.6.6H60c.3 0 .6-.3.6-.6s-.3-.6-.6-.6h-1.3v-15.7c1.8-.3 3.2-1.8 3.2-3.7m-16.3 19.4v-1.9h11.9v1.9zm-7.5 0v-6.9c0-1.7 1.4-3.1 3.1-3.1s3.1 1.4 3.1 3.1v6.9zm-5 0v-1.9h3.8v1.9zm16.9-6.2v-1.9h3.1v1.9zm4.4-1.9h3.1v1.9h-3.1zm3.1-1.2h-8.1c-.3 0-.6.3-.6.6v3.1c0 .3.3.6.6.6h8.1v1.9H45.6v-3.8c0-2.4-2-4.4-4.4-4.4s-4.4 2-4.4 4.4v3.8H33v-12.5c1.1-.2 2-.8 2.6-1.7.7 1 1.9 1.7 3.2 1.7s2.5-.7 3.2-1.7c.7 1 1.9 1.7 3.2 1.7s2.5-.7 3.2-1.7c.7 1 1.9 1.7 3.2 1.7s2.5-.7 3.2-1.7c.6.9 1.5 1.5 2.6 1.7v6.3zm3.1-10.1c0 1.4-1.1 2.5-2.5 2.6-1.4 0-2.6-1.1-2.6-2.6 0-.3-.3-.6-.6-.6s-.6.3-.6.6c0 1.4-1.1 2.6-2.6 2.6s-2.6-1.1-2.6-2.6c0-.3-.3-.6-.6-.6s-.6.3-.6.6c0 1.4-1.1 2.6-2.6 2.6-1.4 0-2.6-1.1-2.6-2.6 0-.3-.3-.6-.6-.6s-.6.3-.6.6c0 1.4-1.1 2.6-2.6 2.6s-2.6-1.1-2.6-2.6c0-.3-.3-.6-.6-.6s-.6.3-.6.6c0 1.4-1.2 2.6-2.6 2.6s-2.5-1.2-2.5-2.6v-1.1c.4-1 3.2-7.4 3.5-8.3h23.6c.4.9 3.1 7.3 3.5 8.3zm-28.7-11.8c0-.7.6-1.3 1.3-1.3h24.3c.7 0 1.3.6 1.3 1.3s-.6 1.3-1.3 1.3H33.1c-.7-.1-1.2-.6-1.2-1.3m-12.5 39.2v-28.4c0-2.2 1.8-3.9 3.9-3.9h7l-1.3 3.1h-5.8c-.3 0-.6.3-.6.6v29.1c0 .3.3.6.6.6H67c.3 0 .6-.3.6-.6v-29.1c0-.3-.3-.6-.6-.6h-5.2l-1.3-3.1h6.4c2.2 0 3.9 1.8 3.9 3.9v28.4c0 2.2-1.8 3.9-3.9 3.9H51.4c-.3 0-.6.3-.6.6v1.9H39.4v-1.9c0-.3-.3-.6-.6-.6H23.3c-2.2 0-3.9-1.7-3.9-3.9m40.6 5.2h5.6v1.3H60zm-35.6 0H30v1.3h-5.6zm45.6 6.2H20c-1.7 0-3.1-1.4-3.1-3.1s1.4-3.1 3.1-3.1h3.1v1.9c0 .3.3.6.6.6h6.9c.3 0 .6-.3.6-.6v-1.9h6.9v1.9c0 .3.3.6.6.6h12.5c.3 0 .6-.3.6-.6v-1.9h6.9v1.9c0 .3.3.6.6.6h6.9c.3 0 .6-.3.6-.6v-1.9h3.1c1.7 0 3.1 1.4 3.1 3.1.1 1.7-1.3 3.1-3 3.1M68.1 24.65c1.7 0 3.1-1.4 3.1-3.1s-1.4-3.1-3.1-3.1-3.1 1.4-3.1 3.1 1.4 3.1 3.1 3.1m0-5c1 0 1.9.8 1.9 1.9s-.8 1.9-1.9 1.9-1.9-.8-1.9-1.9.9-1.9 1.9-1.9M21.3 25.85c2.4 0 4.4-2 4.4-4.4s-2-4.4-4.4-4.4-4.4 2-4.4 4.4 1.9 4.4 4.4 4.4m0-7.5c1.7 0 3.1 1.4 3.1 3.1s-1.4 3.1-3.1 3.1-3.1-1.4-3.1-3.1 1.3-3.1 3.1-3.1"/></svg>