<svg xmlns="http://www.w3.org/2000/svg" fill="none" viewBox="0 0 90 90"><path fill="#0092d0" stroke="#fff" stroke-width=".8" d="M64.926 65.35c2.33-2.3 2.12-6.6-.41-12.1 5.77-2.1 9-5 9-8.2s-3.14-6.2-9-8.2c2.63-5.5 2.73-9.8.41-12.1-2.33-2.3-6.68-2.1-12.24.4-2.12-5.7-5.06-8.9-8.3-8.9s-6.27 3.1-8.29 8.9c-5.56-2.6-9.91-2.7-12.24-.4s-2.12 6.6.4 12.1c-5.77 2.1-9 5-9 8.2s3.14 6.2 9 8.2c-2.63 5.5-2.73 9.8-.4 12.1 1.11 1.1 2.63 1.6 4.55 1.6 2.12 0 4.75-.7 7.69-2 2.12 5.7 5.06 8.9 8.29 8.9s6.27-3.1 8.3-8.9c2.93 1.4 5.56 2 7.69 2 1.92 0 3.44-.5 4.55-1.6Zm5.97-20.3c0 2.1-2.83 4.3-7.59 6-1.11-2-2.43-4-3.95-6 1.52-2 2.83-4 3.95-6 4.86 1.7 7.59 3.9 7.59 6Zm-22.86 8.7c-2.33.1-4.86.1-7.28 0-1.72-1.6-3.54-3.3-5.16-5.1q-.15-3.45 0-7.2 2.28-2.55 5.16-5.1c2.43-.1 4.86-.1 7.28 0q2.73 2.4 5.16 5.1c.1 2.3.1 4.8 0 7.2q-2.43 2.55-5.16 5.1Zm7.69-9.3c.2.2.3.4.51.6-.2.2-.3.4-.51.6zm-.1-4-.3-3.3c2.02.3 3.84.7 5.56 1.2-.91 1.5-1.92 3.1-3.03 4.7-.71-.9-1.52-1.8-2.23-2.6Zm-2.84-2.9c-.3-.3-.51-.5-.81-.8.2 0 .51.1.71.1.1.2.1.4.1.7Zm-3.74-3.6c-.81-.7-1.72-1.5-2.53-2.2 1.62-1.2 3.24-2.2 4.75-3 .51 1.7.91 3.5 1.21 5.5-1.21-.2-2.33-.2-3.44-.3zm-4.05-.1h-1.21c.2-.2.4-.3.61-.5.2.1.4.3.61.5zm-5.26.1-3.34.3c.3-2 .71-3.8 1.21-5.5 1.52.8 3.14 1.9 4.75 3-.91.7-1.82 1.4-2.63 2.2zm-3.03 2.7c-.3.3-.51.5-.81.8 0-.2.1-.5.1-.7.2 0 .51 0 .71-.1Zm-3.54 3.8c-.71.8-1.52 1.7-2.23 2.5-1.21-1.6-2.23-3.2-3.03-4.7 1.72-.5 3.54-.9 5.56-1.2-.2 1.2-.3 2.3-.3 3.4Zm-.2 4v1.2c-.2-.2-.3-.4-.51-.6.2-.2.4-.4.51-.6Zm.2 5.2.3 3.3c-2.02-.3-3.84-.7-5.56-1.2.81-1.5 1.92-3.1 3.03-4.7.71.9 1.42 1.8 2.23 2.6Zm2.73 2.9c.3.3.51.5.81.8-.2 0-.51-.1-.71-.1 0-.2-.1-.4-.1-.7Zm3.84 3.6c.81.8 1.72 1.5 2.53 2.2-1.62 1.2-3.24 2.2-4.75 3-.51-1.7-.91-3.5-1.21-5.5 1.11.2 2.23.2 3.44.3zm4.05.1h1.21c-.2.2-.4.3-.61.5-.2-.1-.4-.3-.61-.5zm5.26-.1 3.34-.3c-.3 2-.71 3.8-1.21 5.5-1.52-.9-3.14-1.9-4.75-3 .91-.7 1.72-1.4 2.63-2.2zm2.93-2.7c.3-.3.51-.5.81-.8 0 .2-.1.5-.1.7-.2 0-.41 0-.71.1Zm3.65-3.8c.81-.8 1.52-1.7 2.23-2.5 1.21 1.6 2.22 3.2 3.03 4.7-1.72.5-3.54.9-5.56 1.2.1-1.2.2-2.3.3-3.4Zm7.48-23.2c1.42 1.4 1.11 4.9-.91 9.3 0 .1-.1.2-.1.3-2.12-.6-4.55-1.1-7.08-1.5-.4-2.5-.91-4.8-1.52-7 2.73-1.3 5.16-2 6.88-2 1.21.1 2.12.3 2.73.9Zm-18.71-7.7c2.12 0 4.35 2.8 6.07 7.5-2.02 1.1-4.05 2.4-6.07 3.9-2.02-1.5-4.05-2.8-6.07-3.9 1.72-4.7 3.94-7.5 6.07-7.5Zm-18.82 7.7q.915-.9 2.73-.9c1.82 0 4.15.7 6.88 2-.61 2.1-1.11 4.5-1.52 7-2.53.4-4.86.9-7.08 1.5-2.12-4.6-2.53-8.1-1.01-9.6Zm-7.79 18.6c0-2.1 2.83-4.3 7.59-6 1.11 2 2.43 4 3.95 6-1.52 2-2.83 4-3.95 6-4.75-1.7-7.59-3.9-7.59-6Zm7.79 18.6c-1.52-1.5-1.11-5 1.11-9.5 2.12.6 4.55 1.1 7.08 1.5.4 2.5.91 4.8 1.52 7-.1 0-.2.1-.3.1-4.45 2-7.89 2.3-9.41.9Zm18.82 7.7c-2.12 0-4.35-2.8-6.07-7.5 2.02-1.1 4.05-2.4 6.07-3.9 2.02 1.5 4.05 2.8 6.07 3.9-1.72 4.7-3.95 7.5-6.07 7.5Zm9.1-8.8c.61-2.1 1.11-4.5 1.52-7 2.53-.4 4.86-.9 7.08-1.5 0 .1.1.2.1.3 2.02 4.4 2.43 7.8.91 9.3-1.42 1.4-4.96 1.1-9.41-.9 0-.1-.1-.2-.2-.2ZM20.317 65.05c-2.12 0-3.84 1.7-3.84 3.8s1.72 3.8 3.84 3.8 3.84-1.7 3.84-3.8-1.72-3.8-3.84-3.8Zm0 5c-.71 0-1.31-.6-1.31-1.3s.61-1.3 1.31-1.3 1.31.6 1.31 1.3-.61 1.3-1.31 1.3ZM67.156 22.55c2.12 0 3.84-1.7 3.84-3.8s-1.72-3.8-3.84-3.8-3.84 1.7-3.84 3.8 1.72 3.8 3.84 3.8Zm0-5c.71 0 1.31.6 1.31 1.3s-.61 1.3-1.31 1.3-1.32-.6-1.32-1.3.61-1.3 1.32-1.3ZM69.685 65.05c-2.83 0-5.06 2.2-5.06 5s2.23 5 5.06 5 5.06-2.2 5.06-5-2.33-5-5.06-5Zm0 7.5c-1.42 0-2.53-1.1-2.53-2.5s1.11-2.5 2.53-2.5 2.53 1.1 2.53 2.5-1.11 2.5-2.53 2.5Z"/><path fill="#0092d0" stroke="#fff" stroke-width=".8" d="M68.365 31.25a1.3 1.3 0 1 1 0 2.6c-.72 0-1.32-.58-1.32-1.3s.59-1.3 1.32-1.3ZM69.685 56.25c.73 0 1.32.58 1.32 1.3s-.59 1.3-1.32 1.3a1.3 1.3 0 1 1 0-2.6ZM32.966 67.55c.73 0 1.32.58 1.32 1.3s-.59 1.3-1.32 1.3a1.3 1.3 0 1 1 0-2.6ZM17.787 53.75a1.3 1.3 0 1 1 0 2.6c-.72 0-1.32-.58-1.32-1.3s.59-1.3 1.32-1.3ZM17.787 22.45a1.3 1.3 0 1 1 0 2.6c-.72 0-1.32-.58-1.32-1.3s.59-1.3 1.32-1.3ZM30.435 18.75a1.3 1.3 0 1 1 0 2.6c-.72 0-1.31-.58-1.31-1.3s.59-1.3 1.31-1.3Z"/></svg>