<svg xmlns="http://www.w3.org/2000/svg" fill="none" viewBox="0 0 90 90"><path fill="#0092d0" d="M72.8 33.45c.5 0 .9.4.9.9s-.4.9-.9.9-.9-.4-.9-.9.4-.9.9-.9M70.9 54.05c.5 0 .9.4.9.9s-.4.9-.9.9-.9-.4-.9-.9.4-.9.9-.9M66.601 17.15c.5 0 .9.4.9.9s-.4.9-.9.9-.9-.4-.9-.9.4-.9.9-.9M60.3 69.65c.5 0 .9.4.9.9s-.4.9-.9.9-.9-.4-.9-.9.4-.9.9-.9M39.7 15.95c.5 0 .9.4.9.9s-.4.9-.9.9-.9-.4-.9-.9.4-.9.9-.9M19.101 57.75a.9.9 0 1 0 0-1.8.9.9 0 0 0 0 1.8M17.8 29.65c.5 0 .9.4.9.9s-.4.9-.9.9-.9-.4-.9-.9.4-.9.9-.9M56.9 20.85H26.3c-.3 0-.6.3-.6.6v3.8h-3.8c-.3 0-.6.3-.6.6v46.9c0 .3.3.6.6.6h30.6c.3 0 .6-.3.6-.6v-3.8h3.8c.3 0 .6-.3.6-.6v-46.8c0-.4-.3-.7-.6-.7m-5 51.3H22.5v-45.6h3.1v41.9c0 .3.3.6.6.6h25.6v3.1zm4.4-4.4H26.9v-45.6h29.4zM66.9 57.75v-28.8h1.3v9.4c0 .3.3.6.6.6s.6-.3.6-.6v-10c0-.3-.3-.6-.6-.6h-1.9v-2.5c0-.3-.3-.6-.6-.6h-.6v-1.3c0-1.4-1.1-2.5-2.5-2.5s-2.5 1.1-2.5 2.5v1.3h-.6c-.3 0-.6.3-.6.6v32.5c0 .1 0 .2.1.3l3.1 6.3q.15.3.6.3t.6-.3l3.1-6.3c-.1-.1-.1-.2-.1-.3m-6.3-13.1v-12.5h1.9v12.5zm3.2-12.5h1.9v12.5h-1.9zm-1.9-8.8c0-.7.6-1.3 1.3-1.3s1.3.6 1.3 1.3v1.3H62v-1.3zm3.7 2.5v5h-5v-5zm-2.5 36.8-2.5-5v-11.8h5v11.7zM68.101 65.25c-2.4 0-4.4 2-4.4 4.4s2 4.4 4.4 4.4 4.4-2 4.4-4.4-2-4.4-4.4-4.4m0 7.5c-1.7 0-3.1-1.4-3.1-3.1s1.4-3.1 3.1-3.1 3.1 1.4 3.1 3.1c.1 1.7-1.4 3.1-3.1 3.1M19.4 22.15c1.7 0 3.1-1.4 3.1-3.1s-1.4-3.1-3.1-3.1-3.1 1.4-3.1 3.1 1.4 3.1 3.1 3.1m0-5c1 0 1.9.8 1.9 1.9s-.8 1.9-1.9 1.9c-1 0-1.9-.8-1.9-1.9s.8-1.9 1.9-1.9"/><path fill="#0092d0" d="M30 30.85h11.3c.3 0 .6-.3.6-.6s-.3-.6-.6-.6H30c-.3 0-.6.3-.6.6 0 .4.3.6.6.6M30 34.05h23.1c.3 0 .6-.3.6-.6s-.3-.6-.6-.6H30c-.3 0-.6.3-.6.6s.3.6.6.6M30 37.15h23.1c.3 0 .6-.3.6-.6s-.3-.6-.6-.6H30c-.3 0-.6.3-.6.6s.3.6.6.6M30 40.25h23.1c.3 0 .6-.3.6-.6s-.3-.6-.6-.6H30c-.3 0-.6.3-.6.6s.3.6.6.6M30 43.35h23.1c.3 0 .6-.3.6-.6s-.3-.6-.6-.6H30c-.3 0-.6.3-.6.6 0 .4.3.6.6.6M30 46.55h23.1c.3 0 .6-.3.6-.6s-.3-.6-.6-.6H30c-.3 0-.6.3-.6.6s.3.6.6.6M30 49.65h23.1c.3 0 .6-.3.6-.6s-.3-.6-.6-.6H30c-.3 0-.6.3-.6.6s.3.6.6.6M30 52.75h23.1c.3 0 .6-.3.6-.6s-.3-.6-.6-.6H30c-.3 0-.6.3-.6.6s.3.6.6.6M30 55.85h23.1c.3 0 .6-.3.6-.6s-.3-.6-.6-.6H30c-.3 0-.6.3-.6.6s.3.6.6.6M30 59.05h23.1c.3 0 .6-.3.6-.6s-.3-.6-.6-.6H30c-.3 0-.6.3-.6.6s.3.6.6.6M30 62.15h23.1c.3 0 .6-.3.6-.6s-.3-.6-.6-.6H30c-.3 0-.6.3-.6.6s.3.6.6.6M30 65.25h23.1c.3 0 .6-.3.6-.6s-.3-.6-.6-.6H30c-.3 0-.6.3-.6.6s.3.6.6.6"/></svg>