<svg xmlns="http://www.w3.org/2000/svg" fill="none" viewBox="0 0 24 24"><path fill="#0092d0" d="M17.4 14.7c-.19-.078-.383-.145-.564-.242a3.5 3.5 0 0 1-.525-.346 3.3 3.3 0 0 1-.789-.92c-.164-.286-.274-.597-.44-.882a4 4 0 0 0-.558-.746 3.6 3.6 0 0 0-1.897-1.026c-.85-.173-1.782-.108-2.585.228a3.6 3.6 0 0 0-1.543 1.27 4.6 4.6 0 0 0-.427.773c-.163.37-.373.715-.654 1.009-.285.297-.62.539-.992.714-.188.09-.387.153-.576.24q-.27.121-.52.283a3.83 3.83 0 0 0-1.457 1.733c-.303.724-.364 1.532-.252 2.304.107.736.376 1.45.827 2.046a3.4 3.4 0 0 0 1.716 1.21c.764.23 1.607.195 2.357-.073.659-.235 1.234-.642 1.883-.9a3.6 3.6 0 0 1 1.305-.245h.01c.317.001.632.045.935.133.67.196 1.242.595 1.875.877.734.327 1.547.44 2.34.294a3.36 3.36 0 0 0 1.85-1.028 4.2 4.2 0 0 0 .99-1.94q.123-.557.123-1.126a4 4 0 0 0-.646-2.201 3.9 3.9 0 0 0-1.787-1.439m-6.998 5.497-.014-.012-.052-.045a6 6 0 0 1-.543-.543 7 7 0 0 1-.664-.885 6.4 6.4 0 0 1-.537-1.062 6 6 0 0 1-.19-.57 2.5 2.5 0 0 1-.103-.56 1.7 1.7 0 0 1 .278-.999 1.3 1.3 0 0 1 .44-.422q.06-.033.12-.06l.02-.009.011-.004.075-.024q.04-.012.079-.021l.035-.008.012-.002h.006a1.4 1.4 0 0 1 .233-.016h.009l.054.005a1.7 1.7 0 0 1 .289.053c.208.062.388.153.563.28.357.26.625.627.849 1q.085.145.166.292c.056.1.253.119.313.01.215-.39.45-.78.771-1.092.161-.156.327-.281.526-.38.1-.05.175-.08.286-.111.112-.032.174-.044.286-.053.112-.008.172-.007.287.011.094.015.174.038.271.08.004.002.04.02.039.018a1.3 1.3 0 0 1 .351.266c.24.256.387.599.425.949.04.38-.068.752-.19 1.117a6 6 0 0 1-.485 1.076q-.285.499-.65.942c-.213.26-.444.502-.708.733a5 5 0 0 1-.45.35l-.02.014a3 3 0 0 1-.221.134 3 3 0 0 1-.247.123l-.04.017-.004.002-.01.003a2 2 0 0 1-.218.065l-.026.005-.011.002a1 1 0 0 1-.104.009h-.023l-.021-.002a1 1 0 0 1-.141-.022l-.039-.01a2 2 0 0 1-.309-.12h-.001l-.014-.008a2 2 0 0 1-.128-.069 4.414 4.414 0 0 1-.631-.447m9.09-1.835c-.002.726-.155 1.463-.493 2.109-.314.6-.782 1.118-1.385 1.433-.644.337-1.395.413-2.113.272-.674-.132-1.245-.495-1.85-.799a4.8 4.8 0 0 0-.983-.384 4 4 0 0 0-.263-.056c.262-.127.506-.295.733-.476a6.6 6.6 0 0 0 1.473-1.692q.335-.542.56-1.139.11-.297.188-.607c.05-.2.088-.402.084-.61-.017-.808-.58-1.605-1.416-1.702-.49-.057-.98.11-1.376.392-.39.278-.686.676-.93 1.083l-.018.03a4 4 0 0 0-.676-.889c-.348-.33-.79-.573-1.274-.619a1.56 1.56 0 0 0-1.22.4 1.85 1.85 0 0 0-.544 1.018 1.8 1.8 0 0 0-.014.586c.03.213.091.427.155.633a6.738 6.738 0 0 0 1.931 2.953c.238.209.491.402.768.557q.079.044.16.084a4 4 0 0 0-.685.194 8 8 0 0 0-.928.445c-.29.156-.593.32-.895.433q-.526.2-1.087.228a3.1 3.1 0 0 1-1.973-.568c-.557-.402-.959-.987-1.205-1.624a4.6 4.6 0 0 1-.28-2.194c.092-.73.385-1.426.874-1.98.24-.272.526-.506.837-.69q.25-.147.515-.258c.191-.079.384-.147.568-.242a3.62 3.62 0 0 0 1.656-1.784c.226-.525.559-1.027 1-1.406.546-.47 1.236-.718 1.954-.773.775-.06 1.582.066 2.254.474.524.32.938.788 1.23 1.322.16.296.273.613.454.898q.337.53.832.917c.332.26.7.429 1.09.584.353.14.684.334.98.573a3.55 3.55 0 0 1 1.166 1.784c.101.354.145.723.146 1.09"/><path fill="#0092d0" d="m10.402 20.197-.014-.012-.052-.045a6 6 0 0 1-.543-.543 7 7 0 0 1-.664-.885 6.4 6.4 0 0 1-.537-1.062 6 6 0 0 1-.19-.57 2.5 2.5 0 0 1-.103-.56 1.7 1.7 0 0 1 .278-.999 1.3 1.3 0 0 1 .44-.422q.06-.033.12-.06l.02-.009.011-.004.075-.024q.04-.012.079-.021l.035-.008.012-.002h.006a1.4 1.4 0 0 1 .233-.016h.009l.054.005a1.7 1.7 0 0 1 .289.053c.208.062.388.153.563.28.357.26.625.627.849 1q.085.145.166.292c.056.1.253.119.313.01.215-.39.45-.78.771-1.092.161-.156.327-.281.526-.38.1-.05.175-.08.286-.111.112-.032.174-.044.286-.053.112-.008.172-.007.287.011.094.015.174.038.271.08.004.002.04.02.039.018a1.3 1.3 0 0 1 .351.266c.24.256.387.599.425.949.04.38-.068.752-.19 1.117a6 6 0 0 1-.485 1.076q-.285.499-.65.942c-.213.26-.444.502-.708.733a5 5 0 0 1-.45.35l-.02.014a3 3 0 0 1-.221.134 3 3 0 0 1-.247.123l-.04.017-.004.002-.01.003a2 2 0 0 1-.218.065l-.026.005-.011.002a1 1 0 0 1-.104.009h-.023l-.021-.002a1 1 0 0 1-.135-.021l-.006-.001-.039-.01a2 2 0 0 1-.309-.12h-.001l-.014-.008a2 2 0 0 1-.128-.069 4.414 4.414 0 0 1-.617-.435z"/><path stroke="#0092d0" stroke-width="1.05" d="m10.402 20.197-.014-.012m.014.012.013.012m-.013-.012-.014-.012m.014.012.013.012m-.027-.024-.052-.045a6 6 0 0 1-.543-.543 7 7 0 0 1-.664-.885 6.4 6.4 0 0 1-.537-1.062 6 6 0 0 1-.19-.57 2.5 2.5 0 0 1-.103-.56 1.7 1.7 0 0 1 .278-.999 1.3 1.3 0 0 1 .44-.422q.06-.033.12-.06m0 0 .02-.009m-.02.009.02-.009m0 0 .011-.004.075-.024q.04-.012.079-.021l.035-.008m0 0 .012-.002m-.012.002.012-.002m0 0h.006a1.4 1.4 0 0 1 .233-.016h.002m0 0h.007m-.007 0h.007m0 0 .054.005a1.7 1.7 0 0 1 .289.053c.208.062.388.153.563.28.357.26.625.627.849 1q.085.145.166.292c.056.1.253.119.313.01.215-.39.45-.78.771-1.092.161-.156.327-.281.526-.38.1-.05.175-.08.286-.111.112-.032.174-.044.286-.053.112-.008.172-.007.287.011.094.015.174.038.271.08.004.002.04.02.039.018a1.3 1.3 0 0 1 .351.266c.24.256.387.599.425.949.04.38-.068.752-.19 1.117a6 6 0 0 1-.485 1.076q-.285.499-.65.942c-.213.26-.444.502-.708.733a5 5 0 0 1-.45.35m0 0-.02.014m.02-.013-.02.013m0 0a3 3 0 0 1-.221.134 3 3 0 0 1-.247.123l-.04.017-.004.002m0 0-.01.003m.01-.003-.01.003m0 0a2 2 0 0 1-.218.065l-.026.005-.011.002a1 1 0 0 1-.104.009m0 0h-.023m.023 0h-.023m0 0-.021-.002a1 1 0 0 1-.135-.021m0 0-.006-.001m.006.001-.006-.001m0 0-.039-.01a2 2 0 0 1-.309-.12h-.001m0 0-.014-.008m.014.007-.014-.007m0 0a2 2 0 0 1-.128-.069 4.414 4.414 0 0 1-.617-.435m6.983-5.509c-.19-.078-.382-.145-.563-.242a3.5 3.5 0 0 1-.525-.346 3.3 3.3 0 0 1-.789-.92c-.164-.286-.274-.597-.44-.882a4 4 0 0 0-.558-.746 3.6 3.6 0 0 0-1.897-1.026c-.85-.173-1.782-.108-2.585.228a3.6 3.6 0 0 0-1.543 1.27 4.6 4.6 0 0 0-.427.773c-.163.37-.373.715-.654 1.009-.285.297-.62.539-.992.714-.188.09-.387.153-.576.24q-.27.121-.52.283a3.83 3.83 0 0 0-1.457 1.733c-.303.724-.364 1.532-.252 2.304.107.736.376 1.45.827 2.046a3.4 3.4 0 0 0 1.716 1.21c.764.23 1.607.195 2.357-.073.659-.235 1.234-.642 1.883-.9a3.6 3.6 0 0 1 1.305-.245h.01c.317.001.632.045.935.133.67.196 1.242.595 1.875.877.734.327 1.547.44 2.34.294a3.36 3.36 0 0 0 1.85-1.028 4.2 4.2 0 0 0 .99-1.94q.123-.557.123-1.126a4 4 0 0 0-.646-2.201 3.9 3.9 0 0 0-1.787-1.439Zm2.093 3.662c-.002.726-.155 1.463-.493 2.109-.314.6-.782 1.118-1.385 1.433-.644.337-1.395.413-2.113.272-.674-.132-1.245-.495-1.85-.799a4.8 4.8 0 0 0-.983-.384 4 4 0 0 0-.263-.056c.262-.127.506-.295.733-.476a6.6 6.6 0 0 0 1.473-1.692q.335-.542.56-1.139.11-.297.188-.607c.05-.2.088-.402.084-.61-.017-.808-.58-1.605-1.416-1.702-.49-.057-.98.11-1.376.392-.39.278-.686.676-.93 1.083l-.018.03a4 4 0 0 0-.676-.889c-.348-.33-.79-.573-1.274-.619a1.56 1.56 0 0 0-1.22.4 1.85 1.85 0 0 0-.544 1.018 1.8 1.8 0 0 0-.014.586c.03.213.091.427.155.633a6.738 6.738 0 0 0 1.931 2.953c.238.209.491.402.768.557q.079.045.16.084a4 4 0 0 0-.685.194 8 8 0 0 0-.928.445c-.29.156-.593.32-.895.433q-.526.2-1.087.228a3.1 3.1 0 0 1-1.973-.568c-.557-.402-.959-.987-1.205-1.624a4.6 4.6 0 0 1-.28-2.194c.092-.73.385-1.426.874-1.98.24-.272.526-.506.837-.69q.25-.147.515-.258c.191-.079.384-.147.568-.242a3.62 3.62 0 0 0 1.656-1.784c.226-.525.559-1.027 1-1.406.546-.47 1.236-.718 1.954-.773.775-.06 1.582.066 2.254.474.524.32.938.788 1.23 1.322.16.296.273.613.454.898q.337.53.832.917c.332.26.7.429 1.09.584.353.14.684.334.98.573a3.55 3.55 0 0 1 1.166 1.784c.101.354.145.723.146 1.09Z"/><path fill="#0092d0" stroke="#0092d0" stroke-width="1.05" d="m10.4 20.197-.013-.012a7 7 0 0 1-.233-.211 6.727 6.727 0 0 1-1.027-1.262 6.4 6.4 0 0 1-.536-1.062 6 6 0 0 1-.19-.57 2.5 2.5 0 0 1-.103-.56 1.7 1.7 0 0 1 .278-.999 1.3 1.3 0 0 1 .44-.422q.06-.033.12-.06l.02-.009.011-.004.075-.024q.04-.012.08-.021l.035-.008.011-.002h.006a1.4 1.4 0 0 1 .233-.016h.009l.054.005a1.7 1.7 0 0 1 .289.053c.208.062.388.153.564.28.356.26.624.627.848 1q.086.145.166.292c.056.1.253.119.313.01.215-.39.45-.78.771-1.092.161-.156.327-.281.526-.38.1-.05.175-.08.286-.111.112-.032.174-.044.286-.053.113-.008.172-.007.287.011.094.015.174.038.271.08.004.002.04.02.039.018a1.3 1.3 0 0 1 .24.158l.01.008q.053.048.102.1c.24.256.386.599.424.949.04.38-.068.752-.19 1.117a6 6 0 0 1-.485 1.076q-.285.499-.65.942c-.213.26-.444.502-.708.733a5 5 0 0 1-.449.35h-.002l-.02.014a3 3 0 0 1-.22.134 3 3 0 0 1-.247.123l-.04.017-.003.002-.01.003a2 2 0 0 1-.219.065l-.026.005-.011.002a1 1 0 0 1-.104.009h-.023l-.021-.002a1 1 0 0 1-.135-.021l-.006-.001-.039-.01a2 2 0 0 1-.309-.12l-.015-.008a2 2 0 0 1-.128-.069 4.41 4.41 0 0 1-.617-.435zM12.72 6.95c.018.18.035.361.076.538.061.27.166.53.313.766.25.4.638.719 1.086.87.431.145.905.148 1.33-.022.484-.192.856-.566 1.092-1.026.086-.168.158-.344.23-.519q.122-.29.227-.586c.14-.397.259-.804.333-1.219q.056-.31.08-.626c.053-.74-.053-1.516-.383-2.186a2.8 2.8 0 0 0-.65-.873 2.3 2.3 0 0 0-.882-.486 1.9 1.9 0 0 0-.969-.033c-.323.078-.608.25-.846.48-.485.468-.736 1.143-.884 1.787a8.5 8.5 0 0 0-.17 1.167 10.4 10.4 0 0 0 .016 1.968Zm.308-2.49c.047-.323.115-.644.214-.955.085-.268.226-.593.384-.83a2 2 0 0 1 .618-.616c.25-.152.55-.23.838-.222.311.009.602.094.873.242.272.149.504.359.686.605.103.14.177.266.248.412a3 3 0 0 1 .169.418l.004.012a3.9 3.9 0 0 1 .175 1.042q.009.26-.01.52c-.06.784-.305 1.547-.606 2.27-.07.17-.14.343-.224.507a2.022 2.022 0 0 1-.427.573l-.03.029-.002.001-.013.011a1.9 1.9 0 0 1-.455.283l-.015.007-.004.001a1.8 1.8 0 0 1-.569.124l-.022.001a2 2 0 0 1-.538-.068l-.037-.01h-.002l-.017-.006a2 2 0 0 1-.43-.207l-.017-.011-.022-.015a2 2 0 0 1-.31-.273l-.008-.01a2 2 0 0 1-.082-.101 2 2 0 0 1-.097-.139l-.045-.073-.002-.004-.004-.007a3 3 0 0 1-.1-.211 2 2 0 0 1-.046-.122l-.012-.035a3 3 0 0 1-.046-.175 4 4 0 0 1-.068-.462 10.2 10.2 0 0 1 .051-2.506ZM23.178 9.337c.058-.603-.103-1.213-.521-1.66a1.6 1.6 0 0 0-.694-.448 1.66 1.66 0 0 0-.855-.03c-.593.131-1.105.506-1.53.925A8.3 8.3 0 0 0 18.3 9.776a9 9 0 0 0-.265.473c-.074.14-.149.282-.206.43a2 2 0 0 0-.14.69c-.01.421.123.845.394 1.172.267.323.634.536 1.048.604.47.077.95-.063 1.347-.315.574-.364 1.132-.774 1.599-1.272q.179-.19.338-.399c.401-.525.698-1.159.763-1.822Zm-2.832 3.274q-.069.045-.142.084l-.024.013-.025.012a2 2 0 0 1-.29.11l-.024.007a1.6 1.6 0 0 1-.262.043l-.037.002h-.001l-.02.001a1.6 1.6 0 0 1-.286-.02l-.034-.006h-.005l-.005-.002q-.034-.007-.067-.017a1.5 1.5 0 0 1-.31-.12l-.02-.01a1.6 1.6 0 0 1-.36-.278l-.015-.016-.016-.017a1.6 1.6 0 0 1-.205-.292 2 2 0 0 1-.058-.115l-.014-.032-.002-.005-.003-.007q-.016-.039-.028-.078a1.7 1.7 0 0 1-.086-.431v-.005l-.002-.031a1.8 1.8 0 0 1 .07-.538q.025-.09.06-.175c.05-.129.114-.252.178-.374a8.8 8.8 0 0 1 1.148-1.685 5.5 5.5 0 0 1 .646-.636l.027-.021a4 4 0 0 1 .246-.178 3 3 0 0 1 .283-.164 3 3 0 0 1 .228-.096q.045-.016.092-.03c.049-.015.034-.011.084-.023q.086-.02.173-.03a1.288 1.288 0 0 1 .879.205c.439.29.697.79.745 1.31.055.598-.148 1.207-.45 1.713q-.12.201-.263.387c-.385.5-.877.911-1.391 1.269q-.204.142-.414.275ZM6.54 7.57c.127.303.253.61.455.873a1.921 1.921 0 0 0 1.858.753c.47-.08.904-.316 1.221-.673.177-.199.32-.425.42-.672.12-.297.168-.604.2-.921.086-.874.073-1.76-.06-2.628-.103-.67-.285-1.357-.676-1.92a2.1 2.1 0 0 0-.691-.647 1.8 1.8 0 0 0-.964-.221c-.7.037-1.336.44-1.744.997-.442.605-.639 1.363-.669 2.104q-.01.27.01.539c.064.838.317 1.644.64 2.416Zm-.01-4.518q.027-.056.057-.11l.02-.036a3 3 0 0 1 .171-.262l.076-.097.017-.02.014-.017.006-.008.029-.031q.08-.087.17-.165c.22-.191.49-.34.788-.42a1.67 1.67 0 0 1 .863-.005c.279.075.54.24.735.442.443.454.664 1.078.798 1.687.08.365.126.727.155 1.103a10.5 10.5 0 0 1-.02 1.874 4 4 0 0 1-.093.574l-.013.045-.011.037-.01.03a3 3 0 0 1-.126.295l-.02.038-.004.007-.002.002-.047.078a2 2 0 0 1-.164.22l.01-.01-.031.034q-.112.119-.24.22l-.009.007-.032.023a2 2 0 0 1-.206.125l-.07.035-.003.002-.006.002-.04.018a2 2 0 0 1-.298.096l-.038.008-.092.016a1.8 1.8 0 0 1-.445.007 1.8 1.8 0 0 1-.517-.146l-.023-.011a2 2 0 0 1-.449-.314l-.03-.03-.007-.005-.008-.01a2.2 2.2 0 0 1-.376-.537 9 9 0 0 1-.436-1.064 7.6 7.6 0 0 1-.313-1.151 5 5 0 0 1-.073-.567c-.05-.691.041-1.393.343-2.01zM9.92 8.314q-.005.006 0 0ZM5.985 12.536c.3-.305.49-.721.523-1.148a2 2 0 0 0-.067-.704c-.076-.27-.213-.512-.36-.75a9.2 9.2 0 0 0-1.348-1.7c-.417-.412-.907-.799-1.47-.988a1.85 1.85 0 0 0-.818-.096 1.56 1.56 0 0 0-.781.329c-.48.383-.737.98-.75 1.588-.013.66.246 1.31.618 1.847q.144.207.31.396c.454.512 1.012.913 1.596 1.261.246.147.496.303.77.39.212.069.437.103.66.089a1.72 1.72 0 0 0 1.117-.514Zm-.56.055c-.013.006-.007.003 0 0Zm-.902.103-.031-.007a2 2 0 0 1-.234-.068 2.4 2.4 0 0 1-.327-.153c-.56-.31-1.103-.658-1.572-1.095a5 5 0 0 1-.336-.344c-.4-.457-.715-1.023-.813-1.627a2 2 0 0 1 .027-.811l.009-.031a2 2 0 0 1 .099-.265l.02-.042a2 2 0 0 1 .142-.227c.03-.041.02-.03.053-.068a1.34 1.34 0 0 1 .597-.418c.231-.079.49-.087.726-.043.538.101 1.016.432 1.42.788.492.436.924.947 1.297 1.488.176.255.355.519.486.8a1.923 1.923 0 0 1 .14.449l.001.006v.006a2 2 0 0 1 .02.266l-.001.074v.007l-.005.048a2 2 0 0 1-.042.237l-.002.01-.001.004q-.041.135-.1.262v.001l-.017.03a2 2 0 0 1-.118.185c-.006.009-.045.057-.015.021a2 2 0 0 1-.147.16l-.05.046c-.007.006-.035.028-.032.027a1.7 1.7 0 0 1-.284.177l-.006.003-.039.017a1.5 1.5 0 0 1-.335.097l-.024.004-.024.003a1.6 1.6 0 0 1-.458-.013l-.025-.005Z"/></svg>