<svg xmlns="http://www.w3.org/2000/svg" fill="none" viewBox="0 0 37 40"><path fill="#343434" d="M30.612 20.368h-1.209a.08.08 0 0 0-.075.076v3.835a3 3 0 0 1-.831.113c-.794 0-.982-.245-.982-1.303v-2.645a.08.08 0 0 0-.076-.076h-1.208a.08.08 0 0 0-.076.076v2.777c0 1.738.586 2.4 2.077 2.4.85 0 1.813-.227 2.38-.435.019-.019.037-.038.037-.057v-4.685c.038-.038 0-.075-.037-.075m-25.606.02H3.78q-.057 0-.057.056c-.189.755-.585 2.04-1.114 3.382l-1.227-3.401c-.02-.02-.038-.038-.057-.038H.078c-.02 0-.038.019-.057.038q-.028.029 0 .056l1.85 5.064q-.246.52-.528 1.02a8 8 0 0 0-.36.7q-.027.028 0 .056c.02.02.039.038.058.038h1.34c.02 0 .057-.019.057-.038q.418-.817.774-1.662a48 48 0 0 0 1.889-5.178c0-.018 0-.037-.02-.056-.037-.038-.056-.038-.075-.038m4.4 3.891a.04.04 0 0 0-.038-.038h-.056c-.303.114-.85.19-1.228.19-.85 0-1.246-.227-1.246-1.512 0-1.04.132-1.512 1.246-1.512.321 0 .604.038.982.151.038 0 .057 0 .076-.038l.49-.982v-.057a.04.04 0 0 0-.037-.037 5.7 5.7 0 0 0-1.605-.246c-1.756 0-2.55.831-2.55 2.702 0 1.89.794 2.74 2.55 2.74.434 0 1.322-.095 1.737-.265.038-.019.056-.057.038-.095zm11.5-3.892h-1.227q-.057 0-.057.057c-.19.774-.586 2.04-1.114 3.382l-1.228-3.401c-.019-.02-.037-.038-.056-.038h-1.247c-.018 0-.037.019-.056.038q-.03.029 0 .056l1.85 5.064q-.246.52-.529 1.02a8 8 0 0 0-.358.7q-.03.028 0 .056c.019.02.037.038.056.038h1.34c.02 0 .058-.019.058-.038q.418-.817.774-1.662c.774-1.852 1.416-3.59 1.888-5.178 0-.018 0-.037-.019-.056-.038-.038-.056-.038-.075-.038m4.532-.019h-3.57a.08.08 0 0 0-.075.076v4.969c0 .038.038.075.076.075h1.209c.037 0 .075-.037.075-.075v-3.855h1.87c.018 0 .056-.018.056-.038.151-.34.283-.699.434-1.057v-.057c-.038-.019-.056-.038-.075-.038M6.44 12.735c-1.738 0-2.418.755-2.418 2.664 0 1.946.68 2.702 2.417 2.702 1.756 0 2.436-.756 2.436-2.702 0-1.909-.68-2.664-2.436-2.664m0 4.27c-.794 0-1.04-.208-1.04-1.569 0-1.435.265-1.568 1.04-1.568.792 0 1.057.132 1.057 1.568 0 1.342-.246 1.569-1.058 1.569m7.27-.208a.04.04 0 0 0-.038-.038h-.057c-.303.113-.85.189-1.227.189-.85 0-1.247-.227-1.247-1.511 0-1.04.113-1.512 1.247-1.512.32 0 .604.038.981.15.038 0 .057 0 .076-.037l.49-.982v-.057a.04.04 0 0 0-.037-.038 5.7 5.7 0 0 0-1.605-.245c-1.756 0-2.55.83-2.55 2.702 0 1.889.794 2.74 2.55 2.74.434 0 1.322-.095 1.737-.265.038-.02.057-.057.038-.095zM.075 12.886A.08.08 0 0 0 0 12.96v4.97c0 .037.038.075.076.075h1.208c.038 0 .076-.038.076-.076v-3.854h1.869c.019 0 .057-.019.057-.038.15-.34.283-.699.434-1.058v-.056c-.02-.02-.038-.038-.057-.038z"/><path fill="#343434" fill-rule="evenodd" d="M36.255 24.96v-.076c0-.037 0-.094.019-.132.056-.7.094-1.55.132-2.532v-.076l.038-2.116c0-.736-.019-1.455-.038-2.116v-.076l-.132-2.531c0-.038 0-.095-.02-.133v-.075c0-.076-.018-.133-.018-.208v-.076c-.057-.737-.095-1.19-.113-1.228 0-.075-.02-.15-.02-.208v-.056a3 3 0 0 0-.075-.378c0-.019 0-.038-.019-.057-.32-1.53-1.17-3.212-2.228-4.478a8.2 8.2 0 0 0-1.303-1.266 60 60 0 0 0-5.306-3.495c-2.776-1.644-5.268-2.778-5.59-2.93-.018 0-.018-.018-.018-.018-.737-.321-1.624-.548-2.587-.642a6 6 0 0 0-.567-.038C18.24.02 18.07 0 17.9 0h-.264c-1.303.02-2.492.264-3.437.7-.15.056-2.662 1.208-5.514 2.871l-.113.057a69 69 0 0 0-5.306 3.514c-.717.53-1.36 1.21-1.945 2.078-.132.208-.132.7.434.7H3.21c.624 0 .775-.378 1.473-.888.775-.567 2.304-1.7 5.099-3.364a66 66 0 0 1 4.815-2.55c.019 0 .037-.02.056-.02 0 0 .02 0 .02-.018 0 0 .018 0 .018-.02.019 0 .038-.018.038-.018.019 0 .038-.019.056-.019.227-.113.378-.17.378-.17.643-.283 1.549-.472 2.511-.491h.378c.284 0 .567.019.831.057.586.075 1.114.189 1.549.377.037.02.094.038.132.057a64 64 0 0 1 5.4 2.834 61 61 0 0 1 5.099 3.364c.358.264.718.642 1.058 1.057.849 1.096 1.548 2.59 1.661 3.742 0 .019.057.472.113 1.247 0 .056 0 .094.02.151v.113c0 .076.018.133.018.208v.076c0 .038 0 .094.02.132 0 .095.018.189.018.283 0 .057 0 .114.019.17v.038c0 .076 0 .132.019.208v.151a60 60 0 0 1 0 6.765v.15c0 .076 0 .133-.019.209v.037c0 .057 0 .114-.02.17 0 .095-.018.19-.018.284 0 .057 0 .094-.019.132v.076c0 .075-.019.132-.019.207v.114c0 .057 0 .113-.019.151-.056.775-.113 1.247-.113 1.247-.113 1.153-.812 2.645-1.662 3.741-.34.435-.698.794-1.057 1.058-.019 0-.51.378-1.322.945a61 61 0 0 1-9.102 5.215l-.075.038c-.038.019-.095.038-.132.057-.434.17-.963.302-1.549.377a6 6 0 0 1-.83.057h-.379c-.962-.019-1.868-.189-2.51-.491 0 0-.133-.057-.379-.17-.018-.02-.056-.02-.075-.038-.019-.019-.038-.019-.056-.038-.02 0-.02-.019-.038-.019-.02 0-.038-.019-.057-.019-.019-.018-.037-.018-.075-.038h-.02a61 61 0 0 1-4.702-2.493c-2.813-1.644-4.324-2.797-5.097-3.364-.7-.51-.85-.888-1.474-.888H1.755c-.566 0-.566.492-.434.68.585.87 1.228 1.55 1.945 2.079.095.075 2.398 1.776 5.307 3.495.15.095.301.19.471.265 2.7 1.55 5.023 2.607 5.156 2.683.925.415 2.133.661 3.417.699h.264c.17 0 .34 0 .51-.02.19 0 .378-.018.567-.037.963-.094 1.87-.32 2.587-.642 0 0 .019 0 .019-.019.32-.15 2.813-1.304 5.589-2.929a70 70 0 0 0 3.909-2.494l1.397-1.001c.453-.34.888-.775 1.303-1.266 1.058-1.266 1.907-2.948 2.228-4.478 0-.019 0-.038.02-.057.018-.132.056-.265.075-.377v-.058c.019-.075.019-.15.019-.208 0-.038.056-.49.113-1.228v-.075c.038-.02.038-.095.038-.151" clip-rule="evenodd"/><path fill="#343434" d="M14.954 20.369h-3.701c-.038 0-.057.019-.076.056-.094 1.682-.415 3.477-.868 4.95 0 .02 0 .038.018.057.02.02.038.02.057.02h1.265c.038 0 .057-.02.057-.039.359-1.133.642-2.607.755-3.854h1.209v3.835c0 .038.038.076.075.076h1.209a.08.08 0 0 0 .075-.076v-4.969c0-.019-.037-.056-.075-.056"/></svg>