<svg xmlns="http://www.w3.org/2000/svg" fill="none" viewBox="0 0 120 120"><path fill="#343434" d="M79.61 69.81c-.69-.284-1.389-.528-2.048-.881-.672-.36-1.31-.78-1.906-1.256a11.8 11.8 0 0 1-2.866-3.343c-.594-1.038-.994-2.17-1.601-3.203a14.5 14.5 0 0 0-2.024-2.711c-1.86-1.94-4.267-3.191-6.891-3.726-3.088-.628-6.474-.393-9.39.828-2.275.952-4.2 2.592-5.603 4.61a16.6 16.6 0 0 0-1.553 2.812c-.591 1.346-1.355 2.597-2.375 3.663a12.2 12.2 0 0 1-3.603 2.596c-.684.323-1.405.554-2.093.867a14.4 14.4 0 0 0-1.89 1.032c-2.357 1.53-4.206 3.699-5.293 6.295-1.1 2.63-1.322 5.564-.915 8.369.389 2.674 1.368 5.269 3.005 7.43 1.562 2.065 3.747 3.65 6.233 4.396 2.776.833 5.84.708 8.564-.264 2.392-.853 4.483-2.334 6.838-3.266a12.9 12.9 0 0 1 4.741-.894h.039a12.3 12.3 0 0 1 3.395.485c2.43.712 4.51 2.158 6.808 3.184 2.666 1.189 5.62 1.6 8.5 1.07 2.575-.474 4.955-1.812 6.724-3.737 1.812-1.971 3.011-4.44 3.595-7.046.3-1.34.443-2.718.446-4.091-.007-2.834-.78-5.626-2.348-7.995-1.566-2.367-3.876-4.15-6.49-5.225M54.19 89.774l-.05-.044a22 22 0 0 1-2.162-2.136 24.5 24.5 0 0 1-2.412-3.214 23.3 23.3 0 0 1-1.949-3.857 21 21 0 0 1-.687-2.068c-.183-.665-.347-1.344-.376-2.036a6.17 6.17 0 0 1 1.01-3.63c.355-.535.719-.93 1.258-1.32.097-.07.169-.118.337-.213q.215-.12.44-.22l.073-.03.038-.014q.135-.049.273-.09.142-.042.286-.075l.129-.027.041-.01.021-.002a5 5 0 0 1 .848-.054h.006q.009 0 .025.002.099.006.197.014.279.025.555.076c.215.04.284.057.494.12a6.6 6.6 0 0 1 2.049 1.018c1.294.938 2.267 2.274 3.08 3.632q.313.524.606 1.059c.202.365.918.43 1.137.032.78-1.413 1.634-2.83 2.8-3.963.585-.568 1.187-1.022 1.908-1.38a5.5 5.5 0 0 1 1.04-.404c.408-.117.633-.16 1.039-.19.41-.033.624-.028 1.042.038.34.053.633.139.986.292.014.006.144.068.14.064a5 5 0 0 1 .87.572l.036.032q.195.172.372.361c.872.932 1.404 2.177 1.541 3.447.15 1.384-.245 2.732-.689 4.057a21.7 21.7 0 0 1-1.761 3.91 25 25 0 0 1-2.36 3.423 22 22 0 0 1-2.574 2.661 18 18 0 0 1-1.63 1.27l-.008.004-.072.049a13 13 0 0 1-1.416.806 9 9 0 0 1-.281.128q-.075.03-.147.062l-.011.005-.038.013a6 6 0 0 1-.793.236l-.094.019-.04.006q-.187.026-.376.03h-.084l-.078-.005a3 3 0 0 1-.248-.03 5 5 0 0 1-.264-.05l-.14-.038a8 8 0 0 1-1.122-.435L57 91.676l-.051-.026-.154-.08a13.026 13.026 0 0 1-.934-.55 16 16 0 0 1-1.62-1.201zm33.021-6.664c-.005 2.636-.56 5.314-1.79 7.659-1.14 2.177-2.842 4.062-5.03 5.206-2.34 1.223-5.068 1.5-7.678.988-2.446-.48-4.523-1.8-6.716-2.902-1.146-.576-2.324-1.084-3.572-1.395q-.476-.119-.958-.205c.953-.46 1.839-1.07 2.664-1.728 2.123-1.697 3.928-3.833 5.35-6.144a23.8 23.8 0 0 0 2.031-4.138q.406-1.082.685-2.204c.181-.73.321-1.463.305-2.218-.06-2.936-2.103-5.83-5.143-6.183-1.778-.207-3.557.401-4.997 1.425-1.42 1.01-2.491 2.455-3.38 3.934l-.064.11c-.693-1.169-1.473-2.294-2.457-3.23-1.263-1.2-2.87-2.082-4.625-2.248-1.621-.154-3.24.332-4.436 1.453-1.035.971-1.726 2.303-1.973 3.697a6.7 6.7 0 0 0-.052 2.127c.113.777.332 1.551.564 2.3a22.2 22.2 0 0 0 1.812 4.207c1.352 2.436 3.106 4.683 5.204 6.522.864.756 1.783 1.46 2.788 2.021q.285.161.583.306c-.849.158-1.683.395-2.49.705-1.166.45-2.27 1.024-3.37 1.615-1.055.566-2.155 1.16-3.25 1.573a12.9 12.9 0 0 1-3.95.828c-2.555.121-5.073-.547-7.167-2.061-2.023-1.463-3.484-3.587-4.379-5.899-.965-2.492-1.344-5.315-1.013-7.971.33-2.655 1.395-5.181 3.172-7.193a12.8 12.8 0 0 1 3.043-2.507q.901-.534 1.87-.935c.693-.287 1.394-.533 2.062-.88a13.15 13.15 0 0 0 6.014-6.482c.822-1.907 2.03-3.73 3.631-5.106 1.986-1.705 4.493-2.607 7.099-2.807 2.817-.215 5.749.238 8.19 1.723 1.902 1.158 3.405 2.863 4.465 4.8.586 1.074.995 2.228 1.653 3.264a13.2 13.2 0 0 0 3.02 3.329c1.208.942 2.545 1.559 3.957 2.122a13.8 13.8 0 0 1 3.564 2.08c2.05 1.657 3.51 3.956 4.234 6.48.368 1.286.527 2.627.53 3.962"/><path fill="#343434" d="m54.19 89.775-.05-.044a22 22 0 0 1-2.162-2.136 24.5 24.5 0 0 1-2.412-3.214 23.3 23.3 0 0 1-1.949-3.857 21 21 0 0 1-.687-2.068c-.183-.665-.347-1.344-.376-2.036a6.17 6.17 0 0 1 1.01-3.63c.355-.535.719-.93 1.258-1.32.097-.07.169-.118.337-.213q.215-.12.44-.22l.073-.03.038-.014q.135-.049.273-.09.142-.042.286-.075l.129-.027.041-.01.021-.002a5 5 0 0 1 .848-.054h.006l.025.002q.099.006.197.014.279.025.555.076c.215.04.284.057.494.12a6.6 6.6 0 0 1 2.049 1.018c1.294.938 2.267 2.274 3.08 3.632q.313.524.606 1.059c.202.365.918.43 1.137.032.78-1.413 1.634-2.83 2.8-3.963.585-.568 1.187-1.022 1.908-1.38a5.5 5.5 0 0 1 1.04-.404c.408-.117.633-.16 1.039-.19.41-.033.624-.028 1.042.038.34.053.633.139.986.292.014.006.144.068.14.064a5 5 0 0 1 .87.572l.036.032q.195.172.372.361c.872.932 1.404 2.177 1.541 3.447.15 1.384-.245 2.732-.689 4.057a21.7 21.7 0 0 1-1.761 3.91 25 25 0 0 1-2.36 3.423 22 22 0 0 1-2.574 2.661 18 18 0 0 1-1.63 1.27l-.008.004-.072.049a13 13 0 0 1-1.416.806 9 9 0 0 1-.281.128q-.075.03-.147.062l-.011.005-.038.013a6 6 0 0 1-.793.236l-.094.019-.04.006q-.187.026-.376.03h-.084l-.078-.005a3 3 0 0 1-.248-.03 5 5 0 0 1-.243-.046l-.021-.004-.14-.038a8 8 0 0 1-1.122-.435L57 91.676l-.051-.026-.154-.08a13.026 13.026 0 0 1-.934-.55 16 16 0 0 1-1.62-1.201z"/><path stroke="#343434" stroke-width="1.744" d="m54.19 89.775-.05-.044m.05.044.05.044m-.05-.044-.05-.044m.05.044.05.044m-.1-.088a22 22 0 0 1-2.162-2.136 24.5 24.5 0 0 1-2.412-3.214 23.3 23.3 0 0 1-1.949-3.857 21 21 0 0 1-.687-2.068c-.183-.665-.347-1.344-.376-2.036a6.17 6.17 0 0 1 1.01-3.63c.355-.535.719-.93 1.258-1.32.097-.07.169-.118.337-.213q.215-.12.44-.22m0 0 .073-.03m-.073.03.073-.03m0 0 .038-.014q.135-.049.273-.09.142-.042.286-.075l.129-.027m0 0 .041-.01m-.041.01.041-.01m0 0 .021-.002a5 5 0 0 1 .848-.054h.006m0 0q.009 0 .025.002m-.025-.002.025.002m0 0q.099.006.197.014.279.025.555.076c.215.04.284.057.494.12a6.6 6.6 0 0 1 2.049 1.018c1.294.938 2.267 2.274 3.08 3.632q.313.524.606 1.059c.202.365.918.43 1.137.032.78-1.413 1.634-2.83 2.8-3.963.585-.568 1.187-1.022 1.908-1.38a5.5 5.5 0 0 1 1.04-.404c.408-.117.633-.16 1.039-.19.41-.033.624-.028 1.042.038.34.053.633.139.986.292.014.006.144.068.14.064a5 5 0 0 1 .87.572l.036.032q.195.172.372.361c.872.932 1.404 2.177 1.541 3.447.15 1.384-.245 2.732-.689 4.057a21.7 21.7 0 0 1-1.761 3.91 25 25 0 0 1-2.36 3.423 22 22 0 0 1-2.574 2.661 18 18 0 0 1-1.63 1.27l-.008.004m0 0-.072.049m.072-.049-.072.049m0 0a13 13 0 0 1-1.416.806 9 9 0 0 1-.281.128q-.075.03-.147.062l-.011.005m0 0-.038.013m.038-.013-.038.013m0 0a6 6 0 0 1-.793.236l-.094.019-.04.006q-.187.026-.376.03m0 0h-.084m.084 0h-.084m0 0-.078-.005a3 3 0 0 1-.248-.03 5 5 0 0 1-.243-.046m0 0-.021-.004m.02.004-.02-.004m0 0-.14-.038a8 8 0 0 1-1.122-.435L57 91.676m0 0-.051-.026m.051.026-.051-.026m0 0-.154-.08a13.026 13.026 0 0 1-.934-.55 16 16 0 0 1-1.62-1.201m25.368-20.01c-.69-.283-1.388-.527-2.047-.88-.672-.36-1.31-.78-1.906-1.256a11.8 11.8 0 0 1-2.866-3.343c-.594-1.038-.994-2.17-1.601-3.203a14.5 14.5 0 0 0-2.024-2.711c-1.86-1.94-4.267-3.191-6.891-3.726-3.088-.628-6.474-.393-9.39.828-2.275.952-4.2 2.592-5.603 4.61a16.6 16.6 0 0 0-1.553 2.812c-.591 1.346-1.355 2.597-2.375 3.663a12.2 12.2 0 0 1-3.603 2.596c-.684.323-1.405.554-2.093.867a14.4 14.4 0 0 0-1.89 1.032c-2.357 1.53-4.206 3.699-5.293 6.295-1.1 2.63-1.322 5.564-.915 8.369.389 2.674 1.368 5.269 3.005 7.43 1.562 2.065 3.747 3.65 6.233 4.396 2.776.833 5.84.708 8.564-.264 2.392-.853 4.483-2.334 6.838-3.266a12.9 12.9 0 0 1 4.741-.894h.039a12.3 12.3 0 0 1 3.395.485c2.43.712 4.51 2.158 6.808 3.184 2.666 1.189 5.62 1.6 8.5 1.07 2.575-.474 4.955-1.812 6.724-3.737 1.812-1.971 3.011-4.44 3.595-7.046.3-1.34.443-2.718.446-4.091-.007-2.834-.78-5.626-2.348-7.995-1.566-2.367-3.876-4.15-6.49-5.225Zm7.602 13.302c-.005 2.636-.56 5.314-1.79 7.659-1.14 2.177-2.842 4.062-5.03 5.206-2.34 1.223-5.068 1.5-7.678.988-2.446-.48-4.523-1.8-6.716-2.902-1.146-.576-2.324-1.084-3.572-1.395q-.476-.119-.958-.205c.953-.46 1.839-1.07 2.664-1.728 2.123-1.697 3.928-3.833 5.35-6.144a23.8 23.8 0 0 0 2.031-4.138q.406-1.082.685-2.204c.181-.73.321-1.463.305-2.218-.06-2.936-2.103-5.83-5.143-6.183-1.778-.207-3.557.401-4.997 1.425-1.42 1.01-2.491 2.455-3.38 3.934l-.064.11c-.693-1.169-1.473-2.294-2.457-3.23-1.263-1.2-2.87-2.082-4.625-2.248-1.621-.154-3.24.332-4.436 1.453-1.035.971-1.726 2.303-1.973 3.697a6.7 6.7 0 0 0-.052 2.127c.113.777.332 1.551.564 2.3a22.2 22.2 0 0 0 1.812 4.207c1.352 2.436 3.106 4.683 5.204 6.522.864.756 1.783 1.46 2.788 2.021q.285.161.583.306c-.849.158-1.683.395-2.49.705-1.166.45-2.27 1.024-3.37 1.615-1.055.566-2.155 1.16-3.25 1.573a12.9 12.9 0 0 1-3.95.828c-2.555.121-5.073-.547-7.167-2.061-2.023-1.463-3.484-3.587-4.379-5.899-.965-2.492-1.344-5.314-1.013-7.971.33-2.655 1.395-5.181 3.172-7.193a12.8 12.8 0 0 1 3.043-2.507q.901-.534 1.87-.935c.693-.287 1.394-.533 2.062-.88a13.15 13.15 0 0 0 6.014-6.482c.822-1.907 2.03-3.73 3.631-5.106 1.986-1.705 4.493-2.607 7.099-2.807 2.817-.215 5.749.238 8.19 1.723 1.902 1.158 3.405 2.863 4.465 4.8.586 1.074.995 2.228 1.653 3.264a13.2 13.2 0 0 0 3.02 3.329c1.208.942 2.545 1.559 3.957 2.122a13.8 13.8 0 0 1 3.564 2.08c2.05 1.657 3.51 3.956 4.234 6.48.368 1.286.527 2.627.53 3.962Z"/><path fill="#0092d0" stroke="#343434" stroke-width="1.744" d="m54.19 89.775-.05-.043-.187-.163a23.35 23.35 0 0 1-1.974-1.974 24.5 24.5 0 0 1-2.412-3.214 23.3 23.3 0 0 1-1.95-3.857 21 21 0 0 1-.687-2.068c-.182-.665-.347-1.344-.376-2.036a6.18 6.18 0 0 1 1.01-3.63c.356-.535.72-.93 1.258-1.32.097-.07.17-.118.337-.213q.215-.12.44-.22l.073-.03.039-.014q.134-.049.272-.09a5 5 0 0 1 .287-.075q.063-.014.128-.027l.042-.01.02-.002a5 5 0 0 1 .849-.054h.005l.026.002q.097.006.196.014.279.025.555.076c.216.04.285.057.495.12.756.224 1.41.555 2.048 1.018 1.294.938 2.268 2.274 3.081 3.632q.313.524.605 1.059c.202.365.918.43 1.137.032.78-1.413 1.634-2.83 2.8-3.963.585-.568 1.187-1.022 1.909-1.38.367-.183.638-.29 1.039-.404a4.5 4.5 0 0 1 1.04-.19c.409-.033.624-.028 1.042.038.34.053.633.139.986.292.014.006.144.068.14.064a4.7 4.7 0 0 1 .906.604q.194.172.371.361c.873.932 1.404 2.177 1.542 3.447.149 1.384-.246 2.732-.69 4.057a21.7 21.7 0 0 1-1.761 3.91 25 25 0 0 1-2.36 3.423 22 22 0 0 1-2.574 2.661 18 18 0 0 1-1.63 1.27l-.007.004-.073.049a13 13 0 0 1-1.415.807 9 9 0 0 1-.282.127q-.073.03-.147.062l-.011.005-.037.013a6 6 0 0 1-.793.236l-.094.019-.041.006q-.187.026-.376.03h-.084l-.078-.005a3 3 0 0 1-.248-.03 5 5 0 0 1-.243-.046l-.02-.004-.141-.038a8 8 0 0 1-1.122-.435L57 91.676l-.05-.026-.155-.08a13.026 13.026 0 0 1-.934-.55 16 16 0 0 1-1.62-1.201z"/><path fill="#0092d0" d="M62.609 41.657c.066.653.13 1.31.277 1.952a9 9 0 0 0 1.14 2.783c.906 1.451 2.315 2.612 3.942 3.159 1.568.527 3.289.538 4.835-.076 1.756-.698 3.107-2.059 3.965-3.729.313-.61.573-1.25.837-1.884a42 42 0 0 0 .822-2.128c.51-1.445.94-2.92 1.211-4.43q.201-1.129.287-2.272c.195-2.687-.19-5.509-1.39-7.941-.585-1.187-1.36-2.295-2.358-3.172a8.5 8.5 0 0 0-3.207-1.766c-1.133-.335-2.366-.396-3.518-.12-1.173.282-2.211.91-3.074 1.743-1.761 1.7-2.675 4.153-3.21 6.49-.319 1.395-.499 2.818-.621 4.242a38 38 0 0 0 .062 7.149m1.12-9.046c.172-1.173.42-2.339.78-3.47.309-.973.821-2.154 1.394-3.016.605-.91 1.326-1.677 2.244-2.235a5.65 5.65 0 0 1 3.043-.806c1.131.03 2.187.34 3.173.879a7.7 7.7 0 0 1 2.49 2.199c.374.508.645.963.903 1.493a12 12 0 0 1 .612 1.518l.016.047v.004l.034.107a14.4 14.4 0 0 1 .6 3.673q.034.945-.036 1.89c-.218 2.846-1.106 5.618-2.199 8.246-.257.618-.511 1.242-.814 1.84-.234.462-.389.716-.687 1.114a7.4 7.4 0 0 1-.862.967l-.114.104-.005.005-.047.04a7 7 0 0 1-.757.556 7 7 0 0 1-.895.473l-.056.024-.014.006h-.002a6.6 6.6 0 0 1-2.065.45l-.08.004a6.775 6.775 0 0 1-1.957-.248l-.133-.038-.006-.002-.006-.002-.057-.018a7 7 0 0 1-1.56-.75l-.064-.04-.079-.056a7.536 7.536 0 0 1-1.123-.99l-.033-.037-.097-.114a7.5 7.5 0 0 1-.713-1.023l-.01-.016-.013-.025q-.044-.08-.085-.16a8 8 0 0 1-.448-1.05l-.041-.124a9 9 0 0 1-.17-.637c-.124-.552-.19-1.131-.244-1.678a37.2 37.2 0 0 1 .183-9.105"/><path fill="#0092d0" d="M63.73 32.61c.171-1.172.419-2.338.778-3.468.31-.974.822-2.155 1.395-3.017.605-.91 1.326-1.677 2.244-2.235a5.65 5.65 0 0 1 3.043-.806c1.131.03 2.187.34 3.173.879a7.7 7.7 0 0 1 2.49 2.199c.374.508.645.963.903 1.493a12 12 0 0 1 .612 1.518l.016.047v.004l.034.107a14.4 14.4 0 0 1 .6 3.673q.034.945-.036 1.89c-.218 2.846-1.106 5.618-2.199 8.246-.257.618-.511 1.242-.814 1.84-.234.462-.389.716-.687 1.114a7.4 7.4 0 0 1-.862.967l-.114.104-.005.005-.047.04a7 7 0 0 1-.757.556 7 7 0 0 1-.895.473l-.056.024-.014.006h-.002a6.6 6.6 0 0 1-2.065.45l-.08.004a6.775 6.775 0 0 1-1.957-.248l-.133-.038-.006-.002-.006-.002-.057-.018a7 7 0 0 1-1.56-.75l-.064-.04-.079-.056a7.536 7.536 0 0 1-1.123-.99l-.033-.037-.097-.114a7.5 7.5 0 0 1-.713-1.023l-.01-.016-.013-.025q-.044-.08-.085-.16a8 8 0 0 1-.448-1.05l-.041-.124a9 9 0 0 1-.17-.637c-.124-.552-.19-1.131-.244-1.678a37.2 37.2 0 0 1 .183-9.105M100.603 50.327c.212-2.19-.374-4.404-1.893-6.032-.688-.738-1.552-1.319-2.518-1.624-1-.316-2.084-.335-3.107-.11-2.153.477-4.013 1.839-5.561 3.359-1.801 1.769-3.343 3.843-4.64 6.003a33 33 0 0 0-.964 1.718c-.266.51-.539 1.022-.746 1.56a7.4 7.4 0 0 0-.511 2.505c-.032 1.532.45 3.073 1.433 4.26a6.22 6.22 0 0 0 3.806 2.193c1.708.281 3.452-.229 4.893-1.144 2.086-1.324 4.114-2.812 5.809-4.62q.65-.695 1.23-1.448c1.456-1.91 2.535-4.21 2.769-6.62M90.318 62.219a8 8 0 0 1-.605.351l-.09.044a7 7 0 0 1-1.052.402l-.089.024q-.09.023-.183.042a6 6 0 0 1-.768.114l-.134.01h-.006l-.071.002a5.7 5.7 0 0 1-1.037-.073l-.126-.022-.016-.003-.018-.004q-.124-.028-.247-.06a5.6 5.6 0 0 1-1.127-.437l-.07-.038a5.8 5.8 0 0 1-1.308-1.008l-.054-.057-.059-.065a5.946 5.946 0 0 1-.955-1.477l-.05-.117-.01-.02-.008-.023q-.055-.14-.104-.282a6.1 6.1 0 0 1-.311-1.567l-.001-.018-.004-.114a6.653 6.653 0 0 1 .126-1.457c.039-.196.054-.261.124-.498a8 8 0 0 1 .218-.636 14 14 0 0 1 .649-1.356 32 32 0 0 1 4.17-6.121 20 20 0 0 1 2.348-2.309l.096-.078a13 13 0 0 1 .894-.645 11 11 0 0 1 .92-.543l.107-.053q.11-.053.219-.103a8 8 0 0 1 .946-.358c.177-.053.123-.039.303-.08q.311-.072.629-.112a4 4 0 0 1 .666-.038 4.7 4.7 0 0 1 2.527.784c1.593 1.057 2.532 2.867 2.707 4.761.2 2.17-.537 4.383-1.634 6.219q-.438.731-.957 1.41c-1.4 1.815-3.187 3.308-5.053 4.606q-.74.517-1.502 1.003"/><path fill="#0092d0" d="M90.318 62.219a8 8 0 0 1-.605.351l-.09.044a7 7 0 0 1-1.052.402l-.089.024q-.09.023-.183.042a6 6 0 0 1-.768.114l-.134.01h-.006l-.071.002a5.7 5.7 0 0 1-1.037-.073l-.126-.022-.016-.003-.018-.004q-.124-.028-.247-.06a5.6 5.6 0 0 1-1.127-.437l-.07-.038a5.8 5.8 0 0 1-1.308-1.008l-.054-.057-.059-.065a5.946 5.946 0 0 1-.955-1.477l-.05-.117-.01-.02-.008-.023q-.055-.14-.104-.282a6.1 6.1 0 0 1-.311-1.567l-.001-.018-.004-.114a6.653 6.653 0 0 1 .126-1.457c.039-.196.054-.261.124-.498a8 8 0 0 1 .218-.636 14 14 0 0 1 .649-1.356 32 32 0 0 1 4.17-6.121 20 20 0 0 1 2.348-2.309l.096-.078a13 13 0 0 1 .894-.645 11 11 0 0 1 .92-.543l.107-.053q.11-.053.219-.103a8 8 0 0 1 .946-.358c.177-.053.123-.039.303-.08q.311-.072.629-.112a4 4 0 0 1 .666-.038 4.7 4.7 0 0 1 2.527.784c1.593 1.057 2.532 2.867 2.707 4.761.2 2.17-.537 4.383-1.634 6.219q-.438.731-.957 1.41c-1.4 1.815-3.187 3.308-5.053 4.606q-.74.517-1.502 1.003M40.167 43.908c.461 1.102.92 2.218 1.654 3.171a7.4 7.4 0 0 0 1.969 1.795 6.98 6.98 0 0 0 4.78.939 7.65 7.65 0 0 0 4.436-2.442 8.5 8.5 0 0 0 1.526-2.44c.437-1.08.61-2.197.724-3.349.315-3.175.266-6.39-.219-9.545-.373-2.43-1.033-4.929-2.454-6.973-.657-.945-1.5-1.79-2.51-2.353a6.46 6.46 0 0 0-3.501-.801c-2.541.136-4.854 1.596-6.335 3.621-1.607 2.2-2.32 4.95-2.429 7.642q-.038.98.034 1.958c.233 3.044 1.151 5.974 2.325 8.777m-.035-16.41q.1-.205.208-.404l.072-.13q.06-.101.12-.202a10 10 0 0 1 .777-1.1l.061-.074.051-.061.024-.027q.05-.059.103-.114.292-.316.616-.598a7.26 7.26 0 0 1 2.865-1.527c1-.269 2.104-.299 3.133-.02 1.013.275 1.96.876 2.673 1.607 1.608 1.649 2.41 3.917 2.897 6.127.291 1.326.455 2.64.564 4.01a38 38 0 0 1-.073 6.804c-.06.586-.124 1.173-.256 1.748a9 9 0 0 1-.13.502l-.04.136-.037.108a8 8 0 0 1-.458 1.07l-.074.14-.014.025-.004.007a7.545 7.545 0 0 1-.768 1.085l.037-.041-.114.127c-.269.29-.563.55-.87.799l-.033.023-.117.084a7 7 0 0 1-.747.456q-.127.063-.253.126l-.013.007-.02.009-.148.063a7 7 0 0 1-1.083.349l-.012.002-.124.028-.082.016a6.7 6.7 0 0 1-1.868.066 6.5 6.5 0 0 1-1.878-.53l-.085-.04-.146-.075a6.834 6.834 0 0 1-1.596-1.172l-.023-.021-.03-.033a8 8 0 0 1-.637-.758 8.4 8.4 0 0 1-.729-1.195c-.607-1.207-1.124-2.565-1.582-3.865a27.6 27.6 0 0 1-1.14-4.182 20 20 0 0 1-.264-2.06c-.182-2.51.151-5.058 1.248-7.297z"/><path fill="#0092d0" d="M40.132 27.497q.1-.204.208-.403l.072-.13q.06-.101.12-.202a10 10 0 0 1 .777-1.1l.061-.074.051-.061.024-.027q.05-.059.103-.114.292-.316.616-.598a7.26 7.26 0 0 1 2.865-1.527c1-.269 2.104-.299 3.133-.02 1.013.275 1.96.876 2.673 1.607 1.608 1.649 2.41 3.917 2.897 6.127.291 1.326.455 2.64.564 4.01a38 38 0 0 1-.073 6.804c-.06.586-.124 1.173-.256 1.748a9 9 0 0 1-.13.502l-.04.136-.037.108a8 8 0 0 1-.458 1.07l-.074.14-.014.025-.004.007a7.545 7.545 0 0 1-.768 1.085l.037-.041-.114.127c-.269.29-.563.55-.87.799l-.033.023-.117.084a7 7 0 0 1-.747.456q-.127.063-.253.126l-.013.007-.02.009-.148.063a7 7 0 0 1-1.083.349l-.012.002-.124.028-.082.016a6.7 6.7 0 0 1-1.868.066 6.5 6.5 0 0 1-1.878-.53l-.085-.04-.146-.075a6.834 6.834 0 0 1-1.596-1.172l-.023-.021-.03-.033a8 8 0 0 1-.637-.758 8.4 8.4 0 0 1-.729-1.195c-.607-1.207-1.124-2.565-1.582-3.865a27.6 27.6 0 0 1-1.14-4.182 20 20 0 0 1-.264-2.06c-.182-2.51.151-5.058 1.248-7.297zM38.15 61.948a6.78 6.78 0 0 0 1.898-4.171 7.3 7.3 0 0 0-.244-2.558c-.275-.982-.773-1.86-1.305-2.724a33.3 33.3 0 0 0-4.898-6.172c-1.515-1.5-3.294-2.904-5.338-3.591-.95-.32-1.975-.478-2.974-.35a5.7 5.7 0 0 0-2.838 1.195c-1.741 1.393-2.676 3.561-2.721 5.768-.05 2.397.893 4.762 2.241 6.708.348.503.73.98 1.131 1.44 1.646 1.861 3.672 3.316 5.796 4.583.894.533 1.8 1.097 2.797 1.418.768.246 1.588.37 2.394.32a6.24 6.24 0 0 0 4.06-1.866m-2.034.2c-.05.021-.027.011 0 0m-3.279.372a7 7 0 0 1-.395-.093 7 7 0 0 1-.568-.18 8.5 8.5 0 0 1-1.187-.555c-2.033-1.124-4.008-2.388-5.712-3.977a18 18 0 0 1-1.217-1.25c-1.453-1.66-2.598-3.714-2.954-5.91-.163-1.001-.146-1.957.098-2.946a6.453 6.453 0 0 1 .183-.573 7 7 0 0 1 .209-.5c.007-.016.077-.156.074-.153a7 7 0 0 1 .513-.826c.108-.149.075-.108.194-.248.6-.704 1.304-1.225 2.167-1.518.842-.286 1.78-.314 2.637-.154 1.957.367 3.692 1.568 5.156 2.862 1.793 1.583 3.361 3.44 4.716 5.405.638.925 1.29 1.884 1.764 2.905a6.997 6.997 0 0 1 .508 1.63l.001.005.004.02.003.02a8 8 0 0 1 .052.463q.02.251.02.502-.001.135-.007.27v.01l-.002.014-.016.177a6 6 0 0 1-.15.861l-.008.032-.005.017q-.149.489-.365.953v.002l-.06.112a6 6 0 0 1-.427.67c-.024.032-.165.209-.056.077q-.078.096-.16.19a6 6 0 0 1-.556.556c-.026.023-.125.104-.116.098q-.194.15-.398.287a6 6 0 0 1-.632.358l-.023.01-.14.062a5.6 5.6 0 0 1-1.304.366l-.09.011q-.284.033-.57.037a6 6 0 0 1-1.092-.083z"/><path fill="#0092d0" d="M32.837 62.52a7 7 0 0 1-.395-.093 7 7 0 0 1-.568-.18 8.5 8.5 0 0 1-1.187-.555c-2.033-1.124-4.008-2.388-5.712-3.977a18 18 0 0 1-1.217-1.25c-1.453-1.66-2.598-3.714-2.954-5.91-.163-1.001-.146-1.957.098-2.946a6.453 6.453 0 0 1 .183-.573 7 7 0 0 1 .209-.5c.007-.016.077-.156.074-.153a7 7 0 0 1 .513-.826c.108-.149.075-.108.194-.248.6-.704 1.304-1.225 2.167-1.518.842-.286 1.78-.314 2.637-.154 1.957.367 3.692 1.568 5.156 2.862 1.793 1.583 3.361 3.44 4.716 5.405.638.925 1.29 1.884 1.764 2.905a6.997 6.997 0 0 1 .508 1.63l.001.005.004.02.003.02a8 8 0 0 1 .052.463q.02.251.02.502-.001.135-.007.27v.01l-.002.014-.016.177a6 6 0 0 1-.15.861l-.008.032-.005.017q-.149.489-.365.953v.002l-.06.112a6 6 0 0 1-.427.67c-.024.032-.165.209-.056.077q-.078.096-.16.19a6 6 0 0 1-.556.556c-.026.023-.125.104-.116.098q-.194.15-.398.287a6 6 0 0 1-.632.358l-.023.01-.14.062a5.6 5.6 0 0 1-1.304.366l-.09.011q-.284.033-.57.037a6 6 0 0 1-1.092-.083z"/><path fill="#343434" stroke="#343434" stroke-width="1.744" d="M62.609 41.657c.066.653.13 1.31.277 1.952a9 9 0 0 0 1.14 2.783c.906 1.451 2.315 2.612 3.942 3.159 1.568.527 3.289.538 4.835-.076 1.756-.698 3.107-2.059 3.965-3.729.313-.61.573-1.25.837-1.884a42 42 0 0 0 .822-2.128c.51-1.445.94-2.92 1.211-4.43q.201-1.129.287-2.272c.195-2.687-.19-5.509-1.39-7.941-.585-1.187-1.36-2.295-2.358-3.172a8.5 8.5 0 0 0-3.207-1.766c-1.133-.335-2.366-.396-3.518-.12-1.173.282-2.211.91-3.074 1.743-1.761 1.7-2.675 4.153-3.21 6.49-.319 1.395-.499 2.818-.621 4.242a38 38 0 0 0 .062 7.149Zm1.12-9.046c.172-1.173.42-2.339.78-3.47.309-.973.821-2.154 1.394-3.016.605-.91 1.326-1.677 2.244-2.235a5.65 5.65 0 0 1 3.043-.806c1.131.03 2.187.34 3.173.879a7.7 7.7 0 0 1 2.49 2.199c.374.508.645.963.903 1.493a12 12 0 0 1 .612 1.518l.016.047.034.111a14.4 14.4 0 0 1 .6 3.673q.034.945-.036 1.89c-.218 2.846-1.106 5.618-2.199 8.246-.257.618-.511 1.242-.814 1.84-.234.462-.389.716-.687 1.114a7.4 7.4 0 0 1-.862.967l-.114.104-.005.005-.047.04a7 7 0 0 1-.757.556 7 7 0 0 1-.895.473l-.056.024-.014.006h-.002a6.6 6.6 0 0 1-2.065.45l-.08.004a6.775 6.775 0 0 1-1.957-.248l-.133-.038-.006-.002-.063-.02a7 7 0 0 1-1.56-.75l-.064-.04-.079-.056a7.536 7.536 0 0 1-1.123-.99l-.033-.037-.097-.114a7.5 7.5 0 0 1-.713-1.023l-.01-.016-.013-.025q-.044-.08-.085-.16a8 8 0 0 1-.448-1.05l-.041-.124a9 9 0 0 1-.17-.637c-.124-.552-.19-1.131-.244-1.678a37.2 37.2 0 0 1 .185-9.105zM100.603 50.327c.212-2.19-.374-4.404-1.893-6.032-.688-.738-1.552-1.319-2.518-1.624-1-.316-2.084-.335-3.107-.11-2.153.477-4.013 1.839-5.561 3.359-1.801 1.769-3.343 3.843-4.64 6.003a33 33 0 0 0-.964 1.718c-.266.51-.539 1.022-.746 1.56a7.4 7.4 0 0 0-.511 2.505c-.032 1.532.45 3.073 1.433 4.26a6.22 6.22 0 0 0 3.806 2.193c1.708.281 3.452-.229 4.893-1.144 2.086-1.324 4.114-2.812 5.809-4.62q.65-.695 1.23-1.448c1.456-1.91 2.535-4.21 2.769-6.62ZM90.318 62.219a8 8 0 0 1-.605.351l-.09.044a7 7 0 0 1-1.052.402l-.089.024q-.09.023-.183.042a6 6 0 0 1-.768.114l-.134.01h-.006l-.071.002a5.7 5.7 0 0 1-1.037-.073l-.126-.022-.016-.003-.018-.004q-.124-.028-.247-.06a5.6 5.6 0 0 1-1.127-.437l-.07-.038-.143-.084a5.8 5.8 0 0 1-1.165-.924l-.054-.057-.059-.065a5.946 5.946 0 0 1-.955-1.477l-.05-.117-.01-.02-.008-.023q-.055-.14-.104-.282a6.1 6.1 0 0 1-.311-1.567l-.001-.018-.004-.114a6.653 6.653 0 0 1 .126-1.457c.039-.196.054-.261.124-.498a8 8 0 0 1 .218-.636 14 14 0 0 1 .649-1.356 32 32 0 0 1 4.17-6.121 20 20 0 0 1 2.348-2.309l.096-.078a13 13 0 0 1 .894-.645 11 11 0 0 1 .92-.543l.107-.053q.11-.053.219-.103a8 8 0 0 1 .946-.358c.177-.053.123-.039.303-.08q.311-.072.629-.112a4 4 0 0 1 .666-.038 4.7 4.7 0 0 1 2.527.784c1.593 1.057 2.532 2.867 2.707 4.761.2 2.17-.537 4.383-1.634 6.219q-.438.731-.957 1.41c-1.4 1.815-3.187 3.308-5.053 4.606q-.741.516-1.503 1.002ZM40.167 43.908c.461 1.102.92 2.218 1.654 3.171a7.4 7.4 0 0 0 1.969 1.795 6.98 6.98 0 0 0 4.78.939 7.65 7.65 0 0 0 4.436-2.442 8.5 8.5 0 0 0 1.526-2.44c.437-1.08.61-2.197.724-3.349.315-3.175.266-6.39-.219-9.545-.373-2.43-1.033-4.929-2.454-6.973-.657-.945-1.5-1.79-2.51-2.353a6.46 6.46 0 0 0-3.501-.801c-2.541.136-4.854 1.596-6.335 3.621-1.607 2.2-2.32 4.95-2.429 7.642q-.038.98.034 1.958c.233 3.044 1.151 5.974 2.324 8.777Zm-.035-16.41q.1-.205.208-.404l.072-.13q.06-.101.12-.202a10 10 0 0 1 .777-1.1l.061-.074.051-.061.024-.027q.05-.059.103-.114.292-.316.616-.598a7.26 7.26 0 0 1 2.865-1.527c1-.269 2.104-.299 3.133-.02 1.013.275 1.96.876 2.673 1.607 1.608 1.649 2.41 3.917 2.897 6.127.291 1.326.455 2.64.564 4.01a38 38 0 0 1-.073 6.804c-.06.586-.124 1.173-.256 1.748a9 9 0 0 1-.13.502l-.04.136-.037.108a8 8 0 0 1-.458 1.07l-.074.14-.014.025-.004.007a7.545 7.545 0 0 1-.768 1.085l.037-.041-.114.127c-.269.29-.563.55-.87.799l-.033.023-.117.084a7 7 0 0 1-.747.456q-.127.063-.253.126l-.013.007-.02.009-.148.063a7 7 0 0 1-1.083.349l-.136.03-.082.016a6.7 6.7 0 0 1-1.868.066 6.5 6.5 0 0 1-1.878-.53l-.085-.04-.146-.075a6.834 6.834 0 0 1-1.596-1.172l-.023-.021-.03-.033a8 8 0 0 1-.637-.758 8.4 8.4 0 0 1-.729-1.195c-.607-1.207-1.124-2.565-1.582-3.865a27.6 27.6 0 0 1-1.14-4.182 20 20 0 0 1-.264-2.06c-.182-2.51.151-5.058 1.248-7.297zM52.443 46.61q-.014.016 0 0ZM38.15 61.948a6.78 6.78 0 0 0 1.898-4.171 7.3 7.3 0 0 0-.244-2.558c-.275-.982-.773-1.86-1.305-2.724a33.3 33.3 0 0 0-4.898-6.172c-1.515-1.5-3.294-2.904-5.338-3.591-.95-.32-1.975-.478-2.974-.35a5.7 5.7 0 0 0-2.838 1.195c-1.741 1.393-2.676 3.561-2.721 5.768-.05 2.397.893 4.762 2.241 6.708.348.503.73.98 1.131 1.44 1.646 1.861 3.672 3.316 5.796 4.583.894.533 1.8 1.097 2.797 1.418.768.246 1.588.37 2.394.32a6.25 6.25 0 0 0 4.06-1.866Zm-2.034.2c-.05.021-.027.011 0 0Zm-3.279.372a7 7 0 0 1-.395-.093 7 7 0 0 1-.568-.18 8.5 8.5 0 0 1-1.187-.555c-2.033-1.124-4.008-2.388-5.712-3.977a18 18 0 0 1-1.217-1.25c-1.453-1.66-2.598-3.714-2.954-5.91-.163-1.001-.146-1.957.098-2.946a6.453 6.453 0 0 1 .183-.573 7 7 0 0 1 .209-.5c.007-.016.077-.156.074-.153a7 7 0 0 1 .513-.826c.108-.149.075-.108.194-.248.6-.704 1.304-1.225 2.167-1.518.842-.286 1.78-.314 2.637-.154 1.957.367 3.692 1.568 5.156 2.862 1.793 1.583 3.361 3.44 4.716 5.405.638.925 1.29 1.884 1.764 2.905a6.997 6.997 0 0 1 .508 1.63l.005.025.003.02a8 8 0 0 1 .052.463q.02.251.02.502-.001.135-.007.27v.01l-.002.014-.016.177a6 6 0 0 1-.15.861l-.008.032-.005.017q-.149.489-.365.953v.002l-.002.001-.059.111a6 6 0 0 1-.426.67c-.024.032-.165.209-.056.077q-.078.096-.16.19a6 6 0 0 1-.556.556c-.026.023-.125.104-.116.098q-.194.15-.398.287a6 6 0 0 1-.632.358l-.023.01-.14.062a5.6 5.6 0 0 1-1.304.366l-.09.011q-.284.033-.57.037a6 6 0 0 1-1.092-.083l-.09-.017z"/></svg>