<svg xmlns="http://www.w3.org/2000/svg" fill="none" viewBox="0 0 24 24"><g clip-path="url(#a)"><mask id="b" width="19" height="18" x="2.8" y="3.223" fill="#000" maskUnits="userSpaceOnUse"><path fill="#fff" d="M2.8 3.223h19v18h-19z"/><path d="M11.45 12.398c.279-.076.821.026 1.202.212.373.186.687.525 1.254 1.38a7 7 0 0 0 .483.653c.084.085.152.186.152.229 0 .042.297.22.661.398 1.533.754 1.711.94 1.711 1.847 0 .49-.025.584-.254.846-.144.161-.44.381-.661.483-.525.262-1.516.263-2.66.009-1.143-.254-1.736-.238-2.735.067-.661.203-.983.255-1.61.255-.728 0-.805-.018-1.127-.255-.567-.406-.78-.796-.78-1.423 0-.787.238-1.211 1.018-1.796.313-.237 1.1-1.025 1.948-1.948.5-.55.906-.83 1.397-.957m5.912-2.524c.576-.144 1.414.085 1.414.39 0 .067.035.126.069.126.042.001.135.137.21.297.102.22.145.525.145 1.11 0 .77-.017.838-.339 1.49-.186.373-.432.78-.55.898-.119.11-.212.247-.212.28 0 .043-.06.077-.127.077-.068 0-.127.034-.127.085-.002.177-.67.422-1.17.422-.414 0-.55-.041-.83-.245-.694-.516-.914-1.55-.533-2.49.255-.627.44-.991.517-.991.026 0 .076-.069.11-.161.042-.136.28-.45.534-.703.245-.255.66-.526.89-.585m-10.41-.026c.507.051.906.365 1.321 1.026l.271.44-.034 1.042c-.026.966-.05 1.076-.28 1.508-.262.483-.643.923-.948 1.093-.22.11-.872.126-1.143.016-.348-.135-.814-.627-1.077-1.143-.237-.44-.262-.568-.262-1.27 0-.712.025-.823.288-1.365C5.4 10.55 5.91 10 6.29 9.882c.136-.042.432-.06.66-.034m6.7-4.489c.34-.178 1.296-.178 1.55 0 .44.305.704.618.924 1.093.322.703.338 1.82.025 2.71-.28.813-.754 1.448-1.253 1.669-.475.211-1.068.228-1.398.05-.695-.38-1.16-1.465-1.229-2.863-.033-.762-.025-.838.22-1.354.271-.576.73-1.085 1.161-1.305m-3.676-.136c.516 0 .6.026.906.272.212.17.45.49.61.821.271.534.271.534.237 1.61-.033.847-.084 1.169-.237 1.576-.22.583-.415.88-.567.888-.06 0-.11.035-.11.069-.001.135-.424.27-.83.27-.653 0-1.229-.49-1.686-1.44-.297-.61-.306-.678-.306-1.525 0-.914.018-.973.492-1.778.102-.17.5-.517.762-.661.093-.051.424-.102.729-.102"/></mask><path fill="#0092d0" d="m11.45 12.398.429 1.66.021-.006zm1.202.212.767-1.533-.014-.007zm1.254 1.38-1.428.948.002.004zm.483.653 1.212-1.212zm.152.229h-1.714v.027zm.661.398.757-1.538-.005-.002zm1.711 1.847h1.714zm-.254.846 1.278 1.144.015-.018zm-.661.483-.718-1.557-.049.024zm-2.66.009-.371 1.673zm-2.735.067-.5-1.64-.005.002zm-1.61.255v1.714zm-1.127-.255 1.017-1.38-.018-.013zm-.78-1.423H5.374zm1.018-1.796 1.028 1.372.006-.005zm1.948-1.948 1.263 1.159.006-.007zm7.31-3.481-.415-1.664-.015.004zm1.414.39h1.715v-.003zm.069.126.034-1.714h-.034zm.21.297 1.557-.718-.007-.016zm.145 1.11h1.715zm-.339 1.49 1.534.767.004-.008zm-.55.898 1.166 1.256.046-.044zm-.212.28 1.714.012v-.011zm-.127.077v-1.715h-.002zm-.127.085 1.714.011v-.011zm-1.17.422v1.715zm-.83-.245-1.023 1.376.016.01zm-.533-2.49-1.588-.645zm.517-.991v1.714h.042zm.11-.161 1.61.587q.015-.037.026-.076zm.534-.703 1.212 1.212.02-.02zm-9.522-.61-.189 1.703.019.002zm1.322 1.025 1.461-.898-.009-.014zm.271.44 1.713.056a1.7 1.7 0 0 0-.252-.953zm-.034 1.042L6.796 12.3v.011zm-.28 1.508 1.506.819.01-.017zm-.948 1.093.767 1.533.066-.035zm-1.143.016.644-1.588-.021-.009zM5.062 13.83l1.529-.777-.02-.036zM4.8 12.56H3.086zm.288-1.365-1.541-.75-.002.003zM6.29 9.882l.51 1.637zm7.361-4.523.779 1.527.018-.009zm1.55 0-.983 1.404.007.005zm.924 1.093 1.559-.713-.004-.01zm.025 2.71-1.617-.57-.004.012zm-1.253 1.669-.692-1.569-.007.003zm-1.398.05-.825 1.503.013.007zm-1.229-2.863-1.712.076v.007zm.22-1.354 1.549.736.002-.006zm-2.515-1.44V3.508zm.906.27L9.806 6.83l.005.003zm.61.822-1.541.75.013.026zm.237 1.61 1.713.068v-.015zm-.237 1.576 1.604.604.001-.002zm-.567.888v1.714q.05 0 .1-.002zm-.11.069 1.714.006v-.006zm-.83.27v1.714zM8.298 9.29l1.544-.744-.002-.005zm-.306-1.525H6.28zm.492-1.778-1.47-.882-.006.011zm.762-.661-.82-1.505-.004.002zm2.202 7.073.451 1.654a1 1 0 0 1-.23.035h.002l.037.006a1 1 0 0 1 .19.057l.753-1.54.753-1.54a4.2 4.2 0 0 0-1.09-.352c-.305-.055-.81-.112-1.317.026zm1.203.212-.766 1.533c-.04-.02-.032-.032.053.061.106.116.268.327.539.734l1.428-.947 1.429-.948c-.565-.851-1.094-1.555-1.916-1.966zm1.254 1.38-1.426.952c.109.163.226.33.33.471.075.1.223.299.367.442l1.212-1.212 1.212-1.212.054.058-.008-.01-.08-.105a9 9 0 0 1-.234-.334zm.483.653-1.213 1.212a1 1 0 0 1-.106-.13 1.547 1.547 0 0 1-.18-.396 1.7 1.7 0 0 1-.063-.457h3.428c0-.388-.131-.677-.166-.754a2 2 0 0 0-.166-.296 2.6 2.6 0 0 0-.322-.39zm.152.229-1.714.027a1.73 1.73 0 0 0 .489 1.18c.1.104.195.178.242.214.104.08.212.147.293.196.174.104.385.217.599.322l.752-1.54.752-1.541a5 5 0 0 1-.334-.178c-.04-.024-.028-.02.01.009.012.01.081.062.164.148a1.6 1.6 0 0 1 .355.57 1.7 1.7 0 0 1 .106.565zm.661.398-.756 1.538c.381.188.627.316.796.416.175.103.18.127.134.08a.75.75 0 0 1-.174-.322c-.017-.063-.003-.062-.003.135h3.428c0-.545-.038-1.393-.739-2.148a4 4 0 0 0-.898-.694 16 16 0 0 0-1.031-.543zm1.711 1.847H15.2c0 .118-.002.163-.003.178 0 .01.003-.057.033-.157a1.1 1.1 0 0 1 .127-.28c.033-.05.053-.069.01-.02l1.293 1.125 1.293 1.126a2.6 2.6 0 0 0 .563-.975c.118-.396.112-.793.112-.997zm-.254.846-1.277-1.143.024-.026-.005.005a1 1 0 0 1-.123.09q-.03.017.002 0l.718 1.557.719 1.556a4.1 4.1 0 0 0 1.22-.895zm-.661.483-.767-1.533c.079-.04.005.016-.335.017-.304 0-.709-.043-1.185-.149l-.372 1.674-.372 1.673a9 9 0 0 0 1.938.23c.573-.001 1.256-.077 1.86-.379zm-2.66.009.373-1.674c-.634-.14-1.222-.232-1.838-.216-.625.016-1.186.139-1.77.317l.5 1.64.5 1.64c.414-.127.65-.164.857-.17.217-.005.498.023 1.007.136zm-2.735.067-.505-1.638c-.515.158-.667.179-1.105.179v3.428c.816 0 1.308-.083 2.114-.33zm-1.61.255v-1.714l-.358-.005-.04-.002q.007 0 .06.01a1 1 0 0 1 .245.093l.037.022-.054-.039-1.017 1.38-1.017 1.38c.19.14.532.391 1.05.508.377.086.794.081 1.094.081zm-1.127-.255.999-1.393a1 1 0 0 1-.125-.102q-.006-.006.004.005a.3.3 0 0 1 .048.091q.01.027.011.038c.004.015-.002 0-.002-.062H5.373c0 .515.089 1.072.387 1.617.29.53.702.909 1.108 1.2zm-.78-1.423h1.715a1 1 0 0 1 .01-.169c.001 0-.004.018-.015.038-.016.027.018-.055.336-.293l-1.028-1.372-1.03-1.371c-.46.346-.935.768-1.264 1.35-.35.619-.437 1.242-.437 1.817zm1.018-1.796 1.034 1.367c.46-.348 1.353-1.257 2.177-2.156l-1.263-1.159-1.263-1.159c-.41.447-.802.857-1.124 1.178a16 16 0 0 1-.545.52l-.051.043zm1.948-1.948 1.27 1.152a2.5 2.5 0 0 1 .4-.375.5.5 0 0 1 .157-.074l-.43-1.66-.43-1.66c-.934.242-1.613.778-2.237 1.465zm7.31-3.481.416 1.663c-.055.013-.006 0 .053.016.027.008-.055-.008-.186-.1a1.45 1.45 0 0 1-.583-1.187l1.714-.003 1.715-.002c-.002-.909-.61-1.427-.864-1.606a2.9 2.9 0 0 0-.888-.408 3.64 3.64 0 0 0-1.792-.037zm1.414.39h-1.714c0 .304.073.624.235.917.087.157.546.924 1.548.924V8.676c.505 0 .87.22 1.067.382.199.165.318.342.386.465.137.247.193.503.193.74zm.069.126-.035 1.714a1.68 1.68 0 0 1-1.118-.458 1.3 1.3 0 0 1-.158-.183c-.031-.044-.036-.06-.028-.042l1.55-.734 1.549-.734a3 3 0 0 0-.264-.459c-.05-.07-.138-.19-.263-.31a1.75 1.75 0 0 0-1.199-.507zm.21.297-1.556.719c-.04-.089-.04-.134-.032-.075.009.068.019.205.019.466h3.429c0-.598-.03-1.238-.303-1.828zm.145 1.11h-1.714c0 .196-.002.302-.005.375-.004.062-.007.06 0 .033.006-.028.011-.034-.008.012a7 7 0 0 1-.149.312l1.537.759 1.538.758c.142-.288.326-.651.424-1.078.095-.418.091-.83.091-1.171zm-.339 1.49-1.533-.766a6 6 0 0 1-.31.54q-.01.015 0 0c.005-.006.033-.04.08-.087l1.213 1.211 1.212 1.212c.223-.223.409-.522.5-.671a9 9 0 0 0 .372-.672zm-.55.898-1.167-1.256c-.145.135-.27.28-.367.412a2 2 0 0 0-.164.255c-.027.05-.07.131-.109.233-.024.062-.12.308-.12.636h3.429a1.7 1.7 0 0 1-.196.784 1 1 0 0 1-.074.118.5.5 0 0 1-.066.074zm-.212.28-1.715-.01a1.65 1.65 0 0 1 .803-1.41c.275-.164.553-.218.785-.218v3.429c.299 0 .64-.071.962-.261.275-.164.873-.64.879-1.518zm-.127.077-.002-1.715c-.297 0-.663.072-1.01.294-.358.229-.83.73-.83 1.506h3.429c0 .725-.442 1.183-.753 1.382a1.55 1.55 0 0 1-.833.247zm-.127.085-1.714-.012c.003-.518.243-.865.356-1.003.122-.15.239-.233.282-.262.09-.061.134-.072.092-.056a1 1 0 0 1-.118.031c-.05.01-.075.01-.067.01v3.429c.487 0 .978-.11 1.357-.248.188-.069.43-.173.662-.33.113-.077.286-.208.447-.406.152-.186.413-.579.417-1.142zm-1.17.422v-1.714c-.08 0-.106-.002-.104-.002a.87.87 0 0 1 .296.097c.028.015.03.02-.013-.012l-1.008 1.386-1.008 1.387c.193.14.484.337.884.455.371.11.718.118.954.118zm-.83-.245 1.024-1.375c.031.023.003.022-.017-.07a.7.7 0 0 1 .05-.402l-1.59-.644-1.588-.644c-.604 1.49-.361 3.425 1.098 4.51zm-.533-2.49 1.59.643c.12-.296.206-.486.257-.584.03-.057.02-.032-.024.03-.02.026-.092.124-.217.232a1.678 1.678 0 0 1-1.09.402V9.61c-.646 0-1.058.351-1.155.435a2 2 0 0 0-.304.332c-.11.15-.195.305-.253.417-.125.24-.258.545-.392.876zm.517-.991.042 1.714c.656-.016 1.062-.393 1.126-.45.14-.126.235-.251.29-.33.117-.168.202-.344.262-.508l-1.61-.587-1.611-.587c.026-.072.07-.168.146-.278a1.65 1.65 0 0 1 .55-.485c.139-.075.405-.194.763-.203zm.11-.161 1.636.511a1.4 1.4 0 0 1-.11.255l.002-.003.024-.034a2 2 0 0 1 .194-.22l-1.212-1.212-1.213-1.213a6 6 0 0 0-.5.572c-.088.117-.337.445-.458.832zm.534-.703 1.232 1.191.004-.004a.4.4 0 0 1 .05-.043 1.4 1.4 0 0 1 .174-.118l-.023.01a1 1 0 0 1-.117.038l-.43-1.66-.43-1.659c-.391.101-.74.309-.95.446-.242.159-.512.369-.743.607zm-9.522-.61-.17 1.705a.4.4 0 0 1-.186-.069c-.004-.002.016.012.057.061.042.05.098.126.17.24l1.451-.912 1.452-.912c-.537-.855-1.329-1.692-2.603-1.82zm1.322 1.025-1.46.897.27.44 1.461-.897 1.46-.897-.27-.44zm.271.44-1.713-.056-.035 1.042 1.714.056 1.713.056.034-1.042zm-.034 1.042-1.714-.045c-.006.24-.012.402-.02.52l-.01.125-.004.037a.4.4 0 0 1 .016-.055s-.008.021-.063.124l1.515.802 1.516.802c.134-.253.298-.575.385-1.039.069-.364.08-.78.092-1.226zm-.28 1.508-1.505-.82a2 2 0 0 1-.248.361 1 1 0 0 1-.087.09c-.019.017 0-.004.06-.037l.832 1.499.833 1.498c.712-.396 1.288-1.159 1.621-1.772zm-.948 1.093-.766-1.534a1.3 1.3 0 0 1 .252-.093l.012-.002-.025.003a1 1 0 0 1-.152 0l.027.005c.02.004.075.017.153.049l-.644 1.588-.645 1.589c.469.19.988.205 1.267.2.177-.004.369-.018.557-.048.155-.024.441-.08.73-.224zm-1.143.016.623-1.597c.105.041.15.08.134.067a1 1 0 0 1-.08-.075 1.5 1.5 0 0 1-.225-.315l-1.529.777-1.528.776c.212.416.492.801.788 1.115.268.284.678.648 1.193.85zM5.062 13.83l1.51-.813c-.104-.193-.068-.152-.05-.07.004.025 0 .022-.003-.043a7 7 0 0 1-.005-.345H3.086c0 .325 0 .707.077 1.08.09.432.257.756.39 1.003zM4.8 12.56h1.714c0-.176.002-.276.006-.344.003-.061.006-.066.002-.046-.009.043-.026.05.109-.228l-1.543-.747-1.543-.747c-.128.264-.289.597-.376 1.009-.083.387-.083.77-.083 1.102zm.288-1.365 1.541.75c.086-.176.199-.336.297-.443l.057-.057.021-.018-.044.027a1 1 0 0 1-.16.065l-.509-1.637-.51-1.636c-.618.192-1.09.62-1.38.936a5.4 5.4 0 0 0-.854 1.262zM6.29 9.882l.51 1.637a1 1 0 0 1-.14.034H6.66l.018-.001q.028-.002.057-.001h.022l.005.001.19-1.704.188-1.704a4 4 0 0 0-.646-.016 3 3 0 0 0-.714.118zm7.361-4.523.797 1.518a1 1 0 0 1-.178.074q-.03.006-.003.001a1.3 1.3 0 0 1 .345-.003c.007.001-.019-.002-.068-.019a1.355 1.355 0 0 1-.326-.167l.983-1.404.983-1.404a2.5 2.5 0 0 0-.997-.386 4.721 4.721 0 0 0-1.453-.003c-.21.033-.55.102-.88.275zm1.55 0-.976 1.41c.192.132.254.21.345.405l1.555-.722 1.555-.722a4.2 4.2 0 0 0-1.503-1.78zm.924 1.093-1.559.713c.103.226.162.874-.033 1.427l1.617.57 1.617.57c.432-1.226.457-2.813-.083-3.993zm.025 2.71-1.62-.558c-.09.262-.2.46-.295.586-.106.14-.135.118-.03.072l.692 1.569.691 1.568c1.138-.502 1.839-1.677 2.184-2.68zm-1.253 1.669-.7-1.566a.36.36 0 0 1-.112.024c-.017 0-.012-.002.015.003a.867.867 0 0 1 .211.08l-.812 1.51-.812 1.51c.523.28 1.087.338 1.515.323.455-.015.94-.117 1.393-.319zm-1.398.05.825-1.502c.104.057.024.062-.1-.224-.113-.267-.215-.678-.241-1.22l-1.713.083-1.712.083c.042.856.207 1.686.516 2.406.301.7.802 1.44 1.6 1.877zm-1.229-2.863 1.713-.076a10 10 0 0 1-.013-.386c0-.074.004-.072-.001-.037-.015.092-.057.147.07-.12l-1.549-.735-1.548-.736c-.12.25-.287.6-.36 1.051-.061.387-.039.79-.024 1.115zm.22-1.354 1.551.73c.063-.134.152-.267.248-.374.103-.115.163-.145.141-.134l-.779-1.527-.778-1.527c-.853.435-1.545 1.276-1.934 2.102zm-2.515-1.44v1.714l.19.003c.011 0-.053-.003-.15-.032a1 1 0 0 1-.243-.108l-.02-.014.053.043 1.076-1.335 1.075-1.335c-.16-.13-.484-.393-.956-.535-.405-.121-.81-.116-1.025-.116zm.906.27L9.81 6.835c-.028-.023-.036-.034-.027-.023l.045.056c.044.059.089.131.122.2l1.541-.751 1.541-.75c-.232-.477-.61-1.033-1.08-1.41zm.61.822-1.528.776.076.152c.018.036.022.048.022.047a.6.6 0 0 1-.033-.123c-.004-.026.002-.008.002.122s-.006.303-.015.581l1.713.054 1.714.054c.014-.453.036-.919-.022-1.312-.077-.523-.286-.902-.4-1.127zm.237 1.61-1.712-.07a7 7 0 0 1-.057.765 1.2 1.2 0 0 1-.073.279l1.605.602 1.605.601c.25-.667.31-1.21.345-2.11zm-.237 1.576-1.604-.605q-.065.17-.108.26c-.03.064-.043.085-.038.077l.04-.055c.023-.028.065-.077.13-.134.106-.094.418-.337.913-.366l.1 1.711.1 1.712a1.92 1.92 0 0 0 1.157-.488c.205-.18.349-.379.443-.525.19-.296.344-.644.471-.983zm-.567.888V8.676a1.86 1.86 0 0 0-.999.29C9.7 9.11 9.1 9.58 9.1 10.459h3.429c0 .844-.575 1.28-.76 1.399a1.57 1.57 0 0 1-.844.246zm-.11.069L9.1 10.452c.002-.447.18-.78.32-.967.137-.182.278-.29.35-.34.144-.098.25-.13.254-.131.025-.008-.004 0-.04 0v3.429c.371 0 .757-.058 1.095-.167a2.5 2.5 0 0 0 .634-.306c.134-.091.812-.57.816-1.505zm-.83.27V9.015c.057 0 .114.012.16.03.042.017.054.03.037.016-.045-.038-.175-.176-.339-.516l-1.544.745-1.544.744c.553 1.147 1.572 2.41 3.23 2.41zM8.298 9.29 9.84 8.54c-.159-.325-.134-.306-.124-.256.003.018-.001.007-.005-.08a12 12 0 0 1-.005-.44H6.28c0 .367-.005.785.074 1.184.088.448.266.807.404 1.091zm-.306-1.525h1.714c0-.237.002-.36.007-.444.005-.07.009-.062 0-.028-.01.034-.016.035.019-.033.042-.082.106-.193.23-.403l-1.478-.87-1.476-.87c-.204.345-.463.768-.6 1.26-.138.498-.13.991-.13 1.388zm.492-1.778 1.47.882a1 1 0 0 1-.088.127l-.013.016a1.778 1.778 0 0 1 .226-.188l-.008.005-.825-1.503-.824-1.503a4.5 4.5 0 0 0-.743.53c-.152.133-.462.415-.665.752zm.762-.661.821 1.505a1.5 1.5 0 0 1-.305.123q-.028.006.013-.001a1.4 1.4 0 0 1 .2-.014V3.509c-.24 0-.48.02-.688.05-.104.014-.22.035-.337.063a2.2 2.2 0 0 0-.525.198z" mask="url(#b)"/><path stroke="#0092d0" stroke-linecap="round" stroke-linejoin="round" stroke-width="1.714" d="M12 23.04c6.097 0 11.04-4.943 11.04-11.04S18.097.96 12 .96.96 5.903.96 12 5.903 23.04 12 23.04"/></g><defs><clipPath id="a"><path fill="#fff" d="M0 0h24v24H0z"/></clipPath></defs></svg>