<svg xmlns="http://www.w3.org/2000/svg" fill="none" viewBox="0 0 32 32"><g clip-path="url(#a)"><path fill="#0092d0" fill-rule="evenodd" stroke="#0092d0" stroke-width=".5" d="M8.34 2.8c.254 0 .636.17.848.383.212.192.382.49.36.639 0 .127-.339 1-.785 1.895-.636 1.405-.763 1.83-.679 2.746.064.703.234 1.277.51 1.576.233.255.806.66 1.273.894.764.383 1.188.425 4.604.34 3.692-.063 3.777-.063 4.287-.596.276-.298.954-1.788 1.527-3.406.807-2.236 1.189-3.045 1.762-3.62.657-.66.89-.745 2.143-.809.89-.063 1.633.022 2.122.213.403.17 1.018.682 1.379 1.107.36.447.912 1.107 1.273 1.49.36.384 1.103.831 1.761 1.044.615.192 1.167.532 1.23.724.086.213.043.724-.084 1.128-.127.405-.615 1.107-1.082 1.533-.488.447-1.23.894-1.655 1.022-.446.107-1.104.213-1.443.213-.36 0-.764.128-.913.255-.19.192-.254 1.171-.254 3.151 0 2.47-.064 3.002-.425 3.726-.381.767-.424 1.278-.445 8.73l.552.255c.297.149.594.49.657.745.085.277.085.617 0 .745-.085.192-.827.277-2.567.277-1.655 0-2.631-.085-3.013-.298-.34-.15-.722-.533-.85-.852-.19-.362-.275-1.554-.275-6.089l-.997-.128c-.573-.085-1.21-.212-1.443-.298-.318-.106-.7.085-1.591.83a26 26 0 0 1-1.953 1.47c-.785.468-.806.49-.806 1.788-.021 1.235.042 1.363.53 1.597.297.149.68.51.85.809.169.298.275.681.211.852-.085.255-.466.319-1.697.319-.934 0-1.825-.128-2.186-.298-.318-.15-.7-.533-.827-.852-.191-.362-.276-1.597-.276-6.515H9.23c-.636 0-.721.064-.636.426.063.234-.022.49-.149.554-.148.063-.382.02-.488-.107q-.212-.213.043-.49c.19-.212 0-.297-.955-.425a34 34 0 0 1-1.783-.277c-.509-.085-.7.021-1.315.894-.658.916-.7 1.065-.425 1.448.17.234.297.66.297.958s-.106.703-.254.915c-.255.362-.382.32-1.655-.596-.764-.532-1.486-1.17-1.634-1.426C.127 23.132 0 22.685 0 22.387c0-.34.573-1.363 1.549-2.768 1.188-1.703 1.867-2.427 2.758-3.044.68-.426 1.783-1.363 3.756-3.343l-.615-.702c-.34-.362-.828-1.108-1.082-1.64-.276-.532-.53-1.49-.594-2.129-.064-.83.02-1.597.34-2.661.232-.83.742-1.895 1.081-2.406C7.64 3.098 8 2.8 8.34 2.8ZM6.768 6.95c-.127.597-.191 1.47-.106 1.98.063.49.318 1.278.551 1.746.234.469.764 1.193 1.168 1.597.572.575.7.83.551 1.128-.106.192-.891 1.044-1.74 1.853-.87.83-1.994 1.767-2.525 2.107-.53.32-1.188.959-1.485 1.384-.297.426-.955 1.342-1.464 2.044-.722 1.022-.891 1.405-.785 1.874.085.362.466.787 1.082 1.213.53.362.955.596.955.533 0-.064-.17-.384-.361-.746l-.382-.617c1.655-2.342 2.164-3.002 2.228-3.002s.594.149 1.167.32c.594.19 1.698.319 2.504.319.997 0 1.676-.128 2.27-.426.467-.234.892-.532.955-.639.064-.106.722-.213 1.486-.213.997 0 1.888.17 3.246.66 1.018.362 2.525.788 3.331.916l1.486.255c.212 6.196.254 6.536.636 6.813.234.17.828.298 1.337.298.488 0 .891-.042.891-.106s-.233-.192-.53-.32l-.53-.213v-7.132c1.548-1.15 2.227-1.83 2.482-2.235.382-.554.51-1.043.488-1.916 0-.66-.106-1.278-.255-1.448-.233-.213-.233-.298 0-.532.149-.128.255-.575.255-.958 0-.682 0-.682-.573-.362-.34.17-.806.319-1.06.319-.277 0-.786-.17-1.126-.383-.36-.192-.806-.703-.997-1.107-.19-.405-.403-1.235-.445-1.81-.064-.617.042-1.576.254-2.3.212-.787.446-1.213.658-1.213.17 0 .36.107.424.213s-.042.617-.212 1.128c-.19.49-.318 1.278-.318 1.746 0 .469.19 1.256.424 1.767.255.554.616.937.913 1.022.254.064.658.064.891.022.233-.064.594-.49.828-.937.297-.618.382-1.086.297-1.98-.064-.639-.361-1.789-.658-2.555-.382-.958-.488-1.448-.34-1.597q.223-.223.637.32c.233.298.615 1.15.849 1.916s.403 1.724.403 2.129v.745c1.973-.256 2.822-.469 3.183-.639s.721-.51.848-.745c.149-.298.128-.618-.02-1-.15-.363-.659-.831-1.274-1.172a4.6 4.6 0 0 1-1.655-1.596c-.382-.64-.913-1.171-1.38-1.384-.424-.213-1.188-.384-1.718-.384s-1.167.107-1.422.213c-.276.128-.615.405-.742.639-.149.234-.764 1.746-1.358 3.364-.616 1.597-1.189 3.023-1.274 3.13-.106.106-.148.383-.084.596.063.191-.022.425-.149.49a.51.51 0 0 1-.488-.086c-.148-.149-.424-.149-.849-.021-.36.106-2.206.191-4.137.191-3.417 0-3.523 0-4.647-.574C8.72 11.253 8 10.72 7.766 10.4c-.36-.49-.445-.915-.445-2.235.02-1.426.106-1.81.679-2.917.382-.702.615-1.341.53-1.448-.085-.085-.212-.149-.276-.149-.085 0-.382.511-.679 1.129A13.6 13.6 0 0 0 6.77 6.95Zm4.053 17.352c0 2.917.042 3.236.424 3.62.318.319.7.425 1.592.425.7 0 1.124-.085 1.06-.213-.063-.128-.381-.255-.742-.32l-.637-.106v-3.832c2.695-1.895 3.501-2.555 3.544-2.661.042-.107-.425-.383-1.04-.575-.615-.213-1.591-.383-2.185-.383-.743.021-1.21.128-1.528.426-.467.404-.488.575-.488 3.619Zm12.625-3.364c.085 5.11.191 6.345.318 6.345.128 0 .446.234.743.532.318.32.721.51 1.018.468.446-.063.446-.085-.106-.319l-.594-.256c0-5.77-.063-7.451-.148-7.43-.106 0-.403.15-.7.34zM7.214 23.004c.107 0 .255.15.319.32a.42.42 0 0 1-.212.49c-.17.084-.404.084-.488 0-.085-.086-.085-.299 0-.49.084-.17.254-.32.381-.32Zm-.848 1.49c.127 0 .276.128.34.277a.43.43 0 0 1-.107.469q-.233.213-.467 0a.43.43 0 0 1-.106-.469c.085-.149.234-.276.34-.276Zm-.425 1.704c.128 0 .255.085.297.17.064.085.022.298-.084.469-.128.234-.276.255-.446.106a.43.43 0 0 1-.106-.468c.085-.15.233-.277.34-.277ZM5.73 27.9c.127 0 .276.128.34.277a.43.43 0 0 1-.106.468q-.234.213-.467 0a.43.43 0 0 1-.106-.468c.085-.15.233-.277.34-.277ZM27.457 6.25c.128.042.234.213.234.383s-.17.32-.382.362c-.191.021-.382-.085-.403-.234s.042-.34.148-.426a.46.46 0 0 1 .403-.085Zm-7.299 6.323c.127 0 .276.128.34.277a.43.43 0 0 1-.107.468q-.232.213-.466 0a.43.43 0 0 1-.106-.468c.084-.15.233-.277.34-.277Zm1.273.852c.127 0 .276.127.34.277a.43.43 0 0 1-.106.468q-.234.213-.467 0a.43.43 0 0 1-.106-.469c.085-.149.233-.276.34-.276Zm1.273.851c.128 0 .276.128.34.277a.43.43 0 0 1-.106.469q-.233.211-.467 0a.43.43 0 0 1-.106-.469c.085-.149.233-.277.34-.277Zm1.698.426c.127 0 .276.128.34.277a.43.43 0 0 1-.107.468q-.232.213-.466 0a.43.43 0 0 1-.107-.468c.085-.15.234-.277.34-.277Z" clip-rule="evenodd"/></g><defs><clipPath id="a"><path fill="#fff" d="M0 0h32v32H0z"/></clipPath></defs></svg>