<svg xmlns="http://www.w3.org/2000/svg" fill="none" viewBox="0 0 32 32"><g fill="#0092d0" clip-path="url(#a)"><path d="M18.667 30.333h-5.334C6.093 30.333 3 27.24 3 20v-8C3 4.76 6.093 1.667 13.333 1.667h5.334C25.907 1.667 29 4.76 29 12v8c0 7.24-3.093 10.333-10.333 10.333M13.333 3.667C7.187 3.667 5 5.853 5 12v8c0 6.147 2.187 8.333 8.333 8.333h5.334C24.813 28.333 27 26.147 27 20v-8c0-6.147-2.187-8.333-8.333-8.333z"/><path d="M20 14.44h-8c-1.653 0-3-1.347-3-3v-1.333c0-1.654 1.347-3 3-3h8c1.653 0 3 1.346 3 3v1.333c0 1.653-1.347 3-3 3m-8-5.333c-.547 0-1 .453-1 1v1.333c0 .547.453 1 1 1h8c.547 0 1-.453 1-1v-1.333c0-.547-.453-1-1-1zM10.867 19.893c-.174 0-.347-.04-.507-.106a1.3 1.3 0 0 1-.426-.28 1.32 1.32 0 0 1-.387-.947c0-.173.027-.347.093-.507.067-.173.16-.306.294-.44.053-.053.12-.12.2-.16a.7.7 0 0 1 .226-.12 1.331 1.331 0 0 1 1.747.72c.066.16.106.334.106.507 0 .36-.146.693-.4.947a1.32 1.32 0 0 1-.946.386M16.214 19.893a1.32 1.32 0 0 1-1.333-1.333c0-.173.027-.347.093-.507.067-.173.16-.306.293-.44a.8.8 0 0 1 .2-.16.7.7 0 0 1 .227-.12 1 1 0 0 1 .253-.08c.254-.053.52-.026.774.08.16.067.306.16.427.28.12.134.226.267.293.44.067.16.107.334.107.507 0 .36-.147.693-.4.947a1.31 1.31 0 0 1-.934.386M21.533 19.893c-.173 0-.347-.04-.507-.106a1.32 1.32 0 0 1-.72-.72 1.3 1.3 0 0 1-.093-.507c0-.173.027-.347.093-.507.067-.173.16-.306.294-.44.493-.493 1.386-.493 1.88 0 .253.254.4.6.4.947 0 .36-.147.693-.4.947a1.33 1.33 0 0 1-.947.386M10.88 25.227a1.32 1.32 0 0 1-.947-.387 1.33 1.33 0 0 1-.4-.947c0-.346.147-.693.4-.946a1.2 1.2 0 0 1 .2-.16.7.7 0 0 1 .227-.12 1 1 0 0 1 .253-.08c.44-.08.894.053 1.2.36.067.066.12.133.173.2l.12.24.08.24c.014.093.027.173.027.266 0 .36-.146.694-.4.947a1.3 1.3 0 0 1-.933.387M16.214 25.227a1.32 1.32 0 0 1-.947-.387 1.33 1.33 0 0 1-.4-.947c0-.346.147-.693.4-.946.307-.307.774-.44 1.2-.36.08.013.174.04.254.08.08.026.16.066.226.12.067.04.134.106.2.16.254.253.387.6.387.946a1.32 1.32 0 0 1-1.32 1.334M21.533 25.227a1.32 1.32 0 0 1-1.32-1.333c0-.347.133-.694.387-.947.12-.12.266-.214.426-.28.494-.2 1.094-.094 1.454.28.253.253.386.6.386.946 0 .36-.133.694-.386.947-.12.12-.267.213-.427.28s-.333.107-.52.107"/></g><defs><clipPath id="a"><path fill="#fff" d="M0 0h32v32H0z"/></clipPath></defs></svg>